<svg xmlns="http://www.w3.org/2000/svg" width="11.4" height="10" viewBox="0 0 11.4 10"><rect width="1.4" height="10" rx="0.7" fill="#fff"/><path d="M.7,0a.7.7,0,0,1,.7.7V9.3A.7.7,0,0,1,0,9.3V.7A.7.7,0,0,1,.7,0Z" fill="#0f3b5d"/><rect width="1.4" height="10" rx="0.7" transform="translate(5)" fill="#fff"/><path d="M.7,0a.7.7,0,0,1,.7.7V9.3A.7.7,0,0,1,0,9.3V.7A.7.7,0,0,1,.7,0Z" transform="translate(5)" fill="#0f3b5d"/><rect width="1.4" height="10" rx="0.7" transform="translate(10)" fill="#fff"/><path d="M.7,0a.7.7,0,0,1,.7.7V9.3A.7.7,0,0,1,0,9.3V.7A.7.7,0,0,1,.7,0Z" transform="translate(10)" fill="#0f3b5d"/></svg>