<svg xmlns="http://www.w3.org/2000/svg" width="18" height="18" viewBox="0 0 18 18"><path d="M14.786,0H3.214A3.218,3.218,0,0,0,0,3.214V14.786A3.218,3.218,0,0,0,3.214,18H14.786A3.218,3.218,0,0,0,18,14.786V3.214A3.218,3.218,0,0,0,14.786,0Zm1.929,14.786a1.929,1.929,0,0,1-1.929,1.929H3.214a1.929,1.929,0,0,1-1.929-1.929V3.214A1.929,1.929,0,0,1,3.214,1.286H14.786a1.929,1.929,0,0,1,1.929,1.929Z"/><g transform="translate(5.143 5.143)"><path d="M143.6,139.747h-2.571v-2.571a.643.643,0,1,0-1.286,0v2.571h-2.571a.643.643,0,1,0,0,1.286h2.571V143.6a.643.643,0,1,0,1.286,0v-2.571H143.6a.643.643,0,1,0,0-1.286Z" transform="translate(-136.533 -136.533)"/></g></svg>