<svg xmlns="http://www.w3.org/2000/svg" width="33.429" height="33.429" viewBox="0 0 33.429 33.429"><path d="M27.959.5H6.469A5.972,5.972,0,0,0,.5,6.469v21.49a5.972,5.972,0,0,0,5.969,5.969H20.462A9.032,9.032,0,0,1,18.5,31.541,9.538,9.538,0,0,1,31.541,18.5a9.032,9.032,0,0,1,2.388,1.958V6.469A5.972,5.972,0,0,0,27.959.5ZM10.051,23.184a1.182,1.182,0,0,1,1.194-1.194h2.388a1.194,1.194,0,0,1,0,2.388H11.245a1.182,1.182,0,0,1-1.194-1.194Zm8.357-5.969H11.245a1.194,1.194,0,1,1,0-2.388h7.163a1.194,1.194,0,1,1,0,2.388Zm4.776-7.163H11.245a1.194,1.194,0,1,1,0-2.388H23.184a1.194,1.194,0,1,1,0,2.388Z" transform="translate(-0.5 -0.5)" fill="#fff"/><path d="M20.707,10.583l-.024-.024A7.159,7.159,0,1,0,10.558,20.684l.025.023a1.251,1.251,0,0,1,.263.239c.024.024.024.048.048.072A7.156,7.156,0,0,0,20.946,10.846,1.252,1.252,0,0,1,20.707,10.583Zm-.573,3.582L15.359,18.94a1.154,1.154,0,0,1-1.671,0L11.3,16.552a1.182,1.182,0,1,1,1.671-1.671l1.552,1.528,3.94-3.916a1.182,1.182,0,1,1,1.671,1.671Z" transform="translate(10.548 10.548)" fill="#fff"/></svg>