<svg xmlns="http://www.w3.org/2000/svg" width="20" height="20" viewBox="0 0 20 20"><g transform="translate(-0.5 -0.5)"><path d="M16.929.5H4.071A3.573,3.573,0,0,0,.5,4.071V16.929A3.573,3.573,0,0,0,4.071,20.5h8.371a5.4,5.4,0,0,1-1.171-1.429,5.706,5.706,0,0,1,7.8-7.8A5.4,5.4,0,0,1,20.5,12.443V4.071A3.573,3.573,0,0,0,16.929.5ZM6.214,14.071a.707.707,0,0,1,.714-.714H8.357a.714.714,0,0,1,0,1.429H6.929a.707.707,0,0,1-.714-.714Zm5-3.571H6.929a.714.714,0,0,1,0-1.429h4.286a.714.714,0,1,1,0,1.429Zm2.857-4.286H6.929a.714.714,0,0,1,0-1.429h7.143a.714.714,0,0,1,0,1.429Z" transform="translate(0 0)" fill="#8e8e8e"/><path d="M15.788,9.731l-.014-.014a4.283,4.283,0,1,0-6.058,6.058l.015.014a.749.749,0,0,1,.157.143c.014.014.014.029.029.043a4.281,4.281,0,0,0,6.014-6.086A.749.749,0,0,1,15.788,9.731Zm-.343,2.143-2.857,2.857a.69.69,0,0,1-1,0L10.159,13.3a.707.707,0,1,1,1-1l.929.914,2.357-2.343a.707.707,0,1,1,1,1Z" transform="translate(3.412 3.412)" fill="#8e8e8e"/></g></svg>