<svg xmlns="http://www.w3.org/2000/svg" width="180.797" height="61.301" viewBox="0 0 180.797 61.301"><g transform="translate(0.65 0.65)"><path d="M165.2,0H14.3c-.55,0-1.093,0-1.642,0-.459,0-.915.012-1.378.019A19.822,19.822,0,0,0,8.276.287a10,10,0,0,0-2.851.94A9.657,9.657,0,0,0,3,3,9.388,9.388,0,0,0,1.229,5.427,9.9,9.9,0,0,0,.292,8.282a19.49,19.49,0,0,0-.269,3c-.014.46-.015.921-.023,1.381V47.338c.007.466.009.917.023,1.383a19.488,19.488,0,0,0,.269,3,9.881,9.881,0,0,0,.937,2.856A9.312,9.312,0,0,0,3,57,9.411,9.411,0,0,0,5.424,58.77a10.051,10.051,0,0,0,2.851.946,20.183,20.183,0,0,0,3.006.265c.463.01.919.016,1.378.016.549,0,1.092,0,1.642,0H165.2c.539,0,1.087,0,1.626,0,.457,0,.926-.006,1.383-.016a19.918,19.918,0,0,0,3-.265,10.206,10.206,0,0,0,2.862-.946A9.416,9.416,0,0,0,176.5,57a9.593,9.593,0,0,0,1.772-2.421,9.906,9.906,0,0,0,.929-2.856,20.26,20.26,0,0,0,.279-3c.006-.466.006-.917.006-1.383.012-.545.012-1.087.012-1.641V14.3c0-.549,0-1.094-.012-1.638,0-.46,0-.921-.006-1.381a20.26,20.26,0,0,0-.278-3,9.927,9.927,0,0,0-.929-2.855,9.7,9.7,0,0,0-4.2-4.2,10.151,10.151,0,0,0-2.862-.94,19.566,19.566,0,0,0-3-.265c-.457-.007-.926-.016-1.383-.019-.539,0-1.087,0-1.626,0Z" transform="translate(0)" fill="rgba(0,0,0,0)"/><path d="M165.2-.65c.535,0,1.089,0,1.63,0,.376,0,.762.009,1.135.015l.255,0a20.265,20.265,0,0,1,3.1.274,10.8,10.8,0,0,1,3.048,1l0,0a10.29,10.29,0,0,1,4.48,4.481l0,0a10.566,10.566,0,0,1,.989,3.042,20.967,20.967,0,0,1,.287,3.1c.006.465.006.933.006,1.386.012.548.012,1.106.012,1.645V45.7c0,.565,0,1.1-.012,1.648,0,.471,0,.916-.006,1.384a20.988,20.988,0,0,1-.288,3.1,10.539,10.539,0,0,1-.989,3.041l0,0a10.227,10.227,0,0,1-1.89,2.583,10.049,10.049,0,0,1-2.592,1.888,10.85,10.85,0,0,1-3.046,1.007,20.649,20.649,0,0,1-3.1.275c-.48.011-.95.016-1.394.016-.537,0-1.091,0-1.626,0H14.3c-.538,0-1.1,0-1.646,0-.437,0-.891-.005-1.385-.016a20.9,20.9,0,0,1-3.1-.274A10.7,10.7,0,0,1,5.13,59.349a10.041,10.041,0,0,1-2.592-1.887A9.943,9.943,0,0,1,.649,54.874a10.518,10.518,0,0,1-1-3.044,20.2,20.2,0,0,1-.277-3.1c-.01-.322-.013-.641-.017-.949,0-.145,0-.29-.006-.437V12.656q0-.22.006-.44c0-.309.007-.628.017-.944a20.209,20.209,0,0,1,.278-3.1,10.539,10.539,0,0,1,1-3.041,10.017,10.017,0,0,1,1.889-2.6A10.287,10.287,0,0,1,5.128.649a10.641,10.641,0,0,1,3.039-1,20.545,20.545,0,0,1,3.107-.274l.277,0c.361-.006.735-.012,1.105-.015.551,0,1.108,0,1.646,0H165.2Zm8.577,2.457A9.493,9.493,0,0,0,171.1.928a18.969,18.969,0,0,0-2.9-.256l-.259,0c-.37-.006-.752-.012-1.121-.015-.537,0-1.088,0-1.621,0H14.3c-.561,0-1.092,0-1.639,0-.363,0-.717.008-1.091.014l-.28,0a19.241,19.241,0,0,0-2.91.256,9.334,9.334,0,0,0-2.664.879A8.99,8.99,0,0,0,3.456,3.455,8.726,8.726,0,0,0,1.809,5.72,9.244,9.244,0,0,0,.933,8.389a18.9,18.9,0,0,0-.26,2.9v.012c-.009.306-.013.622-.017.926q0,.22-.006.44V47.333c0,.147,0,.292.006.436,0,.318.007.619.017.932v.012a18.9,18.9,0,0,0,.26,2.9,9.223,9.223,0,0,0,.876,2.67,8.647,8.647,0,0,0,1.644,2.253l.005.005a8.745,8.745,0,0,0,2.26,1.646,9.392,9.392,0,0,0,2.668.885,19.578,19.578,0,0,0,2.9.256H11.3c.486.011.932.016,1.364.016.55,0,1.081,0,1.642,0H165.2c.534,0,1.085,0,1.622,0,.44,0,.9-.005,1.372-.016h.006a19.328,19.328,0,0,0,2.9-.257,9.541,9.541,0,0,0,2.675-.885,8.749,8.749,0,0,0,2.257-1.645l0,0a8.93,8.93,0,0,0,1.652-2.257,9.246,9.246,0,0,0,.866-2.665,19.685,19.685,0,0,0,.27-2.91c.006-.458.006-.9.006-1.371v-.014c.012-.538.012-1.067.012-1.626V14.3c0-.559,0-1.087-.012-1.623v-.014c0-.451,0-.917-.006-1.373a19.663,19.663,0,0,0-.269-2.9,9.272,9.272,0,0,0-.867-2.668A9,9,0,0,0,173.779,1.807Z" transform="translate(0)" fill="#727272"/><path d="M32.69,25.911a7.719,7.719,0,0,1,3.676-6.477,7.9,7.9,0,0,0-6.226-3.366c-2.619-.275-5.159,1.567-6.493,1.567-1.36,0-3.416-1.54-5.629-1.495A8.291,8.291,0,0,0,11.042,20.4c-3.017,5.223-.766,12.9,2.123,17.121,1.446,2.067,3.135,4.377,5.346,4.295,2.164-.09,2.972-1.38,5.583-1.38,2.587,0,3.346,1.38,5.6,1.328,2.322-.038,3.784-2.076,5.179-4.163a17.1,17.1,0,0,0,2.368-4.824,7.459,7.459,0,0,1-4.554-6.862ZM28.43,13.292a7.6,7.6,0,0,0,1.738-5.445,7.733,7.733,0,0,0-5,2.589,7.232,7.232,0,0,0-1.784,5.243,6.394,6.394,0,0,0,5.049-2.387ZM58.648,36.786h-7.1l-1.705,5.035H46.835l6.725-18.627h3.124L63.41,41.821H60.352Zm-6.365-2.323h5.628l-2.774-8.171h-.078Zm25.651.568c0,4.22-2.259,6.931-5.667,6.931a4.6,4.6,0,0,1-4.273-2.376h-.064v6.727H65.142V28.24h2.7V30.5h.051a4.817,4.817,0,0,1,4.324-2.4c3.447,0,5.719,2.725,5.719,6.933Zm-2.865,0c0-2.749-1.421-4.557-3.589-4.557-2.13,0-3.562,1.846-3.562,4.557,0,2.736,1.432,4.569,3.562,4.569,2.168,0,3.589-1.794,3.589-4.569Zm17.813,0c0,4.22-2.259,6.931-5.668,6.931a4.6,4.6,0,0,1-4.273-2.376h-.064v6.727H80.089V28.24h2.7V30.5h.051a4.817,4.817,0,0,1,4.324-2.4c3.447,0,5.719,2.725,5.719,6.933Zm-2.866,0c0-2.749-1.421-4.557-3.589-4.557-2.13,0-3.562,1.846-3.562,4.557,0,2.736,1.432,4.569,3.562,4.569,2.168,0,3.589-1.794,3.589-4.569Zm12.743,1.6c.207,1.847,2,3.06,4.453,3.06,2.35,0,4.04-1.213,4.04-2.878,0-1.446-1.02-2.311-3.433-2.9l-2.414-.582C101.985,32.5,100.4,30.9,100.4,28.3c0-3.214,2.8-5.421,6.776-5.421,3.937,0,6.636,2.207,6.727,5.421h-2.814c-.168-1.859-1.705-2.981-3.951-2.981s-3.782,1.135-3.782,2.788c0,1.317.981,2.092,3.382,2.685l2.052.5c3.822.9,5.408,2.439,5.408,5.163,0,3.485-2.774,5.668-7.189,5.668-4.131,0-6.92-2.131-7.1-5.5Zm17.455-11.6V28.24H122.8v2.208h-2.583v7.487c0,1.163.517,1.705,1.652,1.705a8.712,8.712,0,0,0,.917-.064V41.77a7.655,7.655,0,0,1-1.548.129c-2.749,0-3.822-1.033-3.822-3.666V30.448h-1.975V28.24h1.975V25.026Zm4.077,10c0-4.273,2.517-6.958,6.441-6.958s6.442,2.685,6.442,6.958-2.492,6.958-6.442,6.958S124.291,39.316,124.291,35.031Zm10.043,0c0-2.931-1.343-4.661-3.6-4.661s-3.6,1.743-3.6,4.661c0,2.943,1.343,4.66,3.6,4.66S134.334,37.974,134.334,35.031Zm5.139-6.791h2.659v2.311h.064a3.239,3.239,0,0,1,3.267-2.454,4.3,4.3,0,0,1,.955.1V30.81a3.9,3.9,0,0,0-1.253-.168,2.809,2.809,0,0,0-2.9,3.124v8.055h-2.788Zm19.8,9.592c-.375,2.465-2.776,4.157-5.848,4.157-3.951,0-6.4-2.647-6.4-6.894s2.465-7.022,6.286-7.022c3.757,0,6.12,2.581,6.12,6.7v.955h-9.592V35.9a3.537,3.537,0,0,0,3.653,3.847,3.072,3.072,0,0,0,3.136-1.91Zm-9.423-4.053h6.79a3.266,3.266,0,0,0-3.331-3.447,3.438,3.438,0,0,0-3.459,3.447ZM51.935,9.173a3.959,3.959,0,0,1,4.211,4.447c0,2.859-1.545,4.5-4.211,4.5H48.7V9.173Zm-1.843,7.684h1.687a2.814,2.814,0,0,0,2.952-3.219,2.821,2.821,0,0,0-2.952-3.2H50.092Zm7.624-2.114a3.2,3.2,0,1,1,6.37,0,3.2,3.2,0,1,1-6.37,0Zm5,0c0-1.464-.658-2.32-1.812-2.32s-1.811.856-1.811,2.32.652,2.325,1.811,2.325S62.716,16.213,62.716,14.743Zm9.839,3.38H71.172l-1.4-4.975h-.105l-1.39,4.975h-1.37l-1.862-6.754H66.4l1.21,5.154h.1L69.1,11.369h1.279l1.389,5.154h.105l1.2-5.154H74.41Zm3.42-6.754h1.283v1.073h.1a2.022,2.022,0,0,1,2.016-1.2,2.2,2.2,0,0,1,2.338,2.512v4.372H80.379V14.085c0-1.085-.472-1.625-1.458-1.625a1.55,1.55,0,0,0-1.613,1.712v3.951H75.976Zm7.86-2.637h1.333v9.391H83.836Zm3.186,6.011a3.2,3.2,0,1,1,6.371,0,3.2,3.2,0,1,1-6.371,0Zm5,0c0-1.464-.658-2.32-1.812-2.32s-1.811.856-1.811,2.32.652,2.325,1.811,2.325S92.021,16.213,92.021,14.743Zm2.775,1.47C94.8,15,95.7,14.3,97.309,14.2l1.83-.105v-.583c0-.713-.472-1.116-1.383-1.116-.744,0-1.26.273-1.408.751H95.057c.136-1.16,1.228-1.9,2.76-1.9,1.693,0,2.648.843,2.648,2.27v4.615H99.182v-.949h-.105a2.272,2.272,0,0,1-2.029,1.06A2.04,2.04,0,0,1,94.8,16.213Zm4.342-.577v-.565l-1.649.105c-.93.062-1.352.379-1.352.974s.527.962,1.252.962a1.592,1.592,0,0,0,1.749-1.477Zm3.079-.893c0-2.134,1.1-3.486,2.8-3.486a2.226,2.226,0,0,1,2.071,1.185h.1V8.732h1.333v9.391h-1.277V17.056h-.105a2.344,2.344,0,0,1-2.121,1.179c-1.718,0-2.8-1.352-2.8-3.491Zm1.377,0c0,1.432.675,2.295,1.8,2.295s1.818-.874,1.818-2.289-.7-2.295-1.818-2.295S103.595,13.322,103.595,14.743Zm10.446,0a3.2,3.2,0,1,1,6.37,0,3.2,3.2,0,1,1-6.37,0Zm5,0c0-1.464-.658-2.32-1.812-2.32s-1.811.856-1.811,2.32.652,2.325,1.811,2.325S119.04,16.213,119.04,14.743Zm3.16-3.374h1.283v1.073h.1a2.022,2.022,0,0,1,2.016-1.2,2.2,2.2,0,0,1,2.338,2.512v4.372H126.6V14.085c0-1.085-.472-1.625-1.458-1.625a1.549,1.549,0,0,0-1.613,1.712v3.951H122.2Zm13.269-1.682V11.4h1.463v1.123h-1.463V16c0,.708.291,1.017.955,1.017a4.45,4.45,0,0,0,.508-.031v1.11a4.373,4.373,0,0,1-.725.068c-1.482,0-2.073-.522-2.073-1.824V12.522h-1.072V11.4h1.072V9.687Zm3.284-.955h1.321v3.722h.105a2.078,2.078,0,0,1,2.059-1.21,2.225,2.225,0,0,1,2.326,2.518v4.361H143.23V14.091c0-1.079-.5-1.625-1.444-1.625a1.578,1.578,0,0,0-1.7,1.712v3.945h-1.333ZM152.337,16.3a2.742,2.742,0,0,1-2.927,1.954,3.068,3.068,0,0,1-3.12-3.486,3.115,3.115,0,0,1,3.114-3.529c1.879,0,3.013,1.284,3.013,3.4v.465h-4.77v.075a1.785,1.785,0,0,0,1.8,1.935,1.619,1.619,0,0,0,1.607-.819Zm-4.689-2.177h3.412a1.63,1.63,0,0,0-1.663-1.75,1.727,1.727,0,0,0-1.749,1.75Z" transform="translate(4.804 3.923)"/></g></svg>