<svg xmlns="http://www.w3.org/2000/svg" width="42" height="42" viewBox="0 0 42 42"><g transform="translate(-43 -79)"><rect width="42" height="42" rx="15" transform="translate(43 79)" fill="#fff"/><path d="M15,1A14,14,0,0,0,1,15V27A14,14,0,0,0,15,41H27A14,14,0,0,0,41,27V15A14,14,0,0,0,27,1H15m0-1H27A15,15,0,0,1,42,15V27A15,15,0,0,1,27,42H15A15,15,0,0,1,0,27V15A15,15,0,0,1,15,0Z" transform="translate(43 79)" fill="#d1d1d1"/><g transform="translate(58.949 91.5)"><g transform="translate(0)"><path d="M117.936,8.034,125.8.192a.659.659,0,0,1,.931.933L119.335,8.5l7.4,7.375a.659.659,0,0,1-.931.933l-7.863-7.841a.659.659,0,0,1,0-.933Z" transform="translate(-117.742 0)" fill="#464646"/></g></g></g></svg>