<svg xmlns="http://www.w3.org/2000/svg" width="18.333" height="20" viewBox="0 0 18.333 20"><path d="M368.92,31.863a.625.625,0,0,1-.625-.625,8.9,8.9,0,0,0-2.623-6.335.625.625,0,0,1,.884-.884,10.145,10.145,0,0,1,2.989,7.219.625.625,0,0,1-.625.625Zm0,0" transform="translate(-351.211 -22.905)"/><path d="M.625,31.882A.625.625,0,0,1,0,31.257a10.14,10.14,0,0,1,2.99-7.218.625.625,0,0,1,.884.884A8.9,8.9,0,0,0,1.25,31.257a.625.625,0,0,1-.625.625Zm0,0" transform="translate(0 -22.924)"/><path d="M157.793,419.75a3.128,3.128,0,0,1-3.125-3.125.625.625,0,0,1,1.25,0,1.875,1.875,0,0,0,3.75,0,.625.625,0,0,1,1.25,0A3.128,3.128,0,0,1,157.793,419.75Zm0,0" transform="translate(-148.626 -399.75)"/><path d="M36.541,79H22.791a1.459,1.459,0,0,1-.948-2.567,5.585,5.585,0,0,0,1.99-4.277V69.834a5.833,5.833,0,0,1,11.667,0v2.323a5.583,5.583,0,0,0,1.982,4.271A1.458,1.458,0,0,1,36.541,79ZM29.666,65.25a4.588,4.588,0,0,0-4.583,4.583v2.323a6.83,6.83,0,0,1-2.425,5.225.208.208,0,0,0-.075.16.211.211,0,0,0,.208.208h13.75a.211.211,0,0,0,.208-.208.205.205,0,0,0-.073-.158,6.832,6.832,0,0,1-2.427-5.227V69.834a4.588,4.588,0,0,0-4.583-4.583Zm0,0" transform="translate(-20.499 -61.5)"/><path d="M219.293,3.75a.625.625,0,0,1-.625-.625V.625a.625.625,0,0,1,1.25,0v2.5A.625.625,0,0,1,219.293,3.75Zm0,0" transform="translate(-210.126)"/></svg>