<svg xmlns="http://www.w3.org/2000/svg" width="18.952" height="24" viewBox="0 0 18.952 24"><g transform="translate(-19.656 -4.662)"><path d="M36.156,28.662a2.456,2.456,0,0,1-1.579-.576l-5.445-4.579-5.446,4.579a2.452,2.452,0,0,1-4.03-1.877V8.981a4.319,4.319,0,0,1,4.319-4.319H34.289a4.319,4.319,0,0,1,4.319,4.319V26.21a2.46,2.46,0,0,1-1.417,2.223A2.43,2.43,0,0,1,36.156,28.662Zm-7.024-7.021a.808.808,0,0,1,.521.19l5.966,5.017a.847.847,0,0,0,.889.118.837.837,0,0,0,.482-.756V8.981a2.7,2.7,0,0,0-2.7-2.7H23.975a2.7,2.7,0,0,0-2.7,2.7V26.21a.837.837,0,0,0,.482.756.846.846,0,0,0,.889-.118l5.966-5.017A.809.809,0,0,1,29.132,21.641Z" transform="translate(0 0)" fill="#0f3b5d"/></g></svg>