<svg xmlns="http://www.w3.org/2000/svg" width="20" height="20" viewBox="0 0 20 20"><path d="M241.586,3.055a.586.586,0,0,0,.586-.586V.586a.586.586,0,0,0-1.172,0V2.469A.586.586,0,0,0,241.586,3.055Z" transform="translate(-231.586)"/><path d="M241.586,433.8a.586.586,0,0,0-.586.586v1.883a.586.586,0,0,0,1.172,0v-1.883A.586.586,0,0,0,241.586,433.8Z" transform="translate(-231.586 -416.855)"/><path d="M436.269,241h-1.883a.586.586,0,1,0,0,1.172h1.883a.586.586,0,0,0,0-1.172Z" transform="translate(-416.855 -231.586)"/><path d="M3.055,241.586A.586.586,0,0,0,2.469,241H.586a.586.586,0,0,0,0,1.172H2.469A.586.586,0,0,0,3.055,241.586Z" transform="translate(0 -231.586)"/><path d="M378.334,72.92l1.331-1.331a.586.586,0,0,0-.829-.829l-1.331,1.331a.586.586,0,0,0,.829.829Z" transform="translate(-362.594 -67.831)"/><path d="M72.092,377.505l-1.331,1.331a.586.586,0,0,0,.829.829l1.331-1.331a.586.586,0,0,0-.829-.829Z" transform="translate(-67.832 -362.594)"/><path d="M378.334,377.506a.586.586,0,0,0-.829.829l1.331,1.331a.586.586,0,0,0,.829-.829Z" transform="translate(-362.594 -362.595)"/><path d="M72.091,72.92a.586.586,0,0,0,.829-.829L71.589,70.76a.586.586,0,0,0-.829.829Z" transform="translate(-67.831 -67.831)"/><path d="M133.512,128.533a4.979,4.979,0,1,0,4.979,4.979A4.985,4.985,0,0,0,133.512,128.533Zm0,8.786a3.807,3.807,0,1,1,3.807-3.807A3.812,3.812,0,0,1,133.512,137.319Z" transform="translate(-123.512 -123.512)"/></svg>