<svg xmlns="http://www.w3.org/2000/svg" width="40.127" height="45.143" viewBox="0 0 40.127 45.143"><path d="M607.664,100.715a7.122,7.122,0,0,0-4.3-6.463V86.51a11.541,11.541,0,0,0,5.732,1.508h8.6a5.693,5.693,0,0,1,5.732,5.643v.591a7.166,7.166,0,1,0,5.732,0v-.591A11.376,11.376,0,0,0,617.7,82.375h-8.6a5.693,5.693,0,0,1-5.732-5.643v-.591a7.037,7.037,0,0,0,4.3-6.463,7.166,7.166,0,1,0-10.032,6.463v18.11a7.081,7.081,0,1,0,10.032,6.463ZM600.5,98.6a2.116,2.116,0,1,1-2.15,2.116A2.134,2.134,0,0,1,600.5,98.6Zm25.8,4.232a2.116,2.116,0,1,1,2.15-2.116A2.131,2.131,0,0,1,626.295,102.831ZM600.5,67.563a2.116,2.116,0,1,1-2.15,2.116A2.131,2.131,0,0,1,600.5,67.563Z" transform="translate(-593.333 -62.625)" fill="#0c5d9b"/></svg>