<svg xmlns="http://www.w3.org/2000/svg" width="20.756" height="20.2" viewBox="0 0 20.756 20.2"><g transform="translate(-1.79 -2.64)"><path d="M9.579,26.08H7.785a.928.928,0,0,0-.925.925V28.8a.928.928,0,0,0,.925.925H9.579A.928.928,0,0,0,10.5,28.8V27.005A.928.928,0,0,0,9.579,26.08ZM9.887,28.8a.309.309,0,0,1-.307.307H7.785a.309.309,0,0,1-.307-.307V27.008a.309.309,0,0,1,.307-.307H9.579a.309.309,0,0,1,.307.307Z" transform="translate(-3.328 -15.628)" fill="#8e8e8e"/><path d="M7.785,25.98H9.579A1.026,1.026,0,0,1,10.6,27.005V28.8a1.026,1.026,0,0,1-1.025,1.025H7.785A1.026,1.026,0,0,1,6.76,28.8V27.005A1.026,1.026,0,0,1,7.785,25.98Zm1.794,3.641A.826.826,0,0,0,10.4,28.8V27.005a.826.826,0,0,0-.825-.825H7.785a.826.826,0,0,0-.825.825V28.8a.826.826,0,0,0,.825.825ZM7.785,26.6H9.579a.408.408,0,0,1,.407.407V28.8a.408.408,0,0,1-.407.407H7.785a.408.408,0,0,1-.407-.407V27.008A.408.408,0,0,1,7.785,26.6Zm1.794,2.405a.21.21,0,0,0,.207-.207V27.008a.21.21,0,0,0-.207-.207H7.785a.21.21,0,0,0-.207.207V28.8a.21.21,0,0,0,.207.207Z" transform="translate(-3.328 -15.628)" fill="#8e8e8e"/><path d="M23.959,26.08H22.165a.928.928,0,0,0-.925.925V28.8a.928.928,0,0,0,.925.925h1.794a.928.928,0,0,0,.925-.925V27.005A.926.926,0,0,0,23.959,26.08ZM24.27,28.8a.309.309,0,0,1-.307.307H22.168a.309.309,0,0,1-.307-.307V27.008a.309.309,0,0,1,.307-.307h1.794a.309.309,0,0,1,.307.307Z" transform="translate(-12.956 -15.628)" fill="#8e8e8e"/><path d="M22.165,25.98h1.794a1.026,1.026,0,0,1,1.025,1.025V28.8a1.026,1.026,0,0,1-1.025,1.025H22.165A1.026,1.026,0,0,1,21.14,28.8V27.005A1.026,1.026,0,0,1,22.165,25.98Zm1.794,3.641a.826.826,0,0,0,.825-.825V27.005a.826.826,0,0,0-.825-.825H22.165a.826.826,0,0,0-.825.825V28.8a.826.826,0,0,0,.825.825ZM22.168,26.6h1.794a.408.408,0,0,1,.407.407V28.8a.408.408,0,0,1-.407.407H22.168a.408.408,0,0,1-.407-.407V27.008A.408.408,0,0,1,22.168,26.6Zm1.794,2.405a.21.21,0,0,0,.207-.207V27.008a.21.21,0,0,0-.207-.207H22.168a.21.21,0,0,0-.207.207V28.8a.21.21,0,0,0,.207.207Z" transform="translate(-12.956 -15.628)" fill="#8e8e8e"/><path d="M9.579,39.71H7.785a.928.928,0,0,0-.925.925v1.794a.928.928,0,0,0,.925.925H9.579a.928.928,0,0,0,.925-.925V40.635A.928.928,0,0,0,9.579,39.71Zm.307,2.719a.309.309,0,0,1-.307.307H7.785a.309.309,0,0,1-.307-.307V40.635a.309.309,0,0,1,.307-.307H9.579a.309.309,0,0,1,.307.307Z" transform="translate(-3.328 -24.755)" fill="#8e8e8e"/><path d="M7.785,39.61H9.579A1.026,1.026,0,0,1,10.6,40.635v1.794a1.026,1.026,0,0,1-1.025,1.025H7.785A1.026,1.026,0,0,1,6.76,42.429V40.635A1.026,1.026,0,0,1,7.785,39.61Zm1.794,3.644a.826.826,0,0,0,.825-.825V40.635a.826.826,0,0,0-.825-.825H7.785a.826.826,0,0,0-.825.825v1.794a.826.826,0,0,0,.825.825ZM7.785,40.228H9.579a.408.408,0,0,1,.407.407v1.794a.408.408,0,0,1-.407.407H7.785a.408.408,0,0,1-.407-.407V40.635A.408.408,0,0,1,7.785,40.228Zm1.794,2.409a.21.21,0,0,0,.207-.207V40.635a.21.21,0,0,0-.207-.207H7.785a.21.21,0,0,0-.207.207v1.794a.21.21,0,0,0,.207.207Z" transform="translate(-3.328 -24.755)" fill="#8e8e8e"/><path d="M23.959,39.71H22.165a.928.928,0,0,0-.925.925v1.794a.928.928,0,0,0,.925.925h1.794a.928.928,0,0,0,.925-.925V40.635A.926.926,0,0,0,23.959,39.71Zm.311,2.719a.309.309,0,0,1-.307.307H22.168a.309.309,0,0,1-.307-.307V40.635a.309.309,0,0,1,.307-.307h1.794a.309.309,0,0,1,.307.307Z" transform="translate(-12.956 -24.755)" fill="#8e8e8e"/><path d="M22.165,39.61h1.794a1.026,1.026,0,0,1,1.025,1.025v1.794a1.026,1.026,0,0,1-1.025,1.025H22.165a1.026,1.026,0,0,1-1.025-1.025V40.635A1.026,1.026,0,0,1,22.165,39.61Zm1.794,3.644a.826.826,0,0,0,.825-.825V40.635a.826.826,0,0,0-.825-.825H22.165a.826.826,0,0,0-.825.825v1.794a.826.826,0,0,0,.825.825Zm-1.791-3.027h1.794a.408.408,0,0,1,.407.407v1.794a.408.408,0,0,1-.407.407H22.168a.408.408,0,0,1-.407-.407V40.635A.408.408,0,0,1,22.168,40.228Zm1.794,2.409a.21.21,0,0,0,.207-.207V40.635a.21.21,0,0,0-.207-.207H22.168a.21.21,0,0,0-.207.207v1.794a.21.21,0,0,0,.207.207Z" transform="translate(-12.956 -24.755)" fill="#8e8e8e"/><path d="M22.445,19.5a.3.3,0,0,0-.02-.106.1.1,0,0,0-.013-.026c-.007-.01-.01-.023-.017-.033l-.648-1a3.585,3.585,0,0,1-.578-1.959V14.919A3.159,3.159,0,0,0,18.933,11.9a1.112,1.112,0,0,0-.608-1.708V7.5a2.471,2.471,0,0,0-2.468-2.468h-.069c-.089-1.308-.74-2.3-1.556-2.3s-1.467.985-1.556,2.3H11.664c-.089-1.308-.74-2.3-1.556-2.3s-1.467.985-1.556,2.3H7.54c-.089-1.308-.74-2.3-1.556-2.3S4.52,3.725,4.428,5.033H4.358A2.471,2.471,0,0,0,1.89,7.5V18.388a2.471,2.471,0,0,0,2.468,2.468h9.387a.93.93,0,0,0,.76.4H16.25a1.788,1.788,0,0,0,3.522,0h1.745a.928.928,0,0,0,.925-.925v-.826c.007-.007,0-.007,0-.01Zm-1.893-4.58v1.457a4.211,4.211,0,0,0,.677,2.293l.34.525H14.459l.34-.525a4.211,4.211,0,0,0,.677-2.293V14.919a2.538,2.538,0,0,1,5.075,0Zm-4.487-2.475a3.154,3.154,0,0,0-.852,1.034H13.963a.309.309,0,0,1-.307-.307V11.38a.309.309,0,0,1,.307-.307h1.794a.309.309,0,0,1,.307.307Zm2.452-1.183a.5.5,0,1,1-.5-.5A.5.5,0,0,1,18.516,11.261ZM14.231,3.355c.41,0,.859.677.938,1.679H13.293C13.372,4.032,13.821,3.355,14.231,3.355Zm-4.124,0c.41,0,.859.677.938,1.679H9.172C9.248,4.032,9.7,3.355,10.107,3.355Zm-4.124,0c.41,0,.859.677.938,1.679H5.049C5.128,4.032,5.577,3.355,5.984,3.355ZM2.508,7.5a1.852,1.852,0,0,1,1.85-1.85H6.922c-.079,1-.529,1.679-.938,1.679a.307.307,0,0,0,0,.615c.816,0,1.467-.985,1.556-2.3h3.5c-.079,1-.529,1.679-.938,1.679a.307.307,0,1,0,0,.615c.816,0,1.467-.985,1.556-2.3h3.5c-.079,1-.529,1.679-.938,1.679a.307.307,0,0,0,0,.615c.816,0,1.467-.985,1.556-2.3h.069a1.852,1.852,0,0,1,1.85,1.85V8.737H2.5V7.5Zm0,10.887V9.368h15.2v.826A1.112,1.112,0,0,0,17.1,11.9a3.018,3.018,0,0,0-.416.162v-.687a.928.928,0,0,0-.925-.925H13.963a.928.928,0,0,0-.925.925v1.791a.928.928,0,0,0,.925.925h1.011a3.09,3.09,0,0,0-.112.823v1.457a3.613,3.613,0,0,1-.578,1.959l-.648,1c-.007.01-.01.023-.017.033s-.01.017-.013.026a.286.286,0,0,0-.02.106v.737H4.358a1.847,1.847,0,0,1-1.85-1.847Zm15.506,3.734a1.177,1.177,0,0,1-1.133-.866h2.263A1.168,1.168,0,0,1,18.014,22.122Zm3.816-1.791a.309.309,0,0,1-.307.307H14.509a.309.309,0,0,1-.307-.307v-.519h7.629Z" fill="#8e8e8e"/><path d="M18.011,22.84a1.882,1.882,0,0,1-1.843-1.48H14.505a1.029,1.029,0,0,1-.81-.4H4.358A2.571,2.571,0,0,1,1.79,18.388V7.5A2.571,2.571,0,0,1,4.335,4.933C4.457,3.6,5.141,2.64,5.984,2.64s1.53.96,1.649,2.3h.826c.118-1.336.8-2.3,1.649-2.3s1.53.96,1.649,2.3h.826c.118-1.336.8-2.3,1.649-2.3s1.53.96,1.649,2.3A2.571,2.571,0,0,1,18.425,7.5v2.617a1.224,1.224,0,0,1,.81,1.143,1.21,1.21,0,0,1-.15.582,3.279,3.279,0,0,1,2.185,3.072v1.454a3.487,3.487,0,0,0,.562,1.9l.648,1a.191.191,0,0,1,.016.031l0,0a.178.178,0,0,1,.022.046.394.394,0,0,1,.025.127.1.1,0,0,1,0,.042v.8a1.026,1.026,0,0,1-1.025,1.025H19.854A1.882,1.882,0,0,1,18.011,22.84ZM4.358,5.133A2.371,2.371,0,0,0,1.99,7.5V18.388a2.371,2.371,0,0,0,2.368,2.368H13.8l.03.043a.831.831,0,0,0,.678.36h1.829l.014.083a1.688,1.688,0,0,0,3.325,0l.014-.083h1.829a.826.826,0,0,0,.825-.825v-.868a.236.236,0,0,0-.011-.04l0-.005a.2.2,0,0,1-.017-.032l0,0-.646-1a3.686,3.686,0,0,1-.594-2.014V14.919A3.076,3.076,0,0,0,18.9,12l-.131-.04.078-.113A1.012,1.012,0,0,0,18.3,10.29l-.072-.021V7.5a2.371,2.371,0,0,0-2.368-2.368h-.163l-.006-.093c-.086-1.256-.712-2.2-1.456-2.2s-1.371.947-1.456,2.2l-.006.093h-1.2l-.006-.093c-.086-1.256-.712-2.2-1.456-2.2s-1.371.947-1.456,2.2l-.006.093h-1.2L7.44,5.043c-.086-1.256-.712-2.2-1.456-2.2s-1.366.925-1.457,2.2l-.007.093ZM18.014,22.222a1.276,1.276,0,0,1-1.23-.939l-.034-.126h2.524l-.033.126A1.268,1.268,0,0,1,18.014,22.222Zm-.994-.866a1.073,1.073,0,0,0,1.985,0Zm4.5-.618H14.509a.408.408,0,0,1-.407-.407v-.619h7.829v.619A.408.408,0,0,1,21.523,20.739ZM14.3,19.913v.419a.21.21,0,0,0,.207.207h7.015a.21.21,0,0,0,.207-.207v-.419Zm-9.949.423a1.948,1.948,0,0,1-1.944-1.947V9.268h15.4v1l-.072.021a1.023,1.023,0,0,0-.737.975,1,1,0,0,0,.183.58l.08.114L17.127,12a2.882,2.882,0,0,0-.4.157l-.142.066v-.844a.826.826,0,0,0-.825-.825H13.963a.826.826,0,0,0-.825.825v1.791a.826.826,0,0,0,.825.825h1.142l-.035.127a3,3,0,0,0-.109.8v1.457a3.712,3.712,0,0,1-.594,2.014l-.648,1a.231.231,0,0,1-.01.022.177.177,0,0,1-.011.02.187.187,0,0,0-.012.068v.837ZM2.608,9.468v8.92a1.748,1.748,0,0,0,1.744,1.747h9.135V19.5a.394.394,0,0,1,.026-.144.159.159,0,0,1,.014-.029l0-.007.007-.011h0a.194.194,0,0,1,.017-.033l.647-1a3.512,3.512,0,0,0,.562-1.905V14.916a3.189,3.189,0,0,1,.084-.723h-.883a1.026,1.026,0,0,1-1.025-1.025V11.377a1.026,1.026,0,0,1,1.025-1.025h1.794a1.026,1.026,0,0,1,1.025,1.025v.534c.057-.024.111-.045.164-.064a1.2,1.2,0,0,1-.149-.582,1.224,1.224,0,0,1,.81-1.143V9.468Zm19.146,9.827H14.275l.44-.68a4.111,4.111,0,0,0,.661-2.239V14.919a2.638,2.638,0,0,1,5.275,0v1.457a4.111,4.111,0,0,0,.661,2.239Zm-7.111-.2h6.743l-.24-.371a4.31,4.31,0,0,1-.693-2.347V14.919a2.438,2.438,0,0,0-4.875,0v1.457a4.31,4.31,0,0,1-.693,2.347Zm.63-5.516h-1.31a.408.408,0,0,1-.407-.407V11.38a.408.408,0,0,1,.407-.407h1.794a.408.408,0,0,1,.407.407v1.113l-.038.03a3.073,3.073,0,0,0-.825,1Zm-1.31-2.405a.21.21,0,0,0-.207.207v1.791a.21.21,0,0,0,.207.207h1.189a3.278,3.278,0,0,1,.813-.982V11.38a.21.21,0,0,0-.207-.207Zm4.051.691a.6.6,0,1,1,.6-.6A.6.6,0,0,1,18.014,11.864Zm0-1a.4.4,0,1,0,.4.4A.4.4,0,0,0,18.014,10.859ZM17.8,8.837H2.4V7.4H2.41a1.953,1.953,0,0,1,1.948-1.85H7.03l-.009.108c-.079.993-.535,1.771-1.038,1.771a.207.207,0,1,0,0,.415c.745,0,1.371-.947,1.456-2.2l.006-.093h3.7l-.009.108c-.079.993-.535,1.771-1.038,1.771a.207.207,0,1,0,0,.415c.745,0,1.371-.947,1.456-2.2l.006-.093h3.7l-.009.108c-.079.993-.535,1.771-1.038,1.771a.207.207,0,1,0,0,.415c.745,0,1.371-.947,1.456-2.2l.006-.093h.163a1.953,1.953,0,0,1,1.95,1.95Zm-15.2-.2h15V7.491a1.752,1.752,0,0,0-1.727-1.75c-.118,1.336-.8,2.3-1.649,2.3a.407.407,0,1,1,0-.815c.331,0,.731-.589.829-1.478h-3.3c-.118,1.336-.8,2.3-1.649,2.3a.407.407,0,1,1,0-.815c.331,0,.731-.589.829-1.479h-3.3c-.118,1.336-.8,2.3-1.649,2.3a.407.407,0,1,1,0-.815c.331,0,.731-.589.829-1.479H4.358A1.752,1.752,0,0,0,2.608,7.5v.1H2.6Zm12.676-3.5H13.184l.009-.108c.079-.993.535-1.771,1.038-1.771s.959.778,1.038,1.771Zm-1.875-.2H15.06c-.1-.889-.5-1.479-.829-1.479S13.5,4.044,13.4,4.933Zm-2.248.2H9.064l.008-.108c.075-.993.53-1.771,1.035-1.771s.959.778,1.038,1.771Zm-1.872-.2h1.654c-.1-.889-.5-1.479-.829-1.479S9.376,4.044,9.282,4.933Zm-2.251.2H4.941l.009-.108c.079-.993.533-1.771,1.035-1.771s.959.778,1.038,1.771Zm-1.872-.2H6.812c-.1-.889-.5-1.479-.829-1.479S5.256,4.044,5.159,4.933Z" fill="#8e8e8e"/></g></svg>