<svg xmlns="http://www.w3.org/2000/svg" width="22" height="19.369" viewBox="0 0 22 19.369"><path d="M20.744,33.669v13.1a1.908,1.908,0,0,1-1.906,1.9H1.867v.006a1.305,1.305,0,0,0,1.3,1.3H20.7a1.3,1.3,0,0,0,1.3-1.3V34.972a1.3,1.3,0,0,0-1.261-1.3Zm.134.623a.692.692,0,0,1,.094.032A.781.781,0,0,0,20.878,34.291ZM13,32.36H7.15v-.6H13ZM2.469,48.073H18.838a1.305,1.305,0,0,0,1.3-1.3V33.061a1.305,1.305,0,0,0-1.3-1.3H15.819v.6h3.019a.7.7,0,0,1,.7.7V36.63H.607V33.061a.7.7,0,0,1,.7-.7H4.329v-.6H1.31a1.305,1.305,0,0,0-1.3,1.3V46.77a1.305,1.305,0,0,0,1.3,1.3Zm12.456-8.928a.3.3,0,0,1,.3-.3h2.287a.3.3,0,0,1,.3.3v2.287a.3.3,0,0,1-.3.3H15.227a.3.3,0,0,1-.3-.3Zm-4.2,0a.3.3,0,0,1,.3-.3h2.289a.3.3,0,0,1,.3.3v2.287a.3.3,0,0,1-.3.3H11.028a.3.3,0,0,1-.3-.3Zm0,4.125a.3.3,0,0,1,.3-.3h2.289a.3.3,0,0,1,.3.3v2.288a.3.3,0,0,1-.3.3H11.028a.3.3,0,0,1-.3-.3Zm-4.2-4.125a.3.3,0,0,1,.3-.3H9.12a.3.3,0,0,1,.3.3v2.287a.3.3,0,0,1-.3.3H6.831a.3.3,0,0,1-.3-.3Zm0,4.125a.3.3,0,0,1,.3-.3H9.12a.3.3,0,0,1,.3.3v2.288a.3.3,0,0,1-.3.3H6.831a.3.3,0,0,1-.3-.3Zm-4.2-4.125a.3.3,0,0,1,.3-.3H4.921a.3.3,0,0,1,.3.3v2.287a.3.3,0,0,1-.3.3H2.633a.3.3,0,0,1-.3-.3Zm0,4.125a.3.3,0,0,1,.3-.3H4.921a.3.3,0,0,1,.3.3v2.288a.3.3,0,0,1-.3.3H2.633a.3.3,0,0,1-.3-.3Zm6.486,1.987H7.132V43.571H8.819Zm-4.2,0H2.934V43.571H4.62Zm0-4.125H2.934V39.446H4.62Zm4.2,0H7.132V39.446H8.819Zm8.394,0H15.528V39.446h1.686Zm-4.2,0H11.329V39.446h1.687Zm0,4.125H11.329V43.571h1.687ZM6.548,33.5H4.931V30.615H6.548Zm8.669,0H13.6V30.615h1.617Z" transform="translate(-0.005 -30.615)" fill="#8e8e8e"/></svg>