<svg xmlns="http://www.w3.org/2000/svg" width="33.75" height="29.714" viewBox="0 0 33.75 29.714"><path d="M31.821,35.3V55.4A2.927,2.927,0,0,1,28.9,58.32H2.862v.01a2,2,0,0,0,2,2H31.755a2,2,0,0,0,2-2V37.3a2,2,0,0,0-1.934-2Zm.205.955a1.061,1.061,0,0,1,.144.049A1.2,1.2,0,0,0,32.026,36.255ZM19.937,33.291H10.966v-.924h8.971ZM3.785,57.4H28.9a2,2,0,0,0,2-2V34.367a2,2,0,0,0-2-2H24.265v.924H28.9a1.078,1.078,0,0,1,1.078,1.076v5.475H.928V34.367a1.078,1.078,0,0,1,1.078-1.076H6.638v-.924H2.006a2,2,0,0,0-2,2V55.4a2,2,0,0,0,2,2ZM22.895,43.7a.462.462,0,0,1,.462-.462h3.509a.461.461,0,0,1,.461.462V47.21a.461.461,0,0,1-.461.461H23.357a.461.461,0,0,1-.462-.461Zm-6.441,0a.462.462,0,0,1,.462-.462h3.511a.461.461,0,0,1,.461.462V47.21a.461.461,0,0,1-.461.461H16.916a.461.461,0,0,1-.462-.461Zm0,6.328a.462.462,0,0,1,.462-.461h3.511a.461.461,0,0,1,.461.461v3.51a.461.461,0,0,1-.461.461H16.916a.461.461,0,0,1-.462-.461ZM10.015,43.7a.462.462,0,0,1,.461-.462h3.512a.462.462,0,0,1,.461.462V47.21a.461.461,0,0,1-.461.461H10.476a.461.461,0,0,1-.461-.461Zm0,6.328a.462.462,0,0,1,.461-.461h3.512a.462.462,0,0,1,.461.461v3.51a.461.461,0,0,1-.461.461H10.476a.461.461,0,0,1-.461-.461ZM3.576,43.7a.461.461,0,0,1,.461-.462h3.51a.462.462,0,0,1,.461.462V47.21a.461.461,0,0,1-.461.461H4.037a.461.461,0,0,1-.461-.461Zm0,6.328a.461.461,0,0,1,.461-.461h3.51a.462.462,0,0,1,.461.461v3.51A.461.461,0,0,1,7.547,54H4.037a.461.461,0,0,1-.461-.461Zm9.95,3.048H10.938V50.492h2.588Zm-6.442,0H4.5V50.492H7.085Zm0-6.329H4.5V44.163H7.085Zm6.442,0H10.938V44.163h2.588Zm12.878,0H23.818V44.163H26.4Zm-6.439,0H17.377V44.163h2.588Zm0,6.329H17.377V50.492h2.588ZM10.043,35.042H7.561V30.615h2.482Zm13.3,0H20.86V30.615h2.481Z" transform="translate(-0.005 -30.615)" fill="#fff"/></svg>