<svg xmlns="http://www.w3.org/2000/svg" width="18.037" height="18" viewBox="0 0 18.037 18"><g transform="translate(-3.04 -3.184)"><path d="M14.784,16.959a.657.657,0,0,1-.7-.7,3.171,3.171,0,0,1,1.253-2.227c.418-.418.835-.835.835-1.253a1.392,1.392,0,1,0-2.784,0,.7.7,0,0,1-1.392,0,2.784,2.784,0,0,1,5.567,0,3.171,3.171,0,0,1-1.253,2.227c-.418.418-.835.835-.835,1.253A.657.657,0,0,1,14.784,16.959Z" transform="translate(-2.725 -2.073)"/><circle cx="0.696" cy="0.696" r="0.696" transform="translate(11.363 15.582)"/><path d="M3.986,21.01a.807.807,0,0,1-.278-.7l.626-3.549A8.949,8.949,0,0,1,7.4,4.448,9.108,9.108,0,0,1,19.783,7.51,9.046,9.046,0,0,1,16.721,19.9a8.92,8.92,0,0,1-9.116.07L4.752,21.149a.912.912,0,0,1-.765-.139ZM7.6,18.5a.532.532,0,0,1,.348.139A7.664,7.664,0,1,0,5.587,8a7.741,7.741,0,0,0,0,8.281.611.611,0,0,1,.07.487L5.239,19.34,7.257,18.5Z" transform="translate(0 0)"/></g></svg>