<svg xmlns="http://www.w3.org/2000/svg" width="10.5" height="10.5" viewBox="0 0 10.5 10.5"><g transform="translate(-712.25 -531.75)"><path d="M5.916,5.136,9.81,1.242A.648.648,0,0,0,8.894.326L5,4.22,1.106.326a.648.648,0,0,0-.916.916L4.084,5.136.19,9.03a.648.648,0,1,0,.916.916L5,6.052,8.894,9.946A.648.648,0,0,0,9.81,9.03Zm0,0" transform="translate(712.5 531.864)" fill="#f41c24"/><path d="M9.352,10.386a.892.892,0,0,1-.635-.263L5,6.406,1.283,10.123a.9.9,0,0,1-1.27,0,.9.9,0,0,1,0-1.27L3.73,5.136.013,1.419a.9.9,0,0,1,0-1.27.9.9,0,0,1,1.27,0L5,3.866,8.717.149A.9.9,0,0,1,10.25.784a.892.892,0,0,1-.263.635L6.27,5.136,9.987,8.853a.9.9,0,0,1-.635,1.533ZM5,5.7,9.071,9.769a.4.4,0,1,0,.563-.562L5.563,5.136,9.633,1.065A.4.4,0,1,0,9.071.5L5,4.573.929.5a.4.4,0,1,0-.563.562L4.437,5.136.367,9.207a.4.4,0,1,0,.563.563Z" transform="translate(712.5 531.864)" fill="#f41c24"/></g></svg>