<svg xmlns="http://www.w3.org/2000/svg" xmlns:xlink="http://www.w3.org/1999/xlink" width="204.66" height="180" viewBox="0 0 204.66 180"><defs><linearGradient id="a" x1="2.789" y1="-1.548" x2="3.468" y2="-1.426" gradientUnits="objectBoundingBox"><stop offset="0" stop-color="#ffe548"/><stop offset="0.176" stop-color="#ffde50"/><stop offset="0.445" stop-color="#ffca65"/><stop offset="0.771" stop-color="#ffaa87"/><stop offset="1" stop-color="#ff90a4"/></linearGradient><linearGradient id="b" x1="0.499" y1="0.772" x2="0.413" y2="1.077" gradientUnits="objectBoundingBox"><stop offset="0" stop-color="#fba5c2" stop-opacity="0"/><stop offset="0.386" stop-color="#fca0ba" stop-opacity="0.384"/><stop offset="0.974" stop-color="#ff91a5" stop-opacity="0.973"/><stop offset="1" stop-color="#ff90a4"/></linearGradient><linearGradient id="c" x1="0.511" y1="0.663" x2="0.406" y2="1.043" xlink:href="#b"/><linearGradient id="d" x1="0.541" y1="0.499" x2="0.397" y2="0.973" xlink:href="#b"/><linearGradient id="e" x1="0.565" y1="0.374" x2="0.389" y2="0.772" xlink:href="#a"/><linearGradient id="f" x1="0.37" y1="0.715" x2="0.658" y2="0.272" gradientUnits="objectBoundingBox"><stop offset="0" stop-color="#ffd00d" stop-opacity="0"/><stop offset="1" stop-color="#db722b"/></linearGradient><linearGradient id="g" x1="0.535" y1="0.498" x2="0.336" y2="-0.006" xlink:href="#f"/><linearGradient id="h" x1="0.6" y1="0.575" x2="0.323" y2="0.193" gradientUnits="objectBoundingBox"><stop offset="0" stop-color="#a34a9e" stop-opacity="0"/><stop offset="1" stop-color="#343168"/></linearGradient><linearGradient id="i" x1="2.271" y1="-1.655" x2="2.183" y2="-2.645" gradientUnits="objectBoundingBox"><stop offset="0" stop-color="#a34a9e"/><stop offset="1" stop-color="#343168"/></linearGradient><linearGradient id="j" x1="-12.171" y1="4.477" x2="-11.761" y2="4.696" gradientUnits="objectBoundingBox"><stop offset="0" stop-color="#3fa9f5"/><stop offset="1" stop-color="#666ad6"/></linearGradient><linearGradient id="k" x1="-21.586" y1="-11.156" x2="-21.273" y2="-10.873" xlink:href="#i"/><linearGradient id="l" x1="0.637" y1="0.357" x2="-0.243" y2="1.099" gradientUnits="objectBoundingBox"><stop offset="0" stop-color="#ff4974"/><stop offset="0.45" stop-color="#fe4773"/><stop offset="0.629" stop-color="#fc406d"/><stop offset="0.761" stop-color="#f73464"/><stop offset="0.868" stop-color="#f12257"/><stop offset="0.961" stop-color="#e80c46"/><stop offset="1" stop-color="#e4003d"/></linearGradient><linearGradient id="m" x1="0.64" y1="0.193" x2="0.247" y2="1.873" gradientUnits="objectBoundingBox"><stop offset="0" stop-color="#c4f8b6"/><stop offset="1" stop-color="#3b8eac"/></linearGradient><radialGradient id="n" cx="0.039" cy="0.166" r="0.894" gradientTransform="matrix(1.268, 0.002, -0.003, 1, -0.014, 0)" xlink:href="#l"/><linearGradient id="o" x1="1.205" y1="1.07" x2="-0.581" y2="0.058" gradientUnits="objectBoundingBox"><stop offset="0" stop-color="#e4003d" stop-opacity="0"/><stop offset="0.343" stop-color="#cd0e2d" stop-opacity="0.341"/><stop offset="1" stop-color="#972e07"/></linearGradient><linearGradient id="p" x1="0.641" y1="0.455" x2="0.944" y2="0.774" xlink:href="#o"/><linearGradient id="q" x1="0.382" y1="0.268" x2="0.912" y2="0.969" xlink:href="#j"/><linearGradient id="r" x1="0.381" y1="0.262" x2="0.912" y2="0.963" xlink:href="#j"/><linearGradient id="s" x1="0.377" y1="0.265" x2="0.907" y2="0.966" xlink:href="#i"/><linearGradient id="t" x1="0.396" y1="0.258" x2="0.926" y2="0.959" xlink:href="#m"/><linearGradient id="u" x1="0.394" y1="0.256" x2="0.924" y2="0.958" xlink:href="#a"/></defs><g transform="translate(-4.765 5.356)"><path d="M131.309,222.979a5.8,5.8,0,0,1-2.142,1.337l-.842.253S14.72,270.406,5.887,261.541,43.3,139.238,43.3,139.238l.256-.841A5.8,5.8,0,0,1,44.9,136.26c7.067-7.041,32.14,6.662,56,30.609s37.472,49.07,30.4,56.111Z" transform="translate(0 -88.035)" fill="url(#a)"/><path d="M137.088,243.366c-5.979,2.371-17.95,7.063-32.086,12.316-8.646,3.214-18.1,6.637-27.492,9.863-8.205,2.82-16.362,5.495-23.877,7.748-5.164-4.34-10.3-9.046-15.323-14.092S28.6,249.007,24.275,243.828c2.281-7.507,4.985-15.654,7.835-23.849,3.26-9.378,6.718-18.822,9.964-27.455,5.3-14.117,10.041-26.07,12.433-32.041,15.243,8.266,31.531,20.49,46.868,35.883S128.878,228.093,137.088,243.366Z" transform="translate(-12.847 -105.202)" fill="url(#b)"/><path d="M159.262,222.978a5.8,5.8,0,0,1-2.142,1.339l-.841.251s-1.469.593-4.084,1.63c-5.979,2.371-17.95,7.063-32.086,12.316-8.646,3.214-18.1,6.637-27.492,9.863a234.852,234.852,0,0,1-45.4-45.566c3.26-9.378,6.718-18.822,9.964-27.455,5.3-14.117,10.041-26.07,12.433-32.041,1.047-2.612,1.645-4.078,1.645-4.078l.254-.841a5.8,5.8,0,0,1,1.347-2.137c7.067-7.042,32.138,6.663,56,30.607s37.471,49.069,30.4,56.111Z" transform="translate(-27.954 -88.034)" fill="url(#c)"/><path d="M178.474,222.979a5.8,5.8,0,0,1-2.142,1.339l-.841.251s-1.469.593-4.084,1.63c-5.979,2.371-17.95,7.063-32.086,12.316a220.9,220.9,0,0,1-34.562-28.492,220.932,220.932,0,0,1-28.366-34.666c5.3-14.117,10.041-26.07,12.433-32.041,1.047-2.612,1.645-4.078,1.645-4.078l.254-.841a5.8,5.8,0,0,1,1.347-2.137c7.067-7.042,32.138,6.663,56,30.607S185.541,215.937,178.474,222.979Z" transform="translate(-47.166 -88.035)" fill="url(#d)"/><path d="M205.1,222.981c-7.068,7.043-32.141-6.661-56-30.608s-37.472-49.069-30.4-56.112,32.141,6.661,56,30.608S212.168,215.938,205.1,222.981Z" transform="translate(-73.793 -88.035)" fill="url(#e)"/><path d="M214.448,226.388c-5.222,5.2-26.37-7.556-47.235-28.5s-33.547-42.135-28.325-47.338,26.37,7.556,47.235,28.5S219.67,221.185,214.448,226.388Z" transform="translate(-87.545 -97.897)" fill="url(#f)"/><path d="M240.814,228.8c7.067-7.041-6.545-32.164-30.4-56.11-13.991-14.041-28.4-24.558-39.347-29.439a25.3,25.3,0,0,0,1.438,2.336A19.662,19.662,0,0,0,175.522,149l6.059,6.1c-.7.317-1.34.568-1.88.758a2.053,2.053,0,0,0-1.33,2.344l2.144,10.65a2.665,2.665,0,0,0,1.675,1.969L240.359,229.2A5.3,5.3,0,0,0,240.814,228.8Z" transform="translate(-109.505 -93.853)" fill="url(#g)"/><path d="M260.635,269.982l5.95,7.113L294.3,304.911a7.125,7.125,0,0,0,5.01-1.841c6.177-6.154-3.439-26.114-21.885-47.032a73.5,73.5,0,0,0-16.288,9.406,3.159,3.159,0,0,0-.5,4.537Z" transform="translate(-168.003 -168.124)" fill="url(#h)"/><path d="M266.585,266.168l-5.95-7.113a3.16,3.16,0,0,1,.5-4.537,73.477,73.477,0,0,1,80.912-5.435,3.159,3.159,0,0,1,1.1,4.43l-4.95,7.841a3.156,3.156,0,0,1-4.215,1.065,57.9,57.9,0,0,0-63.086,4.243A3.155,3.155,0,0,1,266.585,266.168Z" transform="translate(-168.003 -157.198)" fill="url(#i)"/><path d="M113.728,65.283l-5.4-5.559a8.936,8.936,0,0,1-1.756-9.659,5.735,5.735,0,0,1,8.853-2.332A8.936,8.936,0,0,1,118.653,57l-1.962,7.5A1.759,1.759,0,0,1,113.728,65.283Z" transform="translate(-68.582 -39.806)" fill="url(#j)"/><path d="M71.791,90.32,64.12,89.205a8.936,8.936,0,0,1-7.279-6.588,5.735,5.735,0,0,1,5.6-7.244,8.936,8.936,0,0,1,8.212,5.381L73.665,87.9a1.759,1.759,0,0,1-1.873,2.424Z" transform="translate(-34.179 -49.155)" fill="url(#k)"/><path d="M398.6,378.838l7.72-.7a8.936,8.936,0,0,1,8.611,4.716,5.736,5.736,0,0,1-3.76,8.347,8.936,8.936,0,0,1-9.237-3.325l-4.592-6.245a1.759,1.759,0,0,1,1.259-2.793Z" transform="translate(-255.156 -233.494)" fill="url(#l)"/><path d="M404.475,332.759l5.695-5.259a8.936,8.936,0,0,1,9.7-1.509,5.735,5.735,0,0,1,2.106,8.91,8.936,8.936,0,0,1-9.35,2.994l-7.447-2.153A1.759,1.759,0,0,1,404.475,332.759Z" transform="translate(-257.726 -202.874)" fill="url(#m)"/><path d="M178.946,76.541a2.662,2.662,0,0,1-3.42-2.015l-2.144-10.65a2.053,2.053,0,0,1,1.33-2.344,22.861,22.861,0,0,0,4.32-2.05,22.15,22.15,0,0,1-11.521-8.225c-4.972-7.173-5.361-15.258-1.043-21.627a18.763,18.763,0,0,1,19.65-7.651c8.178,1.888,13.923,9.044,15.367,19.142q.09.631.159,1.255a13.365,13.365,0,0,0,4.643-4.249c2.57-4.108,2.814-10.239.622-15.619a14.342,14.342,0,0,0-5.961-7.339,2.691,2.691,0,0,1-1.367-3l2.456-10.128A2.66,2.66,0,0,1,205.556.174c6.874,2.633,12.53,8.488,15.778,16.457,4.081,10.016,3.375,21.418-1.842,29.758-4.128,6.6-11.741,11.519-20.544,13.6a29.579,29.579,0,0,1-8.818,10.742,37.68,37.68,0,0,1-11.184,5.81ZM182,37.089a3.3,3.3,0,0,0-2.639,1.283c-.787,1.16.259,3.012.952,4.013.951,1.372,3.164,2.4,5.953,2.854q-.06-.931-.2-1.911c-.5-3.479-1.787-5.786-3.451-6.169a2.747,2.747,0,0,0-.614-.068Z" transform="translate(-104.515 0.474)" fill="url(#n)"/><path d="M281.189,135.29l-11.165-11.206s.713,10.82-2.7,17.613A37.007,37.007,0,0,0,281.189,135.29Z" transform="translate(-172.895 -81.233)" fill="url(#o)"/><path d="M180.314,118.341a6.206,6.206,0,0,1-1.229-2.962l-15.6-.028a21.129,21.129,0,0,0,4.025,11.864,22.145,22.145,0,0,0,11.521,8.225s7.994-2.425,7.234-14.245c-2.789-.458-5-1.482-5.953-2.854Z" transform="translate(-104.518 -75.483)" fill="url(#p)"/><path d="M269.251,204.84a30.708,30.708,0,0,0-9.05,9.1,1.35,1.35,0,0,1-2.264,0,30.708,30.708,0,0,0-9.016-9.136,1.35,1.35,0,0,1,0-2.248,30.713,30.713,0,0,0,9.05-9.1,1.35,1.35,0,0,1,2.263,0,30.713,30.713,0,0,0,9.017,9.136A1.35,1.35,0,0,1,269.251,204.84Z" transform="translate(-146.958 -126.641)" fill="url(#q)"/><path d="M463.11,190.9a30.708,30.708,0,0,0-9.05,9.1,1.35,1.35,0,0,1-2.263,0,30.709,30.709,0,0,0-9.017-9.136,1.35,1.35,0,0,1,0-2.248,30.712,30.712,0,0,0,9.05-9.1,1.35,1.35,0,0,1,2.263,0,30.714,30.714,0,0,0,9.017,9.136A1.35,1.35,0,0,1,463.11,190.9Z" transform="translate(-254.288 -112.569)" fill="url(#r)"/><path d="M372.324,36.065a30.708,30.708,0,0,0-9.05,9.1,1.35,1.35,0,0,1-2.264,0,30.709,30.709,0,0,0-9.016-9.136,1.35,1.35,0,0,1,0-2.248,30.712,30.712,0,0,0,9.05-9.1,1.35,1.35,0,0,1,2.264,0,30.713,30.713,0,0,0,9.017,9.136A1.35,1.35,0,0,1,372.324,36.065Z" transform="translate(-223.317 -29.421)" fill="url(#s)"/><path d="M373.437,149.107a22.389,22.389,0,0,0-6.6,6.636.984.984,0,0,1-1.65,0,22.382,22.382,0,0,0-6.573-6.66.984.984,0,0,1,0-1.639,22.391,22.391,0,0,0,6.6-6.636.984.984,0,0,1,1.65,0,22.389,22.389,0,0,0,6.573,6.66A.984.984,0,0,1,373.437,149.107Z" transform="translate(-218.005 -93.981)" fill="url(#t)"/><path d="M404.915,89.118a22.39,22.39,0,0,0-6.6,6.636.984.984,0,0,1-1.65,0,22.382,22.382,0,0,0-6.573-6.66.984.984,0,0,1,0-1.639,22.389,22.389,0,0,0,6.6-6.636.984.984,0,0,1,1.65,0,22.391,22.391,0,0,0,6.573,6.66A.984.984,0,0,1,404.915,89.118Z" transform="translate(-214.019 -64.01)" fill="url(#u)"/></g></svg>