<svg xmlns="http://www.w3.org/2000/svg" width="18" height="18" viewBox="0 0 18 18"><g transform="translate(-1 -1)"><path d="M18.421,13.956c-.032-.026-3.629-2.59-4.6-2.429-.469.083-.736.4-1.273,1.042-.086.1-.295.35-.455.526a7.475,7.475,0,0,1-.991-.4A8.22,8.22,0,0,1,7.308,8.9a7.475,7.475,0,0,1-.4-.991c.176-.161.424-.37.529-.458.637-.534.956-.8,1.039-1.271.17-.971-2.4-4.568-2.429-4.6A1.373,1.373,0,0,0,5.02,1C3.977,1,1,4.862,1,5.513c0,.038.055,3.88,4.793,8.7C10.607,18.945,14.45,19,14.487,19,15.138,19,19,16.023,19,14.98A1.375,1.375,0,0,0,18.421,13.956Zm-4,3.84c-.521-.044-3.749-.47-7.781-4.43C2.66,9.314,2.246,6.081,2.2,5.58A16.232,16.232,0,0,1,5.028,2.243c.024.024.056.06.1.107A21.235,21.235,0,0,1,7.269,5.988a7.132,7.132,0,0,1-.61.547,6.02,6.02,0,0,0-.907.853.6.6,0,0,0-.1.451,6.851,6.851,0,0,0,.579,1.585,9.426,9.426,0,0,0,4.349,4.348,6.833,6.833,0,0,0,1.585.58.6.6,0,0,0,.451-.1,6.045,6.045,0,0,0,.856-.911c.188-.224.44-.524.535-.608a21.087,21.087,0,0,1,3.646,2.147c.05.042.085.074.109.1A16.222,16.222,0,0,1,14.421,17.8Z"/><path d="M16.6,8.2a3.6,3.6,0,0,1,3.6,3.6.6.6,0,0,0,1.2,0A4.805,4.805,0,0,0,16.6,7a.6.6,0,1,0,0,1.2Z" transform="translate(-6 -2.4)"/><path d="M16.6,3.2a6.608,6.608,0,0,1,6.6,6.6.6.6,0,1,0,1.2,0A7.809,7.809,0,0,0,16.6,2a.6.6,0,1,0,0,1.2Z" transform="translate(-6 -0.4)"/></g></svg>