<svg xmlns="http://www.w3.org/2000/svg" xmlns:xlink="http://www.w3.org/1999/xlink" width="182" height="7.371" viewBox="0 0 182 7.371"><defs><linearGradient id="a" x1="0.96" y1="1" x2="-0.006" y2="0.5" gradientUnits="objectBoundingBox"><stop offset="0" stop-color="#fff" stop-opacity="0"/><stop offset="1" stop-color="#aeaeae"/></linearGradient><linearGradient id="b" x1="0.04" x2="1.006" xlink:href="#a"/></defs><g transform="translate(-404 -555.355)"><g transform="translate(99.75 -74)"><path d="M1.177-3.575a3.477,3.477,0,0,0-3.6-3.666,3.484,3.484,0,0,0-3.6,3.666A3.458,3.458,0,0,0-2.476.117,3.532,3.532,0,0,0,1.177-3.575Zm-5.993,0A2.362,2.362,0,0,1-2.437-6.214a2.393,2.393,0,0,1,2.4,2.639A2.418,2.418,0,0,1-2.476-.923,2.346,2.346,0,0,1-4.816-3.575Zm8.736-.3c0-1.651.858-2.158,1.989-2.158h.312V-7.254a2.4,2.4,0,0,0-2.3,1.287V-7.124H2.736V0H3.92Z" transform="translate(395.25 636.609)" fill="#7a7a7a"/><rect width="70" height="1" transform="translate(416.25 631.609)" opacity="0.6" fill="url(#a)"/><rect width="70" height="1" transform="translate(304.25 631.609)" opacity="0.6" fill="url(#b)"/></g></g></svg>