<svg xmlns="http://www.w3.org/2000/svg" width="42.137" height="46.02" viewBox="0 0 42.137 46.02"><path d="M22219.066,14431.129h-3.146a7.778,7.778,0,0,1-7.771-7.777v-8.749h-5.73a6.486,6.486,0,1,1,0-5.184h5.73v-8.754a7.782,7.782,0,0,1,7.771-7.778h3.146a6.483,6.483,0,1,1,0,5.189h-3.146a2.583,2.583,0,0,0-2.588,2.589v8.754h6.156a6.56,6.56,0,0,1,6.074-4.218,6.768,6.768,0,0,1,0,13.53,6.572,6.572,0,0,1-6.178-4.491h-6.053v9.111a2.587,2.587,0,0,0,2.588,2.594h3.146a6.48,6.48,0,1,1,0,5.184Zm3.984-2.595a1.944,1.944,0,1,0,1.953-1.941A1.947,1.947,0,0,0,22223.051,14428.534Zm.564-16.565a1.95,1.95,0,1,0,1.947-2.009A1.976,1.976,0,0,0,22223.615,14411.969Zm-29.076.039a1.944,1.944,0,1,0,1.941-1.941A1.937,1.937,0,0,0,22194.539,14412.008Zm28.512-16.526a1.944,1.944,0,1,0,1.953-1.941A1.942,1.942,0,0,0,22223.051,14395.481Z" transform="translate(-22189.998 -14388.998)" fill="#0c5d9b"/></svg>