<svg xmlns="http://www.w3.org/2000/svg" width="24" height="24" viewBox="0 0 24 24">
  <g id="edit-stst" transform="translate(-6.014 -6.031)">
    <g id="Group_7571" data-name="Group 7571" transform="translate(7.442 7.099)">
      <path id="Path_57609" data-name="Path 57609" d="M10.029,24.624a.924.924,0,0,1-.653-1.577L23.809,8.614A.923.923,0,0,1,25.115,9.92L10.682,24.353A.921.921,0,0,1,10.029,24.624Z" transform="translate(-9.105 -8.343)" fill="#e6f4ff"/>
    </g>
    <g id="Group_7572" data-name="Group 7572" transform="translate(6.015 21.532)">
      <path id="Path_57610" data-name="Path 57610" d="M6.94,48.1a.934.934,0,0,1-.194-.021.924.924,0,0,1-.709-1.1l1.427-6.652a.924.924,0,0,1,1.806.387L7.842,47.365A.924.924,0,0,1,6.94,48.1Z" transform="translate(-6.015 -39.597)" fill="#e6f4ff"/>
    </g>
    <g id="Group_7573" data-name="Group 7573" transform="translate(12.666 12.324)">
      <path id="Path_57611" data-name="Path 57611" d="M21.342,35.937a.924.924,0,0,1-.653-1.577L35.122,19.928a.923.923,0,0,1,1.306,1.306L22,35.667A.921.921,0,0,1,21.342,35.937Z" transform="translate(-20.418 -19.657)" fill="#e6f4ff"/>
    </g>
    <g id="Group_7574" data-name="Group 7574" transform="translate(6.014 26.757)">
      <path id="Path_57612" data-name="Path 57612" d="M6.937,54.184a.924.924,0,0,1-.193-1.827L13.4,50.93a.924.924,0,1,1,.387,1.806L7.132,54.163a.9.9,0,0,1-.194.021Z" transform="translate(-6.014 -50.91)" fill="#e6f4ff"/>
    </g>
    <g id="Group_7575" data-name="Group 7575" transform="translate(19.263 9.711)">
      <path id="Path_57613" data-name="Path 57613" d="M40.85,21.072A.919.919,0,0,1,40.2,20.8l-5.224-5.224a.923.923,0,1,1,1.306-1.306L41.5,19.5a.924.924,0,0,1-.653,1.577Z" transform="translate(-34.702 -14)" fill="#e6f4ff"/>
    </g>
    <g id="Group_7576" data-name="Group 7576" transform="translate(21.874 6.031)">
      <path id="Path_57614" data-name="Path 57614" d="M46.506,14.171a.924.924,0,0,1-.653-1.577,2.771,2.771,0,0,0-3.918-3.918.924.924,0,0,1-1.306-1.306A4.618,4.618,0,0,1,47.159,13.9a.919.919,0,0,1-.653.271Z" transform="translate(-40.357 -6.031)" fill="#e6f4ff"/>
    </g>
  </g>
</svg>
