<svg xmlns="http://www.w3.org/2000/svg" width="32" height="32" viewBox="0 0 32 32"><g transform="translate(-1070 -382)"><circle cx="14" cy="14" r="14" transform="translate(1072 384)" fill="#0f3b5d"/><path d="M14,0A14,14,0,1,0,28,14,14,14,0,0,0,14,0m0-2A16,16,0,0,1,25.314,25.314,16,16,0,1,1,7.771-.742,15.9,15.9,0,0,1,14-2Z" transform="translate(1072 384)" fill="#fff"/><g transform="translate(1079 390.753)"><path d="M8.654,82.473.943,90.184a.307.307,0,0,0-.08.141L.008,93.756a.3.3,0,0,0,.294.377.3.3,0,0,0,.073-.009l3.431-.855a.3.3,0,0,0,.141-.08l7.712-7.711Zm0,0" transform="translate(0 -79.886)" fill="#fff"/><path d="M338.385,1.535l-.858-.858a1.554,1.554,0,0,0-2.147,0l-1.051,1.051,3.005,3,1.051-1.051a1.518,1.518,0,0,0,0-2.147Zm0,0" transform="translate(-324.815)" fill="#fff"/></g></g></svg>