<svg xmlns="http://www.w3.org/2000/svg" width="55" height="55" viewBox="0 0 55 55"><g transform="translate(-155 -515)"><circle cx="27.5" cy="27.5" r="27.5" transform="translate(155 515)" fill="#e3e3e3"/><g transform="translate(-767 -2445)"><path d="M-599.781-26.667h18.846a2.888,2.888,0,0,1,2.885,2.885v2.38l-10.586,7.874a2.864,2.864,0,0,1-1.722.57,2.864,2.864,0,0,1-1.722-.57L-602.665-21.4v-2.38A2.888,2.888,0,0,1-599.781-26.667Zm19.808,4.3v-1.413a.963.963,0,0,0-.962-.962h-18.846a.963.963,0,0,0-.961.962v1.413l9.811,7.3a.955.955,0,0,0,.574.19.955.955,0,0,0,.574-.19Z" transform="translate(1539.665 3004.667)" fill="#0f3b5d"/><path d="M-606.64-38.239v8.024a.963.963,0,0,1-.962.962h-18.846a.963.963,0,0,1-.962-.962v-8.024l-1.923-1.43v9.454a2.888,2.888,0,0,0,2.885,2.885H-607.6a2.888,2.888,0,0,0,2.885-2.885v-9.454Z" transform="translate(1566.332 3025.33)" fill="#0f3b5d"/></g></g></svg>