<svg xmlns="http://www.w3.org/2000/svg" width="44.618" height="28" viewBox="0 0 44.618 28"><path d="M49.632,31.525a2.51,2.51,0,0,0-2.37-1.508H44.856V28.711a1.425,1.425,0,0,0-1.423-1.423H42.264a1.425,1.425,0,0,0-1.423,1.423v1.307h-.609V27.676a2.2,2.2,0,0,0-2.2-2.2H12.227a.782.782,0,0,0,0,1.564H38.035a.633.633,0,0,1,.632.632V42.358H17.554V36.547a.782.782,0,0,0-.782-.782H8.782a.782.782,0,1,0,0,1.564H15.99v9.506a2.2,2.2,0,0,0,2.2,2.2h3.594a3.609,3.609,0,0,0,7.047,0H42.119a3.609,3.609,0,0,0,7.047,0h1.609a1.845,1.845,0,0,0,1.843-1.843V39.018a2.2,2.2,0,0,0-.182-.89ZM42.4,28.852h.887v1.166H42.4ZM25.3,50.294a2.046,2.046,0,1,1,2.046-2.046A2.048,2.048,0,0,1,25.3,50.294Zm0-5.655a3.615,3.615,0,0,0-3.524,2.828H18.185a.633.633,0,0,1-.632-.632V43.922H38.667v3.544H28.826A3.616,3.616,0,0,0,25.3,44.639Zm20.34,5.655a2.046,2.046,0,1,1,2.046-2.046A2.048,2.048,0,0,1,45.642,50.294Zm5.133-2.828H49.166a3.609,3.609,0,0,0-7.047,0H40.231V31.582h7.031a.972.972,0,0,1,.93.555l2.8,6.6a.647.647,0,0,1,.057.279v2.9H50.042a1.272,1.272,0,0,0-1.271,1.271v2.053a1.272,1.272,0,0,0,1.271,1.271h1.012v.674A.282.282,0,0,1,50.775,47.466Zm.278-3.983V44.95h-.719V43.483Zm-1.023-4.561a.782.782,0,0,0,.068-.737l-2.343-5.518a.782.782,0,0,0-.72-.476H41.622a.782.782,0,0,0-.782.782V38.49a.782.782,0,0,0,.782.782h7.756A.782.782,0,0,0,50.031,38.922ZM42.4,37.708V33.755h4.114L48.2,37.708ZM26.266,48.248a.963.963,0,1,1-.963-.963A.963.963,0,0,1,26.266,48.248Zm20.34,0a.963.963,0,1,1-.963-.963A.963.963,0,0,1,46.606,48.248ZM29.845,29.9H26.376a.782.782,0,0,0-.782.782v1.5h-1.5a.782.782,0,0,0-.782.782v3.469a.782.782,0,0,0,.782.782h1.5v1.5a.782.782,0,0,0,.782.782h3.469a.782.782,0,0,0,.782-.782v-1.5h1.5a.782.782,0,0,0,.782-.782V32.967a.782.782,0,0,0-.782-.782h-1.5v-1.5A.782.782,0,0,0,29.845,29.9Zm1.5,3.845v1.9h-1.5a.782.782,0,0,0-.782.782v1.5h-1.9v-1.5a.782.782,0,0,0-.782-.782h-1.5v-1.9h1.5a.782.782,0,0,0,.782-.782v-1.5h1.9v1.5a.782.782,0,0,0,.782.782h1.5Zm-20.2-1.412h7.649a.782.782,0,1,1,0,1.564H11.142a.782.782,0,0,1,0-1.564ZM9.085,29.69a.782.782,0,0,1,.782-.782h7.649a.782.782,0,1,1,0,1.564H9.867A.782.782,0,0,1,9.085,29.69Zm32.981-3.808V24.64a.782.782,0,1,1,1.564,0v1.242a.782.782,0,1,1-1.564,0Zm4.4-.063-.621,1.076a.782.782,0,0,1-1.355-.782l.621-1.076a.782.782,0,0,1,1.355.782Zm.009,1.705L47.55,26.9a.782.782,0,0,1,.782,1.355l-1.076.621a.782.782,0,0,1-.782-1.355Z" transform="translate(-8 -23.858)" fill="#ff5f00"/></svg>