<svg xmlns="http://www.w3.org/2000/svg" width="22" height="22" viewBox="0 0 22 22"><path d="M22,11a11,11,0,0,1-9.281,10.866V14.18h2.563L15.77,11H12.719V8.937a1.59,1.59,0,0,1,1.793-1.718H15.9V4.512A16.919,16.919,0,0,0,13.436,4.3c-2.512,0-4.155,1.523-4.155,4.28V11H6.488v3.18H9.281v7.687A11,11,0,1,1,22,11Z" fill="#1877f2"/><path d="M159.794,109.883l.488-3.18H157.23V104.64a1.59,1.59,0,0,1,1.793-1.718h1.387v-2.707a16.916,16.916,0,0,0-2.462-.215c-2.513,0-4.155,1.523-4.155,4.28V106.7H151v3.18h2.793v7.687a11.116,11.116,0,0,0,3.438,0v-7.687Z" transform="translate(-144.512 -95.703)" fill="#fff"/></svg>