<svg xmlns="http://www.w3.org/2000/svg" width="55" height="55" viewBox="0 0 55 55"><path d="M55,27.5A27.507,27.507,0,0,1,31.8,54.666V35.449H38.2L39.424,27.5H31.8V22.342c0-2.175,1.066-4.295,4.482-4.295h3.468V11.279a42.3,42.3,0,0,0-6.156-.537c-6.281,0-10.387,3.807-10.387,10.7V27.5H16.221v7.949H23.2V54.666A27.5,27.5,0,1,1,55,27.5Z" fill="#1877f2"/><path d="M172.984,124.707l1.219-7.949h-7.627V111.6c0-2.175,1.065-4.295,4.482-4.295h3.468v-6.768A42.288,42.288,0,0,0,168.37,100c-6.282,0-10.387,3.807-10.387,10.7v6.059H151v7.949h6.982v19.217a27.791,27.791,0,0,0,8.594,0V124.707Z" transform="translate(-134.779 -89.258)" fill="#fff"/></svg>