<svg xmlns="http://www.w3.org/2000/svg" width="43.188" height="43.188" viewBox="0 0 43.188 43.188"><g transform="translate(-1353.627 -4551.332)"><path d="M17.438-.5H24.75A17.923,17.923,0,0,1,42.688,17.438V24.75A17.923,17.923,0,0,1,24.75,42.688H17.438A17.923,17.923,0,0,1-.5,24.75V17.438A17.923,17.923,0,0,1,17.438-.5ZM24.75,41.688A16.957,16.957,0,0,0,41.688,24.75V17.438A16.957,16.957,0,0,0,24.75.5H17.438A16.957,16.957,0,0,0,.5,17.438V24.75A16.957,16.957,0,0,0,17.438,41.688Z" transform="translate(1354.127 4551.832)" fill="#e8e8f6"/><path d="M1051.8,75.484l.52-3.135h-3.23V70.316c0-.858.448-1.695,1.9-1.695h1.464V65.953a19.123,19.123,0,0,0-2.6-.212c-2.673,0-4.4,1.5-4.4,4.219v2.389h-2.964v3.135h2.964v7.579a12.505,12.505,0,0,0,1.815.131,12.662,12.662,0,0,0,1.826-.131V75.484Z" transform="translate(327.654 4498.785)" fill="#55b5ff"/></g></svg>