<svg xmlns="http://www.w3.org/2000/svg" width="51.291" height="50.001" viewBox="0 0 51.291 50.001"><g transform="translate(-5109.709 -1089.747)"><rect width="24.616" height="34.965" transform="matrix(0.819, -0.574, 0.574, 0.819, 5112.436, 1106.594)" fill="#fff"/><path d="M4.755,1.958a2.8,2.8,0,0,0-2.8,2.8V34.126a2.8,2.8,0,0,0,2.8,2.8H23.777a2.8,2.8,0,0,0,2.8-2.8V4.755a2.8,2.8,0,0,0-2.8-2.8H4.755M4.755,0H23.777a4.761,4.761,0,0,1,4.755,4.755V34.126a4.761,4.761,0,0,1-4.755,4.755H4.755A4.761,4.761,0,0,1,0,34.126V4.755A4.761,4.761,0,0,1,4.755,0Z" transform="matrix(0.819, -0.574, 0.574, 0.819, 5109.709, 1106.113)" fill="#0f3b5d"/><rect width="24.616" height="34.965" transform="matrix(0.966, -0.259, 0.259, 0.966, 5123.405, 1101.461)" fill="#fff"/><path d="M4.755,1.958a2.8,2.8,0,0,0-2.8,2.8V34.126a2.8,2.8,0,0,0,2.8,2.8H23.777a2.8,2.8,0,0,0,2.8-2.8V4.755a2.8,2.8,0,0,0-2.8-2.8H4.755M4.755,0H23.777a4.761,4.761,0,0,1,4.755,4.755V34.126a4.761,4.761,0,0,1-4.755,4.755H4.755A4.761,4.761,0,0,1,0,34.126V4.755A4.761,4.761,0,0,1,4.755,0Z" transform="matrix(0.966, -0.259, 0.259, 0.966, 5121.006, 1100.077)" fill="#0f3b5d"/><rect width="24.616" height="34.965" transform="matrix(0.998, 0.07, -0.07, 0.998, 5134.355, 1101.06)" fill="#fff"/><path d="M4.755,1.958a2.8,2.8,0,0,0-2.8,2.8V34.126a2.8,2.8,0,0,0,2.8,2.8H23.777a2.8,2.8,0,0,0,2.8-2.8V4.755a2.8,2.8,0,0,0-2.8-2.8H4.755M4.755,0H23.777a4.761,4.761,0,0,1,4.755,4.755V34.126a4.761,4.761,0,0,1-4.755,4.755H4.755A4.761,4.761,0,0,1,0,34.126V4.755A4.761,4.761,0,0,1,4.755,0Z" transform="matrix(0.998, 0.07, -0.07, 0.998, 5132.538, 1098.97)" fill="#0f3b5d"/><g transform="translate(5140.689 1112.007)"><path d="M8.8,18.783a.6.6,0,0,1-.6-.773l2.188-7.019H7.6a.593.593,0,0,1-.515-.893l4.2-7.792A.6.6,0,0,1,11.8,2h4.2a.593.593,0,0,1,.515.893l-2.493,4.5h3.177a.6.6,0,0,1,.462.983L9.262,18.567A.6.6,0,0,1,8.8,18.783ZM8.6,9.792h2.6a.607.607,0,0,1,.575.773l-1.51,4.9,5.658-6.869H13a.593.593,0,0,1-.515-.893l2.493-4.5H12.157Z" transform="translate(-7.006 -2)" fill="#0f3b5d"/></g></g></svg>