<svg xmlns="http://www.w3.org/2000/svg" width="42.218" height="42.216" viewBox="0 0 42.218 42.216"><g transform="translate(-1292.7 -1175.281)"><path d="M981.5,92.887a2,2,0,0,1-1.414-3.414l3.363-3.363-3.363-3.363a2,2,0,0,1,2.828-2.828l4.777,4.777a2,2,0,0,1,0,2.829L982.914,92.3A1.994,1.994,0,0,1,981.5,92.887Z" transform="translate(346.641 1124.609)" fill="#0f3b5d"/><path d="M956.154,65.977a5.823,5.823,0,1,1,4.117-1.705A5.783,5.783,0,0,1,956.154,65.977Zm0-7.643a1.822,1.822,0,1,0,1.288,3.11,1.82,1.82,0,0,0,0-2.577A1.809,1.809,0,0,0,956.154,58.333Z" transform="translate(342.367 1120.947)" fill="#0f3b5d"/><path d="M989.573,91.285H974.286a5.821,5.821,0,0,1-5.821-5.822V63.488a1.81,1.81,0,0,0-.533-1.288,1.834,1.834,0,0,0-1.288-.533H959a2,2,0,0,1,0-4h7.644a5.821,5.821,0,0,1,5.821,5.822V85.463a1.821,1.821,0,0,0,1.821,1.822h15.287a2,2,0,0,1,0,4Z" transform="translate(343.344 1121.436)" fill="#0f3b5d"/></g></svg>