<svg xmlns="http://www.w3.org/2000/svg" width="35" height="35" viewBox="0 0 35 35"><g transform="translate(0 0)"><path d="M17.5,35A17.5,17.5,0,0,1,5.126,5.126,17.5,17.5,0,1,1,29.874,29.874,17.386,17.386,0,0,1,17.5,35Zm0-32.95A15.45,15.45,0,0,0,6.576,28.424,15.45,15.45,0,1,0,28.425,6.576,15.349,15.349,0,0,0,17.5,2.05Z" transform="translate(0 0)" fill="#0065ff"/></g><g transform="translate(4.101 4.101)"><path d="M63.19,82.161l-.7-.985A13.4,13.4,0,0,1,81.176,62.487l.985.7ZM73.4,62.05a11.353,11.353,0,0,0-9.9,16.9L78.953,63.5A11.271,11.271,0,0,0,73.4,62.05Z" transform="translate(-60 -60)" fill="#0065ff"/><g transform="translate(4.64 4.64)"><path d="M136.653,150.052a13.31,13.31,0,0,1-7.773-2.484l-.986-.7,18.971-18.971.7.986a13.4,13.4,0,0,1-10.915,21.172Zm-5.549-3.5A11.353,11.353,0,0,0,146.555,131.1Z" transform="translate(-127.894 -127.894)" fill="#0065ff"/></g></g></svg>