<svg xmlns="http://www.w3.org/2000/svg" width="221.075" height="227.99" viewBox="0 0 221.075 227.99"><g transform="translate(15.586 -208)"><g transform="translate(126.278 343.551)"><g transform="translate(0)"><g transform="translate(9.438 2.467)"><circle cx="30.663" cy="30.663" r="30.663" transform="translate(3.973 3.973)" fill="#fff"/><path d="M30.663-.5a31.171,31.171,0,0,1,12.13,59.878A31.171,31.171,0,0,1,18.533,1.949,30.969,30.969,0,0,1,30.663-.5Zm0,61.327A30.163,30.163,0,1,0,.5,30.663,30.2,30.2,0,0,0,30.663,60.827Z" transform="translate(3.973 3.973)" fill="#ffc727"/><path d="M34.636-.5A35.146,35.146,0,0,1,48.313,67.011,35.145,35.145,0,0,1,20.96,2.261,34.917,34.917,0,0,1,34.636-.5Zm0,69.273A34.136,34.136,0,1,0,.5,34.636,34.175,34.175,0,0,0,34.636,68.773Z" fill="#ffc727"/></g><g transform="translate(8.627 1.981)"><g transform="translate(39.856 5.971)"><g transform="translate(0.686)"><path d="M401.313,310.127a2.507,2.507,0,0,1,.825.517,4.75,4.75,0,0,1,1.078,4.01c-.16,1.491-.673,3.05-.327,4.546a2.486,2.486,0,0,0,.911,1.509,2.284,2.284,0,0,0,1.887.224,3.424,3.424,0,0,1,2.122-.181,1.942,1.942,0,0,1,1,1.437c.309,1.506-.71,2.939-1,4.374a7.789,7.789,0,0,0,.465,4.581,7.565,7.565,0,0,0,2.772,3.309,7.463,7.463,0,0,0,1.924.926c.762.232,1.561.3,2.332.5a2.752,2.752,0,0,1,1.84,1.226c.276.532.107,2.735-1.69,4.756-.128.145.141.367.324.268a9.542,9.542,0,0,0,1.024-.621,10.421,10.421,0,0,0,4.492-8.361,10.857,10.857,0,0,0-1.216-5.1,17.528,17.528,0,0,1-1.277-2.664,5.446,5.446,0,0,1-.126-2.569c.281-1.641.95-3.195.945-4.883a9.13,9.13,0,0,0-1.157-4.309,10.8,10.8,0,0,0-7.271-5.293C408.179,307.688,401.146,310.058,401.313,310.127Z" transform="translate(-401.286 -307.482)" fill="#263238"/><path d="M401.386,311.957a4.226,4.226,0,0,1,1.5,1.2,3.507,3.507,0,0,1,.6,1.626,9.876,9.876,0,0,1-.552,3.795,5.976,5.976,0,0,0-.162,3.6,2.866,2.866,0,0,0,.9,1.306,2.223,2.223,0,0,0,1.658.388c1.079-.125,2.4-.627,3.315.237.884.834.574,2.272.359,3.314-.526,2.543-1.587,5.761.39,7.975a9.585,9.585,0,0,0,3.891,2.364c1,.363,2.278.814,2.666,1.916.014.041-.051.055-.066.015-.428-1.16-1.784-1.39-2.826-1.719a10.171,10.171,0,0,1-3.432-1.79,4.96,4.96,0,0,1-1.735-3.326,11.558,11.558,0,0,1,.381-3.94c.153-.663.32-1.323.454-1.99a4.219,4.219,0,0,0,.067-1.846,1.445,1.445,0,0,0-1.316-1.105,7.642,7.642,0,0,0-1.886.2,2.918,2.918,0,0,1-1.655-.158,2.663,2.663,0,0,1-1.038-.879,4.191,4.191,0,0,1-.67-2.96c.173-1.46.825-2.818.971-4.281a3.466,3.466,0,0,0-1.905-3.809A.081.081,0,0,1,401.386,311.957Z" transform="translate(-401.263 -309.274)" fill="#263238"/><path d="M413.35,306.977a8.828,8.828,0,0,1,6.494,5.984,10.887,10.887,0,0,1,.368,5.095,22.41,22.41,0,0,0-.61,4.807c.115,1.8,1.194,3.211,2.032,4.732a9.712,9.712,0,0,1,1.184,3.99,10.233,10.233,0,0,1-3.209,8.231.033.033,0,0,1-.046-.049,9.953,9.953,0,0,0,2.922-7.322,9.729,9.729,0,0,0-.846-3.856c-.677-1.494-1.787-2.771-2.266-4.359a9.409,9.409,0,0,1,.11-4.549,14.5,14.5,0,0,0,.4-4.9,8.877,8.877,0,0,0-5.361-7.064c-3.286-1.291-6.818-.278-9.92,1.031q-.622.263-1.241.532c-.047.02-.085-.048-.038-.071C406.408,307.726,409.855,306.307,413.35,306.977Z" transform="translate(-402.24 -306.806)" fill="#263238"/></g><path d="M399.971,308.41a1.5,1.5,0,0,1,1.494.015c.246.26.474,3.031,0,3.532s-1.52-.231-1.52-.231Z" transform="translate(-399.943 -307.486)" fill="#ffc727"/></g><g transform="translate(0.161 26.124)"><path d="M350.049,350.195c-13.134,11.838-25.309,24.8-26.262,31.417-1.32,9.161,4.315,11.7,6.84,11.727,6.873.068,19.364-27.789,23.708-38.426C358.553,344.585,352.933,347.6,350.049,350.195Z" transform="translate(-323.589 -346.586)" fill="#dd6a57"/><g transform="translate(6.636)"><path d="M336.354,368.123l14.6,7.939s9.08-16.772,11.172-24.546-1.033-7.549-7.905-1.5S336.354,368.123,336.354,368.123Z" transform="translate(-336.354 -345.571)" fill="#c7c7c7"/><path d="M336.354,368.123l14.6,7.939s9.08-16.772,11.172-24.546-1.033-7.549-7.905-1.5S336.354,368.123,336.354,368.123Z" transform="translate(-336.354 -345.571)" fill="#ffc727"/><path d="M363.332,351.741c-2.091,7.776-11.171,24.551-11.171,24.551l-13.3-7.232,24.489-23.017C364.17,346.668,364.2,348.517,363.332,351.741Z" transform="translate(-337.559 -345.797)" opacity="0.1"/><path d="M342.111,384.555a113.887,113.887,0,0,0,12.182,6.915c.052.03.094-.057.04-.084-1.1-.561-7.1-4.292-12.178-6.924C342.1,384.432,342.057,384.518,342.111,384.555Z" transform="translate(-339.106 -364.24)" fill="#263238"/></g></g><g transform="translate(17.051 25.528)"><path d="M392.7,378.677q-.983.733-2.027,1.378-.515.328-1.045.624a30.092,30.092,0,0,1-3.364,1.653q-.8.335-1.638.624a30.216,30.216,0,0,1-8.146,1.658c-.665.047-1.336.068-2.012.068s-1.346-.021-2.012-.068a30.417,30.417,0,0,1-8.146-1.658c-.551-.192-1.1-.4-1.632-.624a30.1,30.1,0,0,1-3.364-1.653q-.53-.3-1.045-.624h-.463l.042-.265.218-1.393.1-.624.26-1.658.052-.343s-.057-.094-.151-.276c-.172-.322-.463-.9-.775-1.664-.042-.1-.083-.2-.125-.3s-.083-.208-.125-.317c-.192-.5-.39-1.061-.561-1.658a.074.074,0,0,1-.01-.031,2.392,2.392,0,0,1-.078-.276c-.031-.1-.057-.208-.083-.312h.005a16.52,16.52,0,0,1-.354-1.664c-.031-.2-.057-.411-.078-.619a11.743,11.743,0,0,1-.062-1.658.629.629,0,0,1,0-.1v-.026c.005-.13.016-.265.026-.4.005-.031.005-.068.01-.1a8.257,8.257,0,0,1,.322-1.664,2.819,2.819,0,0,1,.088-.276.254.254,0,0,1,.021-.057c.031-.094.073-.192.109-.286h.005c.042-.109.078-.218.13-.328.14-.312.385-.764.717-1.331.01-.016.016-.031.026-.047.1-.177.218-.369.338-.577.3-.5.639-1.055,1.019-1.658.088-.14.177-.281.27-.421.036-.062.083-.13.125-.2.338-.53.7-1.087,1.081-1.658.135-.2.276-.416.416-.624.369-.541.749-1.1,1.139-1.658.146-.2.286-.411.431-.619h.005c.39-.556.79-1.118,1.2-1.664h.005c.036-.052.073-.1.109-.151q.164-.234.343-.468h.005c.421-.567.842-1.123,1.269-1.658.073-.1.151-.192.224-.286.088-.114.177-.224.265-.333.468-.582.936-1.144,1.388-1.664l.333-.38a26.11,26.11,0,0,1,1.861-1.9c.25-.234.494-.437.728-.619a2.68,2.68,0,0,1,.25-.192c2.786-2.017,6.571-1.295,9.285.192h.005a.83.83,0,0,1,.094.052c.146.078.291.161.426.25l.078.047c.125.078.25.156.369.239.016.01.026.021.042.031h.005a7.772,7.772,0,0,1,1.809,1.658h.005a.285.285,0,0,1,.036.047c.14.192.281.385.416.572.4.551.78,1.1,1.144,1.664h.005c.14.2.27.411.4.619.348.541.681,1.092,1,1.658.083.151.172.3.255.457.031.057.057.109.088.161.291.535.577,1.092.853,1.664.088.177.177.364.255.546.005.016.016.026.016.036s.01.021.016.036h.005c.244.53.483,1.086.717,1.658.057.146.114.291.172.442.026.057.047.12.073.182.208.53.406,1.081.6,1.658h.005c.073.2.14.411.208.619.177.53.348,1.081.52,1.658.062.2.12.411.182.624.156.535.307,1.087.452,1.658q.07.242.125.483a1.283,1.283,0,0,1,.036.135c.135.535.27,1.092.4,1.664.052.2.1.411.146.619.12.535.239,1.087.359,1.658.042.2.083.411.13.619.109.541.218,1.092.328,1.664.036.2.078.411.12.619.1.541.2,1.092.3,1.658.036.208.073.411.109.619.094.541.187,1.1.276,1.664.01.052.016.1.026.151.026.156.047.312.073.468.088.541.177,1.092.26,1.658.036.208.068.411.1.624C392.678,378.49,392.688,378.584,392.7,378.677Z" transform="translate(-356.076 -344.425)" fill="#ffc727"/><path d="M380.6,347.767c-.12-.083-.244-.161-.369-.239l-.078-.047c-.135-.088-.281-.172-.426-.25a.845.845,0,0,0-.094-.052h-9.54c-.234.182-.478.385-.728.619h11.276C380.623,347.788,380.613,347.778,380.6,347.767Zm1.9,1.736a.285.285,0,0,0-.036-.047H367.725l-.224.239-.333.38h15.742C382.776,349.889,382.635,349.7,382.495,349.5Zm1.565,2.236H365.781c-.088.109-.177.218-.265.333-.078.094-.151.192-.229.286H384.46C384.33,352.15,384.2,351.942,384.06,351.739Zm1.658,2.734c-.083-.156-.172-.307-.255-.457H364.019q-.179.234-.343.468c-.042.052-.078.1-.114.151h22.251C385.781,354.583,385.749,354.526,385.718,354.474Zm1.211,2.407c0-.01-.01-.021-.016-.036-.078-.182-.166-.369-.255-.546h-24.3c-.146.208-.286.416-.432.619H386.95A.083.083,0,0,0,386.93,356.881Zm.91,2.137c-.057-.151-.114-.3-.172-.442H360.79c-.14.208-.281.421-.416.624h27.538C387.886,359.137,387.865,359.075,387.839,359.018Zm.681,1.84H359.293c-.042.068-.088.135-.125.2-.094.14-.182.281-.27.421h29.831C388.661,361.269,388.593,361.056,388.52,360.858Zm.733,2.277H357.879c-.12.208-.234.4-.338.577-.01.016-.016.031-.026.047h31.92C389.373,363.546,389.311,363.338,389.253,363.135Zm.754,2.766c-.036-.161-.078-.328-.12-.483H356.662c-.036.094-.078.192-.109.286a.254.254,0,0,0-.021.057,2.821,2.821,0,0,0-.088.276h33.6A1.309,1.309,0,0,0,390.007,365.9Zm.437,1.8H356.122c-.005.031-.005.068-.01.1-.01.13-.021.265-.026.4v.026c0,.031-.005.068-.005.1h34.509C390.543,368.11,390.5,367.9,390.444,367.7Zm.5,2.277h-34.8c.021.208.047.416.078.619h34.853C391.031,370.387,390.99,370.179,390.948,369.977Zm.457,2.282H356.574c.026.1.052.208.083.312a2.4,2.4,0,0,0,.078.276.066.066,0,0,0,.005.031h34.785C391.484,372.67,391.442,372.462,391.406,372.259Zm.416,2.277H357.307c.042.109.083.218.125.317s.083.2.125.3h34.374C391.894,374.947,391.858,374.744,391.822,374.536Zm.411,2.433c-.01-.052-.016-.1-.026-.151H358.331c.094.182.151.276.151.276l-.052.343h33.875C392.279,377.281,392.258,377.125,392.232,376.969Zm.333,2.126h-34.4l-.1.624h34.593C392.633,379.506,392.6,379.3,392.565,379.1Zm-34.291,2.282q.515.327,1.045.624h30.314q.53-.3,1.045-.624Zm4.409,2.277c.535.224,1.081.431,1.632.624h20.317q.834-.289,1.638-.624Zm9.779,2.282c.665.047,1.336.068,2.012.068s1.346-.021,2.012-.068Z" transform="translate(-356.078 -345.748)" opacity="0.1"/><g transform="translate(4.803 29.464)"><path d="M374.238,401.1a37.807,37.807,0,0,1,5.517.957c.9.239,1.779.517,2.658.815.438.149.879.282,1.323.414a5.981,5.981,0,0,0,1.421.281.033.033,0,0,1,0,.067,10.133,10.133,0,0,1-1.37-.037,9.779,9.779,0,0,1-1.3-.258c-.913-.233-1.814-.508-2.725-.751-1.837-.489-3.673-.978-5.541-1.333C374.127,401.237,374.15,401.091,374.238,401.1Z" transform="translate(-369.562 -401.1)" fill="#263238"/><path d="M365.378,404.02a40.723,40.723,0,0,1,4.617-.181c.772.016,1.536.076,2.3.158.366.038.732.084,1.1.134.4.055.8.163,1.2.213.042,0,.042.07,0,.066-.381-.034-.768-.006-1.15-.019s-.767-.028-1.152-.041c-.768-.026-1.537-.043-2.305-.075-1.538-.066-3.07-.115-4.61-.128C365.291,404.146,365.3,404.028,365.378,404.02Z" transform="translate(-365.315 -402.411)" fill="#263238"/></g></g><g transform="translate(37.673 25.438)"><path d="M403.046,348.425c12.453,9.562,25.44,25.79,25.634,35.159.192,9.254-5.006,8.332-5.881,8.059-9.253-2.88-20.408-28.549-24.533-39C394.17,342.264,399.966,346.06,403.046,348.425Z" transform="translate(-396.275 -344.973)" fill="#dd6a57"/><path d="M422.522,366.354l-14.459,8.2s-9.379-16.606-11.609-24.342.9-7.567,7.877-1.644S422.522,366.354,422.522,366.354Z" transform="translate(-395.743 -344.251)" fill="#ffc727"/><path d="M430.2,382.475a113.838,113.838,0,0,1-12.056,7.132c-.051.031-.095-.055-.042-.083,1.095-.581,7.02-4.418,12.052-7.141C430.213,382.352,430.254,382.437,430.2,382.475Z" transform="translate(-406.467 -362.556)" fill="#263238"/><path d="M414.092,389.649a7.935,7.935,0,0,0-.872.389c-1.389-2.764-1.136-2.13-2.552-4.88q-1.04-2.022-2.081-4.044c-.718-1.4-1.362-2.864-2.157-4.226a.035.035,0,0,0-.063.032c.461,1.329,1.084,2.616,1.675,3.9-.131-.2-.255-.4-.4-.593-.319-.429-.632-.858-.916-1.312-.044-.07-.159-.013-.115.057.271.433.51.878.748,1.33s.5.884.769,1.319c.259.419.545.818.833,1.217.035.049.07.1.1.148.378.8.747,1.608,1.143,2.4a37.959,37.959,0,0,0,2.871,4.951,7.779,7.779,0,0,0,1.048-.609C414.171,389.7,414.132,389.645,414.092,389.649Z" transform="translate(-400.843 -359.912)" fill="#263238"/></g><g transform="translate(0 25.528)"><g transform="translate(0 12.619)"><path d="M331.112,403.1c4.286-.628,6.713-8.593,11.473-21.27.835-2.225-10.233-14.964-11.736-12.915-1.892,2.581-6.909,16.894-7.409,20.785C322.454,397.374,326.108,403.835,331.112,403.1Z" transform="translate(-323.279 -368.696)" fill="#dd6a57"/><path d="M351.488,406.988l-.923-.386c1.558-3.726,4.576-11.18,4.849-12.724l.985.174C356.039,396.091,351.674,406.544,351.488,406.988Z" transform="translate(-336.601 -380.829)" fill="#263238"/></g><g transform="translate(4.078)"><path d="M331.122,367.492c.6-4.351,1.829-10.421,3.384-11.693,1.632-1.335,7.559-5.8,9.27-6.389s9.342-3.5,10.744-2.687c1.123.649-.206,3.6-3.838,5.016a53.438,53.438,0,0,0-5.747,2.8c-.931.4-3.169,3.416-2.558,4.75.36.786,2.648,1.708,4.07,1.065s1.773-3.459,3.4-4.786,4.491-1.167,4.657-.394-.781,1.136-2.247,3.767c-.943,1.692-1.005,5.751-3.144,8.662a50.231,50.231,0,0,0-2.947,5.355Z" transform="translate(-331.122 -345.46)" fill="#dd6a57"/><path d="M370.039,359.732a2.831,2.831,0,0,0,1.421-.644,1.086,1.086,0,0,0,.333-.944.541.541,0,0,0-.14-.347c-.028-.021.015-.056.03-.027a1.692,1.692,0,0,0,.131.174.824.824,0,0,1,.082.163.938.938,0,0,1,.061.355,1.17,1.17,0,0,1-.283.724,1.952,1.952,0,0,1-1.631.589A.022.022,0,0,1,370.039,359.732Z" transform="translate(-349.799 -350.827)" fill="#263238"/><g transform="translate(3.384 2.769)"><path d="M337.632,357.32c1.381-2.172,4.919-6.089,8.423-7.436,2.369-.911,10.525,3.055,10.288,4.613s-1.629,1.565-3.691,1.321c-.752-.089-4.726-1.513-5.4-.679-.973,1.2-2.206,5.294-2.206,5.294Z" transform="translate(-337.632 -349.75)" fill="#dd6a57"/><path d="M368.189,354.7c-1.008-1.668-3.223-2.557-5.427-3.259-.034-.01-.054.042-.019.053.561.179,4.152,1.829,5.422,3.233C368.179,354.743,368.2,354.718,368.189,354.7Z" transform="translate(-349.679 -350.562)" fill="#263238"/></g><g transform="translate(3.384 2.583)"><path d="M337.632,357.344c1.381-2.172,4.919-6.089,8.423-7.436,2.369-.911,8.823,4.166,8.586,5.725s-2.238,1.684-4.45.916c-.715-.249-3.112-1.934-3.789-1.1-.973,1.2-3.344,4.175-3.344,4.175Z" transform="translate(-337.632 -349.588)" fill="#dd6a57"/><path d="M350.394,357.585c.222-.343.3-.463.526-.8s.46-.672.711-.992a3.114,3.114,0,0,1,.73-.771,1.57,1.57,0,0,1,.978-.193,5.541,5.541,0,0,1,2.111.931,6.608,6.608,0,0,0,3.388.968,2.27,2.27,0,0,0,.911-.247,1.43,1.43,0,0,0,.545-.436c.5-.849-.126-1.818-.766-2.5a14.755,14.755,0,0,0-4.349-2.965c-.382-.187-.768-.364-1.155-.541a3.447,3.447,0,0,0-1.4-.4,6.529,6.529,0,0,0-2.522,1.057c-.031.019-.054-.032-.024-.05a5.448,5.448,0,0,1,3.007-1.244,4.053,4.053,0,0,1,1.346.452c.451.194.9.4,1.335.623a18.158,18.158,0,0,1,2.467,1.457,7.645,7.645,0,0,1,2.018,1.9,2.252,2.252,0,0,1,.142,2.307,1.965,1.965,0,0,1-1.454.776,3.815,3.815,0,0,1-1.021-.009,16.116,16.116,0,0,1-2.217-.647c-.7-.279-1.333-.751-2.056-.969a1.35,1.35,0,0,0-1.047.069,3.6,3.6,0,0,0-.781.714,10.99,10.99,0,0,0-1.3,1.55C350.408,357.777,350.3,357.729,350.394,357.585Z" transform="translate(-343.601 -349.393)" fill="#263238"/></g><g transform="translate(2.359)"><path d="M335.66,356.658c.507-1.033,1.362-5.292,2.182-6.6s4.571-5.825,6.323-5.63c2.2.244-.089,4.214-1.242,5.85a8.067,8.067,0,0,0-.956,4.412Z" transform="translate(-335.66 -344.424)" fill="#dd6a57"/><path d="M350.337,350.457c-.409.518-.772,1.092-1.128,1.648a12.925,12.925,0,0,0-.983,1.621,5.707,5.707,0,0,0-.429,1.814c-.029.306-.038.611-.039.919,0,.336.029.674.021,1.009,0,.035.054.041.056,0a14.325,14.325,0,0,1,.238-1.826,7.769,7.769,0,0,1,.551-1.818c.514-1.154,1.266-2.184,1.79-3.332C350.434,350.451,350.366,350.421,350.337,350.457Z" transform="translate(-341.469 -347.313)" fill="#263238"/><path d="M351.98,376.437a9.107,9.107,0,0,0-2.231-5.618c-.122-.16-.238-.311-.349-.463a10.491,10.491,0,0,1-2.055-5.307l1,.044a9.7,9.7,0,0,0,1.862,4.671c.106.144.219.292.338.448a10.1,10.1,0,0,1,2.435,6.175Z" transform="translate(-341.509 -354.337)" fill="#263238"/></g></g></g><g transform="translate(17.171 31.496)"><path d="M369.947,356.782l6.03,17.992c.237.524,0,.982-.529,1.022l-9.467.726a1.538,1.538,0,0,1-1.388-.875l-6.03-17.992c-.238-.525,0-.982.528-1.022l9.467-.726A1.536,1.536,0,0,1,369.947,356.782Z" transform="translate(-357.346 -355.904)" fill="#37474f"/><path d="M367.784,356.929l6.03,17.992c.237.523,0,.982-.529,1.022l-9.467.726a1.538,1.538,0,0,1-1.388-.875L356.4,357.8c-.238-.525,0-.982.528-1.022l9.467-.726A1.535,1.535,0,0,1,367.784,356.929Z" transform="translate(-356.307 -355.975)" fill="#455a64"/><path d="M373.509,358.917a.807.807,0,1,0,.724-.882A.807.807,0,0,0,373.509,358.917Z" transform="translate(-364.565 -356.925)" fill="#263238"/><g transform="translate(5.652 5.908)"><path d="M429.151,408.409c-4.13.615-9.322-2.542-22.8-12.154-1.866-1.33,3.98-17.02,6.045-15.7,2.6,1.66,12.335,8.666,12.982,9.269C430.834,394.9,431.953,407.992,429.151,408.409Z" transform="translate(-385.811 -373.609)" fill="#dd6a57"/><path d="M398.59,378.885s-3.867-5.3-6.762-7.457a23.19,23.19,0,0,0-10.333-4.046c-4.014-.545-14.1.911-14.183,3.888-.079,2.7,10.152.686,10.152.686s-10.769.328-10.268,3.59,12.245.254,12.245.254-11.058.585-10.008,3.867c.793,2.481,11.583.355,11.583.355s-9.5.568-8.795,3.155c.78,2.858,10.863,1.52,10.863,1.52,2.9,6.272,6.847,8.072,9.807,9.017C393.608,393.943,398.59,378.885,398.59,378.885Z" transform="translate(-367.179 -367.269)" fill="#dd6a57"/><g transform="translate(1.644 4.329)"><path d="M382.7,375.6c-1.266-.007-2.548-.023-3.811.082s-2.523.255-3.77.477a21.685,21.685,0,0,0-4.771,1.327,46.614,46.614,0,0,1,8.582-1.459c1.26-.105,2.515-.273,3.776-.38C382.737,375.647,382.73,375.6,382.7,375.6Z" transform="translate(-370.343 -375.596)" fill="#263238"/><path d="M386.113,384.364c-1.618.06-3.225.061-4.841.194s-3.121.4-4.715.638c-.123.019-.072.078.051.065,1.6-.178,3.1-.219,4.7-.378s3.2-.381,4.806-.48C386.142,384.4,386.137,384.363,386.113,384.364Z" transform="translate(-373.292 -379.806)" fill="#263238"/><path d="M390.247,391.74a36.19,36.19,0,0,0-7.379.862c-.121.024-.047.094.077.077,2.448-.333,4.365-.611,7.3-.853C390.292,391.823,390.3,391.741,390.247,391.74Z" transform="translate(-376.327 -383.347)" fill="#263238"/></g></g><path d="M444.044,405.444a20.815,20.815,0,0,0-3.177-7.626,37,37,0,0,0-5.036-4.288l.584-.812a37,37,0,0,1,5.23,4.472,21.683,21.683,0,0,1,3.386,8.089Z" transform="translate(-394.629 -373.774)" fill="#263238"/></g><g transform="translate(21.092)"><g transform="translate(8.83 16.003)"><path d="M390.439,337.164c-.094.708-2.955,5.591-6.823,5.4-2.248-.111-.767-4.609-.767-4.609l-2.01-6.107,7.346-5.744S390.474,336.863,390.439,337.164Z" transform="translate(-380.837 -326.103)" fill="#dd6a57"/><path d="M389.022,330.126a12.261,12.261,0,0,1-6.286,7.489l-1.9-5.766,7.347-5.745S388.562,327.92,389.022,330.126Z" transform="translate(-380.836 -326.103)" fill="#263238"/></g><path d="M363.852,308.784c-.1,10.531,6.194,11.781,8.465,11.8,2.061.018,9.083-.184,10.273-10.648s-3.674-13.841-8.387-14.13S363.954,298.253,363.852,308.784Z" transform="translate(-363.85 -295.544)" fill="#dd6a57"/><g transform="translate(1.791 10.989)"><path d="M368.38,318.078a6.879,6.879,0,0,0,.7-.213,1.178,1.178,0,0,0,.668-.352.375.375,0,0,0-.042-.456.929.929,0,0,0-.932-.135,1.369,1.369,0,0,0-.81.557A.4.4,0,0,0,368.38,318.078Z" transform="translate(-367.582 -316.651)" fill="#263238"/><path d="M381.238,317.718a7,7,0,0,1-.722-.086,1.177,1.177,0,0,1-.721-.228.376.376,0,0,1-.04-.456.928.928,0,0,1,.893-.3,1.365,1.365,0,0,1,.9.4A.4.4,0,0,1,381.238,317.718Z" transform="translate(-373.249 -316.546)" fill="#263238"/><g transform="translate(6.704 2.636)"><g transform="translate(0 0.129)"><path d="M380.211,323.305c0-.028.058.03.059.06.024.717.173,1.534.837,1.729.02.006.021.042,0,.041C380.306,325.076,380.12,323.989,380.211,323.305Z" transform="translate(-380.19 -322.507)" fill="#263238"/><path d="M380.809,321.785c1.145-.163,1.388,2.14.327,2.291C380.091,324.225,379.848,321.922,380.809,321.785Z" transform="translate(-380.197 -321.777)" fill="#263238"/></g><path d="M382.146,321.74c.215.109.436.318.681.317.283,0,.47-.265.629-.516.017-.026.038-.008.042.022.053.441-.069.911-.535,1.027-.425.106-.776-.253-.933-.685C382,321.825,382.06,321.7,382.146,321.74Z" transform="translate(-381.07 -321.528)" fill="#263238"/></g><g transform="translate(0 3.246)"><g transform="translate(0.899)"><path d="M371.409,323.99c-.008-.027-.052.04-.048.069.1.71.1,1.541-.516,1.85-.02.01-.014.045.01.039C371.63,325.75,371.62,324.646,371.409,323.99Z" transform="translate(-369.893 -323.318)" fill="#263238"/><path d="M369.819,322.7c-1.156.042-.986,2.351.085,2.312C370.958,324.976,370.788,322.667,369.819,322.7Z" transform="translate(-369.024 -322.702)" fill="#263238"/></g><path d="M368.519,323.029c-.173.136-.337.372-.554.4-.252.035-.457-.2-.636-.428-.019-.023-.035,0-.034.028.02.442.2.892.631.945.393.049.648-.351.721-.8C368.66,323.094,368.589,322.975,368.519,323.029Z" transform="translate(-367.295 -322.842)" fill="#263238"/></g><path d="M379.193,334.308c-.145.192-.28.446-.534.507a1.908,1.908,0,0,1-.789-.063.025.025,0,0,0-.025.041.966.966,0,0,0,.958.249.763.763,0,0,0,.463-.712C379.27,334.287,379.213,334.28,379.193,334.308Z" transform="translate(-372.357 -325.02)" fill="#263238"/><g transform="translate(2.43)"><path d="M373.148,323.443s-.048,1.08,0,1.584c0,.047.128.058.3.052.009,0,.014,0,.02,0a2.4,2.4,0,0,0,2.24-1.11c.03-.052-.038-.1-.081-.062a3.621,3.621,0,0,1-2.126.83c-.048-.136.143-1.848.063-1.847a4.425,4.425,0,0,0-1.118.365c.034-2.253.429-4.482.43-6.727a.069.069,0,0,0-.134-.02,36.481,36.481,0,0,0-.772,7.226C371.954,324.022,372.955,323.548,373.148,323.443Z" transform="translate(-371.969 -316.458)" fill="#263238"/></g><g transform="translate(4.22 7.448)"><path d="M375.412,331.656a2.587,2.587,0,0,0,1.076.749,1.167,1.167,0,0,0,.709.008c.5-.161.493-.63.378-1.026a2.784,2.784,0,0,0-.26-.6A3.354,3.354,0,0,1,375.412,331.656Z" transform="translate(-375.412 -330.785)" fill="#263238"/><path d="M377.481,332.962a1.167,1.167,0,0,0,.709.008c.5-.161.493-.63.378-1.026A1.2,1.2,0,0,0,377.481,332.962Z" transform="translate(-376.405 -331.341)" fill="#ff9abb"/></g></g><path d="M381.775,310.108c-1.916.474-2.937-2.874-2.937-2.874s-8.407.3-9.9-6.363c0,0-.911,4.678-5.07,6.189,0,0-.578-8.479,5.117-10.6,0,0,6.966-3.5,11.734,1.792S383.061,309.79,381.775,310.108Z" transform="translate(-363.85 -295.321)" fill="#263238"/><path d="M373.7,305.843a7.379,7.379,0,0,0,1.039,2.945,7.683,7.683,0,0,0,2.134,2.334,6.576,6.576,0,0,0,.673.427l.342.2c.119.058.241.111.363.163.245.1.485.215.732.307.253.076.508.147.763.215.127.033.253.072.381.1l.39.058.777.115c.522.027,1.045.028,1.562.02-.513-.1-1.027-.146-1.529-.25l-.747-.177-.372-.088c-.122-.038-.24-.086-.36-.128-.239-.088-.477-.174-.717-.253-.232-.1-.457-.217-.685-.323l-.342-.162-.321-.2a6.356,6.356,0,0,1-.631-.413,8.813,8.813,0,0,1-2.108-2.148,9.157,9.157,0,0,1-.773-1.315A8.926,8.926,0,0,1,373.7,305.843Z" transform="translate(-368.577 -300.373)" fill="#263238"/><g transform="translate(16.587 11.622)"><path d="M396.123,320.522s2.039-3.454,3.589-2.751.193,5.586-1.5,6.371a1.781,1.781,0,0,1-2.453-.771Z" transform="translate(-395.756 -317.676)" fill="#dd6a57"/><path d="M400.174,320.532a.024.024,0,0,1,.013.046,4.5,4.5,0,0,0-2.1,2.987.983.983,0,0,1,1.446-.381c.034.02.007.073-.028.068a1.1,1.1,0,0,0-1.172.474,5.272,5.272,0,0,0-.5,1.016c-.049.114-.251.071-.219-.058,0-.01.006-.02.008-.029C397.465,323.1,398.51,320.818,400.174,320.532Z" transform="translate(-396.642 -319.047)" fill="#263238"/></g></g></g><path d="M17.478,14.929-.316.387.316-.387,18.111,14.155Z" fill="#ffc727"/></g></g><g transform="translate(-2.38 344.466)"><g transform="translate(0)"><g transform="translate(0 10.819)"><circle cx="30.663" cy="30.663" r="30.663" transform="translate(4.104 64.3) rotate(-78.98)" fill="#fff"/><path d="M30.663-.5a31.171,31.171,0,0,1,12.13,59.877A31.171,31.171,0,0,1,18.533,1.949,30.969,30.969,0,0,1,30.663-.5Zm0,61.327A30.163,30.163,0,1,0,.5,30.663,30.2,30.2,0,0,0,30.663,60.827Z" transform="translate(4.104 64.3) rotate(-78.98)" fill="#ffc727"/><path d="M34.636-.5A35.146,35.146,0,0,1,48.313,67.011,35.145,35.145,0,0,1,20.96,2.261,34.917,34.917,0,0,1,34.636-.5Zm0,69.273A34.136,34.136,0,1,0,.5,34.636,34.175,34.175,0,0,0,34.636,68.773Z" transform="translate(0 68.246) rotate(-80.125)" fill="#ffc727"/></g><g transform="translate(18.486)"><g transform="translate(25.489 29.047)"><g transform="translate(0.732 2.691)"><path d="M145.313,359.772c.907,5.088,3.95,27.7,8.322,29.751,7.125,3.348,9.4,3.226,15.32,4.31,3.347.612,7.253-17.146,4.178-16.969a76.988,76.988,0,0,1-10.675.146c-1.194-.209-5.689-12.961-10.941-19.818C146.785,351.015,144.675,356.188,145.313,359.772Z" transform="translate(-145.202 -354.319)" fill="#ad6359"/><g transform="translate(22.022 22.099)"><path d="M187.63,413.713a48.65,48.65,0,0,0,6.663,1.757c1.786.248,6.948.825,7.417-1.115.321-1.323-2.674-2.019-4.781-2.558-1.11-.284-2.559-1.193-2.348-1.911.369-1.254,3.235-.464,5.156.308,3.716,1.494,8.8,4.415,10.642,2.373.695-.772-.4-1.835-1.912-2.814,2.38,1.051,4.869,1.835,5.675,1.008a1.164,1.164,0,0,0,.029-1.6,1.542,1.542,0,0,0,1.645-.507c.6-.845.1-1.89-.842-2.9a.853.853,0,0,0,.583-.516c1.169-2.507-7.3-7.988-9.987-8.227a66.488,66.488,0,0,0-15.917.8C187,400.651,187.624,413.709,187.63,413.713Z" transform="translate(-187.561 -396.826)" fill="#ad6359"/><g transform="translate(10.273 1.618)"><path d="M207.34,412.632a13.107,13.107,0,0,1,5.384,1.223,37.351,37.351,0,0,1,5.472,3.58.046.046,0,0,1-.05.076c-.879-.6-4.481-2.833-5.4-3.325a12.483,12.483,0,0,0-5.409-1.523C207.317,412.663,207.319,412.632,207.34,412.632Z" transform="translate(-207.323 -406.033)" fill="#263238"/><path d="M209.172,405.994a31.261,31.261,0,0,1,6.231,1.194,20.742,20.742,0,0,1,5.843,3.612q1.627,1.265,3.2,2.6c.044.037,0,.113-.051.076q-2.757-2.182-5.643-4.2a16.515,16.515,0,0,0-5.906-2.625c-1.213-.271-2.445-.449-3.675-.626C209.146,406.027,209.148,405.991,209.172,405.994Z" transform="translate(-208.202 -402.845)" fill="#263238"/><path d="M212.52,399.938a16,16,0,0,1,5.644,1.009,28.2,28.2,0,0,1,5.933,3.781c.989.79,1.951,1.611,2.9,2.448.038.034-.02.1-.059.069a65.649,65.649,0,0,0-6.812-5.034,13.03,13.03,0,0,0-3.644-1.682,23.5,23.5,0,0,0-3.962-.577A.007.007,0,0,1,212.52,399.938Z" transform="translate(-209.815 -399.938)" fill="#263238"/></g></g></g><path d="M162.124,373.286,147.8,385.955s-3.936-20.3-4.009-29.023c-.076-9.092,3.278-11.273,9.327-.862A188.044,188.044,0,0,1,162.124,373.286Z" transform="translate(-143.794 -349.143)" fill="#ffc727"/><g transform="translate(4.324 22.352)"><path d="M152.117,402.213c.326-.356.7-.67,1.061-.993s.733-.669,1.1-1c.742-.679,1.5-1.345,2.253-2.007,1.512-1.323,3.019-2.651,4.554-3.948.422-.357.845-.712,1.276-1.058.453-.363.933-.694,1.384-1.057.028-.023.058.02.033.044-.364.339-.7.709-1.065,1.05s-.749.695-1.131,1.034q-1.126,1-2.267,1.987c-1.5,1.291-2.993,2.59-4.519,3.849-.426.352-.855.7-1.281,1.051-.446.368-.881.767-1.358,1.092C152.13,402.27,152.095,402.237,152.117,402.213Z" transform="translate(-152.11 -392.138)" fill="#263238"/></g><path d="M143.795,356.933c.074,8.726,4.007,29.026,4.007,29.026l11.99-10.611-13.078-26.19C144.769,348.973,143.751,351.893,143.795,356.933Z" transform="translate(-143.793 -349.146)" opacity="0.1"/></g><g transform="translate(1.489 28.967)"><path d="M137.952,393.943a30.642,30.642,0,0,1-40.322.12c4.279-13.787,13.158-39.594,18.44-43.81a4.848,4.848,0,0,1,1.471-.723.327.327,0,0,0,.068-.016,11.991,11.991,0,0,1,2.007-.411c2.6-.322,5.667.016,6.592,1.222C129.4,354.495,135.2,380.12,137.952,393.943Z" transform="translate(-97.63 -348.988)" fill="#ffc727"/></g><g transform="translate(0 29.403)"><g transform="translate(0.313 2.143)"><path d="M107.931,361.431c-6.094,10.068-14.537,25.707-12.151,34.045,2.3,8.03,38.012,6.889,44.059,6.03,2.614-.371-.348-18.418-3.164-18.221-4.643.324-23.069-.5-23.411-.5,0,0,1.324-10.677,3.49-19.967C119.7,350.169,113.466,352.286,107.931,361.431Z" transform="translate(-95.366 -353.949)" fill="#ad6359"/><path d="M115.1,414.049l-.457-.595A34.01,34.01,0,0,1,122.5,409.1l.262.7A33.908,33.908,0,0,0,115.1,414.049Z" transform="translate(-104.73 -380.595)" fill="#263238"/><g transform="translate(20.674 15.145)"><g transform="translate(0 23.344)"><rect width="40.761" height="1.826" fill="#c7c7c7"/><g transform="translate(13.054)"><path d="M187.949,427.982v1.826H160.242l1.4-1.826Z" transform="translate(-160.242 -427.982)" fill="#a6a6a6"/></g></g><g transform="translate(18.658)"><path d="M171.022,408.25H206.7l5.162-25.17H176.184Z" transform="translate(-171.022 -383.08)" fill="#a6a6a6"/><g transform="translate(1.667)"><path d="M174.229,408.25H209.9l5.162-25.17H179.391Z" transform="translate(-174.229 -383.08)" fill="#c7c7c7"/></g><path d="M216.282,403.82a2.509,2.509,0,0,1-1.777,2.538,1.648,1.648,0,0,1-1.912-1.768,2.509,2.509,0,0,1,1.777-2.538A1.647,1.647,0,0,1,216.282,403.82Z" transform="translate(-190.98 -392.173)" fill="#fff"/></g><g transform="translate(12.483 13.147)"><path d="M168.449,422.713c2.808,1.524,6.2,5.162,8.542,5.572a2.724,2.724,0,0,0,2.955-1.355s1.045,2.413,3.229,2.435c1.123.011,2.129-1.775,2.129-1.775a3.251,3.251,0,0,0,2.866,1.8c1.548-.081,2.324-1.858,2.324-1.858s1.732,1.407,3.284.82c3.146-1.192,3.863-14.483-.922-16.8-2.23-1.08-2.229,2.176-2.229,2.176s-1.132-4.682-3.868-4.9-2.48,4.012-2.48,4.012-1.137-4.527-4-4.467c-2.977.063-2,4.25-2,4.25s-1.844-3.064-4.023-2.516c-3.6.9.475,7.848-.375,10.732l-4.755-.006Z" transform="translate(-163.612 -408.369)" fill="#ad6359"/><path d="M168.064,436.823c-2.785-1.211-4.12.776-7.029.394-3.23-.424-2.177-4.217,3.5-4.883l4.923.008Z" transform="translate(-159.183 -419.875)" fill="#ad6359"/><g transform="translate(14.391 3.85)"><path d="M210.9,431.959a.035.035,0,0,0,.068.017,23.087,23.087,0,0,0-.077-13.736c-.049-.141-.3-.123-.274.043A47.269,47.269,0,0,1,210.9,431.959Z" transform="translate(-198.249 -416.913)" fill="#263238"/><path d="M199.835,431.5c-.007.051.078.064.094.01a21.628,21.628,0,0,0-1.016-14.979c-.079-.162-.312-.229-.236-.035C199.964,419.76,200.432,427.238,199.835,431.5Z" transform="translate(-192.508 -416.064)" fill="#263238"/><path d="M186.833,415.882c2.024,4.625,2.362,9.434,2,14.422,0,.065.088.065.107.012a19.463,19.463,0,0,0,.454-8.082,13.3,13.3,0,0,0-2.4-6.423C186.941,415.736,186.79,415.784,186.833,415.882Z" transform="translate(-186.825 -415.775)" fill="#263238"/></g><path d="M171.882,440.009a13.176,13.176,0,0,1-3.623-2.169,5.631,5.631,0,0,0-1.587-1.011,7.565,7.565,0,0,0-1.852.343,14.634,14.634,0,0,1-3.253.568,2.522,2.522,0,0,1-2.6-1.359,2.022,2.022,0,0,1,.185-2.044c1.064-1.568,4.186-2.429,5.53-2.375l-.03.749a7.7,7.7,0,0,0-2.532.52,4.878,4.878,0,0,0-2.348,1.527,1.273,1.273,0,0,0-.12,1.318c.651,1.465,3.157.832,4.987.369a7.276,7.276,0,0,1,2.117-.362,5.024,5.024,0,0,1,1.96,1.16,12.6,12.6,0,0,0,3.407,2.055Z" transform="translate(-159.144 -419.875)" fill="#263238"/></g></g></g><path d="M113.878,378.717l-19.113.5s10.033-18.08,15.584-24.81c5.786-7.014,9.758-6.529,7.7,5.334A188.146,188.146,0,0,1,113.878,378.717Z" transform="translate(-94.765 -349.827)" fill="#ffc727"/><g transform="translate(3.042 16.042)"><g transform="translate(0 9.866)"><path d="M100.638,399.993c.478-.063.97-.06,1.451-.079s.991-.042,1.487-.063c1-.044,2.01-.069,3.016-.09,2.009-.041,4.017-.09,6.026-.1.552,0,1.105,0,1.657.01.581.013,1.161.068,1.741.08.036,0,.031.053,0,.055-.5.025-.992.092-1.49.12s-1.02.05-1.531.066q-1.507.044-3.014.065c-1.978.026-3.958.06-5.936.044-.553,0-1.1-.014-1.657-.019-.578,0-1.168.022-1.743-.036C100.612,400.043,100.606,400,100.638,399.993Z" transform="translate(-100.617 -399.662)" fill="#263238"/></g><path d="M133.045,384.607a5.7,5.7,0,0,0,.8-2.062.012.012,0,0,0-.023-.006,11.891,11.891,0,0,1-.729,1.841c.053-.266.107-.531.159-.8.19-.96.383-1.918.526-2.886,0-.015-.022-.022-.027-.007-.442,1.648-.812,3.318-1.217,4.976-.411,1.681-.812,3.366-1.213,5.049-.218.918-.441,1.837-.639,2.759-.31.034-.554.029-.828.061-.075.008-.079.135,0,.138a5.337,5.337,0,0,0,1.039-.041C131.779,390.673,132.437,387.639,133.045,384.607Z" transform="translate(-114.626 -380.684)" fill="#263238"/></g></g><g transform="translate(20.117)"><g transform="translate(0.959 20.744)"><path d="M142.863,349.475c-2.4.38-6.168-3.522-7.544-6.558-.094-.208.372-2.293.817-4.852.264-1.554.521-3.291.642-4.893l9.863,3.2a25.613,25.613,0,0,0-1.433,6.077,3.652,3.652,0,0,0,.019.663c0,.03.007.068.007.11C145.343,344.481,145.179,349.106,142.863,349.475Z" transform="translate(-135.307 -333.172)" fill="#ad6359"/><path d="M139.47,333.61c.132,2.143,1,9.234,6.724,9.793a5.74,5.74,0,0,0,1.039.023c0-.043-.007-.075-.006-.107a3.5,3.5,0,0,1-.021-.666,25.615,25.615,0,0,1,1.431-6.075Z" transform="translate(-137.306 -333.382)" fill="#263238"/></g><g transform="translate(2.271 3.776)"><path d="M139.544,304.441c-1.888,3.223-2.443,13.7-.5,16.524,2.81,4.1,8.6,5.8,12.385,2.154,3.667-3.538,4.149-17.2,1.873-19.894C149.943,299.261,142.332,299.682,139.544,304.441Z" transform="translate(-137.829 -300.533)" fill="#ad6359"/></g><g transform="translate(10.081 12.869)"><g transform="translate(0.413 2.628)"><path d="M155.845,324.574c0-.027-.057.031-.058.059-.019.707-.159,1.513-.81,1.71-.02.006-.02.042,0,.039C155.765,326.319,155.94,325.247,155.845,324.574Z" transform="translate(-154.278 -323.794)" fill="#263238"/><path d="M154.625,323.087c-1.129-.152-1.35,2.118-.3,2.259C155.352,325.485,155.573,323.215,154.625,323.087Z" transform="translate(-153.646 -323.08)" fill="#263238"/></g><g transform="translate(6.059 2.998)"><path d="M164.614,325.08c.008-.026.052.038.048.068-.09.7-.076,1.519.537,1.814.019.009.014.044-.01.038C164.425,326.816,164.416,325.73,164.614,325.08Z" transform="translate(-164.506 -324.407)" fill="#263238"/><path d="M165.347,323.791c1.139.024,1.007,2.3-.048,2.279C164.26,326.048,164.392,323.771,165.347,323.791Z" transform="translate(-164.538 -323.791)" fill="#263238"/></g><path d="M153.449,319.535a8.883,8.883,0,0,0,.909-.224,1.514,1.514,0,0,0,.884-.405.483.483,0,0,0-.02-.589,1.2,1.2,0,0,0-1.188-.24,1.757,1.757,0,0,0-1.081.659A.514.514,0,0,0,153.449,319.535Z" transform="translate(-152.852 -318.024)" fill="#263238"/><path d="M166.321,320.258a8.755,8.755,0,0,1-.88-.322,1.516,1.516,0,0,1-.834-.5.482.482,0,0,1,.085-.583,1.2,1.2,0,0,1,1.207-.109,1.757,1.757,0,0,1,1,.772A.514.514,0,0,1,166.321,320.258Z" transform="translate(-158.465 -318.318)" fill="#263238"/><path d="M154.354,336.81c.153.181.3.424.552.47a1.855,1.855,0,0,0,.773-.1.025.025,0,0,1,.027.04.951.951,0,0,1-.93.295.753.753,0,0,1-.493-.676C154.277,336.794,154.332,336.784,154.354,336.81Z" transform="translate(-153.539 -327.037)" fill="#263238"/><g transform="translate(1.748 0.408)"><path d="M156.225,326.141a2.406,2.406,0,0,0,1.495,1.221,3.022,3.022,0,0,0,.857.123.842.842,0,0,0,.166,0c.052,0,.1,0,.156-.008a.176.176,0,0,0,.156-.144v-.005a.305.305,0,0,0,0-.072v-.006l0-.061c.068-.54.1-1.369.1-1.369.188.119,1.153.67,1.165.386a36.225,36.225,0,0,0-.225-7.337.065.065,0,0,0-.13.005c-.174,2.26.051,4.536-.088,6.809a4.217,4.217,0,0,0-1.1-.453c-.079.015-.024,1.6-.074,1.842a.086.086,0,0,1-.007.026,3.335,3.335,0,0,1-2.4-1.01C156.249,326.039,156.189,326.081,156.225,326.141Z" transform="translate(-156.214 -318.808)" fill="#263238"/></g></g><g transform="translate(3.508)"><path d="M158.3,309.226a3.977,3.977,0,0,1-3.717,1.085,4.056,4.056,0,0,1-2.941-2.636.032.032,0,0,0-.061.018,4.015,4.015,0,0,0,2.924,2.932,4.1,4.1,0,0,0,3.866-1.33C158.415,309.247,158.349,309.181,158.3,309.226Z" transform="translate(-145.67 -300.175)" fill="#263238"/><path d="M153.032,293.494a4.283,4.283,0,0,0-4.579,1.3,5.867,5.867,0,0,0-1.252,2.658.032.032,0,0,0,.061.015,5.375,5.375,0,0,1,3.044-3.588,3.589,3.589,0,0,1,4.071.911,3.635,3.635,0,0,1,.914,2.241.072.072,0,0,0,.143,0A3.718,3.718,0,0,0,153.032,293.494Z" transform="translate(-143.565 -293.27)" fill="#263238"/><path d="M175.569,299.838a4.8,4.8,0,0,0-1.858-2.723,6.633,6.633,0,0,0-4.3-.862.032.032,0,0,0,0,.063,6.627,6.627,0,0,1,3.713.689,4.721,4.721,0,0,1,2.015,2.449,4.6,4.6,0,0,1-2.31,5.566,4.677,4.677,0,0,1-3.7.111c-.046-.019-.086.048-.039.069a4.7,4.7,0,0,0,6.479-5.363Z" transform="translate(-154.065 -294.694)" fill="#263238"/><path d="M140.208,302s.47-3.175,1.385-4.079a4.853,4.853,0,0,1,2.766-.965s1.31-2.607,3.9-2.555a5,5,0,0,1,3.709,2.227s3.485-2.893,6.984-.759c3.319,2.024,2.407,7.275-1.106,8.665-2.467.976-5.537-1.376-5.537-1.376-.313.019-3.641,1.693-5.829-1.328,0,0-2.316,1.5-3.459.2A3.814,3.814,0,0,1,140.208,302Z" transform="translate(-140.208 -293.811)" fill="#263238"/></g><path d="M137.843,314.8c.65-.385,2.049-2.964,2.684-4.036.577-.973.993-5.092,1.165-7.146a7.335,7.335,0,0,0-2.143,2.3C138.561,307.608,137.937,311.28,137.843,314.8Z" transform="translate(-135.565 -298.239)" fill="#263238" opacity="0.2"/><g transform="translate(0 13.068)"><path d="M137.643,321.715s-1.573-3.756-3.228-3.264-.967,5.591.63,6.614a1.808,1.808,0,0,0,2.573-.436Z" transform="translate(-133.461 -318.406)" fill="#ad6359"/><path d="M135.717,321.292c-.027-.008-.041.03-.019.045a4.57,4.57,0,0,1,1.7,3.295,1,1,0,0,0-1.4-.583c-.036.016-.017.072.019.072a1.111,1.111,0,0,1,1.114.639,5.383,5.383,0,0,1,.363,1.092c.033.121.243.106.228-.029,0-.01,0-.02,0-.03C138.086,324.246,137.351,321.81,135.717,321.292Z" transform="translate(-134.53 -319.791)" fill="#263238"/></g></g></g><path d="M.354,15.875l-.709-.705L15.088-.353,15.8.353Z" transform="translate(60.788 7.478)" fill="#ffc727"/></g></g><g transform="translate(62.172 281.11)"><g transform="translate(0 0)"><g transform="translate(0 9.863)"><circle cx="30.663" cy="30.663" r="30.663" transform="translate(3.973 3.973)" fill="#fff"/><path d="M30.663-.5a31.171,31.171,0,0,1,12.13,59.878A31.171,31.171,0,0,1,18.533,1.949,30.969,30.969,0,0,1,30.663-.5Zm0,61.327A30.163,30.163,0,1,0,.5,30.663,30.2,30.2,0,0,0,30.663,60.827Z" transform="translate(3.973 3.973)" fill="#ffc727"/><path d="M34.636-.5A35.146,35.146,0,0,1,48.313,67.011,35.145,35.145,0,0,1,20.96,2.261,34.917,34.917,0,0,1,34.636-.5Zm0,69.273A34.136,34.136,0,1,0,.5,34.636,34.175,34.175,0,0,0,34.636,68.773Z" fill="#ffc727"/></g><g transform="translate(13.28)"><g transform="translate(22.518 20.217)"><g transform="translate(0.505)"><path d="M255.221,233.723c5.9,11.819,13.364,24.6,20.234,26.545,6.534,1.846,18.977-14.3,22.889-18.557,1.411-1.535-10.268-10.106-12.048-8.763-3.355,2.531-9.361,9.385-10.386,9.158-1.066-.241-9.633-8.221-17.408-14.948C253.79,223.081,251.135,225.535,255.221,233.723Z" transform="translate(-253.207 -217.461)" fill="#f7a9a0"/><g transform="translate(30.77)"><g transform="translate(2.011)"><path d="M326.991,236.638c1.461-1.211,8.978-8.24,10.323-10.335s4.777-8.4,3.277-9.594-2.652.574-2.652.574,1.027-2.893-.591-3.956-3.321,1.744-3.321,1.744.838-3.048-.852-3.992-2.93,2.164-2.93,2.164.9-2.751-.823-2.944c-2.069-.231-3.149,5.028-4.807,7.228-.376.5-8.351,9.587-8.351,9.587Z" transform="translate(-316.263 -210.292)" fill="#f7a9a0"/><g transform="translate(9.551 2.558)"><path d="M339.177,215.34c-.8,3.865-1.823,5.417-4.523,8.213-.053.055.017.146.077.094,2.893-2.5,4.453-4.259,4.635-8.277C339.375,215.173,339.215,215.157,339.177,215.34Z" transform="translate(-334.635 -215.212)" fill="#263238"/><path d="M346.018,218.8a20.81,20.81,0,0,1-4.889,8.771c-.037.044.034.112.075.07,2.82-2.862,4.336-4.656,5-8.75C346.238,218.705,346.073,218.62,346.018,218.8Z" transform="translate(-337.748 -216.887)" fill="#263238"/><path d="M352.62,223.9a18.673,18.673,0,0,1-5.467,8.36.074.074,0,0,0,.094.113,13.252,13.252,0,0,0,5.482-8.418C352.784,223.708,352.709,223.661,352.62,223.9Z" transform="translate(-340.633 -219.307)" fill="#263238"/></g></g><g transform="translate(0 3.766)"><path d="M312.394,232.891a48.43,48.43,0,0,1,.967-7.07c.627-2.135,5.894-9.23,7.491-8.18,2.062,1.356-.172,6.051-1.566,8.208,0,0,4.773,3.133,3.9,6.85S312.394,232.891,312.394,232.891Z" transform="translate(-312.394 -217.536)" fill="#f7a9a0"/><path d="M327.437,218.8c.988,2.594-1.025,5.306-2.221,7.5a.229.229,0,0,0,.153.343c1.913,1.447,4.19,4.045,4.09,6.574a.058.058,0,0,0,.114.014c.475-2.7-1.553-5.433-3.75-6.884,1.262-2.23,3.162-5.039,1.639-7.558A.013.013,0,0,0,327.437,218.8Z" transform="translate(-318.533 -218.133)" fill="#263238"/></g></g></g><g transform="translate(0 7.762)"><path d="M282.914,233.754l12.608,13.934s-13.928,14.982-20.286,13.254-18.651-18.822-22.3-29.886c-2.524-7.656,2.244-6.8,6.607-2.987s15.785,13.305,16.3,13.178S282.914,233.754,282.914,233.754Z" transform="translate(-252.235 -225.222)" fill="#ffc727"/><path d="M279.024,260.533a6.412,6.412,0,0,1-3.785.411c-6.358-1.726-18.653-18.82-22.3-29.888-1.565-4.746-.328-6.223,1.882-5.745C260.735,233.941,274.392,253.8,279.024,260.533Z" transform="translate(-252.237 -225.224)" opacity="0.1"/><path d="M317.662,261.477c-1.828-1.924-9.021-10.066-10.456-11.931-.1-.129-.042-.224.079-.1a143.643,143.643,0,0,1,10.45,11.959C317.778,261.451,317.708,261.526,317.662,261.477Z" transform="translate(-278.603 -236.825)" fill="#263238"/></g></g><g transform="translate(0 27.287)"><path d="M249.287,266.237a35.028,35.028,0,0,1-40.366-2.107c1.914-9.949,6.616-26.931,16.357-38.118,2.721-3.126,10.132-2.211,11-.957C242.089,233.5,247.248,255.539,249.287,266.237Z" transform="translate(-208.921 -223.891)" fill="#ffc727"/></g><g transform="translate(0.472 31.545)"><g transform="translate(38.135 13.068)"><path d="M283.183,288.025l21.94,1.3,5.989-30.806-21.94-1.3Z" transform="translate(-283.183 -257.219)" fill="#a6a6a6"/><path d="M285.256,288.148l21.94,1.3,5.989-30.806-21.94-1.3Z" transform="translate(-284.178 -257.278)" fill="#c7c7c7"/><path d="M313.852,283.857a2.38,2.38,0,0,1-2.448,2,1.928,1.928,0,0,1-1.821-2.25,2.379,2.379,0,0,1,2.448-2A1.928,1.928,0,0,1,313.852,283.857Z" transform="translate(-295.847 -268.927)" fill="#fff"/></g><g transform="translate(0.123 0.622)"><path d="M221.04,237.106c-4.631,9.543-14.4,31.2-9.751,35.008,7.636,6.265,24.283,10.029,29.4,10.646,2.209.266,7.089-16.3,4.892-17.208-2.637-1.094-18.887-4.442-19.089-5.166-.222-.8.822-11.728.334-20.131C226.221,229.827,222.971,233.125,221.04,237.106Z" transform="translate(-210.066 -233.277)" fill="#f7a9a0"/><g transform="translate(27.681 25.496)"><path d="M263.311,289.353s6.076-2.983,10.141-4.747c2.268-.984,6.306-2.324,8.3-2.285,2.987.059,15.44,2.211,14.983,5.241-.413,2.743-10.878-.464-10.878-.464s10.846,2.3,9.74,5.515-12.447-1.985-12.447-1.985,11.091,2.617,9.427,5.748c-1.258,2.366-11.795-1.761-11.795-1.761s9.517,2.314,8.329,4.8c-1.313,2.751-11.278-.448-11.278-.448-4.085,5.82-8.261,7.223-11.582,7.336C265.481,306.334,263.311,289.353,263.311,289.353Z" transform="translate(-263.311 -282.319)" fill="#f7a9a0"/><g transform="translate(15.686 3.866)"><path d="M300.518,289.756c8.118,1.087,11.767,4.107,11.654,4.046a48.021,48.021,0,0,0-8.423-3.048c-1.257-.337-1.987-.612-3.245-.951C300.471,289.795,300.487,289.752,300.518,289.756Z" transform="translate(-296.845 -289.755)" fill="#263238"/><path d="M297.039,298.221a27.863,27.863,0,0,1,9.524,2.592c.112.062.059.093-.064.056-1.59-.474-7.867-2.215-9.472-2.61C297,298.253,297.014,298.219,297.039,298.221Z" transform="translate(-295.178 -293.82)" fill="#263238"/><path d="M293.528,305.3a20.692,20.692,0,0,1,7.315,2.225c.113.055.03.1-.093.063-2.417-.786-4.308-1.419-7.237-2.2C293.467,305.38,293.475,305.3,293.528,305.3Z" transform="translate(-293.483 -297.221)" fill="#263238"/></g></g></g><path d="M240.379,263.427l-5.409,19.75s-22.325-7.474-24.762-12.382,7.521-30.05,10.937-35.42,5.115-3.7,5.91,1.611-.512,22.534-.358,22.824S240.379,263.427,240.379,263.427Z" transform="translate(-209.829 -232.082)" fill="#ffc727"/><path d="M242.215,262.64q.1-1.928.167-3.856c.025-.669.046-1.336.081-2,.016-.308.029-.616.045-.923.008-.152.031-.308.029-.461a2.333,2.333,0,0,1,.047-.613c0-.035.061-.037.063,0,.023.348.071.2.049.469a5.691,5.691,0,0,0,0,.6c.007.307.01.615.015.923.009.631,0,1.26-.007,1.891,0,.083-.005.166-.007.249,0-.023.006-.047.01-.07.112-.7.233-1.4.352-2.1a.025.025,0,0,1,.049.006c-.038.712-.1,1.414-.208,2.119-.061.407-.146.809-.233,1.211-.02.843-.036,1.685-.067,2.528-.1,2.609-.206,5.235-.512,7.828,1.153.3,2.321.554,3.473.861s2.309.633,3.462.954,2.306.64,3.451.982c.547.163,1.091.337,1.636.505.593.184,1.168.435,1.764.6.061.017.023.107-.037.091-.618-.165-1.261-.249-1.883-.4-.547-.133-1.1-.261-1.641-.4-1.161-.3-2.317-.613-3.473-.928s-2.31-.627-3.462-.955-2.28-.712-3.427-1.042a.121.121,0,0,1-.08-.067.138.138,0,0,1-.083-.132C241.877,267.886,242.085,265.264,242.215,262.64Z" transform="translate(-225.173 -242.968)" fill="#263238"/><path d="M252.51,301.165c.409-1.434,2.085-7.158,2.61-8.547.009-.022.047-.016.043.009-.242,1.424-1.73,7.12-2.137,8.558a81.381,81.381,0,0,1-2.691,8.525c-.02.048-.107.037-.1-.021C250.8,306.8,251.7,303.991,252.51,301.165Z" transform="translate(-229.231 -261.14)" fill="#263238"/></g><g transform="translate(8.289)"><path d="M241.333,231.762s-6.978-5.346-11-4.717l-3.062,3.461s-1.081.506-1.516-.165a7.574,7.574,0,0,1,1.572-9.125c3.055-2.945,10.02-3.263,14.76-2.609,4.552.628,7.3,2.93,6.293,5.971S241.333,231.762,241.333,231.762Z" transform="translate(-224.866 -193.93)" fill="#ffc727"/><path d="M246.062,231.394s4.622-4.225,4.884-6.433-4.274-3.733-7.141-4.2c-4.437-.722-7.323-.093-9.448,2.487S246.062,231.394,246.062,231.394Z" transform="translate(-229.316 -194.968)" opacity="0.1"/><path d="M245.646,234.137s-6.029-7.86-12.376-7.94l1.094,4.629s3.728-.443,11,4.717Z" transform="translate(-228.901 -197.711)" fill="#ffc727"/><g transform="translate(2.402 32.647)"><path d="M232.155,234.958a8.019,8.019,0,0,1,3.407.043,14.9,14.9,0,0,1,3.244,1.06,25.878,25.878,0,0,1,3.03,1.592l1.439.937,1.4,1,.156.113.148-.1a29.015,29.015,0,0,0,3.121-2.438,16.382,16.382,0,0,0,1.407-1.392,10.151,10.151,0,0,0,1.187-1.577,17.511,17.511,0,0,1-2.82,2.7c-.508.408-1.035.793-1.567,1.168s-1.068.75-1.614,1.093l.3.013-1.4-1.041c-.481-.329-.972-.646-1.462-.961-.509-.287-1.012-.585-1.531-.853-.529-.25-1.049-.519-1.6-.721a13.726,13.726,0,0,0-3.384-.917c-.289-.045-.583-.059-.874-.082-.293,0-.586-.01-.878.012A5.136,5.136,0,0,0,232.155,234.958Z" transform="translate(-230.767 -234.201)" fill="#263238"/><path d="M229.486,238.562a18.943,18.943,0,0,0,3.062-3.461,16.9,16.9,0,0,0-1.637,1.637A17.191,17.191,0,0,0,229.486,238.562Z" transform="translate(-229.486 -234.633)" fill="#263238"/></g><g transform="translate(13.451 34.703)"><path d="M251.159,238.191a34.765,34.765,0,0,0-.418,5.971c.013,1.394.7,6.376,2.243,6.149s-1.077-3.377-1.6-6c-.53-2.663.124-4.574.17-6.155Z" transform="translate(-250.739 -238.156)" fill="#ffc727"/><g opacity="0.1"><path d="M251.159,238.191a34.765,34.765,0,0,0-.418,5.971c.013,1.394.7,6.376,2.243,6.149s-1.077-3.377-1.6-6c-.53-2.663.124-4.574.17-6.155Z" transform="translate(-250.739 -238.156)"/></g></g><g transform="translate(19.163 34.244)"><path d="M262.085,237.272a31.536,31.536,0,0,1,1.313,5.267c.208,1.247.378,5.8-1.036,5.844s.43-3.185.484-5.609c.055-2.461-.83-4.065-1.12-5.47Z" transform="translate(-261.726 -237.272)" fill="#ffc727"/><g opacity="0.1"><path d="M262.085,237.272a31.536,31.536,0,0,1,1.313,5.267c.208,1.247.378,5.8-1.036,5.844s.43-3.185.484-5.609c.055-2.461-.83-4.065-1.12-5.47Z" transform="translate(-261.726 -237.272)"/></g></g><g transform="translate(3.35)"><path d="M237.779,203.39a18.563,18.563,0,0,1-.113,3.343c-.223.861-2.16,1.763-2.16,1.763a9.778,9.778,0,0,0,2.835.632c.627-.15,1.639-1.756,1.639-1.756s-.933,2.572-1.828,2.707c-.557.084,1.366.1,1.366.1a2.594,2.594,0,0,0,1.68-.778C241.851,208.666,237.779,203.39,237.779,203.39Z" transform="translate(-233.325 -186.761)" fill="#263238"/><g transform="translate(6.381 19.121)"><path d="M251.8,223.77c-2.345.625-6.5-2.866-8.182-5.743-.114-.2.133-2.319.311-4.911.1-1.573.178-3.327.133-4.933l10.14,2.159a25.593,25.593,0,0,0-.8,6.193,3.636,3.636,0,0,0,.088.657c0,.03.014.067.018.109C253.745,218.547,254.061,223.164,251.8,223.77Z" transform="translate(-243.584 -208.184)" fill="#f7a9a0"/><path d="M253.791,216.534a3.575,3.575,0,0,0,.072.57,13.663,13.663,0,0,1-9.463-5.488c.055-1.139.082-2.321.05-3.431l10.137,2.158A25.616,25.616,0,0,0,253.791,216.534Z" transform="translate(-243.975 -208.184)" fill="#263238"/></g><g transform="translate(4.201 1.301)"><path d="M239.517,180.479c-.76,3.656,2.061,13.76,4.8,15.819,3.972,2.985,10.006,2.752,12.424-1.916,2.344-4.525-1.565-17.626-4.582-19.45C247.716,172.248,240.638,175.077,239.517,180.479Z" transform="translate(-239.391 -173.905)" fill="#f7a9a0"/></g><g transform="translate(10.901 8.565)"><g transform="translate(1.238 4.108)"><path d="M257.173,196.844c-.012-.024-.045.047-.036.074.208.676.333,1.484-.221,1.879-.017.012-.006.046.016.037C257.655,198.523,257.478,197.451,257.173,196.844Z" transform="translate(-255.74 -196.289)" fill="#263238"/><path d="M255.291,195.791c-1.119.217-.6,2.439.434,2.238C256.746,197.831,256.229,195.609,255.291,195.791Z" transform="translate(-254.662 -195.781)" fill="#263238"/></g><g transform="translate(6.777 2.581)"><path d="M265.318,194.56c0-.028.061.02.067.048.138.694.413,1.464,1.088,1.548.021,0,.028.037,0,.039C265.692,196.266,265.338,195.239,265.318,194.56Z" transform="translate(-265.317 -193.663)" fill="#263238"/><path d="M265.764,192.878c1.087-.341,1.69,1.859.683,2.175C265.455,195.364,264.852,193.164,265.764,192.878Z" transform="translate(-265.315 -192.842)" fill="#263238"/></g><path d="M253.035,192.551a9.056,9.056,0,0,0,.79-.5c.3-.2.561-.322.708-.666a.482.482,0,0,0-.207-.551,1.2,1.2,0,0,0-1.2.152,1.758,1.758,0,0,0-.814.97A.514.514,0,0,0,253.035,192.551Z" transform="translate(-252.28 -189.244)" fill="#263238"/><path d="M265.442,189.176a8.781,8.781,0,0,1-.936-.024,1.511,1.511,0,0,1-.95-.206.482.482,0,0,1-.106-.579,1.194,1.194,0,0,1,1.108-.489,1.757,1.757,0,0,1,1.2.411A.514.514,0,0,1,265.442,189.176Z" transform="translate(-257.617 -187.878)" fill="#263238"/><path d="M259.679,209.026c.2.123.418.306.673.269a1.877,1.877,0,0,0,.7-.345.025.025,0,0,1,.038.029.952.952,0,0,1-.787.577.753.753,0,0,1-.683-.483C259.6,209.034,259.649,209.007,259.679,209.026Z" transform="translate(-255.802 -197.993)" fill="#263238"/><g transform="translate(4.097 0.636)"><path d="M260.185,197.269a2.4,2.4,0,0,0,1.807.679,3.021,3.021,0,0,0,.852-.158.857.857,0,0,0,.157-.056c.049-.018.093-.034.145-.058a.176.176,0,0,0,.1-.186v-.005a.32.32,0,0,0-.023-.069l0-.005-.015-.06c-.109-.533-.347-1.327-.347-1.327.216.052,1.306.266,1.226-.007a36.162,36.162,0,0,0-2.557-6.881.066.066,0,0,0-.122.047c.558,2.2,1.5,4.282,2.093,6.48a4.212,4.212,0,0,0-1.184-.079c-.07.039.489,1.526.518,1.769a.094.094,0,0,1,0,.027,3.335,3.335,0,0,1-2.6-.189C260.175,197.165,260.131,197.224,260.185,197.269Z" transform="translate(-260.161 -189.101)" fill="#263238"/></g><g transform="translate(4.017 8.771)"><path d="M262.4,205.2a2.856,2.856,0,0,1-.962,1.08,1.284,1.284,0,0,1-.758.19c-.582-.043-.69-.55-.67-1a3.08,3.08,0,0,1,.125-.713A3.7,3.7,0,0,0,262.4,205.2Z" transform="translate(-260.007 -204.75)" fill="#263238"/><path d="M261.437,206.93a1.284,1.284,0,0,1-.758.19c-.582-.043-.69-.55-.67-1A1.327,1.327,0,0,1,261.437,206.93Z" transform="translate(-260.007 -205.403)" fill="#ff9cbd"/></g></g><path d="M240.087,189.2c1.76-.864,1.58-7.255,1.58-7.255l.972,3.355a8.364,8.364,0,0,0,1.614-3.064,6.146,6.146,0,0,0-.457-3.407,11.392,11.392,0,0,0,4.925,1.985c.913.073,7.332-1.114,7.261-1.513-.213-1.189-3.513-4.984-5.327-5.793a8.532,8.532,0,0,0-8.54.483,8.256,8.256,0,0,0-4.358,6.824C237.535,182.825,239.44,189.514,240.087,189.2Z" transform="translate(-234.398 -171.97)" fill="#263238"/><g transform="translate(2.748 13.787)"><path d="M241.139,200.183s-2.69-3.056-4.1-2.061.87,5.607,2.71,6.067a1.808,1.808,0,0,0,2.3-1.235Z" transform="translate(-236.597 -197.923)" fill="#f7a9a0"/><path d="M238.744,200.818a.025.025,0,0,0,0,.048,4.568,4.568,0,0,1,2.665,2.579,1,1,0,0,0-1.514-.106c-.03.027.007.074.041.062a1.112,1.112,0,0,1,1.26.25,5.392,5.392,0,0,1,.692.919c.07.1.264.023.207-.1,0-.009-.009-.019-.013-.028C241.933,202.859,240.458,200.786,238.744,200.818Z" transform="translate(-237.617 -199.313)" fill="#263238"/></g><path d="M243.823,171.892a14.969,14.969,0,0,0-4.325-.471c-1.626.092-6.563,1.4-7.58,2.621s-.469,6-.375,6.7,1.169,4.813,2.865,5.543.541-6.386,2.5-9.175S243.823,171.892,243.823,171.892Z" transform="translate(-231.311 -171.403)" fill="#ffc727"/><path d="M245.133,171.924s-4.966,2.427-6.92,5.216-.8,9.9-2.5,9.176a3.375,3.375,0,0,1-1.668-1.981,17.568,17.568,0,0,1,1.5-8.041c1.235-2.382,3.825-3.946,6.741-4.829A17.033,17.033,0,0,1,245.133,171.924Z" transform="translate(-232.619 -171.433)" opacity="0.1"/><g transform="translate(1.499 0.045)"><path d="M236.975,190.459c-.211-1.915.783-7.324,2.267-10.592s7.1-6.048,7.935-6.152c2.032-.253,2.826.231,3.111-.007s-2.062-1.37-2.69-1.605a7.709,7.709,0,0,0-3.167-.574c-.87.181-6.162,1.705-7.7,4.363s-3.129,9.608-2.319,11.164c.194.373.767.532,1.038,1.062.355.7.666,1.52.983,1.994C236.688,190.493,236.993,190.625,236.975,190.459Z" transform="translate(-234.193 -171.49)" fill="#ffc727"/><g transform="translate(0.36 0.26)"><path d="M241.681,183.349a9.739,9.739,0,0,1-1.482-.718,7.085,7.085,0,0,1-1.337-.989c-.028-.028-.076.008-.049.041a5.4,5.4,0,0,0,1.263,1.154,4.578,4.578,0,0,0,1.579.618C241.717,183.465,241.737,183.371,241.681,183.349Z" transform="translate(-236.767 -176.62)" fill="#263238"/><path d="M236.943,201.643c-.077-.127-.189-.231-.278-.35a2.415,2.415,0,0,1-.261-.435,4.367,4.367,0,0,0-.383-.878,3.431,3.431,0,0,0-.558-.547,1.283,1.283,0,0,1-.513-.7.032.032,0,0,0-.063.01c.1.574.563.911.9,1.345a6.069,6.069,0,0,1,.439.934,1.5,1.5,0,0,0,.644.7C236.913,201.737,236.97,201.687,236.943,201.643Z" transform="translate(-234.886 -184.818)" fill="#263238"/><path d="M237.264,197.767c-.219-.182-.447-.339-.648-.544a6.152,6.152,0,0,1-.535-.632c-.163-.218-.308-.448-.467-.669-.187-.261-.408-.5-.582-.772-.022-.034-.071.006-.049.041.181.279.314.591.486.877a6.77,6.77,0,0,0,.5.705,4.283,4.283,0,0,0,.571.6,2.073,2.073,0,0,0,.708.428A.018.018,0,0,0,237.264,197.767Z" transform="translate(-234.929 -183.103)" fill="#263238"/><path d="M237.915,194.411a5.489,5.489,0,0,1-1.241-.972c-.352-.375-.684-.774-1.009-1.172-.022-.027-.073,0-.054.034a6.535,6.535,0,0,0,.914,1.315,3.342,3.342,0,0,0,.592.508,3.537,3.537,0,0,0,.767.346C237.917,194.48,237.949,194.431,237.915,194.411Z" transform="translate(-235.232 -181.72)" fill="#263238"/><path d="M238.765,190.727a1.878,1.878,0,0,1-.594-.414c-.2-.182-.4-.369-.593-.561s-.374-.365-.558-.55a1.866,1.866,0,0,1-.466-.632.032.032,0,0,0-.061.018,1.933,1.933,0,0,0,.352.7,4.983,4.983,0,0,0,.563.661,6.649,6.649,0,0,0,.648.56,1.257,1.257,0,0,0,.686.305A.045.045,0,0,0,238.765,190.727Z" transform="translate(-235.658 -179.942)" fill="#263238"/><path d="M239.447,186.877c-.207-.14-.412-.28-.607-.436s-.381-.32-.565-.487-.391-.347-.572-.533a.032.032,0,0,0-.049.041,5.006,5.006,0,0,0,.474.623,5.485,5.485,0,0,0,.568.526,5.964,5.964,0,0,0,.62.449,1.993,1.993,0,0,0,.692.317.045.045,0,0,0,.04-.073A3.769,3.769,0,0,0,239.447,186.877Z" transform="translate(-236.212 -178.434)" fill="#263238"/><path d="M243.813,180.718c-.229-.2-.452-.391-.7-.567a8.349,8.349,0,0,0-.783-.489,8.2,8.2,0,0,0-1.647-.719c-.032-.009-.064.036-.031.056,1.034.6,2.094,1.16,3.122,1.772A.032.032,0,0,0,243.813,180.718Z" transform="translate(-237.648 -175.328)" fill="#263238"/><path d="M245.99,177.835a3.971,3.971,0,0,0-.753-.491,8.586,8.586,0,0,0-1.784-.6.032.032,0,0,0-.023.059c.549.236,1.1.463,1.639.729a8,8,0,0,1,.776.429c.25.161.457.371.7.541.019.014.047-.007.036-.029A2.234,2.234,0,0,0,245.99,177.835Z" transform="translate(-238.978 -174.27)" fill="#263238"/><path d="M249.043,175.891a4.248,4.248,0,0,0-.7-.5,4.878,4.878,0,0,0-1.528-.556c-.036-.007-.048.049-.015.061a9.549,9.549,0,0,1,1.475.705c.236.138.464.29.694.437s.437.348.679.471c.02.01.035-.017.023-.032A4.453,4.453,0,0,0,249.043,175.891Z" transform="translate(-240.595 -173.356)" fill="#263238"/><path d="M251.647,174.1c-.228-.125-.462-.238-.7-.349a2.418,2.418,0,0,0-.724-.249c-.038-.005-.045.045-.015.061.443.236.882.483,1.32.729a6.6,6.6,0,0,1,1.075.879c.016.014.041-.008.031-.025A2.454,2.454,0,0,0,251.647,174.1Z" transform="translate(-242.235 -172.717)" fill="#263238"/><path d="M254.281,173.057a3.977,3.977,0,0,0-1.4-.554c-.035-.008-.049.051-.015.061a4.847,4.847,0,0,1,1.3.652,6.732,6.732,0,0,1,1.11.956c.016.017.051,0,.037-.023A3.281,3.281,0,0,0,254.281,173.057Z" transform="translate(-243.507 -172.236)" fill="#263238"/><path d="M257.639,173.317a2.531,2.531,0,0,0-.214-.257,3.258,3.258,0,0,0-.516-.437,6.86,6.86,0,0,0-1.223-.629c-.037-.016-.061.044-.023.06a5.583,5.583,0,0,1,1.158.664,4.436,4.436,0,0,1,.5.428c.076.075.147.155.217.237a1.69,1.69,0,0,0,.205.239.032.032,0,0,0,.05-.031A.88.88,0,0,0,257.639,173.317Z" transform="translate(-244.852 -171.991)" fill="#263238"/><path d="M260.383,173.453a4.839,4.839,0,0,0-.424-.361,4.377,4.377,0,0,0-.462-.305c-.165-.094-.334-.182-.494-.283a.032.032,0,1,0-.03.056,3.358,3.358,0,0,1,.473.323c.142.111.285.22.427.331l.425.332a5.132,5.132,0,0,0,.429.345.026.026,0,0,0,.035-.037A2.433,2.433,0,0,0,260.383,173.453Z" transform="translate(-246.441 -172.234)" fill="#263238"/></g></g></g></g></g></g></g><g transform="translate(112.9 208)"><g transform="translate(0 0)"><g transform="translate(22.296 4.632)"><circle cx="30.663" cy="30.663" r="30.663" transform="translate(3.973 3.973)" fill="#fff"/><path d="M30.663-.5a31.171,31.171,0,0,1,12.13,59.878A31.171,31.171,0,0,1,18.533,1.949,30.969,30.969,0,0,1,30.663-.5Zm0,61.327A30.163,30.163,0,1,0,.5,30.663,30.2,30.2,0,0,0,30.663,60.827Z" transform="translate(3.973 3.973)" fill="#ffc727"/><path d="M34.636-.5A35.146,35.146,0,0,1,48.313,67.011,35.145,35.145,0,0,1,20.96,2.261,34.917,34.917,0,0,1,34.636-.5Zm0,69.273A34.136,34.136,0,1,0,.5,34.636,34.175,34.175,0,0,0,34.636,68.773Z" fill="#ffc727"/></g><g transform="translate(37.007)"><path d="M362.916,32.606s5.289-4.342,12.564.342,5.863,24.061,4.642,26.993c0,0-14.038,6.023-26.087.193,0,0,7.24-13.962,6.46-20.781A8.812,8.812,0,0,1,362.916,32.606Z" transform="translate(-353.048 -30.774)" fill="#263238"/><path d="M358.82,48.518c-.047.128-.088.258-.137.385a28.983,28.983,0,0,1-2.274,4.672,17.419,17.419,0,0,1-3.027,3.908c-.033.03-.086-.015-.053-.047a15.6,15.6,0,0,0,2.826-4.184,42.746,42.746,0,0,0,2-4.52,40.643,40.643,0,0,0,2.371-9.758c.007-.065.119-.058.116.008-.017.467-.046.933-.082,1.4a.055.055,0,0,1,.074.061,45.8,45.8,0,0,1-1.561,9.185,34.5,34.5,0,0,1-3.9,8.354,43.016,43.016,0,0,1-3.006,4.222c-.017.021-.046-.006-.031-.028A44.69,44.69,0,0,0,358.82,48.518Z" transform="translate(-352.136 -34.689)" fill="#263238"/><path d="M392.339,33.43c6.657,4.414,8.33,12.675,8.022,19.945a34.22,34.22,0,0,1-.878,6.646.033.033,0,0,1-.064-.013,40.042,40.042,0,0,0,.222-11.568,26.718,26.718,0,0,0-3.259-10.513,13.934,13.934,0,0,0-4.1-4.4C392.224,33.49,392.276,33.388,392.339,33.43Z" transform="translate(-371.4 -32.044)" fill="#263238"/></g><g transform="translate(0 12.31)"><path d="M339.514,90.61c-4.818,12.349-20.2,26.749-25.409,27.219-6.084.548-18.685-6.435-24.766-14.893-1.441-2.005,11.445-11.547,13.623-10.054,4.471,3.063,9.775,7.22,10.5,7.275,1.437.109,11-7.379,18.631-12.726C341.587,80.779,341.434,85.689,339.514,90.61Z" transform="translate(-284.925 -68.735)" fill="#eb9481"/><g transform="translate(0 3.535)"><path d="M287.222,94.159s-5.575-5.753-6.165-11.174a22.821,22.821,0,0,1,9-20.431c2.139-1.6,6.321-2.357,3.774,1.522-1.809,2.755-3.788,3.955-4.548,5.749,0,0,5.433-.334,6.95,1.871a49.335,49.335,0,0,1,3.553,6.046,10.41,10.41,0,0,1-1.072.766,8.829,8.829,0,0,1,.376,5.918Z" transform="translate(-280.953 -61.252)" fill="#eb9481"/></g><g transform="translate(5.9)"><path d="M307.111,55.431l6.183,19.64c.247.572-.019,1.065-.594,1.1l-10.285.6a1.668,1.668,0,0,1-1.488-.977l-6.182-19.639c-.247-.574.019-1.065.593-1.1l10.285-.6A1.667,1.667,0,0,1,307.111,55.431Z" transform="translate(-293.429 -54.453)" fill="#a6a6a6"/><path d="M304.761,55.547l6.183,19.64c.247.572-.019,1.065-.594,1.1l-10.285.6a1.667,1.667,0,0,1-1.488-.977l-6.183-19.639c-.247-.574.019-1.065.593-1.1l10.285-.6A1.666,1.666,0,0,1,304.761,55.547Z" transform="translate(-292.301 -54.508)" fill="#c7c7c7"/><path d="M310.943,57.646a.875.875,0,1,0,.8-.943A.875.875,0,0,0,310.943,57.646Z" transform="translate(-301.25 -55.532)" fill="#263238"/></g><g transform="translate(0.649 8.601)"><path d="M282.2,82.333a29.615,29.615,0,0,1,6.56-7.1c3.3-2.309,10.29-5.867,11.97-3.411,1.232,1.8-1.317,3.394-1.317,3.394s3.2-.862,3.955,1.009c.689,1.7-1.356,2.819-1.356,2.819s2.03-.19,2.378,1.58c.419,2.129-3.9,2.176-5.343,4.7C298.726,85.893,282.2,82.333,282.2,82.333Z" transform="translate(-282.202 -70.997)" fill="#eb9481"/><g transform="translate(8.413 4.186)"><path d="M298.39,83a16.057,16.057,0,0,1,8.72-3.952c.082-.007.132.052.058.074a39.6,39.6,0,0,0-8.756,3.909C298.393,83.044,298.375,83.017,298.39,83Z" transform="translate(-298.385 -79.049)" fill="#263238"/></g><g transform="translate(10.84 7.981)"><path d="M303.06,89.773A18.018,18.018,0,0,1,312,86.349c.083,0,.128.058.053.077a42.424,42.424,0,0,0-8.974,3.38C303.06,89.816,303.043,89.787,303.06,89.773Z" transform="translate(-303.053 -86.349)" fill="#263238"/></g></g><path d="M315.164,96.876c-.017,1.2-.029,2.357-.138,3.512-.05.577-.141,1.146-.247,1.715a15.434,15.434,0,0,1-.47,1.693,6.293,6.293,0,0,0,1.233-3.359,9.893,9.893,0,0,0-.008-1.8A7.385,7.385,0,0,0,315.164,96.876Z" transform="translate(-296.967 -74.821)" fill="#263238"/><g transform="translate(38.559 14.331)"><path d="M364.62,102.341l-9.5-10.608s7.551-6.473,13.024-8.922,6.242,1.082,3.838,6.4A136.318,136.318,0,0,1,364.62,102.341Z" transform="translate(-355.123 -82.018)" fill="#ffc727"/><path d="M364.62,102.341l-9.5-10.608s7.551-6.473,13.024-8.922,6.242,1.082,3.838,6.4A136.318,136.318,0,0,1,364.62,102.341Z" transform="translate(-355.123 -82.018)" opacity="0.1"/><path d="M359.972,94.556l6.976,7.8a136.393,136.393,0,0,0,7.367-13.126c1.806-4,1.822-6.992-.611-7.185Z" transform="translate(-357.451 -82.03)" opacity="0.1"/><g transform="translate(2.609 8.099)"><path d="M360.248,97.6a90.2,90.2,0,0,1,8.22,8.875c.014.019-.054.085-.071.069-2.384-2.285-6.786-7.193-8.25-8.845C360.119,97.668,360.218,97.573,360.248,97.6Z" transform="translate(-360.142 -97.596)" fill="#263238"/></g></g></g><g transform="translate(39.629 25.45)"><path d="M394.268,116.967a30.664,30.664,0,0,1-37.088,1.9c1.487-7.621,5.942-32.522,10.823-37.5,1.956-1.993,5.657-1.894,7.861-1.15,1.716.582,4.6,1.445,10.356,12.732C388.919,98.247,392.131,109.039,394.268,116.967Z" transform="translate(-357.18 -79.727)" fill="#ffc727"/></g><g transform="translate(41.344 0.505)"><g transform="translate(5.918 16.463)"><path d="M376.006,79.462c2.337.28,5.85-3.642,7.073-6.637.083-.205-.445-2.209-.971-4.674-.313-1.5-.627-3.171-.8-4.719-.034-.318-9.444,3.462-9.444,3.462a24.848,24.848,0,0,1,1.613,5.839,3.459,3.459,0,0,1,.005.643c0,.03,0,.066,0,.107C373.419,74.712,373.747,79.19,376.006,79.462Z" transform="translate(-371.862 -63.412)" fill="#eb9481"/><path d="M380.714,63.657c-.153,2.669-1.064,9.179-6.233,9.884a5.913,5.913,0,0,1-1,.059.46.46,0,0,1,0-.108,3.9,3.9,0,0,0,0-.642,24.827,24.827,0,0,0-1.616-5.843S378.65,64.281,380.714,63.657Z" transform="translate(-371.862 -63.53)" fill="#263238"/></g><g transform="translate(0 0.36)"><path d="M377.056,38.095c1.038,3.472-.849,13.473-3.327,15.691-3.592,3.216-9.444,3.492-12.169-.819-2.642-4.179.048-17.169,2.813-19.182C368.445,30.82,375.522,32.967,377.056,38.095Z" transform="translate(-360.479 -32.438)" fill="#eb9481"/></g><g transform="translate(1.285 7.522)"><path d="M375.826,49.483a8.639,8.639,0,0,1-.856-.305,1.468,1.468,0,0,1-.814-.477.468.468,0,0,1,.077-.566,1.16,1.16,0,0,1,1.17-.115,1.7,1.7,0,0,1,.979.741A.5.5,0,0,1,375.826,49.483Z" transform="translate(-368.3 -47.032)" fill="#263238"/><path d="M363.444,47.516a8.516,8.516,0,0,0,.906-.067,1.464,1.464,0,0,0,.911-.244.467.467,0,0,0,.075-.566,1.16,1.16,0,0,0-1.1-.422,1.708,1.708,0,0,0-1.142.454A.5.5,0,0,0,363.444,47.516Z" transform="translate(-362.95 -46.214)" fill="#263238"/><path d="M372.146,67.414c-.19.128-.391.317-.639.293a1.811,1.811,0,0,1-.694-.3.024.024,0,0,0-.035.029.921.921,0,0,0,.789.522.73.73,0,0,0,.639-.5C372.223,67.419,372.174,67.4,372.146,67.414Z" transform="translate(-366.707 -56.386)" fill="#263238"/><g transform="translate(1.256 1.023)"><path d="M369.209,56.038a2.334,2.334,0,0,1-1.719.742,2.915,2.915,0,0,1-.833-.113.786.786,0,0,1-.154-.047c-.048-.015-.091-.029-.143-.049a.171.171,0,0,1-.108-.176v-.005a.315.315,0,0,1,.019-.068v-.005l.012-.059c.081-.522.275-1.3.275-1.3-.207.06-1.254.319-1.189.05a35.1,35.1,0,0,1,2.158-6.787.064.064,0,0,1,.12.04c-.438,2.155-1.252,4.22-1.727,6.378a4.11,4.11,0,0,1,1.144-.132c.07.035-.4,1.5-.42,1.74a.092.092,0,0,0,0,.025,3.236,3.236,0,0,0,2.512-.3C369.214,55.937,369.258,55.992,369.209,56.038Z" transform="translate(-365.366 -48.182)" fill="#263238"/></g><g transform="translate(2.9 8.86)"><path d="M368.529,63.7a2.77,2.77,0,0,0,.937,1.044,1.248,1.248,0,0,0,.736.182c.564-.044.668-.535.646-.976a2.981,2.981,0,0,0-.123-.691A3.584,3.584,0,0,1,368.529,63.7Z" transform="translate(-368.529 -63.257)" fill="#263238"/><path d="M370.331,65.376a1.248,1.248,0,0,0,.736.182c.564-.044.668-.535.646-.976A1.287,1.287,0,0,0,370.331,65.376Z" transform="translate(-369.394 -63.891)" fill="#ff98b9"/></g><g transform="translate(0.112 3.05)"><path d="M363.362,52.583a.981.981,0,0,1,.335-.4.706.706,0,0,1,.559-.081.634.634,0,0,1,.415.393,1.114,1.114,0,0,1,.05.51,2.022,2.022,0,0,1-.064.3,1.38,1.38,0,0,1-.3.56,2.083,2.083,0,0,0,.1-.453,2.744,2.744,0,0,0,.023-.419c-.009-.286-.1-.549-.313-.6-.22-.068-.434.064-.6.3a4.512,4.512,0,0,0-.406.8A2.016,2.016,0,0,1,363.362,52.583Z" transform="translate(-363.165 -52.081)" fill="#263238"/></g><g transform="translate(5.397 4.028)"><path d="M373.428,54.56a.981.981,0,0,1,.279-.439.706.706,0,0,1,.543-.154.636.636,0,0,1,.464.334,1.113,1.113,0,0,1,.118.5,2.03,2.03,0,0,1-.023.308,1.386,1.386,0,0,1-.226.6,2.1,2.1,0,0,0,.043-.463,2.808,2.808,0,0,0-.034-.419c-.047-.282-.173-.53-.39-.548-.227-.038-.421.122-.55.381a4.527,4.527,0,0,0-.3.842A2.017,2.017,0,0,1,373.428,54.56Z" transform="translate(-373.331 -53.962)" fill="#263238"/></g></g><g transform="translate(1.245)"><path d="M376.23,47.083c-.539-.539-1.055-3.925-1.055-3.925s-6.189-2.841-6.627-8.608c0,0-2.979,3.6-5.676,4.2,0,0,.433-6.166,5.913-6.673,0,0,5.18-1.9,9.43,3.4s-.363,11.814-.363,11.814Z" transform="translate(-362.873 -31.746)" fill="#263238"/><path d="M373.735,35.008a5.446,5.446,0,0,0,.026,2.885,10.054,10.054,0,0,0,1.06,2.679,8.951,8.951,0,0,0,1.782,2.336,11.235,11.235,0,0,0,2.888,1.7c.032.015.007.07-.025.057a12.947,12.947,0,0,1-3.077-1.636,9.122,9.122,0,0,1-1.99-2.325,7.347,7.347,0,0,1-1.134-2.851,6.222,6.222,0,0,1,.359-2.879C373.647,34.906,373.758,34.939,373.735,35.008Z" transform="translate(-367.839 -33.278)" fill="#263238"/></g><g transform="translate(13.217 11.573)"><path d="M386.548,56.483s2.347-3.179,3.795-2.333-.375,5.493-2.115,6.09a1.754,1.754,0,0,1-2.325-1Z" transform="translate(-385.902 -54.007)" fill="#eb9481"/><path d="M390.661,56.819a.024.024,0,0,1,.008.046,4.437,4.437,0,0,0-2.362,2.714.968.968,0,0,1,1.455-.227c.031.023,0,.072-.034.063a1.079,1.079,0,0,0-1.2.346,5.234,5.234,0,0,0-.593.945c-.059.107-.253.044-.209-.08l.01-.028C387.749,59.058,389,56.931,390.661,56.819Z" transform="translate(-386.776 -55.357)" fill="#263238"/></g><path d="M371.2,69.855a1.34,1.34,0,0,0,1.331-.066,1.555,1.555,0,0,1-.167,1.18l-.029-.413a2.791,2.791,0,0,1-.457,1.292,1.611,1.611,0,0,1-.374-.83l.029.5A1.954,1.954,0,0,1,371.2,69.855Z" transform="translate(-365.594 -50.011)" fill="#263238"/></g><g transform="translate(13.939 21.507)"><path d="M366.783,95.143c-2.629,16.092-9.183,26.542-12.249,27.048-8.255,1.361-22.213-12.137-26.376-15.3-1.683-1.281,12.044-12.77,13.668-11.2,3.827,3.7,8.97,9.522,9.237,9.585.533.126,2.486-3.532,9.079-13.881C365.473,83.021,367.857,88.563,366.783,95.143Z" transform="translate(-317.487 -79.353)" fill="#eb9481"/><g transform="translate(0 0.005)"><path d="M310.792,72.97c-1.141,1.738,3.383,4.188,3.383,4.188a3.837,3.837,0,0,0-2.448.9c-1.159,1.074.018,3.363.018,3.363a4.728,4.728,0,0,0-2.43,1.364c-1.005,1.14-.148,3.618-.148,3.618a4.328,4.328,0,0,0-1.381,2.545c-.53,4.4,9.075,10.684,12.191,11.9l12.588-11.371S327.9,79.037,324.092,76.34C321.981,74.843,312.536,70.314,310.792,72.97Z" transform="translate(-307.765 -72.152)" fill="#eb9481"/><g transform="translate(1.406 4.978)"><path d="M320.146,81.729a34.73,34.73,0,0,1,7.621,3.719.048.048,0,0,1-.05.083c-2.375-1.459-5.2-2.318-7.625-3.679A.068.068,0,0,1,320.146,81.729Z" transform="translate(-315.074 -81.726)" fill="#263238"/><path d="M315.648,89.722a7.362,7.362,0,0,1,1.673.959q.852.569,1.685,1.168,1.669,1.2,3.275,2.475c.048.038,0,.12-.05.083-1.11-.793-2.231-1.569-3.373-2.314q-.858-.56-1.724-1.106a8.779,8.779,0,0,1-1.583-1.1A.1.1,0,0,1,315.648,89.722Z" transform="translate(-312.897 -85.563)" fill="#263238"/><path d="M310.513,99.632a5.128,5.128,0,0,1,1.46.944q.749.561,1.5,1.113c1.006.737,2.013,1.473,3.044,2.174.051.035,0,.118-.051.083-1.051-.707-2.112-1.4-3.158-2.115q-.77-.528-1.534-1.064a4.816,4.816,0,0,1-1.3-1.085A.034.034,0,0,1,310.513,99.632Z" transform="translate(-310.47 -90.323)" fill="#263238"/></g></g><path d="M329.2,108.994a122.455,122.455,0,0,1-9.5-7.735,45.684,45.684,0,0,1-6.234-3.743c-4.254-3.075-6.328-5.968-6.164-8.6a3.588,3.588,0,0,1,1.334-2.685c-.229-.775-.6-2.544.293-3.746a3.83,3.83,0,0,1,2.143-1.428,3.115,3.115,0,0,1-.023-2.918,3.265,3.265,0,0,1,1.792-1.262,6.228,6.228,0,0,1-2.608-2.763,1.748,1.748,0,0,1,.139-1.395,2.488,2.488,0,0,1,2.486-1.072l-.05,1c-.553-.027-1.274.048-1.565.564a.742.742,0,0,0-.053.614c.343,1.139,2.5,2.448,3.3,2.857l1.78.909-2,.037a3.283,3.283,0,0,0-2.378,1.055c-.612.946.359,2.471.369,2.486l.511.776h-.929a2.847,2.847,0,0,0-2.109,1.139c-.684.918-.257,2.6-.035,3.17l.166.426-.41.2a2.487,2.487,0,0,0-1.152,2.1c-.175,2.825,3.031,5.762,5.752,7.728a45.219,45.219,0,0,0,6.155,3.688l.076.036.06.06c2.776,2.748,9.389,7.651,9.456,7.7Z" transform="translate(-307.778 -72.143)" fill="#263238"/><path d="M5.43,6.147-.269.261.269-.261l5.7,5.886Z" transform="translate(24.338 16.336)" fill="#263238"/><g transform="translate(35.014 7.38)"><path d="M387.78,107.827l-12.665-6.5s4.732-8.748,8.966-12.994,6.216-1.224,5.876,4.606A136.3,136.3,0,0,1,387.78,107.827Z" transform="translate(-375.115 -86.338)" fill="#ffc727"/><path d="M387.78,107.827l-12.665-6.5s4.732-8.748,8.966-12.994,6.216-1.224,5.876,4.606A136.3,136.3,0,0,1,387.78,107.827Z" transform="translate(-375.115 -86.338)" opacity="0.1"/><g transform="translate(2.188 12.523)"><path d="M379.394,110.428a90.16,90.16,0,0,1,10.852,5.343c.02.012-.02.1-.042.089-3.044-1.28-8.912-4.286-10.87-5.3C379.3,110.536,379.356,110.412,379.394,110.428Z" transform="translate(-379.323 -110.426)" fill="#263238"/></g></g></g><path d="M.362,27.942l-.725-.689L25.884-.345l.725.689Z" transform="translate(9.415 66.605)" fill="#ffc727"/></g></g><g transform="translate(-15.011 236.593)"><g transform="translate(0 0)"><g transform="translate(0 8.562)"><circle cx="30.663" cy="30.663" r="30.663" transform="translate(2.809 62.408) rotate(-76.368)" fill="#fff"/><path d="M30.663-.5a31.171,31.171,0,0,1,12.13,59.878A31.171,31.171,0,0,1,18.533,1.949,30.969,30.969,0,0,1,30.663-.5Zm0,61.327A30.163,30.163,0,1,0,.5,30.663,30.2,30.2,0,0,0,30.663,60.827Z" transform="translate(2.809 62.408) rotate(-76.368)" fill="#ffc727"/><path d="M34.636-.5A35.146,35.146,0,0,1,48.313,67.011,35.145,35.145,0,0,1,20.96,2.261,34.917,34.917,0,0,1,34.636-.5Zm0,69.273A34.136,34.136,0,1,0,.5,34.636,34.175,34.175,0,0,0,34.636,68.773Z" transform="translate(0 68.34) rotate(-80.586)" fill="#ffc727"/></g><g transform="translate(3.704)"><g transform="translate(12.442)"><g transform="translate(2.82 4.74)"><path d="M77.8,98.992s5.057-5.515,11.642-3.481c8.209,2.535,8.5,24.823,9.461,28.914s4.491,5.137.489,8.879-9.66,4.985-15.441,4.874-10.157-2.547-11.051-5.1c-.546-1.564.684-3.093.878-5.709C73.887,125.828,69.983,99.968,77.8,98.992Z" transform="translate(-72.048 -94.972)" fill="#263238"/><path d="M71.785,133.669c.041-1.767.488-3.453.439-5.241-.048-1.751-.505-11.982-.685-13.722-.46-4.454-.133-11.352,5.619-11.827a.087.087,0,0,1,.02.174c-7.069,1.33-5.274,11.326-4.656,21.262a40.4,40.4,0,0,1-.216,7.381c-.437,3.1-.025,5.789,2.474,7.928.055.047-.013.135-.07.089A7.48,7.48,0,0,1,71.785,133.669Z" transform="translate(-71.394 -98.725)" fill="#263238"/><path d="M84.6,98.718c2.89-2.492,6.345-4.623,10.329-3.539,3.45.938,5.751,4,6.954,7.157,1.678,4.411,1.754,17.784,3.595,22.147.65,1.54,2.157,3.129,2.124,4.894-.029,1.571-1.24,2.135-2.6,2.515-.072.02-.118-.084-.044-.108,3.3-1.053,2.24-3.3,1.066-5.46a20.488,20.488,0,0,1-1.837-4.759c-.85-3.311-1.286-15.256-2.387-18.507-1.069-3.158-3.037-6.272-6.359-7.485-4.16-1.518-7.661.728-10.8,3.2C84.6,98.8,84.562,98.749,84.6,98.718Z" transform="translate(-77.727 -94.889)" fill="#263238"/></g><path d="M75.77,94.485c-1.427,1.118-5.807.577-7.473-1.707-2.295-3.145,1.7-8.468,5.671-6.628S76.871,93.622,75.77,94.485Z" transform="translate(-66.764 -85.772)" fill="#263238"/><path d="M68.352,88.5a7.77,7.77,0,0,0-1.768,3.334,2.906,2.906,0,0,0,1.224,3.113,7,7,0,0,0,1.64.863,8.2,8.2,0,0,0,1.807.495,6.431,6.431,0,0,0,3.721-.509,5.562,5.562,0,0,1-3.774,1,7.647,7.647,0,0,1-1.964-.425,7.23,7.23,0,0,1-1.805-.921A3.616,3.616,0,0,1,66.152,93.8a3.431,3.431,0,0,1-.042-2.075A6.5,6.5,0,0,1,68.352,88.5Z" transform="translate(-65.97 -87.081)" fill="#263238"/></g><g transform="translate(0 77.449)"><path d="M42.046,235.045c.015-.1.034-.2.053-.3-.024.125-.048.244-.062.369C42.042,235.093,42.042,235.069,42.046,235.045Z" transform="translate(-42.037 -234.748)" fill="#ffc727"/><path d="M73.673,240.946a1.45,1.45,0,0,1-.173.091l-.024-.043,0-.005c.057-.014.12-.024.177-.038A.04.04,0,0,0,73.673,240.946Z" transform="translate(-57.13 -237.724)" fill="#ffc727"/></g><g transform="translate(1.826 5.089)"><g transform="translate(0 28.094)"><path d="M67.41,153.222c-10.346,10.487-23.361,32.546-20.935,37.018,2.7,4.981,17.109-9.72,17.054-10.578-.042-.649,5.026-14.049,8.871-23.794S69.968,150.629,67.41,153.222Z" transform="translate(-45.852 -149.742)" fill="#d3766a"/><path d="M63.323,179.536c.44-1.432,7.336-19.1,9.308-24.689s.144-7.317-5.487-2.2-17.969,22.215-20.786,31.288c-2.713,8.741,1.787,8.741,7.725,4.712C58.945,185.349,63.323,179.536,63.323,179.536Z" transform="translate(-45.549 -149.6)" fill="#ffc727"/><g opacity="0.5"><path d="M63.323,179.536c.44-1.432,7.336-19.1,9.308-24.689s.144-7.317-5.487-2.2-17.969,22.215-20.786,31.288c-2.713,8.741,1.787,8.741,7.725,4.712C58.945,185.349,63.323,179.536,63.323,179.536Z" transform="translate(-45.549 -149.6)" fill="#fff"/></g></g><g transform="translate(13.188 26.245)"><path d="M108.826,188.463a35.055,35.055,0,0,1-37.354-.671l.078-.463,1.487-10.995s-3.5-6.106-1.461-10.485c1.025-2.216,10.007-16.02,13.793-18.761,3.547-2.574,8.7.182,10.615,2.2C102.756,156.424,106.252,170.015,108.826,188.463Z" transform="translate(-70.928 -146.045)" fill="#ffc727"/><path d="M108.826,188.463a35.055,35.055,0,0,1-37.354-.671l.078-.463,1.487-10.995s-3.5-6.106-1.461-10.485c1.025-2.216,10.007-16.02,13.793-18.761,3.547-2.574,8.7.182,10.615,2.2C102.756,156.424,106.252,170.015,108.826,188.463Z" transform="translate(-70.928 -146.045)" fill="#fff" opacity="0.5"/><g transform="translate(0 10.893)"><path d="M72.04,197.46l-.991-.134,1.458-10.8a12.714,12.714,0,0,1-2.072-7.665c.251-4.562,6.094-11.871,6.343-12.18l.779.627c-.059.073-5.889,7.367-6.123,11.608a11.781,11.781,0,0,0,1.993,7.177l.125.165-.027.206Z" transform="translate(-70.916 -166.999)" fill="#263238"/><path d="M77.421,172.9l-.493-.084a11.858,11.858,0,0,1,1.139-2.762l.446.225A12.01,12.01,0,0,0,77.421,172.9Z" transform="translate(-73.921 -168.52)" fill="#263238"/></g><g transform="translate(4.687 28.864)"><path d="M86.7,201.565a22.882,22.882,0,0,1,5.9.984c1.927.546,6.187,2.233,7.256,2.649a.023.023,0,0,1-.013.043,36.738,36.738,0,0,1-4.1-1.235c-1.891-.643-3.8-1.224-5.73-1.726a26.816,26.816,0,0,0-3.32-.6A.059.059,0,0,1,86.7,201.565Z" transform="translate(-83.154 -201.565)" fill="#263238"/><path d="M79.96,203.456a18.316,18.316,0,0,1,6.2.55c.024.006.019.047-.007.044-1.028-.123-2.052-.243-3.084-.33s-2.076-.139-3.114-.208A.028.028,0,0,1,79.96,203.456Z" transform="translate(-79.932 -202.439)" fill="#263238"/></g></g><g transform="translate(0.346 57.84)"><g transform="translate(0.119 0.047)"><path d="M46.6,217.614c2.329,3.331,8.668,3.966,24.478,7.063,2.188.428,9.366-14.2,7.054-14.775-2.913-.728-14.376-2.921-15.235-2.975C55.659,206.466,45.023,215.354,46.6,217.614Z" transform="translate(-46.445 -206.909)" fill="#d3766a"/><g transform="translate(17.649 2.271)"><path d="M91.271,211.277s6.7,1.013,10.053,2.634a23.939,23.939,0,0,1,8.633,7.53c2.414,3.415,5.89,13.34,3.206,14.84-2.429,1.358-5.47-8.967-5.47-8.967s4.837,10.016,1.611,11.113-6.073-11.09-6.073-11.09,4.739,10.4,1.233,11.007c-2.649.457-5.85-10.435-5.85-10.435s4.011,8.969,1.307,9.556c-2.989.649-6.574-9.22-6.574-9.22-7.125.336-10.655-2.419-12.934-4.678C79.862,223.021,91.271,211.277,91.271,211.277Z" transform="translate(-80.394 -211.277)" fill="#d3766a"/><g transform="translate(17.341 12.451)"><path d="M130.068,235.241c.611,1.156,1.237,2.322,1.743,3.528s.97,2.431,1.362,3.679a22.358,22.358,0,0,1,1.061,5,48.115,48.115,0,0,0-2.758-8.553c-.5-1.2-.949-2.433-1.454-3.638C130.009,235.228,130.053,235.214,130.068,235.241Z" transform="translate(-121.561 -235.227)" fill="#263238"/><path d="M121.635,238.605c.716,1.51,1.482,2.983,2.132,4.525s1.125,3.046,1.664,4.621c.042.121-.037.1-.084-.017-.6-1.552-1.277-2.94-1.9-4.485s-1.18-3.114-1.852-4.63C121.587,238.6,121.624,238.582,121.635,238.605Z" transform="translate(-117.516 -236.843)" fill="#263238"/><path d="M113.831,240.18a37.371,37.371,0,0,1,2.73,7.168c.036.122-.063.088-.108-.034-.862-2.4-1.522-4.288-2.7-7.091C113.734,240.178,113.805,240.132,113.831,240.18Z" transform="translate(-113.749 -237.595)" fill="#263238"/></g></g></g><path d="M76.26,209.154,62.406,224.58s-14.008-3.216-16.071-6.809c-1.358-2.364,9.187-11.943,17.149-10.826Z" transform="translate(-46.216 -206.836)" fill="#ffc727"/><path d="M76.26,209.154,62.406,224.58s-14.008-3.216-16.071-6.809c-1.358-2.364,9.187-11.943,17.149-10.826Z" transform="translate(-46.216 -206.836)" fill="#fff" opacity="0.5"/><g transform="translate(7.756)"><path d="M61.148,209.437a13.789,13.789,0,0,1,9.51-2.521c.041,0,.042.071,0,.07a22.508,22.508,0,0,0-9.479,2.509C61.144,209.515,61.116,209.461,61.148,209.437Z" transform="translate(-61.134 -206.819)" fill="#263238"/><path d="M70.063,223.957c1.433-1.778,2.958-3.477,4.489-5.172s3.061-3.4,4.634-5.055c.89-.937,1.773-1.879,2.7-2.786.024-.023.07.011.048.038-1.43,1.775-2.95,3.483-4.467,5.186s-3.06,3.4-4.614,5.075c-.879.947-1.774,1.879-2.7,2.785C70.107,224.074,70.02,224.009,70.063,223.957Z" transform="translate(-65.415 -208.796)" fill="#263238"/><path d="M91.243,208.945a19.779,19.779,0,0,0-2.6-.591c-.874-.164-1.751-.312-2.629-.454a53.366,53.366,0,0,0-8.64-1.064c-.036,0,.147.173.182.171C79.1,206.924,90.1,209.114,91,209.177a1.317,1.317,0,0,0-.1.184c-.019.044.025.1.073.07.113-.076.194-.172.3-.255A.129.129,0,0,0,91.243,208.945Z" transform="translate(-68.931 -206.827)" fill="#263238"/></g></g><g transform="translate(33.186 7.904)"><g transform="translate(0 19.532)"><path d="M116.956,151.349c13.238,11.549,23.65,25.812,22.973,29.38-1.259,6.639-10,7.054-11.327,5.618-5.36-5.808-11.017-17.058-17.145-29.612C105.981,145.518,112.6,147.546,116.956,151.349Z" transform="translate(-109.384 -148.337)" fill="#ffc727"/><path d="M116.956,151.349c13.238,11.549,23.65,25.812,22.973,29.38-1.259,6.639-10,7.054-11.327,5.618-5.36-5.808-11.017-17.058-17.145-29.612C105.981,145.518,112.6,147.546,116.956,151.349Z" transform="translate(-109.384 -148.337)" fill="#fff" opacity="0.5"/><path d="M129.8,194.285c-.971-1.506-1.884-3.058-2.81-4.592s-1.846-3.08-2.748-4.632c-1.783-3.068-3.439-6.2-5.033-9.37-.9-1.793-1.821-3.579-2.68-5.393-.027-.056-.123-.013-.1.045q1.245,3.162,2.684,6.231l-.052-.068c-.215-.289-.429-.579-.639-.871-.414-.575-.8-1.168-1.174-1.771a.045.045,0,0,0-.077.047,20.437,20.437,0,0,0,1.451,2.367,10.577,10.577,0,0,0,.828,1.047l.028.028c.437.91.886,1.816,1.356,2.713a107.293,107.293,0,0,0,5.4,9.31c.556.842,1.113,1.685,1.694,2.51s1.205,1.626,1.8,2.442C129.759,194.369,129.827,194.33,129.8,194.285Z" transform="translate(-112.764 -158.868)" fill="#263238"/></g><g transform="translate(17.17)"><path d="M149.323,191.466c-2.507-3.6-1.237-10.761,1.518-27.935.381-2.377,18.421-2.562,18.145,0a140.752,140.752,0,0,1-4.4,17.832C160.489,190.527,151.023,193.908,149.323,191.466Z" transform="translate(-145.083 -135.21)" fill="#d3766a"/><path d="M182.615,137.015c-.7-5.463-1.714-6.759.147-11.683,1.222-3.231-.317-5.4-3-3.013-4.4,3.9-4.977,11.136-4.456,13.7Z" transform="translate(-158.126 -115.827)" fill="#d3766a"/><g transform="translate(0.4)"><path d="M149.818,111.882l-6.543,22c-.265.643.04,1.186.682,1.213l11.474.486a1.858,1.858,0,0,0,1.641-1.116l6.543-22c.266-.644-.04-1.186-.681-1.213l-11.474-.485A1.858,1.858,0,0,0,149.818,111.882Z" transform="translate(-143.18 -110.766)" fill="#a6a6a6"/><path d="M152.439,111.97l-6.543,22c-.265.643.04,1.186.681,1.213l11.474.485a1.858,1.858,0,0,0,1.641-1.115l6.543-22c.266-.644-.04-1.186-.681-1.213l-11.474-.485A1.856,1.856,0,0,0,152.439,111.97Z" transform="translate(-144.438 -110.808)" fill="#dbdbdb"/><path d="M162.738,114.252a.976.976,0,1,1-.911-1.037A.975.975,0,0,1,162.738,114.252Z" transform="translate(-151.634 -111.941)" fill="#263238"/></g><g transform="translate(4.564 3.906)"><path d="M168.284,151s3.268-7.1,3.1-12.992c-.115-4.077-1.354-12.919-12.009-18.808-2.528-1.4-7.119-1.595-3.82,2.186,2.344,2.685,4.641,3.68,5.72,5.49,0,0-5.87.441-7.171,3.028a53.278,53.278,0,0,0-2.917,7,11.217,11.217,0,0,0,1.261.663s-.987,2.531.468,6.4Z" transform="translate(-151.19 -118.279)" fill="#d3766a"/></g><path d="M166.441,139.761a32.036,32.036,0,0,0-8.074-6.637c-3.88-1.988-11.889-4.772-13.327-1.893-1.054,2.111,1.91,3.443,1.91,3.443s-3.553-.453-4.088,1.662c-.488,1.928,1.867,2.82,1.867,2.82s-2.2.1-2.315,2.043c-.135,2.343,4.5,1.757,6.416,4.248C149.26,146.007,166.441,139.761,166.441,139.761Z" transform="translate(-142.411 -119.998)" fill="#d3766a"/><g transform="translate(2.244 14.609)"><g transform="translate(2.276)"><path d="M161.124,141.834a17.364,17.364,0,0,0-9.925-2.95c-.089,0-.134.075-.051.087a42.811,42.811,0,0,1,9.958,2.9C161.127,141.88,161.142,141.848,161.124,141.834Z" transform="translate(-151.105 -138.868)" fill="#263238"/></g><g transform="translate(0 4.426)"><path d="M156.9,149.78a19.49,19.49,0,0,0-10.084-2.353c-.089.008-.129.081-.046.09a45.866,45.866,0,0,1,10.113,2.3C156.908,149.825,156.921,149.791,156.9,149.78Z" transform="translate(-146.727 -147.381)" fill="#263238"/></g></g><g transform="translate(0.399 34.138)"><path d="M167.405,176.431l-20.918,5.933s-4.173,13.713-1.52,17.154c2.835,3.678,16.007-2.021,18.627-10.035Z" transform="translate(-143.614 -176.431)" fill="#ffc727"/><path d="M167.405,176.431l-20.918,5.933s-4.173,13.713-1.52,17.154c2.835,3.678,16.007-2.021,18.627-10.035Z" transform="translate(-143.614 -176.431)" fill="#fff" opacity="0.5"/><g transform="translate(0 5.499)"><g transform="translate(3.494)"><path d="M149.966,192.2c2.335-.529,4.639-1.182,6.942-1.842s4.61-1.316,6.9-2.033c1.292-.406,2.588-.8,3.866-1.254.033-.011.022-.071-.014-.062-2.332.528-4.641,1.172-6.945,1.815s-4.612,1.315-6.908,2.005c-1.3.39-2.588.8-3.866,1.254C149.876,192.106,149.9,192.217,149.966,192.2Z" transform="translate(-149.901 -187.008)" fill="#263238"/></g><path d="M146.8,187.408c-.326.035-.65.1-.972.164a.145.145,0,0,0-.1.106c-.358,1.215-.612,2.472-.865,3.713-.249,1.225-.47,2.456-.674,3.69-.109.664-.206,1.33-.282,2a7.164,7.164,0,0,0-.725,2.585c0,.045.074.055.08.009a8.883,8.883,0,0,1,.617-2.324,16.37,16.37,0,0,0,.129,4.9c0,.01.017.005.016,0-.412-2.415.2-4.935.593-7.312.2-1.191.424-2.378.657-3.563s.509-2.356.725-3.541c.277-.1.557-.207.824-.334C146.859,187.469,146.838,187.4,146.8,187.408Z" transform="translate(-143.18 -187.2)" fill="#263238"/></g></g></g></g><path d="M87.494,150.651s2.2,5.591,6.174,5.591c4.816,0,11.683-6.975,11.683-6.975s-4.38-4.144-10.011-3.323C90.586,146.639,87.494,150.651,87.494,150.651Z" transform="translate(-65.688 -119.7)" fill="#d3766a"/><g transform="translate(17.042)"><g transform="translate(7.691 15.121)"><path d="M102.482,136.205c-.109.691-3.027,5.335-6.141,5.417-1.014.024-1.4-5.5-1.4-5.5l-.122-.4-1.7-5.625,6.4-4.8.929-.642s.363,1.57.8,3.528c.021.091.041.181.062.279s.055.214.075.318c.068.292.137.59.2.888.048.227.1.448.138.688s.09.474.138.714A37.876,37.876,0,0,1,102.482,136.205Z" transform="translate(-93.124 -124.647)" fill="#d3766a"/><path d="M102.425,135.158c-4.327.775-6.829-.245-8.124-1.16l-1.175-3.906,6.4-4.8.926-.64s.364,1.566.8,3.527q.031.133.062.281c.026.109.057.213.078.317.068.291.135.588.2.89.047.224.094.447.135.686s.094.474.14.713C102.139,132.588,102.331,134.154,102.425,135.158Z" transform="translate(-93.124 -124.649)" fill="#263238"/></g><path d="M99.639,107.236c1.947,10.126-3.9,12.436-6.082,12.853-1.983.379-8.782,1.417-11.765-8.454s1.109-13.977,5.6-15.084S97.692,97.11,99.639,107.236Z" transform="translate(-79.504 -95.895)" fill="#d3766a"/><g transform="translate(10.683 8.385)"><path d="M111.969,112.709a6.753,6.753,0,0,1-.71-.051,1.149,1.149,0,0,1-.715-.189.368.368,0,0,1-.061-.444.911.911,0,0,1,.859-.333,1.336,1.336,0,0,1,.9.354A.392.392,0,0,1,111.969,112.709Z" transform="translate(-104.428 -111.69)" fill="#263238"/><path d="M99.534,115.517a6.858,6.858,0,0,0,.674-.23,1.154,1.154,0,0,0,.643-.365.367.367,0,0,0-.055-.445.909.909,0,0,0-.916-.1,1.337,1.337,0,0,0-.776.57A.392.392,0,0,0,99.534,115.517Z" transform="translate(-98.96 -112.943)" fill="#263238"/><g transform="translate(0 3.816)"><g transform="translate(1.015)"><path d="M103.2,120.253c-.009-.025-.049.041-.045.069.123.692.146,1.5-.449,1.826-.018.01-.011.045.011.038C103.467,121.967,103.424,120.889,103.2,120.253Z" transform="translate(-101.726 -119.615)" fill="#263238"/><path d="M101.579,119.033c-1.13.077-.894,2.331.153,2.26C102.762,121.223,102.526,118.969,101.579,119.033Z" transform="translate(-100.832 -119.031)" fill="#263238"/></g><path d="M100.212,119.337c-.184.148-.353.394-.588.442-.272.056-.5-.159-.707-.367-.021-.022-.038,0-.036.03.038.433.251.859.721.874.428.015.692-.4.754-.845C100.368,119.389,100.285,119.278,100.212,119.337Z" transform="translate(-98.88 -119.17)" fill="#263238"/></g><g transform="translate(6.537 2.726)"><g transform="translate(0 0.21)"><path d="M111.463,118.9c0-.027.058.027.06.056.058.7.241,1.493.9,1.652.02,0,.022.04,0,.04C111.638,120.624,111.4,119.57,111.463,118.9Z" transform="translate(-111.455 -118.084)" fill="#263238"/><path d="M112.006,117.354c1.112-.213,1.457,2.027.426,2.225C111.418,119.772,111.073,117.532,112.006,117.354Z" transform="translate(-111.458 -117.34)" fill="#263238"/></g><path d="M113.359,117.235c.2.091.4.28.617.261.247-.021.391-.292.513-.548.012-.027.033-.01.038.019.077.426,0,.894-.394,1.04-.364.133-.7-.192-.864-.6C113.238,117.327,113.28,117.2,113.359,117.235Z" transform="translate(-112.321 -116.935)" fill="#263238"/></g><path d="M105.156,130.7c.177.154.358.37.614.376a1.854,1.854,0,0,0,.743-.221.025.025,0,0,1,.032.034.944.944,0,0,1-.867.433.747.747,0,0,1-.587-.587C105.076,130.691,105.13,130.673,105.156,130.7Z" transform="translate(-101.861 -120.81)" fill="#263238"/><g transform="translate(3.56 0.263)"><path d="M108.084,118.958s.266,1.025.323,1.516c0,.046-.112.082-.277.111-.008,0-.012.007-.019,0a2.351,2.351,0,0,1-2.37-.608c-.04-.044.017-.1.065-.077a3.542,3.542,0,0,0,2.2.362c.019-.14-.513-1.74-.436-1.755a4.3,4.3,0,0,1,1.145.122c-.491-2.151-1.323-4.2-1.78-6.354a.068.068,0,0,1,.125-.047,35.725,35.725,0,0,1,2.207,6.763C109.345,119.269,108.29,119.018,108.084,118.958Z" transform="translate(-105.727 -112.197)" fill="#263238"/></g></g><path d="M81.443,111.323c1.683-.03,1.733-3.57,1.733-3.57s3.4-.314,4.051-5.3a7.556,7.556,0,0,1-1.118,4.181s5.926-1.206,7.97-6.456a13.319,13.319,0,0,1-1.619,3.646,7.048,7.048,0,0,0,3.475-3.1,15.231,15.231,0,0,0,2.207,3.514S96.9,93.786,87.3,95.825c0,0-6.038.983-7.762,6S81.443,111.323,81.443,111.323Z" transform="translate(-78.686 -95.561)" fill="#263238"/><g transform="translate(0 13.745)"><path d="M82.7,124.207s-2.571-2.97-3.941-2.02.795,5.415,2.567,5.873a1.743,1.743,0,0,0,2.227-1.173Z" transform="translate(-78.331 -122)" fill="#d3766a"/><path d="M80.4,124.793a.024.024,0,0,0,0,.046,4.408,4.408,0,0,1,2.551,2.508.962.962,0,0,0-1.46-.113c-.029.025.006.071.039.06a1.074,1.074,0,0,1,1.213.251,5.173,5.173,0,0,1,.661.891c.068.1.254.024.2-.095,0-.009-.008-.018-.012-.027C83.457,126.787,82.05,124.776,80.4,124.793Z" transform="translate(-79.312 -123.341)" fill="#263238"/></g></g></g><g transform="translate(0 77.449)"><path d="M73.649,240.956l-.173.043,0-.005C73.529,240.98,73.592,240.97,73.649,240.956Z" transform="translate(-57.13 -237.729)" fill="#eb9481"/><path d="M42.1,234.748c-.024.125-.048.244-.062.369,0-.024,0-.048.009-.072C42.061,234.945,42.08,234.849,42.1,234.748Z" transform="translate(-42.037 -234.748)" fill="#ffc727"/><path d="M42.1,234.748c-.024.125-.048.244-.062.369,0-.024,0-.048.009-.072C42.061,234.945,42.08,234.849,42.1,234.748Z" transform="translate(-42.037 -234.748)" fill="#ffc727"/><path d="M74.82,244.405v0c-.182.044-.359.087-.537.125Z" transform="translate(-57.519 -239.385)" fill="#ffc727"/></g><path d="M42.1,234.748c-.024.125-.048.244-.062.369,0-.024,0-.048.009-.072C42.061,234.945,42.08,234.849,42.1,234.748Z" transform="translate(-42.037 -157.299)" fill="#dbdbdb"/></g><path d="M14.54,5.646-.166.472.166-.472,14.872,4.7Z" transform="translate(64.209 73.004)" fill="#ffc727"/></g></g></g></svg>