<svg xmlns="http://www.w3.org/2000/svg" width="18.14" height="20" viewBox="0 0 18.14 20"><g transform="translate(-2.25 -1.25)"><path d="M17.831,1.25H4.808A2.558,2.558,0,0,0,2.25,3.808V18.692A2.558,2.558,0,0,0,4.808,21.25H17.831a2.558,2.558,0,0,0,2.558-2.558V3.808A2.558,2.558,0,0,0,17.831,1.25ZM9.952,15.7,7.6,18.022a.7.7,0,0,1-.986,0l-1.4-1.4a.7.7,0,0,1,.986-.986l.93.93,1.86-1.86a.7.7,0,1,1,.986.986Zm0-5.116L7.6,12.906a.7.7,0,0,1-.986,0l-1.4-1.4a.7.7,0,0,1,.986-.986l.93.93,1.86-1.86a.7.7,0,0,1,.986.986Zm0-5.116L7.6,7.79a.7.7,0,0,1-.93,0l-1.4-1.4a.7.7,0,0,1,.958-.986l.93.93,1.86-1.86a.7.7,0,0,1,.986.986ZM16.9,17.3H12.25a.7.7,0,0,1,0-1.4H16.9a.7.7,0,0,1,0,1.4Zm0-5.116H12.25a.7.7,0,0,1,0-1.4H16.9a.7.7,0,0,1,0,1.4Zm0-5.116H12.25a.7.7,0,0,1,0-1.4H16.9a.7.7,0,0,1,0,1.4Z" transform="translate(0 0)" fill="#8e8e8e"/></g></svg>