<svg xmlns="http://www.w3.org/2000/svg" width="30.319" height="33.429" viewBox="0 0 30.319 33.429"><path d="M28.293,1.25H6.526A4.276,4.276,0,0,0,2.25,5.526V30.4a4.276,4.276,0,0,0,4.276,4.276H28.293A4.276,4.276,0,0,0,32.569,30.4V5.526A4.276,4.276,0,0,0,28.293,1.25ZM15.124,25.4,11.19,29.283a1.166,1.166,0,0,1-1.648,0L7.21,26.951A1.166,1.166,0,0,1,8.858,25.3l1.555,1.555,3.11-3.11A1.166,1.166,0,1,1,15.171,25.4Zm0-8.551L11.19,20.732a1.166,1.166,0,0,1-1.648,0L7.21,18.4a1.166,1.166,0,0,1,1.648-1.648l1.555,1.555,3.11-3.11a1.166,1.166,0,0,1,1.648,1.648Zm0-8.551L11.19,12.18a1.166,1.166,0,0,1-1.555,0L7.3,9.848A1.166,1.166,0,0,1,8.9,8.2l1.555,1.555,3.11-3.11a1.166,1.166,0,0,1,1.648,1.648ZM26.738,28.071H18.964a1.166,1.166,0,0,1,0-2.332h7.774a1.166,1.166,0,1,1,0,2.332Zm0-8.551H18.964a1.166,1.166,0,0,1,0-2.332h7.774a1.166,1.166,0,1,1,0,2.332Zm0-8.551H18.964a1.166,1.166,0,0,1,0-2.332h7.774a1.166,1.166,0,0,1,0,2.332Z" transform="translate(-2.25 -1.25)" fill="#fff"/></svg>