<svg xmlns="http://www.w3.org/2000/svg" xmlns:xlink="http://www.w3.org/1999/xlink" width="204.882" height="60" viewBox="0 0 204.882 60"><defs><linearGradient id="a" x1="1.109" y1="-1.713" x2="-0.186" y2="-1.037" gradientUnits="objectBoundingBox"><stop offset="0" stop-color="#00a0ff"/><stop offset="0.007" stop-color="#00a1ff"/><stop offset="0.26" stop-color="#00beff"/><stop offset="0.512" stop-color="#00d2ff"/><stop offset="0.76" stop-color="#00dfff"/><stop offset="1" stop-color="#00e3ff"/></linearGradient><linearGradient id="b" x1="1.32" y1="-4.653" x2="-1.056" y2="-4.653" gradientUnits="objectBoundingBox"><stop offset="0" stop-color="#ffe000"/><stop offset="0.409" stop-color="#ffbd00"/><stop offset="0.775" stop-color="orange"/><stop offset="1" stop-color="#ff9c00"/></linearGradient><linearGradient id="c" x1="0.513" y1="-3.902" x2="-0.847" y2="-2.116" gradientUnits="objectBoundingBox"><stop offset="0" stop-color="#ff3a44"/><stop offset="1" stop-color="#c31162"/></linearGradient><linearGradient id="d" x1="-0.534" y1="-3.329" x2="0.073" y2="-2.532" gradientUnits="objectBoundingBox"><stop offset="0" stop-color="#32a071"/><stop offset="0.068" stop-color="#2da771"/><stop offset="0.476" stop-color="#15cf74"/><stop offset="0.801" stop-color="#06e775"/><stop offset="1" stop-color="#00f076"/></linearGradient></defs><g transform="translate(22847.365 13378.636)"><path d="M378.374,228.7a6.342,6.342,0,0,1,6.371,6.3v45a6.342,6.342,0,0,1-6.371,6.3H188.668A6.342,6.342,0,0,1,182.3,280V235a6.342,6.342,0,0,1,6.371-6.3H378.374m0-1.2H188.668a7.569,7.569,0,0,0-7.588,7.5v45a7.57,7.57,0,0,0,7.588,7.5H378.374a7.57,7.57,0,0,0,7.588-7.5V235A7.569,7.569,0,0,0,378.374,227.5Z" transform="translate(-23028.445 -13606.138)" fill="#727272"/><g transform="translate(-22784.607 -13368.338)"><g transform="translate(0 0)"><path d="M337.252,256.686a4.07,4.07,0,0,1-1.126,3,4.466,4.466,0,0,1-3.35,1.334,4.631,4.631,0,0,1-3.349-1.349,4.758,4.758,0,0,1,0-6.7,4.608,4.608,0,0,1,3.349-1.356,4.8,4.8,0,0,1,1.869.381,3.686,3.686,0,0,1,1.422,1l-.793.791a3.108,3.108,0,0,0-2.5-1.062,3.5,3.5,0,0,0-2.49,1,3.747,3.747,0,0,0,0,5.193,3.527,3.527,0,0,0,2.49,1,3.477,3.477,0,0,0,2.542-1,2.813,2.813,0,0,0,.763-1.824h-3.3v-1.083h4.409A3.12,3.12,0,0,1,337.252,256.686Z" transform="translate(-328.047 -251.618)" fill="#4a4a4a"/></g><g transform="translate(10.886 0.207)"><path d="M358.853,253.206h-4.141v2.851h3.735v1.084h-3.735v2.85h4.141v1.1h-5.312V252.1h5.312Z" transform="translate(-353.541 -252.103)" fill="#4a4a4a"/></g><g transform="translate(17.423 0.207)"><path d="M372.561,261.1h-1.173v-7.89h-2.54v-1.1H375.1v1.1h-2.541Z" transform="translate(-368.848 -252.103)" fill="#4a4a4a"/></g><g transform="translate(28.205 0.207)"><path d="M394.1,261.1V252.1h1.169V261.1Z" transform="translate(-394.097 -252.103)" fill="#4a4a4a"/></g><g transform="translate(30.85 0.207)"><path d="M404,261.1h-1.162v-7.89h-2.551v-1.1h6.263v1.1H404Z" transform="translate(-400.291 -252.103)" fill="#4a4a4a"/></g><g transform="translate(40.935 0)"><path d="M431.927,259.66a4.771,4.771,0,0,1-6.678,0,4.828,4.828,0,0,1,0-6.679,4.754,4.754,0,0,1,6.671.007,4.809,4.809,0,0,1,.007,6.671Zm-5.81-.754a3.526,3.526,0,0,0,4.943,0,3.8,3.8,0,0,0,0-5.17,3.526,3.526,0,0,0-4.943,0,3.8,3.8,0,0,0,0,5.17Z" transform="translate(-423.908 -251.618)" fill="#4a4a4a"/></g><g transform="translate(51.94 0.207)"><path d="M449.68,261.1V252.1H451.1l4.423,6.993h.05l-.05-1.73V252.1H456.7V261.1h-1.221l-4.632-7.34h-.052l.052,1.736v5.6Z" transform="translate(-449.68 -252.103)" fill="#4a4a4a"/></g></g><path d="M368.058,294.441a6.38,6.38,0,1,0,6.485,6.38A6.325,6.325,0,0,0,368.058,294.441Zm0,10.246a3.874,3.874,0,1,1,3.646-3.867A3.707,3.707,0,0,1,368.058,304.687Zm-14.13-10.246a6.38,6.38,0,1,0,6.476,6.38A6.322,6.322,0,0,0,353.928,294.441Zm0,10.246a3.874,3.874,0,1,1,3.638-3.867A3.712,3.712,0,0,1,353.928,304.687ZM337.113,296.4v2.712h6.55a5.6,5.6,0,0,1-1.489,3.4,6.771,6.771,0,0,1-5.061,1.978,7.2,7.2,0,0,1,0-14.4,6.987,6.987,0,0,1,4.935,1.934l1.934-1.91a9.621,9.621,0,0,0-6.87-2.732,9.913,9.913,0,1,0,0,19.818,9.221,9.221,0,0,0,7-2.783,8.881,8.881,0,0,0,2.37-6.328,9.011,9.011,0,0,0-.147-1.693Zm68.761,2.1a5.982,5.982,0,0,0-5.529-4.057,6.094,6.094,0,0,0-6.084,6.38,6.277,6.277,0,0,0,6.4,6.379,6.415,6.415,0,0,0,5.38-2.827l-2.2-1.449a3.7,3.7,0,0,1-3.18,1.764,3.283,3.283,0,0,1-3.125-1.934l8.633-3.529-.3-.726Zm-8.8,2.125a3.519,3.519,0,0,1,3.371-3.72,2.51,2.51,0,0,1,2.4,1.353l-5.772,2.367Zm-7.017,6.189h2.839V288.061h-2.839Zm-4.647-10.951h-.1a4.493,4.493,0,0,0-3.393-1.421,6.382,6.382,0,0,0,0,12.759,4.427,4.427,0,0,0,3.393-1.449h.1v.916c0,2.44-1.319,3.749-3.445,3.749a3.578,3.578,0,0,1-3.254-2.278l-2.468,1.018a6.156,6.156,0,0,0,5.722,3.772c3.327,0,6.135-1.934,6.135-6.643V294.828h-2.69Zm-3.247,8.826a3.878,3.878,0,0,1,0-7.734,3.893,3.893,0,0,1,0,7.734Zm37-16.626h-6.788v18.751H415.2v-7.1h3.956a5.836,5.836,0,1,0,0-11.646Zm.074,9.038H415.2v-6.43h4.03a3.217,3.217,0,1,1,0,6.43Zm17.5-2.7a5.32,5.32,0,0,0-5.047,2.871l2.512,1.041a2.686,2.686,0,0,1,2.585-1.378c1.469,0,2.958.871,2.98,2.411v.2a6.27,6.27,0,0,0-2.957-.726c-2.706,0-5.462,1.471-5.462,4.219,0,2.513,2.216,4.131,4.706,4.131a4.022,4.022,0,0,0,3.617-1.838h.1v1.448H442.5V299.59C442.5,296.264,439.983,294.4,436.73,294.4Zm-.342,10.276c-.926,0-2.216-.454-2.216-1.588,0-1.452,1.609-2.008,3-2.008a5.107,5.107,0,0,1,2.587.63A3.422,3.422,0,0,1,436.389,304.68Zm16.066-9.865-3.253,8.129h-.1l-3.364-8.129h-3.051l5.053,11.36-2.883,6.319h2.958l7.787-17.679Zm-25.514,12h2.838V288.061h-2.838Z" transform="translate(-23112.02 -13640.447)"/><g transform="translate(-22832.232 -13367.437)"><path d="M217.222,253.839a2.965,2.965,0,0,0-.7,2.108V289.12a2.97,2.97,0,0,0,.7,2.11l.111.1,18.807-18.58v-.439l-18.807-18.58Z" transform="translate(-216.518 -253.73)" fill="url(#a)"/></g><g transform="translate(-22812.611 -13355.052)"><path d="M268.729,295.563l-6.261-6.2v-.439l6.269-6.2.141.081,7.425,4.175c2.119,1.185,2.119,3.135,0,4.328l-7.425,4.168Z" transform="translate(-262.468 -282.731)" fill="url(#b)"/></g><g transform="translate(-22831.529 -13348.635)"><path d="M243.493,304.094l-6.41-6.336-18.918,18.7c.7.73,1.851.819,3.157.087l22.171-12.451" transform="translate(-218.166 -297.758)" fill="url(#c)"/></g><g transform="translate(-22831.529 -13367.923)"><path d="M243.493,265.542,221.323,253.09c-1.305-.724-2.453-.636-3.157.1l18.918,18.691Z" transform="translate(-218.166 -252.59)" fill="url(#d)"/></g></g></svg>