<svg xmlns="http://www.w3.org/2000/svg" width="49.678" height="43.11" viewBox="0 0 49.678 43.11"><path d="M22233.85,14416.095c-2.854,5.273-20.32,8.905-20.32,8.905S22236.7,14410.818,22233.85,14416.095Zm-24.211-10.205c2.768-4.41,4.344-9.531,7.957-14.094s6.2-3.416,3.111,2.509a102.59,102.59,0,0,1-10.119,16c-1.061,1.341-1.818,1.893-2.291,1.893C22207.164,14412.192,22207.686,14409,22209.639,14405.89Zm-18.332,2.683s-2.137-11.371-.949-15.826,5.188-3.975,5.1,0-.254,9.969-1.293,13.922c-.51,1.943-1.207,2.437-1.785,2.437A1.65,1.65,0,0,1,22191.307,14408.572Z" transform="matrix(0.985, -0.174, 0.174, 0.985, -24351.504, -10309.488)" fill="#ec8791"/></svg>