<svg xmlns="http://www.w3.org/2000/svg" width="25.018" height="35" viewBox="0 0 25.018 35"><g transform="translate(-0.002)"><path d="M335.007,300.518l0,0a.684.684,0,1,0,.346-.911A.683.683,0,0,0,335.009,300.522Zm0,0" transform="translate(-312.048 -279.075)" fill="#ff2500"/><path d="M24.845,23.435a.683.683,0,0,0-1.35.214,12.945,12.945,0,0,1,.125,2.942,7.724,7.724,0,0,1-3.153,5.694L20,32.622a5.252,5.252,0,0,1-4.3.871l-1.812-.428A17,17,0,0,1,4.9,27.594,9.845,9.845,0,0,1,3.059,24.62a.68.68,0,0,0,.025-.291c0-.029-.34-2.982,3.824-4.877a9.644,9.644,0,0,0,4.656-4.481c3.131.432,4.208,1.313,4.288,1.382a.641.641,0,0,0,.629.178l.169-.037a4.843,4.843,0,0,1,5.373,2.773.684.684,0,0,0,1.248-.558,6.263,6.263,0,0,0-2.5-2.809l0-.007a4.565,4.565,0,0,0,.207-1.365c0-.093,0-.186-.009-.277l-.3-1.367a7.612,7.612,0,0,0-.82-1.42,2.6,2.6,0,0,0-.92-.741,4.54,4.54,0,0,0-1.881-.715A5.223,5.223,0,0,1,20.6,8.989a.683.683,0,0,0,.707-.683V5.7a.683.683,0,0,0-.627-.681,16.492,16.492,0,0,0-3.055.094,6.906,6.906,0,0,0-3-3.1l.484-.722A.684.684,0,0,0,13.978.528l-.693,1.034a4.885,4.885,0,0,0-1.425-.055V.684a.684.684,0,0,0-1.367,0V1.853A5.863,5.863,0,0,0,8.69,3.03,7.4,7.4,0,0,0,7.573,4.374,1.555,1.555,0,0,0,6.187,3.52H4.332A1.555,1.555,0,0,0,2.778,5.074v6.988A7.2,7.2,0,0,0,1.785,13,8.256,8.256,0,0,0,0,18.531,10.232,10.232,0,0,0,1.131,23.3c.1.276.2.542.286.8A11.753,11.753,0,0,0,3.854,28.48a18.379,18.379,0,0,0,9.72,5.915l1.811.428a6.62,6.62,0,0,0,5.425-1.1l.462-.338a9.088,9.088,0,0,0,3.711-6.7,14.3,14.3,0,0,0-.139-3.253ZM16.5,15.13a6.684,6.684,0,0,0-1.479-.739,7.615,7.615,0,0,1,.889-3.022,3.262,3.262,0,0,1,.506-.04,3.2,3.2,0,0,1,3.1,4,6.138,6.138,0,0,0-3.014-.2Zm3.44-8.769V7.626a6.119,6.119,0,0,0-4.16,1.685,7.893,7.893,0,0,0-2.091,4.672,19.04,19.04,0,0,0-2.349-.42q-.312-.289-.621-.546c0-.017,0-.033,0-.05a5.71,5.71,0,0,1,1.763-4.393c2.225-2.052,5.976-2.228,7.456-2.213ZM12.385,2.846a3.591,3.591,0,0,1,1.009.146h0a5.014,5.014,0,0,1,2.8,2.36,9.87,9.87,0,0,0-4.632,2.213A6.8,6.8,0,0,0,9.4,12.058a8.081,8.081,0,0,0-1.659-.8V7.306a.748.748,0,0,0,.031-.085C8.526,4.6,10.38,2.846,12.385,2.846ZM4.145,5.074a.187.187,0,0,1,.186-.186H6.187a.187.187,0,0,1,.186.186v5.89a5.164,5.164,0,0,0-.682-.015,4.828,4.828,0,0,0-1.546.326ZM2.813,13.906a4.154,4.154,0,0,1,2.939-1.591c1.36-.061,2.925.678,4.539,2.141a8.377,8.377,0,0,1-3.949,3.752,7.722,7.722,0,0,0-4.209,3.951l-.023.058c-.864-1.914-1.329-5.992.7-8.311Zm0,0" transform="translate(0 0)" fill="#ff2500"/><path d="M111.556,400.022a.684.684,0,1,0-.873,1.052,15.751,15.751,0,0,0,6.4,3.19.684.684,0,1,0,.314-1.331,14.381,14.381,0,0,1-5.846-2.911Zm0,0" transform="translate(-106.924 -378.696)" fill="#ff2500"/><path d="M111.556,400.022a.684.684,0,1,0-.873,1.052c1.849,1.534,1.873,1.978,4.213,2.531a.684.684,0,1,0,.314-1.331c-2.136-.5-1.967-.852-3.655-2.252Zm0,0" transform="translate(-104.231 -381.596)" fill="#ff2500"/><path d="M111.556,400.022a.684.684,0,1,0-.873,1.052,15.751,15.751,0,0,0,6.4,3.19.684.684,0,1,0,.314-1.331,14.381,14.381,0,0,1-5.846-2.911Zm0,0" transform="translate(-101.539 -384.573)" fill="#ff2500"/></g></svg>