<svg xmlns="http://www.w3.org/2000/svg" width="160.93" height="29.387" viewBox="0 0 160.93 29.387"><path d="M-21472.459-13058.5c-1.2-.922-2.42-1.834-3.629-2.711l.881-1.214c1.221.885,2.453,1.8,3.662,2.735Zm-159.07-.012-.945-1.166c.1-.077,2.377-1.916,6.582-4.667l.822,1.256C-21629.207-13060.386-21631.508-13058.531-21631.529-13058.513Zm150.547-6.106c-2.221-1.483-4.49-2.91-6.742-4.242l.764-1.291c2.275,1.346,4.568,2.787,6.811,4.285Zm-139.021-1.627-.766-1.29c2.275-1.35,4.637-2.666,7.02-3.913l.7,1.329C-21615.414-13068.886-21617.752-13067.582-21620-13066.246Zm127.082-5.541c-2.348-1.254-4.744-2.444-7.123-3.538l.625-1.363c2.406,1.106,4.83,2.311,7.205,3.579Zm-114.787-1-.643-1.354c2.416-1.146,4.889-2.24,7.35-3.252l.57,1.387C-21602.867-13075-21605.316-13073.92-21607.709-13072.785Zm102.188-4.9c-2.461-.994-4.973-1.915-7.465-2.738l.471-1.425c2.523.834,5.064,1.767,7.555,2.772Zm-89.344-.476-.514-1.409c2.521-.92,5.088-1.777,7.625-2.547l.436,1.436C-21589.83-13079.923-21592.369-13079.074-21594.865-13078.164Zm76.174-3.992c-2.549-.7-5.15-1.329-7.729-1.856l.3-1.47c2.611.534,5.244,1.167,7.826,1.88Zm-62.881-.139-.373-1.452c2.6-.67,5.244-1.267,7.848-1.773l.287,1.473C-21576.385-13083.547-21579-13082.957-21581.572-13082.295Zm13.641-2.76-.219-1.483c2.656-.392,5.346-.7,7.994-.923l.123,1.494C-21562.648-13085.748-21565.3-13085.441-21567.932-13085.055Zm35.645,0c-2.607-.4-5.262-.708-7.893-.927l.123-1.494c2.666.221,5.355.536,7.994.938Zm-21.793-1.259-.053-1.5c2.682-.092,5.389-.095,8.051-.01l-.049,1.5C-21548.76-13086.411-21551.432-13086.408-21554.08-13086.317Z" transform="translate(21632.475 13087.888)" fill="#cee9ff"/></svg>