<svg xmlns="http://www.w3.org/2000/svg" xmlns:xlink="http://www.w3.org/1999/xlink" width="318" height="610" viewBox="0 0 318 610"><defs><linearGradient id="a" x1="0.266" x2="0.725" y2="1" gradientUnits="objectBoundingBox"><stop offset="0" stop-color="#1c8aff"/><stop offset="1" stop-color="#47caff" stop-opacity="0.6"/></linearGradient></defs><g transform="translate(-1129 -2137.218)"><path d="M999.2,278.519a2.1,2.1,0,0,0-1.773-.424L981,281.808l-16.424-3.756A2.117,2.117,0,0,0,962,280.174v25.885a2.118,2.118,0,0,0,1.646,2.122L980.536,312h.928l16.889-3.819a2.118,2.118,0,0,0,1.646-2.122V280.174a2.123,2.123,0,0,0-.8-1.655Zm-32.974,4.307,12.666,2.864v21.536l-12.666-2.864Zm29.554,21.536-12.666,2.864V285.69l12.666-2.864Z" transform="translate(204 1898.218)" fill="#08fe90"/><g transform="translate(204 1898.218)"><path d="M53-2.5A55.252,55.252,0,0,1,84.032,6.98,55.655,55.655,0,0,1,104.138,31.4,55.43,55.43,0,0,1,99.02,84.032,55.655,55.655,0,0,1,74.6,104.138,55.43,55.43,0,0,1,21.968,99.02,55.655,55.655,0,0,1,1.862,74.6,55.43,55.43,0,0,1,6.98,21.968,55.655,55.655,0,0,1,31.4,1.862,55.155,55.155,0,0,1,53-2.5Zm0,106A50.5,50.5,0,1,0,2.5,53,50.557,50.557,0,0,0,53,103.5Z" transform="translate(928 242)" fill="url(#a)"/><path d="M53-3A55.753,55.753,0,0,1,84.312,6.566,56.154,56.154,0,0,1,104.6,31.2a55.93,55.93,0,0,1-5.164,53.111A56.154,56.154,0,0,1,74.8,104.6a55.93,55.93,0,0,1-53.111-5.164A56.154,56.154,0,0,1,1.4,74.8,55.93,55.93,0,0,1,6.566,21.688,56.154,56.154,0,0,1,31.2,1.4,55.652,55.652,0,0,1,53-3Zm0,111a54.752,54.752,0,0,0,30.752-9.394,55.155,55.155,0,0,0,19.925-24.2,54.93,54.93,0,0,0-5.071-52.162,55.155,55.155,0,0,0-24.2-19.925A54.93,54.93,0,0,0,22.248,7.394a55.155,55.155,0,0,0-19.925,24.2A54.93,54.93,0,0,0,7.394,83.752a55.155,55.155,0,0,0,24.2,19.925A54.658,54.658,0,0,0,53,108ZM53,2A51,51,0,1,1,2,53,51.058,51.058,0,0,1,53,2Zm0,101A50,50,0,1,0,3,53,50.057,50.057,0,0,0,53,103Z" transform="translate(928 242)" fill="#f5f5f5"/></g><g transform="translate(204 1898.218)"><path d="M53-2.5A55.252,55.252,0,0,1,84.032,6.98,55.655,55.655,0,0,1,104.138,31.4,55.43,55.43,0,0,1,99.02,84.032,55.655,55.655,0,0,1,74.6,104.138,55.43,55.43,0,0,1,21.968,99.02,55.655,55.655,0,0,1,1.862,74.6,55.43,55.43,0,0,1,6.98,21.968,55.655,55.655,0,0,1,31.4,1.862,55.155,55.155,0,0,1,53-2.5Zm0,106A50.5,50.5,0,1,0,2.5,53,50.557,50.557,0,0,0,53,103.5Z" transform="translate(1134 408)" fill="url(#a)"/><path d="M53-3A55.753,55.753,0,0,1,84.312,6.566,56.154,56.154,0,0,1,104.6,31.2a55.93,55.93,0,0,1-5.164,53.111A56.154,56.154,0,0,1,74.8,104.6a55.93,55.93,0,0,1-53.111-5.164A56.154,56.154,0,0,1,1.4,74.8,55.93,55.93,0,0,1,6.566,21.688,56.154,56.154,0,0,1,31.2,1.4,55.652,55.652,0,0,1,53-3Zm0,111a54.752,54.752,0,0,0,30.752-9.394,55.155,55.155,0,0,0,19.925-24.2,54.93,54.93,0,0,0-5.071-52.162,55.155,55.155,0,0,0-24.2-19.925A54.93,54.93,0,0,0,22.248,7.394a55.155,55.155,0,0,0-19.925,24.2A54.93,54.93,0,0,0,7.394,83.752a55.155,55.155,0,0,0,24.2,19.925A54.658,54.658,0,0,0,53,108ZM53,2A51,51,0,1,1,2,53,51.058,51.058,0,0,1,53,2Zm0,101A50,50,0,1,0,3,53,50.057,50.057,0,0,0,53,103Z" transform="translate(1134 408)" fill="#f5f5f5"/></g><path d="M1182.59,459.651a1.922,1.922,0,0,0-2.71,0,1.9,1.9,0,0,0,0,2.7l5.72,5.7a1.954,1.954,0,0,0,.62.41,1.9,1.9,0,0,0,.73.141,1.872,1.872,0,0,0,.75-.181,1.84,1.84,0,0,0,.62-.465l13.34-15.2a1.939,1.939,0,0,0,.41-1.354,1.882,1.882,0,0,0-.64-1.264,1.905,1.905,0,0,0-2.63.11l-11.85,13.68Z" transform="translate(204 1898.218)" fill="#08fe90"/><path d="M1204.1,459.1a1.912,1.912,0,0,0-1.35.556,1.89,1.89,0,0,0-.56,1.344,15.242,15.242,0,1,1-26.04-10.716,15.139,15.139,0,0,1,10.8-4.484,16.836,16.836,0,0,1,3.62.418,1.91,1.91,0,0,0,.77.074,1.846,1.846,0,0,0,.73-.237,1.787,1.787,0,0,0,.58-.508,1.925,1.925,0,0,0,.36-1.467,1.912,1.912,0,0,0-1.54-1.548,20.174,20.174,0,0,0-4.52-.532,19.042,19.042,0,0,0-17.53,11.8A19,19,0,1,0,1206,461a1.905,1.905,0,0,0-1.9-1.9Z" transform="translate(204 1898.218)" fill="#08fe90"/><g transform="translate(204 1898.218)"><path d="M53-2.5A55.252,55.252,0,0,1,84.032,6.98,55.655,55.655,0,0,1,104.138,31.4,55.43,55.43,0,0,1,99.02,84.032,55.655,55.655,0,0,1,74.6,104.138,55.43,55.43,0,0,1,21.968,99.02,55.655,55.655,0,0,1,1.862,74.6,55.43,55.43,0,0,1,6.98,21.968,55.655,55.655,0,0,1,31.4,1.862,55.155,55.155,0,0,1,53-2.5Zm0,106A50.5,50.5,0,1,0,2.5,53,50.557,50.557,0,0,0,53,103.5Z" transform="translate(928 574)" fill="url(#a)"/><path d="M53-3A55.753,55.753,0,0,1,84.312,6.566,56.154,56.154,0,0,1,104.6,31.2a55.93,55.93,0,0,1-5.164,53.111A56.154,56.154,0,0,1,74.8,104.6a55.93,55.93,0,0,1-53.111-5.164A56.154,56.154,0,0,1,1.4,74.8,55.93,55.93,0,0,1,6.566,21.688,56.154,56.154,0,0,1,31.2,1.4,55.652,55.652,0,0,1,53-3Zm0,111a54.752,54.752,0,0,0,30.752-9.394,55.155,55.155,0,0,0,19.925-24.2,54.93,54.93,0,0,0-5.071-52.162,55.155,55.155,0,0,0-24.2-19.925A54.93,54.93,0,0,0,22.248,7.394a55.155,55.155,0,0,0-19.925,24.2A54.93,54.93,0,0,0,7.394,83.752a55.155,55.155,0,0,0,24.2,19.925A54.658,54.658,0,0,0,53,108ZM53,2A51,51,0,1,1,2,53,51.058,51.058,0,0,1,53,2Zm0,101A50,50,0,1,0,3,53,50.057,50.057,0,0,0,53,103Z" transform="translate(928 574)" fill="#f5f5f5"/></g><path d="M966.434,625.939l14.573-11.729,14.574,12.163a2.709,2.709,0,0,0,3.447-4.181l-16.284-13.574a2.711,2.711,0,0,0-3.446,0l-16.284,13.113a2.711,2.711,0,1,0,3.42,4.208Z" transform="translate(204 1898.218)" fill="#08fe90"/><path d="M982.744,627.622a2.714,2.714,0,0,0-3.446,0l-16.284,13.113a2.715,2.715,0,0,0-1,1.83,2.723,2.723,0,0,0,.592,2,2.716,2.716,0,0,0,1.829,1,2.719,2.719,0,0,0,2-.592l14.573-11.756,14.574,12.163a2.709,2.709,0,0,0,3.447-4.181Z" transform="translate(204 1898.218)" fill="#08fe90"/><g transform="translate(204 1898.218)"><path d="M53-2.5A55.252,55.252,0,0,1,84.032,6.98,55.655,55.655,0,0,1,104.138,31.4,55.43,55.43,0,0,1,99.02,84.032,55.655,55.655,0,0,1,74.6,104.138,55.43,55.43,0,0,1,21.968,99.02,55.655,55.655,0,0,1,1.862,74.6,55.43,55.43,0,0,1,6.98,21.968,55.655,55.655,0,0,1,31.4,1.862,55.155,55.155,0,0,1,53-2.5Zm0,106A50.5,50.5,0,1,0,2.5,53,50.557,50.557,0,0,0,53,103.5Z" transform="translate(1134 740)" fill="url(#a)"/><path d="M53-3A55.752,55.752,0,0,1,84.312,6.566,56.155,56.155,0,0,1,104.6,31.2a55.93,55.93,0,0,1-5.164,53.111A56.155,56.155,0,0,1,74.8,104.6a55.93,55.93,0,0,1-53.111-5.164A56.155,56.155,0,0,1,1.4,74.8,55.93,55.93,0,0,1,6.566,21.688,56.155,56.155,0,0,1,31.2,1.4,55.652,55.652,0,0,1,53-3Zm0,111a54.752,54.752,0,0,0,30.752-9.394,55.155,55.155,0,0,0,19.925-24.2,54.93,54.93,0,0,0-5.071-52.162,55.155,55.155,0,0,0-24.2-19.925A54.93,54.93,0,0,0,22.248,7.394a55.155,55.155,0,0,0-19.925,24.2A54.93,54.93,0,0,0,7.394,83.752a55.155,55.155,0,0,0,24.2,19.925A54.658,54.658,0,0,0,53,108ZM53,2A51,51,0,1,1,2,53,51.058,51.058,0,0,1,53,2Zm0,101A50,50,0,1,0,3,53,50.057,50.057,0,0,0,53,103Z" transform="translate(1134 740)" fill="#f5f5f5"/></g><rect width="34.5" height="39.5" rx="3.25" transform="translate(1373.75 2671.968)" fill="#fff"/><path d="M3.25-1.75h28a5.006,5.006,0,0,1,5,5v33a5.006,5.006,0,0,1-5,5h-28a5.006,5.006,0,0,1-5-5v-33A5.006,5.006,0,0,1,3.25-1.75Zm28,39.5a1.5,1.5,0,0,0,1.5-1.5v-33a1.5,1.5,0,0,0-1.5-1.5h-28a1.5,1.5,0,0,0-1.5,1.5v33a1.5,1.5,0,0,0,1.5,1.5Z" transform="translate(1373.75 2671.968)" fill="#08fe90"/><rect width="22.5" height="2.5" rx="1.25" transform="translate(1379.75 2682.968)" fill="#08fe90"/><path d="M1.25-.25h20a1.5,1.5,0,0,1,0,3h-20a1.5,1.5,0,0,1,0-3Zm20,2.5a1,1,0,0,0,0-2h-20a1,1,0,0,0,0,2Z" transform="translate(1379.75 2682.968)" fill="#08fe90"/><rect width="12.5" height="2.5" rx="1.25" transform="translate(1379.75 2689.968)" fill="#08fe90"/><path d="M1.25-.25h10a1.5,1.5,0,0,1,0,3h-10a1.5,1.5,0,0,1,0-3Zm10,2.5a1,1,0,0,0,0-2h-10a1,1,0,0,0,0,2Z" transform="translate(1379.75 2689.968)" fill="#08fe90"/><rect width="18.5" height="2.5" rx="1.25" transform="translate(1379.75 2696.968)" fill="#08fe90"/><path d="M1.25-.25h16a1.5,1.5,0,0,1,0,3h-16a1.5,1.5,0,0,1,0-3Zm16,2.5a1,1,0,0,0,0-2h-16a1,1,0,0,0,0,2Z" transform="translate(1379.75 2696.968)" fill="#08fe90"/></g></svg>