<svg xmlns="http://www.w3.org/2000/svg" width="11.313" height="16" viewBox="0 0 11.313 16"><g transform="translate(-5.438 -5.438)"><path d="M121.657,116a5.659,5.659,0,0,0-2.424,10.771v1.35a.808.808,0,0,0,.808.808h3.232a.808.808,0,0,0,.808-.808v-1.35A5.658,5.658,0,0,0,121.657,116Zm1.349,9.468a.808.808,0,0,0-.541.763v1.083h-1.616V126.23a.808.808,0,0,0-.541-.763,4.04,4.04,0,1,1,2.7,0Z" transform="translate(-110.562 -110.562)" fill="#7a7a7a"/><path d="M200.04,472h-3.232a.808.808,0,1,0,0,1.616h3.232a.808.808,0,1,0,0-1.616Z" transform="translate(-187.33 -452.179)" fill="#7a7a7a"/></g></svg>