<svg xmlns="http://www.w3.org/2000/svg" width="36.667" height="30" viewBox="0 0 36.667 30"><path d="M31,1H7.667A6.686,6.686,0,0,0,1,7.667V24.333A6.686,6.686,0,0,0,7.667,31H31a6.686,6.686,0,0,0,6.667-6.667V7.667A6.686,6.686,0,0,0,31,1Zm3.333,23.333A3.336,3.336,0,0,1,31,27.667H7.667a3.336,3.336,0,0,1-3.333-3.333V7.667A3.336,3.336,0,0,1,7.667,4.333H31a3.336,3.336,0,0,1,3.333,3.333Zm-10.667-15-4.333,4.333L15,9.333l-2.333,2.333L17,16l-4.333,4.333L15,22.667l4.333-4.333,4.333,4.333L26,20.333,21.667,16,26,11.667Z" transform="translate(-1 -1)" fill="#f41c24"/></svg>