<svg xmlns="http://www.w3.org/2000/svg" xmlns:xlink="http://www.w3.org/1999/xlink" width="55" height="55" viewBox="0 0 55 55"><defs><linearGradient id="a" x1="0.146" y1="0.854" x2="0.854" y2="0.146" gradientUnits="objectBoundingBox"><stop offset="0" stop-color="#ffd521"/><stop offset="0.055" stop-color="#ffd020"/><stop offset="0.124" stop-color="#fec01e"/><stop offset="0.2" stop-color="#fca71b"/><stop offset="0.282" stop-color="#fa8316"/><stop offset="0.368" stop-color="#f85510"/><stop offset="0.456" stop-color="#f51e09"/><stop offset="0.5" stop-color="#f30005"/><stop offset="0.503" stop-color="#f20007"/><stop offset="0.597" stop-color="#e1003b"/><stop offset="0.688" stop-color="#d30067"/><stop offset="0.776" stop-color="#c70088"/><stop offset="0.859" stop-color="#bf00a0"/><stop offset="0.936" stop-color="#bb00af"/><stop offset="1" stop-color="#b900b4"/></linearGradient></defs><g transform="translate(0 -9)"><path d="M27.5,55A27.5,27.5,0,1,1,55,27.5,27.5,27.5,0,0,1,27.5,55Z" transform="translate(0 9)" fill="url(#a)"/><g transform="translate(10 19)"><path d="M176.1,161.853c4.67,0,5.224.015,7.07.1a9.6,9.6,0,0,1,3.25.6,5.787,5.787,0,0,1,3.317,3.317,9.734,9.734,0,0,1,.6,3.25c.082,1.846.1,2.4.1,7.07s-.015,5.224-.1,7.07a9.6,9.6,0,0,1-.6,3.25,5.787,5.787,0,0,1-3.317,3.317,9.733,9.733,0,0,1-3.25.6c-1.846.082-2.4.1-7.07.1s-5.224-.015-7.07-.1a9.6,9.6,0,0,1-3.25-.6,5.787,5.787,0,0,1-3.317-3.317,9.732,9.732,0,0,1-.6-3.25c-.082-1.846-.1-2.4-.1-7.07s.015-5.224.1-7.07a9.6,9.6,0,0,1,.6-3.25,5.787,5.787,0,0,1,3.317-3.317,9.733,9.733,0,0,1,3.25-.6c1.846-.087,2.4-.1,7.07-.1m0-3.153c-4.752,0-5.347.021-7.213.108a12.862,12.862,0,0,0-4.25.815,8.447,8.447,0,0,0-3.1,2.015,8.613,8.613,0,0,0-2.02,3.1,12.938,12.938,0,0,0-.815,4.25c-.087,1.866-.108,2.461-.108,7.213s.021,5.347.108,7.213a12.862,12.862,0,0,0,.815,4.25,8.977,8.977,0,0,0,5.122,5.111,12.938,12.938,0,0,0,4.25.815c1.866.087,2.461.108,7.213.108s5.347-.02,7.213-.108a12.862,12.862,0,0,0,4.25-.815,8.978,8.978,0,0,0,5.111-5.122,12.938,12.938,0,0,0,.815-4.25c.087-1.866.108-2.461.108-7.213s-.021-5.347-.108-7.213a12.862,12.862,0,0,0-.815-4.25,8.978,8.978,0,0,0-5.122-5.111,12.938,12.938,0,0,0-4.25-.815C181.45,158.721,180.855,158.7,176.1,158.7Z" transform="translate(-158.6 -158.7)" fill="#fff"/><path d="M333.687,324.7a8.987,8.987,0,1,0,8.987,8.987A8.988,8.988,0,0,0,333.687,324.7Zm0,14.821a5.834,5.834,0,1,1,5.834-5.834A5.834,5.834,0,0,1,333.687,339.521Z" transform="translate(-316.185 -316.19)" fill="#fff"/><circle cx="2.102" cy="2.102" r="2.102" transform="translate(24.741 6.055)" fill="#fff"/></g></g></svg>