<svg xmlns="http://www.w3.org/2000/svg" width="43.188" height="43.188" viewBox="0 0 43.188 43.188"><g transform="translate(-1479.168 -4551.332)"><path d="M17.438-.5H24.75A17.923,17.923,0,0,1,42.688,17.438V24.75A17.923,17.923,0,0,1,24.75,42.688H17.438A17.923,17.923,0,0,1-.5,24.75V17.438A17.923,17.923,0,0,1,17.438-.5ZM24.75,41.688A16.957,16.957,0,0,0,41.688,24.75V17.438A16.957,16.957,0,0,0,24.75.5H17.438A16.957,16.957,0,0,0,.5,17.438V24.75A16.957,16.957,0,0,0,17.438,41.688Z" transform="translate(1479.668 4551.832)" fill="#e8e8f6"/><g transform="translate(-65.932)"><path d="M1156.441,68.353a1.331,1.331,0,1,1-1.331-1.33A1.336,1.336,0,0,1,1156.441,68.353Z" transform="translate(416.92 4499.053)" fill="#55b5ff"/><path d="M1151.62,77.354a4.433,4.433,0,1,0-4.439-4.432A4.431,4.431,0,0,0,1151.62,77.354Zm0-1.773a2.66,2.66,0,1,0-2.661-2.659A2.664,2.664,0,0,0,1151.62,75.581Z" transform="translate(415.537 4499.361)" fill="#55b5ff" fill-rule="evenodd"/><path d="M1143.52,73.335c0-2.979,0-4.468.581-5.606a5.29,5.29,0,0,1,2.323-2.325c1.137-.58,2.625-.58,5.6-.58h.714c2.976,0,4.464,0,5.6.58a5.378,5.378,0,0,1,2.334,2.325c.581,1.138.581,2.627.581,5.606v.709c0,2.979,0,4.468-.581,5.606a5.378,5.378,0,0,1-2.334,2.325c-1.137.58-2.625.58-5.6.58h-.714c-2.976,0-4.464,0-5.6-.58a5.29,5.29,0,0,1-2.323-2.325c-.581-1.138-.581-2.627-.581-5.606Zm8.5-6.737h.714c1.524,0,2.552,0,3.351.067a3.846,3.846,0,0,1,1.452.32,3.547,3.547,0,0,1,1.548,1.55,3.726,3.726,0,0,1,.314,1.452c.073.8.073,1.83.073,3.349v.709c0,1.519,0,2.551-.073,3.349a3.726,3.726,0,0,1-.314,1.452,3.548,3.548,0,0,1-1.548,1.55,3.846,3.846,0,0,1-1.452.32c-.8.065-1.827.067-3.351.067h-.714c-1.512,0-2.552,0-3.351-.067a3.846,3.846,0,0,1-1.452-.32,3.546,3.546,0,0,1-1.548-1.55,3.955,3.955,0,0,1-.314-1.452c-.073-.8-.073-1.83-.073-3.349v-.709c0-1.519,0-2.551.073-3.349a3.955,3.955,0,0,1,.314-1.452,3.546,3.546,0,0,1,1.548-1.55,3.846,3.846,0,0,1,1.452-.32C1149.472,66.6,1150.512,66.6,1152.024,66.6Z" transform="translate(414.77 4498.592)" fill="#55b5ff" fill-rule="evenodd"/></g></g></svg>