<svg xmlns="http://www.w3.org/2000/svg" width="18" height="18" viewBox="0 0 18 18"><g transform="translate(0 0)"><g transform="translate(0 0)"><g transform="translate(0 0)"><path d="M16.3,1.7A5.8,5.8,0,0,0,6.686,7.585L.155,14.116A.527.527,0,0,0,0,14.489v2.984A.527.527,0,0,0,.527,18H3.511a.527.527,0,0,0,.373-.155L4.63,17.1a.527.527,0,0,0,.151-.434l-.093-.8,1.11-.1a.527.527,0,0,0,.476-.476l.1-1.111.8.093a.527.527,0,0,0,.588-.524v-.982h.964a.527.527,0,0,0,.371-.152l1.31-1.3A5.8,5.8,0,0,0,16.3,1.7Zm-.746,7.459a4.748,4.748,0,0,1-5.087,1.059.527.527,0,0,0-.563.116L8.516,11.706H7.24a.527.527,0,0,0-.527.527v.917l-.748-.087a.527.527,0,0,0-.586.474l-.114,1.213-1.212.114a.527.527,0,0,0-.474.586L3.7,16.534l-.411.411H1.055V14.708L7.668,8.095a.527.527,0,0,0,.118-.565,4.745,4.745,0,1,1,7.772,1.626Z" transform="translate(0 0)"/></g></g><g transform="translate(12.111 2.726)"><path d="M347.2,77.991a1.582,1.582,0,1,0,0,2.238A1.584,1.584,0,0,0,347.2,77.991Zm-.746,1.492a.527.527,0,1,1,0-.746A.528.528,0,0,1,346.453,79.483Z" transform="translate(-344.499 -77.529)"/></g></g></svg>