<svg xmlns="http://www.w3.org/2000/svg" width="109.182" height="100" viewBox="0 0 109.182 100"><g transform="translate(0 -21.529)"><path d="M71.349,406.129v16.887a1.1,1.1,0,0,0,1.1,1.1H149a1.1,1.1,0,0,0,1.1-1.1V406.129Z" transform="translate(-56.134 -302.586)" fill="#fe9901"/><path d="M81.507,423.8V407.129H71.349V423.8a1.1,1.1,0,0,0,1.1,1.1H82.606A1.1,1.1,0,0,1,81.507,423.8Z" transform="translate(-56.134 -303.373)" fill="#fb8801"/><g transform="translate(21.881 42.371)"><path d="M105.774,129.08a.652.652,0,0,1,.382.734l-3.543,17.523,15.677,11.6,6.428-15.929-12.957-14.68a.658.658,0,0,1-.037-.836,5.1,5.1,0,1,0-5.951,1.585Z" transform="translate(-102.608 -119.267)" fill="#fee45a"/><g transform="translate(0 0.003)"><path d="M105.775,129.091a.652.652,0,0,1,.382.734l-3.5,17.292,3.006,2.225,4.225-20.895a.652.652,0,0,0-.382-.734,5.095,5.095,0,0,1-1.561-8.426,4.965,4.965,0,0,0-.994.048,5.1,5.1,0,0,0-1.181,9.756Z" transform="translate(-102.609 -119.281)" fill="#fedf30"/></g><path d="M318.669,128.331l-12.961,14.685,6.428,15.929,15.677-11.6-3.542-17.516a.659.659,0,0,1,.384-.743A5.1,5.1,0,1,0,318.7,127.5a.652.652,0,0,1-.035.829Z" transform="translate(-262.398 -119.272)" fill="#fedf30"/><g transform="translate(43.468 0.002)"><path d="M319.252,128.332l-12.8,14.506,1.529,3.788,15.487-17.547a.651.651,0,0,0,.035-.829,5.095,5.095,0,0,1,2.717-8.059,4.99,4.99,0,0,0-1.281-.649,5.1,5.1,0,0,0-5.648,7.96.652.652,0,0,1-.035.829Z" transform="translate(-306.449 -119.274)" fill="#fed402"/></g></g><g transform="translate(0 53.108)"><path d="M367.471,169.646a5.095,5.095,0,0,0-4.148,7.052,1.091,1.091,0,0,1-.361,1.3l-27.5,20.352,8.844,21.916H357.9l8.709-39.607a1.1,1.1,0,0,1,1.133-.859,5.1,5.1,0,1,0-.267-10.154Z" transform="translate(-263.928 -169.617)" fill="#fed402"/><path d="M368.124,169.646a5.095,5.095,0,0,0-4.148,7.053,1.09,1.09,0,0,1-.361,1.3L336.3,198.219l1.238,3.068,29.3-21.686a1.091,1.091,0,0,0,.361-1.3,5.095,5.095,0,0,1,4.148-7.053,5.21,5.21,0,0,1,1.063,0A5.089,5.089,0,0,0,368.124,169.646Z" transform="translate(-264.582 -169.617)" fill="#fac600"/><path d="M28.8,220.266l8.844-21.916L10.149,178a1.091,1.091,0,0,1-.361-1.3,5.1,5.1,0,1,0-4.415,3.1,1.1,1.1,0,0,1,1.133.859l8.709,39.607Z" transform="translate(0 -169.618)" fill="#fed402"/><g transform="translate(0 0.34)"><path d="M9.22,179.466a1.1,1.1,0,0,0-1.133-.859,5.095,5.095,0,0,1-4.821-7.393,5.095,5.095,0,0,0,2.108,9.842,1.1,1.1,0,0,1,1.133.859l8.709,39.607h3.572Z" transform="translate(0 -171.214)" fill="#fac600"/></g></g><g transform="translate(28.571 32.212)"><path d="M186.021,143.171,163.412,87.145a1.1,1.1,0,0,1,.242-1.188l4.79-4.79a1.1,1.1,0,0,0,0-1.553l-7.666-7.666a1.1,1.1,0,0,0-1.553,0l-7.666,7.666a1.1,1.1,0,0,0,0,1.553l4.79,4.79a1.1,1.1,0,0,1,.242,1.188l-22.609,56.025Z" transform="translate(-133.981 -71.626)" fill="#fee45a"/></g><g transform="translate(28.571 32.212)"><path d="M161.523,85.958l-4.79-4.79a1.1,1.1,0,0,1,0-1.553l5.856-5.856-1.811-1.811a1.1,1.1,0,0,0-1.553,0l-7.666,7.666a1.1,1.1,0,0,0,0,1.553l4.79,4.79a1.1,1.1,0,0,1,.242,1.188l-22.609,56.025h5.175l22.609-56.025A1.1,1.1,0,0,0,161.523,85.958Z" transform="translate(-133.981 -71.626)" fill="#fedf30"/></g><g transform="translate(47.447 73.095)"><path d="M229.024,263.663l-6.379,8.849a.764.764,0,0,0,0,.887l6.379,9.055a.764.764,0,0,0,1.249,0l6.379-9.055a.764.764,0,0,0,0-.887l-6.379-8.849A.764.764,0,0,0,229.024,263.663Z" transform="translate(-222.5 -263.346)" fill="#925cb4"/></g><g transform="translate(47.447 73.095)"><path d="M227.978,273.4a.764.764,0,0,1,0-.887l4.33-6.007-2.049-2.842a.764.764,0,0,0-1.24,0l-6.379,8.849a.764.764,0,0,0,0,.887l6.379,9.055a.764.764,0,0,0,1.249,0l2.044-2.9Z" transform="translate(-222.5 -263.345)" fill="#814ba2"/></g><g transform="translate(24.203 110.742)"><circle cx="1.599" cy="1.599" r="1.599" fill="#fed402"/><g transform="translate(11.515)"><circle cx="1.599" cy="1.599" r="1.599" fill="#fed402"/></g><g transform="translate(23.031)"><circle cx="1.599" cy="1.599" r="1.599" fill="#fed402"/></g><g transform="translate(34.546)"><circle cx="1.599" cy="1.599" r="1.599" fill="#fed402"/></g><g transform="translate(46.061)"><circle cx="1.599" cy="1.599" r="1.599" transform="translate(0)" fill="#fed402"/></g><g transform="translate(57.576)"><circle cx="1.599" cy="1.599" r="1.599" fill="#fed402"/></g></g><g transform="translate(29.767 21.529)"><path d="M147.047,22c1.127,3.236,2.443,4.551,5.678,5.678a.694.694,0,0,1,0,1.312c-3.236,1.127-4.551,2.443-5.678,5.678a.694.694,0,0,1-1.312,0c-1.127-3.236-2.443-4.551-5.678-5.678a.694.694,0,0,1,0-1.312c3.236-1.127,4.551-2.443,5.678-5.678A.694.694,0,0,1,147.047,22Z" transform="translate(-139.59 -21.529)" fill="#fe9901"/></g><g transform="translate(29.767 26.221)"><path d="M142.994,43.535a10.734,10.734,0,0,1-2.938,1.452.694.694,0,0,0,0,1.312c3.236,1.127,4.551,2.443,5.678,5.678a.694.694,0,0,0,1.312,0,10.812,10.812,0,0,1,1.431-2.909c-1.1-3.116-2.4-4.429-5.482-5.533Z" transform="translate(-139.589 -43.535)" fill="#fb8801"/></g><g transform="translate(66.033 27.46)"><path d="M317.112,49.811c1.127,3.236,2.443,4.551,5.678,5.678a.694.694,0,0,1,0,1.312c-3.236,1.127-4.551,2.443-5.678,5.678a.694.694,0,0,1-1.312,0c-1.127-3.236-2.443-4.551-5.678-5.678a.694.694,0,0,1,0-1.312c3.236-1.127,4.551-2.443,5.678-5.678A.694.694,0,0,1,317.112,49.811Z" transform="translate(-309.655 -49.344)" fill="#fe9901"/></g><g transform="translate(66.033 32.068)"><g transform="translate(0 0)"><path d="M313.167,70.951a10.438,10.438,0,0,1-3.045,1.537.694.694,0,0,0,0,1.312c3.236,1.127,4.551,2.443,5.678,5.678a.694.694,0,0,0,1.312,0,10.568,10.568,0,0,1,1.5-3C317.515,73.371,316.224,72.053,313.167,70.951Z" transform="translate(-309.655 -70.951)" fill="#fb8801"/></g></g></g></svg>