<svg xmlns="http://www.w3.org/2000/svg" xmlns:xlink="http://www.w3.org/1999/xlink" width="398.47" height="437.137" viewBox="0 0 398.47 437.137"><defs><filter id="a" x="0" y="0" width="398.47" height="437.137" filterUnits="userSpaceOnUse"><feOffset input="SourceAlpha"/><feGaussianBlur stdDeviation="10" result="b"/><feFlood flood-color="#694cf1" flood-opacity="0.102"/><feComposite operator="in" in2="b"/><feComposite in="SourceGraphic"/></filter><filter id="c" x="8.732" y="3.976" width="381.157" height="428.881" filterUnits="userSpaceOnUse"><feOffset input="SourceAlpha"/><feGaussianBlur stdDeviation="10" result="d"/><feFlood flood-opacity="0.161"/><feComposite operator="in" in2="d"/><feComposite in="SourceGraphic"/></filter><linearGradient id="e" x1="0.5" x2="0.5" y2="1" gradientUnits="objectBoundingBox"><stop offset="0" stop-color="#358acc"/><stop offset="1" stop-color="#062035"/></linearGradient><clipPath id="f"><rect width="206.502" height="299.135" rx="25" transform="translate(0)" fill="#fff"/></clipPath><clipPath id="g"><rect width="56.693" height="62.929" transform="translate(0 0)" fill="#fff" stroke="#707070" stroke-width="1"/></clipPath><linearGradient id="i" x1="0.5" x2="0.5" y2="1" gradientUnits="objectBoundingBox"><stop offset="0" stop-color="#0f3b5d"/><stop offset="1" stop-color="#062035"/></linearGradient><filter id="j" x="189.528" y="16.562" width="115.392" height="56.251" filterUnits="userSpaceOnUse"><feOffset dy="5" input="SourceAlpha"/><feGaussianBlur result="k"/><feFlood flood-opacity="0.141"/><feComposite operator="in" in2="k"/><feComposite in="SourceGraphic"/></filter></defs><g transform="matrix(0.819, 0.574, -0.574, 0.819, -2568.961, -4871.659)"><g transform="matrix(0.82, -0.57, 0.57, 0.82, 4898.64, 2517.13)" filter="url(#a)"><rect width="229.778" height="309.317" rx="25" transform="translate(160.11 30) rotate(24.89)" fill="#fff"/></g><g transform="matrix(0.82, -0.57, 0.57, 0.82, 4898.64, 2517.13)" filter="url(#c)"><rect width="229.778" height="309.317" rx="25" transform="translate(143.9 33.98) rotate(19.88)" fill="#fff"/></g><g transform="matrix(0.94, -0.342, 0.342, 0.94, -541.064, 2128.737)"><rect width="230" height="299.071" rx="25" transform="translate(5113 2235)" fill="url(#e)"/><g transform="translate(5125.105 2235)" clip-path="url(#f)"><g transform="translate(3.925 -44.113)"><path d="M-17.3-5.689c0-.927-.627-1.291-1.5-1.291H-20.49v4.462h.639V-4.391h1.08C-17.875-4.391-17.3-4.736-17.3-5.689Zm-.639,0c0,.582-.4.7-.876.7h-1.036V-6.373h1.036C-18.342-6.373-17.939-6.251-17.939-5.689Zm3.855,1.419c0-.831-.358-1.432-1.221-1.432a.873.873,0,0,0-.716.326v-1.6h-.607v4.462h.607V-4.531a.628.628,0,0,1,.639-.569c.543,0,.7.364.7.831v1.752h.6Zm3.024,1.208V-4.749a1.039,1.039,0,0,0-1.1-.94,1.159,1.159,0,0,0-1.215.748l.518.179a.689.689,0,0,1,.684-.384.5.5,0,0,1,.543.448v.2a.344.344,0,0,1-.3.121h-.479c-.7.032-1.1.384-1.1.953a1.009,1.009,0,0,0,1.132.985,1.314,1.314,0,0,0,.838-.294l.077.275.518-.128Zm-.569-.192a1.04,1.04,0,0,1-.735.3c-.275,0-.595-.147-.595-.473,0-.358.288-.5.595-.505h.435a.525.525,0,0,0,.3-.083Zm3.28-2.27A1.182,1.182,0,0,0-8.976-5.7a.892.892,0,0,0-.748.358l-.019-.294h-.505v3.12h.6V-4.525a.623.623,0,0,1,.671-.6,1.256,1.256,0,0,1,.4.083Zm4.84,1.24C-3.51-5.1-3.868-5.7-4.737-5.7a.933.933,0,0,0-.863.486A1.043,1.043,0,0,0-6.546-5.7a.834.834,0,0,0-.665.339l-.019-.275h-.505v3.12h.607V-4.551a.572.572,0,0,1,.575-.55c.531,0,.62.39.62.818v1.765h.607V-4.193c0-.4.051-.908.588-.908s.62.39.62.818v1.765h.607ZM-.454-3.061V-4.749a1.039,1.039,0,0,0-1.1-.94,1.159,1.159,0,0,0-1.215.748l.518.179a.689.689,0,0,1,.684-.384.5.5,0,0,1,.543.448v.2a.344.344,0,0,1-.3.121H-1.8c-.7.032-1.1.384-1.1.953a1.009,1.009,0,0,0,1.132.985,1.314,1.314,0,0,0,.838-.294l.077.275.518-.128Zm-.569-.192a1.04,1.04,0,0,1-.735.3c-.275,0-.595-.147-.595-.473,0-.358.288-.5.595-.505h.435a.525.525,0,0,0,.3-.083Zm3.8-1.88a1.445,1.445,0,0,0-1.151-.556A1.443,1.443,0,0,0,.179-4.071,1.444,1.444,0,0,0,1.631-2.46a1.444,1.444,0,0,0,1.151-.556l-.441-.4a.944.944,0,0,1-.71.39C.978-3.029.8-3.54.8-4.071S.978-5.12,1.631-5.12a.937.937,0,0,1,.71.384ZM5.4-5.637,4.571-3.272l-.8-2.365H3.12L4.265-2.5l-.211.543c-.09.237-.2.339-.556.339H3.4V-1.1H3.5A.969.969,0,0,0,4.6-1.776L6.042-5.637Z" transform="translate(48.313 164.453)" fill="#fff"/><path d="M-26.04-5.753c0-.927-.627-1.291-1.5-1.291H-29.23v4.462h.639V-4.456h1.08C-26.615-4.456-26.04-4.8-26.04-5.753Zm-.639,0c0,.582-.4.7-.876.7h-1.036V-6.438h1.036C-27.082-6.438-26.679-6.316-26.679-5.753Zm3.58,2.628V-4.814a1.039,1.039,0,0,0-1.1-.94,1.159,1.159,0,0,0-1.215.748l.518.179a.689.689,0,0,1,.684-.384.5.5,0,0,1,.543.448v.2a.344.344,0,0,1-.3.121h-.479c-.7.032-1.1.384-1.1.953a1.009,1.009,0,0,0,1.132.985,1.314,1.314,0,0,0,.838-.294l.077.275.518-.128Zm-.569-.192a1.04,1.04,0,0,1-.735.3c-.275,0-.595-.147-.595-.473,0-.358.288-.5.595-.505h.435a.525.525,0,0,0,.3-.083ZM-21.034-5.7H-21.5v-.882H-22.1V-5.7H-22.5v.518h.409v1.79c0,.46.224.812.722.812h.23V-3.1c-.256,0-.358-.1-.358-.339V-5.184h.467Zm1.445-1.068a.387.387,0,0,0-.39-.39.386.386,0,0,0-.384.39.385.385,0,0,0,.384.384A.386.386,0,0,0-19.589-6.77Zm-.09,1.068h-.6v3.12h.6Zm3.35,1.445c0-.869-.422-1.5-1.221-1.5-.959,0-1.407.716-1.407,1.617A1.425,1.425,0,0,0-17.5-2.525a1.46,1.46,0,0,0,1.112-.505l-.384-.371a.942.942,0,0,1-.722.313c-.575,0-.812-.39-.831-.927h2Zm-2-.153c.051-.473.275-.78.761-.78s.646.345.678.78Zm5.223.064c0-.857-.358-1.419-1.272-1.419a.955.955,0,0,0-.748.339l-.019-.275h-.505v3.12h.607V-4.564a.626.626,0,0,1,.639-.6c.563,0,.7.352.7.831v1.752h.6ZM-11.06-5.7h-.467v-.882h-.595V-5.7h-.409v.518h.409v1.79c0,.46.224.812.722.812h.23V-3.1c-.256,0-.358-.1-.358-.339V-5.184h.467Zm4.5-1.343h-.614L-8.887-2.582H-8.2l.454-1.228h1.765l.454,1.228h.69Zm-.978,2.672.671-1.8.678,1.8Zm4.29-1.33h-.467v-.882h-.595V-5.7h-.409v.518h.409v1.79c0,.46.224.812.722.812h.23V-3.1c-.256,0-.358-.1-.358-.339V-5.184h.467Zm1.841,0h-.467v-.882h-.595V-5.7h-.409v.518h.409v1.79c0,.46.224.812.722.812h.23V-3.1c-.256,0-.358-.1-.358-.339V-5.184h.467ZM1.758-4.257c0-.869-.422-1.5-1.221-1.5-.959,0-1.407.716-1.407,1.617A1.425,1.425,0,0,0,.582-2.525,1.46,1.46,0,0,0,1.694-3.03L1.31-3.4a.942.942,0,0,1-.722.313c-.575,0-.812-.39-.831-.927h2Zm-2-.153c.051-.473.275-.78.761-.78s.646.345.678.78Zm5.223.064c0-.857-.358-1.419-1.272-1.419a.955.955,0,0,0-.748.339L2.941-5.7H2.436v3.12h.607V-4.564a.626.626,0,0,1,.639-.6c.563,0,.7.352.7.831v1.752h.6ZM8.273-2.666c-.006-.026-.128-.473-.128-.486V-7.045H7.538v1.566A.817.817,0,0,0,6.9-5.76c-.978,0-1.3.742-1.3,1.611s.313,1.63,1.3,1.63a1.045,1.045,0,0,0,.767-.3l.077.307ZM7.538-3.7a.588.588,0,0,1-.639.588c-.639,0-.7-.563-.7-1.029s.064-1.029.7-1.029a.592.592,0,0,1,.639.588Z" transform="translate(110.511 164.518)" fill="#fff"/><path d="M-16.483-3.19h-2.059V-7.045h-.633v4.462h2.692ZM-15.1-6.77a.387.387,0,0,0-.39-.39.386.386,0,0,0-.384.39.385.385,0,0,0,.384.384A.386.386,0,0,0-15.1-6.77Zm-.09,1.068h-.6v3.12h.6Zm2.308-1.343c-.806.026-1.221.281-1.221,1.023v.32h-.294v.518h.294v2.6h.582v-2.6h.556V-5.7h-.556v-.173c0-.473.179-.652.639-.671Zm3.05,2.787c0-.869-.422-1.5-1.221-1.5-.959,0-1.407.716-1.407,1.617A1.425,1.425,0,0,0-11-2.525,1.46,1.46,0,0,0-9.892-3.03l-.384-.371A.942.942,0,0,1-11-3.088c-.575,0-.812-.39-.831-.927h2Zm-2-.153c.051-.473.275-.78.761-.78s.646.345.678.78Zm7.742.524c0-1.662-2.6-1.068-2.6-2,0-.46.492-.607.844-.607A1.053,1.053,0,0,1-4.79-5.9l.55-.249a1.594,1.594,0,0,0-1.6-.946c-.742,0-1.477.39-1.477,1.208,0,1.592,2.589.914,2.589,2,0,.524-.537.761-.985.761a1.055,1.055,0,0,1-1.151-.761l-.607.115A1.606,1.606,0,0,0-5.711-2.519,1.472,1.472,0,0,0-4.087-3.887ZM-.865-4.13c0-.863-.313-1.643-1.291-1.643a.916.916,0,0,0-.729.358L-2.9-5.7h-.505v4.526H-2.8V-2.813a.788.788,0,0,0,.639.294C-1.184-2.519-.865-3.26-.865-4.13Zm-.6,0c0,.46-.07,1.023-.7,1.023A.611.611,0,0,1-2.8-3.695v-.876a.619.619,0,0,1,.639-.582C-1.536-5.153-1.466-4.59-1.466-4.13Zm3.548,1V-4.814a1.039,1.039,0,0,0-1.1-.94,1.159,1.159,0,0,0-1.215.748l.518.179A.689.689,0,0,1,.97-5.21a.5.5,0,0,1,.543.448v.2a.344.344,0,0,1-.3.121H.734c-.7.032-1.1.384-1.1.953a1.009,1.009,0,0,0,1.132.985A1.314,1.314,0,0,0,1.6-2.8l.077.275L2.2-2.653Zm-.569-.192a1.04,1.04,0,0,1-.735.3C.5-3.017.184-3.164.184-3.49c0-.358.288-.5.595-.505h.435a.525.525,0,0,0,.3-.083ZM5.439-4.347c0-.857-.358-1.419-1.272-1.419a.955.955,0,0,0-.748.339L3.4-5.7H2.894v3.12H3.5V-4.564a.626.626,0,0,1,.639-.6c.563,0,.7.352.7.831v1.752h.6Z" transform="translate(167.389 164.518)" fill="#fff"/><path d="M378.395,236.373h-10.48v-1.747h10.48Zm-20.961,0h-10.48v-1.747h10.48Zm-20.961,0h-10.48v-1.747h10.48Zm-21.03-.153a42.916,42.916,0,0,1-10.442-2.2l.571-1.651a41.167,41.167,0,0,0,10.017,2.106Zm-20-6.958a38.437,38.437,0,0,1-7.954-7.142L288.828,221a36.691,36.691,0,0,0,7.593,6.817Zm-13.529-16.28a33.257,33.257,0,0,1-2.471-10.427l1.742-.123a31.514,31.514,0,0,0,2.342,9.88Zm.069-20.692-1.7-.41A34.015,34.015,0,0,1,284.419,182l1.487.917A32.272,32.272,0,0,0,281.982,192.29Zm10.49-17.168-1.162-1.3a39.88,39.88,0,0,1,8.867-5.959l.773,1.566A38.13,38.13,0,0,0,292.472,175.122Zm18.156-9.015-.354-1.711a43.8,43.8,0,0,1,8.851-.9h1.747v1.747h-1.747A42.053,42.053,0,0,0,310.629,166.107Zm129.362-.863h-3.832V163.5h3.832a42.306,42.306,0,0,0,6.488-.5l.269,1.726A44.06,44.06,0,0,1,439.99,165.244Zm-14.312,0H415.2V163.5h10.48Zm-20.961,0h-10.48V163.5h10.48Zm-20.961,0h-10.48V163.5h10.48Zm-20.961,0h-10.48V163.5H362.8Zm-20.961,0h-10.48V163.5h10.48Zm115.171-3.469-.692-1.6a38.626,38.626,0,0,0,8.773-5.24l1.088,1.366A40.372,40.372,0,0,1,457.005,161.775Zm16.516-13.248-1.429-1a32.741,32.741,0,0,0,4.5-9.116l1.668.518A34.485,34.485,0,0,1,473.521,148.527ZM478,128.351a31.447,31.447,0,0,0-1.864-9.981l1.643-.593a33.189,33.189,0,0,1,1.967,10.534Zm-6.762-18.895a36.234,36.234,0,0,0-7.3-7.125l1.035-1.407a37.98,37.98,0,0,1,7.65,7.469ZM454.978,97.419a40.893,40.893,0,0,0-9.93-2.477l.209-1.734a42.642,42.642,0,0,1,10.354,2.583ZM434.683,94.64H424.2V92.894h10.48Zm-20.961,0h-10.48V92.894h10.48Zm-20.961,0h-10.48V92.894h10.48Z" transform="translate(-280.232 -25.888)" fill="#a8d9ff"/><circle cx="14.173" cy="14.173" r="14.173" transform="translate(27.497 122.021)" fill="#abd9ff"/><text transform="translate(40.836 137.257)" fill="#0f3b5d" font-size="8" font-family="AauxNext-SemiBold, Aaux Next" font-weight="600"><tspan x="-2.168" y="0">5</tspan></text><circle cx="14.173" cy="14.173" r="14.173" transform="translate(87.025 122.021)" fill="#abd9ff"/><text transform="translate(99.796 138.257)" fill="#0f3b5d" font-size="9" font-family="AauxNext-SemiBold, Aaux Next" font-weight="600"><tspan x="-2.484" y="0">4</tspan></text><circle cx="14.173" cy="14.173" r="14.173" transform="translate(147.12 122.021)" fill="#abd9ff"/><text transform="translate(160.458 138.257)" fill="#0f3b5d" font-size="9" font-family="AauxNext-SemiBold, Aaux Next" font-weight="600"><tspan x="-2.407" y="0">3</tspan></text><path d="M378.395,236.373h-10.48v-1.747h10.48Zm-20.961,0h-10.48v-1.747h10.48Zm-20.961,0h-10.48v-1.747h10.48Zm-21.03-.153a42.916,42.916,0,0,1-10.442-2.2l.571-1.651a41.167,41.167,0,0,0,10.017,2.106Zm-20-6.958a38.437,38.437,0,0,1-7.954-7.142L288.828,221a36.691,36.691,0,0,0,7.593,6.817Zm-13.529-16.28a33.257,33.257,0,0,1-2.471-10.427l1.742-.123a31.514,31.514,0,0,0,2.342,9.88Zm.069-20.692-1.7-.41A34.015,34.015,0,0,1,284.419,182l1.487.917A32.272,32.272,0,0,0,281.982,192.29Zm10.49-17.168-1.162-1.3a39.88,39.88,0,0,1,8.867-5.959l.773,1.566A38.13,38.13,0,0,0,292.472,175.122Zm18.156-9.015-.354-1.711a43.8,43.8,0,0,1,8.851-.9h1.747v1.747h-1.747A42.053,42.053,0,0,0,310.629,166.107Zm129.362-.863h-3.832V163.5h3.832a42.306,42.306,0,0,0,6.488-.5l.269,1.726A44.06,44.06,0,0,1,439.99,165.244Zm-14.312,0H415.2V163.5h10.48Zm-20.961,0h-10.48V163.5h10.48Zm-20.961,0h-10.48V163.5h10.48Zm-20.961,0h-10.48V163.5H362.8Zm-20.961,0h-10.48V163.5h10.48Zm115.171-3.469-.692-1.6a38.626,38.626,0,0,0,8.773-5.24l1.088,1.366A40.372,40.372,0,0,1,457.005,161.775Zm16.516-13.248-1.429-1a32.741,32.741,0,0,0,4.5-9.116l1.668.518A34.485,34.485,0,0,1,473.521,148.527ZM478,128.351a31.447,31.447,0,0,0-1.864-9.981l1.643-.593a33.189,33.189,0,0,1,1.967,10.534Zm-6.762-18.895a36.234,36.234,0,0,0-7.3-7.125l1.035-1.407a37.98,37.98,0,0,1,7.65,7.469ZM454.978,97.419a40.893,40.893,0,0,0-9.93-2.477l.209-1.734a42.642,42.642,0,0,1,10.354,2.583ZM434.683,94.64H424.2V92.894h10.48Zm-20.961,0h-10.48V92.894h10.48Zm-20.961,0h-10.48V92.894h10.48Z" transform="translate(-280.233 116.128)" fill="#a8d9ff"/><path d="M-17.3-5.689c0-.927-.627-1.291-1.5-1.291H-20.49v4.462h.639V-4.391h1.08C-17.875-4.391-17.3-4.736-17.3-5.689Zm-.639,0c0,.582-.4.7-.876.7h-1.036V-6.373h1.036C-18.342-6.373-17.939-6.251-17.939-5.689Zm3.855,1.419c0-.831-.358-1.432-1.221-1.432a.873.873,0,0,0-.716.326v-1.6h-.607v4.462h.607V-4.531a.628.628,0,0,1,.639-.569c.543,0,.7.364.7.831v1.752h.6Zm3.024,1.208V-4.749a1.039,1.039,0,0,0-1.1-.94,1.159,1.159,0,0,0-1.215.748l.518.179a.689.689,0,0,1,.684-.384.5.5,0,0,1,.543.448v.2a.344.344,0,0,1-.3.121h-.479c-.7.032-1.1.384-1.1.953a1.009,1.009,0,0,0,1.132.985,1.314,1.314,0,0,0,.838-.294l.077.275.518-.128Zm-.569-.192a1.04,1.04,0,0,1-.735.3c-.275,0-.595-.147-.595-.473,0-.358.288-.5.595-.505h.435a.525.525,0,0,0,.3-.083Zm3.28-2.27A1.182,1.182,0,0,0-8.976-5.7a.892.892,0,0,0-.748.358l-.019-.294h-.505v3.12h.6V-4.525a.623.623,0,0,1,.671-.6,1.256,1.256,0,0,1,.4.083Zm4.84,1.24C-3.51-5.1-3.868-5.7-4.737-5.7a.933.933,0,0,0-.863.486A1.043,1.043,0,0,0-6.546-5.7a.834.834,0,0,0-.665.339l-.019-.275h-.505v3.12h.607V-4.551a.572.572,0,0,1,.575-.55c.531,0,.62.39.62.818v1.765h.607V-4.193c0-.4.051-.908.588-.908s.62.39.62.818v1.765h.607ZM-.454-3.061V-4.749a1.039,1.039,0,0,0-1.1-.94,1.159,1.159,0,0,0-1.215.748l.518.179a.689.689,0,0,1,.684-.384.5.5,0,0,1,.543.448v.2a.344.344,0,0,1-.3.121H-1.8c-.7.032-1.1.384-1.1.953a1.009,1.009,0,0,0,1.132.985,1.314,1.314,0,0,0,.838-.294l.077.275.518-.128Zm-.569-.192a1.04,1.04,0,0,1-.735.3c-.275,0-.595-.147-.595-.473,0-.358.288-.5.595-.505h.435a.525.525,0,0,0,.3-.083Zm3.8-1.88a1.445,1.445,0,0,0-1.151-.556A1.443,1.443,0,0,0,.179-4.071,1.444,1.444,0,0,0,1.631-2.46a1.444,1.444,0,0,0,1.151-.556l-.441-.4a.944.944,0,0,1-.71.39C.978-3.029.8-3.54.8-4.071S.978-5.12,1.631-5.12a.937.937,0,0,1,.71.384ZM5.4-5.637,4.571-3.272l-.8-2.365H3.12L4.265-2.5l-.211.543c-.09.237-.2.339-.556.339H3.4V-1.1H3.5A.969.969,0,0,0,4.6-1.776L6.042-5.637Z" transform="translate(66.455 235.886)" fill="#fff"/><path d="M-26.04-5.753c0-.927-.627-1.291-1.5-1.291H-29.23v4.462h.639V-4.456h1.08C-26.615-4.456-26.04-4.8-26.04-5.753Zm-.639,0c0,.582-.4.7-.876.7h-1.036V-6.438h1.036C-27.082-6.438-26.679-6.316-26.679-5.753Zm3.58,2.628V-4.814a1.039,1.039,0,0,0-1.1-.94,1.159,1.159,0,0,0-1.215.748l.518.179a.689.689,0,0,1,.684-.384.5.5,0,0,1,.543.448v.2a.344.344,0,0,1-.3.121h-.479c-.7.032-1.1.384-1.1.953a1.009,1.009,0,0,0,1.132.985,1.314,1.314,0,0,0,.838-.294l.077.275.518-.128Zm-.569-.192a1.04,1.04,0,0,1-.735.3c-.275,0-.595-.147-.595-.473,0-.358.288-.5.595-.505h.435a.525.525,0,0,0,.3-.083ZM-21.034-5.7H-21.5v-.882H-22.1V-5.7H-22.5v.518h.409v1.79c0,.46.224.812.722.812h.23V-3.1c-.256,0-.358-.1-.358-.339V-5.184h.467Zm1.445-1.068a.387.387,0,0,0-.39-.39.386.386,0,0,0-.384.39.385.385,0,0,0,.384.384A.386.386,0,0,0-19.589-6.77Zm-.09,1.068h-.6v3.12h.6Zm3.35,1.445c0-.869-.422-1.5-1.221-1.5-.959,0-1.407.716-1.407,1.617A1.425,1.425,0,0,0-17.5-2.525a1.46,1.46,0,0,0,1.112-.505l-.384-.371a.942.942,0,0,1-.722.313c-.575,0-.812-.39-.831-.927h2Zm-2-.153c.051-.473.275-.78.761-.78s.646.345.678.78Zm5.223.064c0-.857-.358-1.419-1.272-1.419a.955.955,0,0,0-.748.339l-.019-.275h-.505v3.12h.607V-4.564a.626.626,0,0,1,.639-.6c.563,0,.7.352.7.831v1.752h.6ZM-11.06-5.7h-.467v-.882h-.595V-5.7h-.409v.518h.409v1.79c0,.46.224.812.722.812h.23V-3.1c-.256,0-.358-.1-.358-.339V-5.184h.467Zm4.5-1.343h-.614L-8.887-2.582H-8.2l.454-1.228h1.765l.454,1.228h.69Zm-.978,2.672.671-1.8.678,1.8Zm4.29-1.33h-.467v-.882h-.595V-5.7h-.409v.518h.409v1.79c0,.46.224.812.722.812h.23V-3.1c-.256,0-.358-.1-.358-.339V-5.184h.467Zm1.841,0h-.467v-.882h-.595V-5.7h-.409v.518h.409v1.79c0,.46.224.812.722.812h.23V-3.1c-.256,0-.358-.1-.358-.339V-5.184h.467ZM1.758-4.257c0-.869-.422-1.5-1.221-1.5-.959,0-1.407.716-1.407,1.617A1.425,1.425,0,0,0,.582-2.525,1.46,1.46,0,0,0,1.694-3.03L1.31-3.4a.942.942,0,0,1-.722.313c-.575,0-.812-.39-.831-.927h2Zm-2-.153c.051-.473.275-.78.761-.78s.646.345.678.78Zm5.223.064c0-.857-.358-1.419-1.272-1.419a.955.955,0,0,0-.748.339L2.941-5.7H2.436v3.12h.607V-4.564a.626.626,0,0,1,.639-.6c.563,0,.7.352.7.831v1.752h.6ZM8.273-2.666c-.006-.026-.128-.473-.128-.486V-7.045H7.538v1.566A.817.817,0,0,0,6.9-5.76c-.978,0-1.3.742-1.3,1.611s.313,1.63,1.3,1.63a1.045,1.045,0,0,0,.767-.3l.077.307ZM7.538-3.7a.588.588,0,0,1-.639.588c-.639,0-.7-.563-.7-1.029s.064-1.029.7-1.029a.592.592,0,0,1,.639.588Z" transform="translate(150.763 235.951)" fill="#fff"/><circle cx="14.173" cy="14.173" r="14.173" transform="translate(45.639 193.454)" fill="#abd9ff"/><text transform="translate(58.977 208.69)" fill="#0f3b5d" font-size="8" font-family="AauxNext-SemiBold, Aaux Next" font-weight="600"><tspan x="-2.18" y="0">6</tspan></text><circle cx="14.173" cy="14.173" r="14.173" transform="translate(127.277 193.454)" fill="#abd9ff"/><text transform="translate(140.615 209.69)" fill="#0f3b5d" font-size="9" font-family="AauxNext-SemiBold, Aaux Next" font-weight="600"><tspan x="-2.25" y="0">7</tspan></text><path d="M-17.3-5.689c0-.927-.627-1.291-1.5-1.291H-20.49v4.462h.639V-4.391h1.08C-17.875-4.391-17.3-4.736-17.3-5.689Zm-.639,0c0,.582-.4.7-.876.7h-1.036V-6.373h1.036C-18.342-6.373-17.939-6.251-17.939-5.689Zm3.855,1.419c0-.831-.358-1.432-1.221-1.432a.873.873,0,0,0-.716.326v-1.6h-.607v4.462h.607V-4.531a.628.628,0,0,1,.639-.569c.543,0,.7.364.7.831v1.752h.6Zm3.024,1.208V-4.749a1.039,1.039,0,0,0-1.1-.94,1.159,1.159,0,0,0-1.215.748l.518.179a.689.689,0,0,1,.684-.384.5.5,0,0,1,.543.448v.2a.344.344,0,0,1-.3.121h-.479c-.7.032-1.1.384-1.1.953a1.009,1.009,0,0,0,1.132.985,1.314,1.314,0,0,0,.838-.294l.077.275.518-.128Zm-.569-.192a1.04,1.04,0,0,1-.735.3c-.275,0-.595-.147-.595-.473,0-.358.288-.5.595-.505h.435a.525.525,0,0,0,.3-.083Zm3.28-2.27A1.182,1.182,0,0,0-8.976-5.7a.892.892,0,0,0-.748.358l-.019-.294h-.505v3.12h.6V-4.525a.623.623,0,0,1,.671-.6,1.256,1.256,0,0,1,.4.083Zm4.84,1.24C-3.51-5.1-3.868-5.7-4.737-5.7a.933.933,0,0,0-.863.486A1.043,1.043,0,0,0-6.546-5.7a.834.834,0,0,0-.665.339l-.019-.275h-.505v3.12h.607V-4.551a.572.572,0,0,1,.575-.55c.531,0,.62.39.62.818v1.765h.607V-4.193c0-.4.051-.908.588-.908s.62.39.62.818v1.765h.607ZM-.454-3.061V-4.749a1.039,1.039,0,0,0-1.1-.94,1.159,1.159,0,0,0-1.215.748l.518.179a.689.689,0,0,1,.684-.384.5.5,0,0,1,.543.448v.2a.344.344,0,0,1-.3.121H-1.8c-.7.032-1.1.384-1.1.953a1.009,1.009,0,0,0,1.132.985,1.314,1.314,0,0,0,.838-.294l.077.275.518-.128Zm-.569-.192a1.04,1.04,0,0,1-.735.3c-.275,0-.595-.147-.595-.473,0-.358.288-.5.595-.505h.435a.525.525,0,0,0,.3-.083Zm3.8-1.88a1.445,1.445,0,0,0-1.151-.556A1.443,1.443,0,0,0,.179-4.071,1.444,1.444,0,0,0,1.631-2.46a1.444,1.444,0,0,0,1.151-.556l-.441-.4a.944.944,0,0,1-.71.39C.978-3.029.8-3.54.8-4.071S.978-5.12,1.631-5.12a.937.937,0,0,1,.71.384ZM5.4-5.637,4.571-3.272l-.8-2.365H3.12L4.265-2.5l-.211.543c-.09.237-.2.339-.556.339H3.4V-1.1H3.5A.969.969,0,0,0,4.6-1.776L6.042-5.637Z" transform="translate(48.313 306.753)" fill="#fff"/><path d="M-16.483-3.19h-2.059V-7.045h-.633v4.462h2.692ZM-15.1-6.77a.387.387,0,0,0-.39-.39.386.386,0,0,0-.384.39.385.385,0,0,0,.384.384A.386.386,0,0,0-15.1-6.77Zm-.09,1.068h-.6v3.12h.6Zm2.308-1.343c-.806.026-1.221.281-1.221,1.023v.32h-.294v.518h.294v2.6h.582v-2.6h.556V-5.7h-.556v-.173c0-.473.179-.652.639-.671Zm3.05,2.787c0-.869-.422-1.5-1.221-1.5-.959,0-1.407.716-1.407,1.617A1.425,1.425,0,0,0-11-2.525,1.46,1.46,0,0,0-9.892-3.03l-.384-.371A.942.942,0,0,1-11-3.088c-.575,0-.812-.39-.831-.927h2Zm-2-.153c.051-.473.275-.78.761-.78s.646.345.678.78Zm7.742.524c0-1.662-2.6-1.068-2.6-2,0-.46.492-.607.844-.607A1.053,1.053,0,0,1-4.79-5.9l.55-.249a1.594,1.594,0,0,0-1.6-.946c-.742,0-1.477.39-1.477,1.208,0,1.592,2.589.914,2.589,2,0,.524-.537.761-.985.761a1.055,1.055,0,0,1-1.151-.761l-.607.115A1.606,1.606,0,0,0-5.711-2.519,1.472,1.472,0,0,0-4.087-3.887ZM-.865-4.13c0-.863-.313-1.643-1.291-1.643a.916.916,0,0,0-.729.358L-2.9-5.7h-.505v4.526H-2.8V-2.813a.788.788,0,0,0,.639.294C-1.184-2.519-.865-3.26-.865-4.13Zm-.6,0c0,.46-.07,1.023-.7,1.023A.611.611,0,0,1-2.8-3.695v-.876a.619.619,0,0,1,.639-.582C-1.536-5.153-1.466-4.59-1.466-4.13Zm3.548,1V-4.814a1.039,1.039,0,0,0-1.1-.94,1.159,1.159,0,0,0-1.215.748l.518.179A.689.689,0,0,1,.97-5.21a.5.5,0,0,1,.543.448v.2a.344.344,0,0,1-.3.121H.734c-.7.032-1.1.384-1.1.953a1.009,1.009,0,0,0,1.132.985A1.314,1.314,0,0,0,1.6-2.8l.077.275L2.2-2.653Zm-.569-.192a1.04,1.04,0,0,1-.735.3C.5-3.017.184-3.164.184-3.49c0-.358.288-.5.595-.505h.435a.525.525,0,0,0,.3-.083ZM5.439-4.347c0-.857-.358-1.419-1.272-1.419a.955.955,0,0,0-.748.339L3.4-5.7H2.894v3.12H3.5V-4.564a.626.626,0,0,1,.639-.6c.563,0,.7.352.7.831v1.752h.6Z" transform="translate(167.389 306.818)" fill="#fff"/><circle cx="14.173" cy="14.173" r="14.173" transform="translate(27.497 264.321)" fill="#abd9ff"/><text transform="translate(40.001 280.557)" fill="#0f3b5d" font-size="9" font-family="AauxNext-SemiBold, Aaux Next" font-weight="600"><tspan x="-4.419" y="0">10</tspan></text><circle cx="14.173" cy="14.173" r="14.173" transform="translate(87.025 264.321)" fill="#abd9ff"/><text transform="translate(100.363 280.557)" fill="#0f3b5d" font-size="9" font-family="AauxNext-SemiBold, Aaux Next" font-weight="600"><tspan x="-2.421" y="0">9</tspan></text><circle cx="14.173" cy="14.173" r="14.173" transform="translate(147.12 264.321)" fill="#abd9ff"/><text transform="translate(160.458 279.557)" fill="#0f3b5d" font-size="8" font-family="AauxNext-SemiBold, Aaux Next" font-weight="600"><tspan x="-2.184" y="0">8</tspan></text><path d="M-26.04-5.753c0-.927-.627-1.291-1.5-1.291H-29.23v4.462h.639V-4.456h1.08C-26.615-4.456-26.04-4.8-26.04-5.753Zm-.639,0c0,.582-.4.7-.876.7h-1.036V-6.438h1.036C-27.082-6.438-26.679-6.316-26.679-5.753Zm3.58,2.628V-4.814a1.039,1.039,0,0,0-1.1-.94,1.159,1.159,0,0,0-1.215.748l.518.179a.689.689,0,0,1,.684-.384.5.5,0,0,1,.543.448v.2a.344.344,0,0,1-.3.121h-.479c-.7.032-1.1.384-1.1.953a1.009,1.009,0,0,0,1.132.985,1.314,1.314,0,0,0,.838-.294l.077.275.518-.128Zm-.569-.192a1.04,1.04,0,0,1-.735.3c-.275,0-.595-.147-.595-.473,0-.358.288-.5.595-.505h.435a.525.525,0,0,0,.3-.083ZM-21.034-5.7H-21.5v-.882H-22.1V-5.7H-22.5v.518h.409v1.79c0,.46.224.812.722.812h.23V-3.1c-.256,0-.358-.1-.358-.339V-5.184h.467Zm1.445-1.068a.387.387,0,0,0-.39-.39.386.386,0,0,0-.384.39.385.385,0,0,0,.384.384A.386.386,0,0,0-19.589-6.77Zm-.09,1.068h-.6v3.12h.6Zm3.35,1.445c0-.869-.422-1.5-1.221-1.5-.959,0-1.407.716-1.407,1.617A1.425,1.425,0,0,0-17.5-2.525a1.46,1.46,0,0,0,1.112-.505l-.384-.371a.942.942,0,0,1-.722.313c-.575,0-.812-.39-.831-.927h2Zm-2-.153c.051-.473.275-.78.761-.78s.646.345.678.78Zm5.223.064c0-.857-.358-1.419-1.272-1.419a.955.955,0,0,0-.748.339l-.019-.275h-.505v3.12h.607V-4.564a.626.626,0,0,1,.639-.6c.563,0,.7.352.7.831v1.752h.6ZM-11.06-5.7h-.467v-.882h-.595V-5.7h-.409v.518h.409v1.79c0,.46.224.812.722.812h.23V-3.1c-.256,0-.358-.1-.358-.339V-5.184h.467Zm4.5-1.343h-.614L-8.887-2.582H-8.2l.454-1.228h1.765l.454,1.228h.69Zm-.978,2.672.671-1.8.678,1.8Zm4.29-1.33h-.467v-.882h-.595V-5.7h-.409v.518h.409v1.79c0,.46.224.812.722.812h.23V-3.1c-.256,0-.358-.1-.358-.339V-5.184h.467Zm1.841,0h-.467v-.882h-.595V-5.7h-.409v.518h.409v1.79c0,.46.224.812.722.812h.23V-3.1c-.256,0-.358-.1-.358-.339V-5.184h.467ZM1.758-4.257c0-.869-.422-1.5-1.221-1.5-.959,0-1.407.716-1.407,1.617A1.425,1.425,0,0,0,.582-2.525,1.46,1.46,0,0,0,1.694-3.03L1.31-3.4a.942.942,0,0,1-.722.313c-.575,0-.812-.39-.831-.927h2Zm-2-.153c.051-.473.275-.78.761-.78s.646.345.678.78Zm5.223.064c0-.857-.358-1.419-1.272-1.419a.955.955,0,0,0-.748.339L2.941-5.7H2.436v3.12h.607V-4.564a.626.626,0,0,1,.639-.6c.563,0,.7.352.7.831v1.752h.6ZM8.273-2.666c-.006-.026-.128-.473-.128-.486V-7.045H7.538v1.566A.817.817,0,0,0,6.9-5.76c-.978,0-1.3.742-1.3,1.611s.313,1.63,1.3,1.63a1.045,1.045,0,0,0,.767-.3l.077.307ZM7.538-3.7a.588.588,0,0,1-.639.588c-.639,0-.7-.563-.7-1.029s.064-1.029.7-1.029a.592.592,0,0,1,.639.588Z" transform="translate(110.511 306.818)" fill="#fff"/><path d="M396.3,331.848h-10.48V330.1H396.3Zm-20.961,0h-10.48V330.1h10.48Z" transform="translate(-310.08 -263.113)" fill="#a8d9ff"/><circle cx="12.472" cy="12.472" r="12.472" transform="translate(138.615 55.123)" fill="#abd9ff"/><text transform="translate(149.687 69.658)" fill="#0f3b5d" font-size="9" font-family="AauxNext-SemiBold, Aaux Next" font-weight="600"><tspan x="-2.484" y="0">2</tspan></text><path d="M-38.533-7.045h-.614L-40.5-3.567l-1.343-3.478h-.62v4.462h.639V-5.421l1.1,2.839h.448l1.106-2.845v2.845h.639Zm3.3,2.787c0-.869-.422-1.5-1.221-1.5-.959,0-1.407.716-1.407,1.617a1.425,1.425,0,0,0,1.451,1.611A1.46,1.46,0,0,0-35.3-3.03l-.384-.371a.942.942,0,0,1-.722.313c-.575,0-.812-.39-.831-.927h2Zm-2-.153c.051-.473.275-.78.761-.78s.646.345.678.78Zm5.179,1.745c-.006-.026-.128-.473-.128-.486V-7.045h-.607v1.566a.817.817,0,0,0-.639-.281c-.978,0-1.3.742-1.3,1.611s.313,1.63,1.3,1.63a1.045,1.045,0,0,0,.767-.3l.077.307ZM-32.792-3.7a.588.588,0,0,1-.639.588c-.639,0-.7-.563-.7-1.029s.064-1.029.7-1.029a.592.592,0,0,1,.639.588Zm2.225-3.069a.387.387,0,0,0-.39-.39.386.386,0,0,0-.384.39.385.385,0,0,0,.384.384A.386.386,0,0,0-30.567-6.77Zm-.09,1.068h-.6v3.12h.6Zm3.324.505a1.445,1.445,0,0,0-1.151-.556,1.443,1.443,0,0,0-1.451,1.617,1.444,1.444,0,0,0,1.451,1.611,1.444,1.444,0,0,0,1.151-.556l-.441-.4a.944.944,0,0,1-.71.39c-.652,0-.831-.511-.831-1.042s.179-1.048.831-1.048a.937.937,0,0,1,.71.384Zm2.915,2.071V-4.814a1.039,1.039,0,0,0-1.1-.94,1.159,1.159,0,0,0-1.215.748l.518.179a.689.689,0,0,1,.684-.384.5.5,0,0,1,.543.448v.2a.344.344,0,0,1-.3.121h-.479c-.7.032-1.1.384-1.1.953a1.009,1.009,0,0,0,1.132.985A1.314,1.314,0,0,0-24.9-2.8l.077.275.518-.128Zm-.569-.192a1.04,1.04,0,0,1-.735.3c-.275,0-.595-.147-.595-.473,0-.358.288-.5.595-.505h.435a.525.525,0,0,0,.3-.083Zm2.238.217c-.224-.013-.3-.128-.3-.307V-7.045h-.575v3.651c0,.582.307.8.882.812Zm5.569-3.945H-20.5v.627h1.343v3.836h.639V-6.418h1.343Zm2.5,2.787c0-.869-.422-1.5-1.221-1.5-.959,0-1.407.716-1.407,1.617a1.425,1.425,0,0,0,1.451,1.611,1.46,1.46,0,0,0,1.112-.505l-.384-.371a.942.942,0,0,1-.722.313c-.575,0-.812-.39-.831-.927h2Zm-2-.153c.051-.473.275-.78.761-.78s.646.345.678.78ZM-12.1-5.587a1.182,1.182,0,0,0-.627-.179.892.892,0,0,0-.748.358L-13.5-5.7H-14v3.12h.6V-4.59a.623.623,0,0,1,.671-.6,1.256,1.256,0,0,1,.4.083Zm4.84,1.24c0-.818-.358-1.419-1.228-1.419a.933.933,0,0,0-.863.486,1.043,1.043,0,0,0-.946-.486.834.834,0,0,0-.665.339l-.019-.275h-.505v3.12h.607V-4.615a.572.572,0,0,1,.575-.55c.531,0,.62.39.62.818v1.765h.607V-4.257c0-.4.051-.908.588-.908s.62.39.62.818v1.765h.607ZM-5.749-6.77a.387.387,0,0,0-.39-.39.386.386,0,0,0-.384.39.385.385,0,0,0,.384.384A.386.386,0,0,0-5.749-6.77ZM-5.838-5.7h-.6v3.12h.6Zm3.446,1.355c0-.857-.358-1.419-1.272-1.419a.955.955,0,0,0-.748.339L-4.432-5.7h-.505v3.12h.607V-4.564a.626.626,0,0,1,.639-.6c.563,0,.7.352.7.831v1.752h.6Zm3.356.211C.964-5.057.593-5.76-.4-5.76s-1.375.7-1.375,1.624S-1.408-2.519-.4-2.519.964-3.215.964-4.136Zm-.614,0c0,.518-.115,1.029-.761,1.029s-.754-.511-.754-1.029.109-1.036.761-1.036S.351-4.654.351-4.136ZM2.5-3.1c-.224-.013-.3-.128-.3-.307V-7.045H1.623v3.651c0,.582.307.8.882.812ZM5.721-4.136c0-.921-.371-1.624-1.368-1.624s-1.375.7-1.375,1.624.371,1.617,1.375,1.617S5.721-3.215,5.721-4.136Zm-.614,0c0,.518-.115,1.029-.761,1.029s-.754-.511-.754-1.029.109-1.036.761-1.036S5.107-4.654,5.107-4.136Zm3.484-.505a1.474,1.474,0,0,0-.1-.524.732.732,0,0,0,.339-.671H8.323a.322.322,0,0,1-.147.281,1.245,1.245,0,0,0-.748-.2A1.03,1.03,0,0,0,6.264-4.647a.992.992,0,0,0,.377.844.81.81,0,0,0-.3.607c0,.39.384.537.742.537.3,0,.582-.115.882-.115a.293.293,0,0,1,.326.275c0,.409-.537.62-.933.62-.281,0-.665-.121-.665-.384a.422.422,0,0,1,.006-.09l-.531-.16a.729.729,0,0,0-.045.262c0,.665.7.908,1.291.908A1.338,1.338,0,0,0,8.86-2.525a.738.738,0,0,0-.8-.742c-.352,0-.684.16-1.036.16-.1,0-.2-.019-.2-.147a.457.457,0,0,1,.243-.358,1.065,1.065,0,0,0,.339.051A1.038,1.038,0,0,0,8.591-4.641Zm-.575-.006c0,.384-.211.556-.588.556s-.588-.173-.588-.556.23-.55.588-.55S8.016-5.025,8.016-4.647ZM11.481-5.7l-.825,2.365L9.857-5.7H9.205L10.35-2.57l-.211.543c-.09.237-.2.339-.556.339h-.1v.518h.109a.969.969,0,0,0,1.093-.671L12.127-5.7Z" transform="translate(74.272 94.785)" fill="#fff"/><path d="M-32.651-6.98h-3.324v.627h1.343v3.836h.639V-6.353h1.343Zm3.139,2.711c0-.831-.358-1.432-1.221-1.432a.873.873,0,0,0-.716.326v-1.6h-.607v4.462h.607V-4.531a.628.628,0,0,1,.639-.569c.543,0,.7.364.7.831v1.752h.6Zm3.2.077c0-.869-.422-1.5-1.221-1.5-.959,0-1.407.716-1.407,1.617A1.425,1.425,0,0,0-27.485-2.46a1.46,1.46,0,0,0,1.112-.505l-.384-.371a.942.942,0,0,1-.722.313c-.575,0-.812-.39-.831-.927h2Zm-2-.153c.051-.473.275-.78.761-.78s.646.345.678.78Zm7.883-2.634h-.639v1.86h-2.046V-6.98h-.639v4.462h.639v-2h2.046v2h.639Zm3.363,1.343h-.6v2.014a.622.622,0,0,1-.646.575c-.563,0-.69-.326-.69-.812V-5.637h-.607v1.816c0,.857.4,1.362,1.285,1.362a1.042,1.042,0,0,0,.735-.32l.019.262h.505Zm5.07,1.355c0-.818-.358-1.419-1.228-1.419a.933.933,0,0,0-.863.486,1.043,1.043,0,0,0-.946-.486.834.834,0,0,0-.665.339l-.019-.275h-.505v3.12h.607V-4.551a.572.572,0,0,1,.575-.55c.531,0,.62.39.62.818v1.765h.607V-4.193c0-.4.051-.908.588-.908s.62.39.62.818v1.765h.607Zm3.056,1.221V-4.749a1.039,1.039,0,0,0-1.1-.94,1.159,1.159,0,0,0-1.215.748l.518.179a.689.689,0,0,1,.684-.384.5.5,0,0,1,.543.448v.2a.344.344,0,0,1-.3.121h-.479c-.7.032-1.1.384-1.1.953a1.009,1.009,0,0,0,1.132.985,1.314,1.314,0,0,0,.838-.294l.077.275.518-.128Zm-.569-.192a1.04,1.04,0,0,1-.735.3c-.275,0-.595-.147-.595-.473,0-.358.288-.5.595-.505h.435a.525.525,0,0,0,.3-.083Zm3.925-1.029c0-.857-.358-1.419-1.272-1.419a.955.955,0,0,0-.748.339l-.019-.275h-.505v3.12h.607V-4.5a.626.626,0,0,1,.639-.6c.563,0,.7.352.7.831v1.752h.6Zm5.92.467A1.083,1.083,0,0,0-.307-4.845a1.028,1.028,0,0,0,.479-.889c0-.908-.659-1.247-1.5-1.247H-2.909v4.462h1.694C-.339-2.518.339-2.863.339-3.815ZM-.454-5.727c0,.55-.384.665-.844.665H-2.27V-6.373h.953C-.87-6.373-.454-6.277-.454-5.727ZM-.3-3.809c0,.588-.441.684-.914.684H-2.27V-4.506h1.055C-.735-4.506-.3-4.391-.3-3.809Zm3.81-.262c0-.921-.371-1.624-1.368-1.624S.767-4.992.767-4.071s.371,1.617,1.375,1.617S3.51-3.15,3.51-4.071Zm-.614,0c0,.518-.115,1.029-.761,1.029s-.754-.511-.754-1.029.109-1.036.761-1.036S2.9-4.589,2.9-4.071ZM6.687-2.6c-.006-.026-.128-.473-.128-.486V-6.98H5.952v1.566a.817.817,0,0,0-.639-.281c-.978,0-1.3.742-1.3,1.611s.313,1.63,1.3,1.63a1.045,1.045,0,0,0,.767-.3l.077.307ZM5.952-3.636a.588.588,0,0,1-.639.588c-.639,0-.7-.563-.7-1.029s.064-1.029.7-1.029a.592.592,0,0,1,.639.588Zm3.465-2L8.592-3.272l-.8-2.365H7.141L8.285-2.5l-.211.543c-.09.237-.2.339-.556.339h-.1V-1.1h.109a.969.969,0,0,0,1.093-.671l1.445-3.862Z" transform="translate(162.701 94.72)" fill="#fff"/><g transform="translate(144.852 46.488)"><circle cx="6.236" cy="6.236" r="6.236" transform="translate(0 0)" fill="#f2f9ff"/><g transform="translate(3.401 1.548)"><path d="M119.636,0a2.306,2.306,0,0,0-2.3,2.3V3.72a.177.177,0,0,0,.177.177h.709a.177.177,0,0,0,.177-.177V2.3a1.24,1.24,0,1,1,2.48,0V3.72a.177.177,0,0,0,.177.177h.709a.177.177,0,0,0,.177-.177V2.3A2.306,2.306,0,0,0,119.636,0Z" transform="translate(-116.624)" fill="#455a64"/><path d="M75.553,213.333H79.8a.886.886,0,0,1,.886.886v3.189a.886.886,0,0,1-.886.886H75.553a.886.886,0,0,1-.886-.886v-3.189A.886.886,0,0,1,75.553,213.333Z" transform="translate(-74.667 -209.79)" fill="#ffc107"/><path d="M204.438,278a.886.886,0,1,0-1.279.79l-.137.957a.177.177,0,0,0,.151.2l.025,0h.709a.177.177,0,0,0,.179-.175.175.175,0,0,0,0-.027l-.137-.957A.889.889,0,0,0,204.438,278Z" transform="translate(-200.541 -272.506)" fill="#455a64"/></g></g><g transform="translate(155.057 113.386)"><circle cx="6.236" cy="6.236" r="6.236" transform="translate(0 0)" fill="#f2f9ff"/><g transform="translate(3.401 1.548)"><path d="M119.636,0a2.306,2.306,0,0,0-2.3,2.3V3.72a.177.177,0,0,0,.177.177h.709a.177.177,0,0,0,.177-.177V2.3a1.24,1.24,0,1,1,2.48,0V3.72a.177.177,0,0,0,.177.177h.709a.177.177,0,0,0,.177-.177V2.3A2.306,2.306,0,0,0,119.636,0Z" transform="translate(-116.624)" fill="#455a64"/><path d="M75.553,213.333H79.8a.886.886,0,0,1,.886.886v3.189a.886.886,0,0,1-.886.886H75.553a.886.886,0,0,1-.886-.886v-3.189A.886.886,0,0,1,75.553,213.333Z" transform="translate(-74.667 -209.79)" fill="#ffc107"/><path d="M204.438,278a.886.886,0,1,0-1.279.79l-.137.957a.177.177,0,0,0,.151.2l.025,0h.709a.177.177,0,0,0,.179-.175.175.175,0,0,0,0-.027l-.137-.957A.889.889,0,0,0,204.438,278Z" transform="translate(-200.541 -272.506)" fill="#455a64"/></g></g><g transform="translate(94.962 113.386)"><circle cx="6.236" cy="6.236" r="6.236" transform="translate(0 0)" fill="#f2f9ff"/><g transform="translate(3.401 1.548)"><path d="M119.636,0a2.306,2.306,0,0,0-2.3,2.3V3.72a.177.177,0,0,0,.177.177h.709a.177.177,0,0,0,.177-.177V2.3a1.24,1.24,0,1,1,2.48,0V3.72a.177.177,0,0,0,.177.177h.709a.177.177,0,0,0,.177-.177V2.3A2.306,2.306,0,0,0,119.636,0Z" transform="translate(-116.624)" fill="#455a64"/><path d="M75.553,213.333H79.8a.886.886,0,0,1,.886.886v3.189a.886.886,0,0,1-.886.886H75.553a.886.886,0,0,1-.886-.886v-3.189A.886.886,0,0,1,75.553,213.333Z" transform="translate(-74.667 -209.79)" fill="#ffc107"/><path d="M204.438,278a.886.886,0,1,0-1.279.79l-.137.957a.177.177,0,0,0,.151.2l.025,0h.709a.177.177,0,0,0,.179-.175.175.175,0,0,0,0-.027l-.137-.957A.889.889,0,0,0,204.438,278Z" transform="translate(-200.541 -272.506)" fill="#455a64"/></g></g><g transform="translate(35.434 113.386)"><circle cx="6.236" cy="6.236" r="6.236" transform="translate(0 0)" fill="#f2f9ff"/><g transform="translate(3.401 1.548)"><path d="M119.636,0a2.306,2.306,0,0,0-2.3,2.3V3.72a.177.177,0,0,0,.177.177h.709a.177.177,0,0,0,.177-.177V2.3a1.24,1.24,0,1,1,2.48,0V3.72a.177.177,0,0,0,.177.177h.709a.177.177,0,0,0,.177-.177V2.3A2.306,2.306,0,0,0,119.636,0Z" transform="translate(-116.624)" fill="#455a64"/><path d="M75.553,213.333H79.8a.886.886,0,0,1,.886.886v3.189a.886.886,0,0,1-.886.886H75.553a.886.886,0,0,1-.886-.886v-3.189A.886.886,0,0,1,75.553,213.333Z" transform="translate(-74.667 -209.79)" fill="#ffc107"/><path d="M204.438,278a.886.886,0,1,0-1.279.79l-.137.957a.177.177,0,0,0,.151.2l.025,0h.709a.177.177,0,0,0,.179-.175.175.175,0,0,0,0-.027l-.137-.957A.889.889,0,0,0,204.438,278Z" transform="translate(-200.541 -272.506)" fill="#455a64"/></g></g><g transform="translate(135.214 184.82)"><circle cx="6.236" cy="6.236" r="6.236" transform="translate(0 0)" fill="#f2f9ff"/><g transform="translate(3.401 1.548)"><path d="M119.636,0a2.306,2.306,0,0,0-2.3,2.3V3.72a.177.177,0,0,0,.177.177h.709a.177.177,0,0,0,.177-.177V2.3a1.24,1.24,0,1,1,2.48,0V3.72a.177.177,0,0,0,.177.177h.709a.177.177,0,0,0,.177-.177V2.3A2.306,2.306,0,0,0,119.636,0Z" transform="translate(-116.624)" fill="#455a64"/><path d="M75.553,213.333H79.8a.886.886,0,0,1,.886.886v3.189a.886.886,0,0,1-.886.886H75.553a.886.886,0,0,1-.886-.886v-3.189A.886.886,0,0,1,75.553,213.333Z" transform="translate(-74.667 -209.79)" fill="#ffc107"/><path d="M204.438,278a.886.886,0,1,0-1.279.79l-.137.957a.177.177,0,0,0,.151.2l.025,0h.709a.177.177,0,0,0,.179-.175.175.175,0,0,0,0-.027l-.137-.957A.889.889,0,0,0,204.438,278Z" transform="translate(-200.541 -272.506)" fill="#455a64"/></g></g><g transform="translate(53.576 184.82)"><circle cx="6.236" cy="6.236" r="6.236" transform="translate(0 0)" fill="#f2f9ff"/><g transform="translate(3.401 1.548)"><path d="M119.636,0a2.306,2.306,0,0,0-2.3,2.3V3.72a.177.177,0,0,0,.177.177h.709a.177.177,0,0,0,.177-.177V2.3a1.24,1.24,0,1,1,2.48,0V3.72a.177.177,0,0,0,.177.177h.709a.177.177,0,0,0,.177-.177V2.3A2.306,2.306,0,0,0,119.636,0Z" transform="translate(-116.624)" fill="#455a64"/><path d="M75.553,213.333H79.8a.886.886,0,0,1,.886.886v3.189a.886.886,0,0,1-.886.886H75.553a.886.886,0,0,1-.886-.886v-3.189A.886.886,0,0,1,75.553,213.333Z" transform="translate(-74.667 -209.79)" fill="#ffc107"/><path d="M204.438,278a.886.886,0,1,0-1.279.79l-.137.957a.177.177,0,0,0,.151.2l.025,0h.709a.177.177,0,0,0,.179-.175.175.175,0,0,0,0-.027l-.137-.957A.889.889,0,0,0,204.438,278Z" transform="translate(-200.541 -272.506)" fill="#455a64"/></g></g><g transform="translate(35.434 255.686)"><circle cx="6.236" cy="6.236" r="6.236" transform="translate(0 0)" fill="#f2f9ff"/><g transform="translate(3.401 1.548)"><path d="M119.636,0a2.306,2.306,0,0,0-2.3,2.3V3.72a.177.177,0,0,0,.177.177h.709a.177.177,0,0,0,.177-.177V2.3a1.24,1.24,0,1,1,2.48,0V3.72a.177.177,0,0,0,.177.177h.709a.177.177,0,0,0,.177-.177V2.3A2.306,2.306,0,0,0,119.636,0Z" transform="translate(-116.624)" fill="#455a64"/><path d="M75.553,213.333H79.8a.886.886,0,0,1,.886.886v3.189a.886.886,0,0,1-.886.886H75.553a.886.886,0,0,1-.886-.886v-3.189A.886.886,0,0,1,75.553,213.333Z" transform="translate(-74.667 -209.79)" fill="#ffc107"/><path d="M204.438,278a.886.886,0,1,0-1.279.79l-.137.957a.177.177,0,0,0,.151.2l.025,0h.709a.177.177,0,0,0,.179-.175.175.175,0,0,0,0-.027l-.137-.957A.889.889,0,0,0,204.438,278Z" transform="translate(-200.541 -272.506)" fill="#455a64"/></g></g><g transform="translate(94.962 255.686)"><circle cx="6.236" cy="6.236" r="6.236" transform="translate(0 0)" fill="#f2f9ff"/><g transform="translate(3.401 1.548)"><path d="M119.636,0a2.306,2.306,0,0,0-2.3,2.3V3.72a.177.177,0,0,0,.177.177h.709a.177.177,0,0,0,.177-.177V2.3a1.24,1.24,0,1,1,2.48,0V3.72a.177.177,0,0,0,.177.177h.709a.177.177,0,0,0,.177-.177V2.3A2.306,2.306,0,0,0,119.636,0Z" transform="translate(-116.624)" fill="#455a64"/><path d="M75.553,213.333H79.8a.886.886,0,0,1,.886.886v3.189a.886.886,0,0,1-.886.886H75.553a.886.886,0,0,1-.886-.886v-3.189A.886.886,0,0,1,75.553,213.333Z" transform="translate(-74.667 -209.79)" fill="#ffc107"/><path d="M204.438,278a.886.886,0,1,0-1.279.79l-.137.957a.177.177,0,0,0,.151.2l.025,0h.709a.177.177,0,0,0,.179-.175.175.175,0,0,0,0-.027l-.137-.957A.889.889,0,0,0,204.438,278Z" transform="translate(-200.541 -272.506)" fill="#455a64"/></g></g><g transform="translate(155.057 255.686)"><circle cx="6.236" cy="6.236" r="6.236" transform="translate(0 0)" fill="#f2f9ff"/><g transform="translate(3.401 1.548)"><path d="M119.636,0a2.306,2.306,0,0,0-2.3,2.3V3.72a.177.177,0,0,0,.177.177h.709a.177.177,0,0,0,.177-.177V2.3a1.24,1.24,0,1,1,2.48,0V3.72a.177.177,0,0,0,.177.177h.709a.177.177,0,0,0,.177-.177V2.3A2.306,2.306,0,0,0,119.636,0Z" transform="translate(-116.624)" fill="#455a64"/><path d="M75.553,213.333H79.8a.886.886,0,0,1,.886.886v3.189a.886.886,0,0,1-.886.886H75.553a.886.886,0,0,1-.886-.886v-3.189A.886.886,0,0,1,75.553,213.333Z" transform="translate(-74.667 -209.79)" fill="#ffc107"/><path d="M204.438,278a.886.886,0,1,0-1.279.79l-.137.957a.177.177,0,0,0,.151.2l.025,0h.709a.177.177,0,0,0,.179-.175.175.175,0,0,0,0-.027l-.137-.957A.889.889,0,0,0,204.438,278Z" transform="translate(-200.541 -272.506)" fill="#455a64"/></g></g><g transform="translate(4.253 7.37)" clip-path="url(#g)"><rect width="115.654" height="57.827" rx="28.914" transform="translate(1.701 3.402)" fill="rgba(255,255,255,0)"/><path d="M28.914,1.75A27.171,27.171,0,0,0,18.341,53.943a26.992,26.992,0,0,0,10.573,2.134H86.741A27.171,27.171,0,0,0,97.313,3.884,26.992,26.992,0,0,0,86.741,1.75H28.914m0-1.75H86.741a28.914,28.914,0,0,1,0,57.827H28.914A28.914,28.914,0,0,1,28.914,0Z" transform="translate(1.701 3.402)" fill="#0f3b5d"/></g><circle cx="13.606" cy="13.606" r="13.606" transform="translate(47.34 53.292)" fill="url(#e)"/><path d="M13.606,0A13.606,13.606,0,1,0,27.213,13.606,13.606,13.606,0,0,0,13.606,0m0-6A19.606,19.606,0,1,1-6,13.606,19.629,19.629,0,0,1,13.606-6Z" transform="translate(47.34 53.292)" fill="#d5edff"/><text transform="translate(60.111 69.693)" fill="#fff" font-size="12" font-family="AauxNext-SemiBold, Aaux Next" font-weight="600"><tspan x="-2.328" y="0">1</tspan></text><g transform="matrix(0.97, -0.26, 0.26, 0.97, -150.22, 34.57)" filter="url(#j)"><rect width="113.386" height="22.677" rx="11.339" transform="matrix(0.97, 0.26, -0.26, 0.97, 195.4, 16.56)" fill="url(#i)"/></g><text transform="translate(95.789 12.968)" fill="#fff" font-size="8" font-family="AauxNext-Regular, Aaux Next"><tspan x="-14.508" y="0">Medicine</tspan></text><path d="M-9.216-7.1v1.013h.5v3.309a2.362,2.362,0,0,1,.4-.876,2.032,2.032,0,0,1,1.706-.777,1.853,1.853,0,0,1,1.837,1.32A1.88,1.88,0,0,1-2.86-4.428a1.885,1.885,0,0,1,.524.077V-6.084H-.864v5.36l.039.175a2.428,2.428,0,0,1,.1.5V.335L-2.02.683-2.079.417a2.036,2.036,0,0,1-.8.155A1.886,1.886,0,0,1-4.631-.4l-.24.257A2.179,2.179,0,0,1-6.548.572,2.07,2.07,0,0,1-8.72-1.081V.5h-1.5V-1.639L-11.027.5h-.47l-.084.22L-11.664.5h-.477l-.8-2.12V.5h-1.5V-6.084h.5v-1l.379,1h.474L-11.579-2.1l1.518-3.988h.46Zm3.052,4.4a.433.433,0,0,0-.464-.288.555.555,0,0,0-.561.288Zm3.3,1.816c.054,0,.532-.012.532-.436V-2.536c0-.322-.282-.436-.524-.436-.347,0-.612.077-.612,1.044C-3.472-.884-3.137-.884-2.868-.884ZM-5.7-1.356h-1.56a.619.619,0,0,0,.708.488A.749.749,0,0,0-5.925-1.1Zm.779,0h-.544l.681.613A3.136,3.136,0,0,1-4.917-1.356ZM.124-6.148A.869.869,0,0,1,1-5.288a.873.873,0,0,1-.876.868.865.865,0,0,1-.86-.868A.861.861,0,0,1,.124-6.148Zm5.536,0a.869.869,0,0,1,.876.86.873.873,0,0,1-.876.868.865.865,0,0,1-.86-.868A.861.861,0,0,1,5.66-6.148ZM3.108-4.436A2.126,2.126,0,0,1,4.8-3.671l.12.127v-.821H6.392V.5H4.92V-.321L4.8-.193A2.123,2.123,0,0,1,3.108.564,2.217,2.217,0,0,1,.856-1.689V.5H-.616V-4.364H.856v2.2A2.224,2.224,0,0,1,3.108-4.436ZM4.92-.772V-3.092l-.847.767-.336-.356A.779.779,0,0,0,3.108-3C2.9-3,2.344-3,2.344-1.928s.555,1.06.764,1.06a.779.779,0,0,0,.628-.315l.336-.356Zm3.7-3.664A1.858,1.858,0,0,1,10.609-2.9a2.3,2.3,0,0,1,.369-.753,2.032,2.032,0,0,1,1.706-.777,2.024,2.024,0,0,1,1.988,2.3v.772h-.838l.939.845-.348.372a2.179,2.179,0,0,1-1.677.711A2.058,2.058,0,0,1,10.68-.751V.5H9.208V-2.184c0-.733-.239-.788-.6-.788a.517.517,0,0,0-.532.42V.5H6.6V-4.364H7.993v.034A1.876,1.876,0,0,1,8.62-4.436ZM13.132-2.7a.433.433,0,0,0-.464-.288.555.555,0,0,0-.561.288ZM13.6-1.356H12.04a.619.619,0,0,0,.708.488.749.749,0,0,0,.623-.237Z" transform="translate(95.789 12.968)" fill="rgba(0,0,0,0)"/></g></g></g></g></svg>