<svg xmlns="http://www.w3.org/2000/svg" width="55" height="55" viewBox="0 0 55 55"><circle cx="27.5" cy="27.5" r="27.5" fill="#39cd00"/><g transform="translate(10.313 12.5)"><path d="M67.375,54.375a8.968,8.968,0,0,1-.134,1.041,11.491,11.491,0,0,1-1.316,3.75c-.312.556-1.816,2.669-2.275,3.225-2.541,3.059-6.8,6.591-13.909,10.025a.937.937,0,0,1-1.341-.937l.359-3.228a.938.938,0,0,0-.828-1.034,19.981,19.981,0,0,1-6.806-1.941C36.25,62.866,33,58.563,33,53.659,33,46.109,40.694,40,50.188,40a19.612,19.612,0,0,1,12.188,4.041,12.335,12.335,0,0,1,5,10.334Z" transform="translate(-33 -40)" fill="#fff"/><g transform="translate(7.434 9.786)"><path d="M61.806,78.213a.862.862,0,0,1,.259.625.878.878,0,0,1-.878.881H57.671a.884.884,0,0,1-.881-.881V72.2a.869.869,0,0,1,.259-.625.878.878,0,0,1,1.5.625v5.759h2.638a.859.859,0,0,1,.619.256Z" transform="translate(-56.79 -71.314)" fill="#00c200"/><path d="M78.109,72.017v7.022a.691.691,0,0,1-.687.688h-.394a.688.688,0,0,1-.687-.687V72.017a.687.687,0,0,1,.688-.687h.384a.691.691,0,0,1,.7.688Z" transform="translate(-70.231 -71.325)" fill="#00c200"/><path d="M93.036,72.208v6.6a.916.916,0,0,1-.884.916.888.888,0,0,1-.6-.244c-.031-.025-1.213-1.562-2.216-2.856-.75-.966-1.4-1.809-1.4-1.809v4.028a.88.88,0,0,1-1.759,0v-6.6a.906.906,0,0,1,.847-.916.888.888,0,0,1,.691.313c.038.044,1.853,2.406,2.875,3.75.406.525.688.894.688.894V72.223a.878.878,0,0,1,1.756-.015Z" transform="translate(-76.995 -71.325)" fill="#00c200"/><path d="M114.109,76.4v1.563h2.634a.881.881,0,1,1,0,1.759h-3.525a.881.881,0,0,1-.878-.881V72.2a.881.881,0,0,1,.878-.878h3.516a.881.881,0,1,1,0,1.759h-2.625v1.563h2.634a.878.878,0,0,1,0,1.756Z" transform="translate(-94.981 -71.321)" fill="#00c200"/></g></g></svg>