<svg xmlns="http://www.w3.org/2000/svg" width="33.001" height="33" viewBox="0 0 33.001 33"><g transform="translate(0 -0.005)"><path d="M2.578,33a2.6,2.6,0,0,0,1.086-.239c.8-.243,9.223-2.874,10.857-7,1.045-2.638.347-6.091-.486-8.653l1.1-1.1a1.936,1.936,0,0,1,2.734,0l1.1,1.1c-.834,2.562-1.531,6.015-.486,8.653,1.635,4.126,10.053,6.757,10.857,7A2.579,2.579,0,0,0,33,30.278c-.031-.836-.152-3.771-.458-7.082a.645.645,0,0,0-1.284.118c.371,4.019.436,6.795.455,7.04a1.29,1.29,0,0,1-1.287,1.361,1.609,1.609,0,0,1-.67-.171c-2.942-.872-8.925-3.353-10.074-6.253-.851-2.149-.281-5.107.319-7.148l1.2,1.2a.645.645,0,1,0,.912-.912L18.779,15.1a3.226,3.226,0,0,0-4.557,0l-3.334,3.333a.645.645,0,1,0,.912.912l1.2-1.2c.6,2.041,1.17,5,.319,7.148-.586,1.479-2.489,3.023-5.5,4.465a35.12,35.12,0,0,1-4.571,1.788,1.611,1.611,0,0,1-.67.171,1.289,1.289,0,0,1-1.286-1.382c.052-1.415.559-13.927,2.493-17.382,1.905-3.4,7.319-6.116,8.848-6.116A1.936,1.936,0,0,1,14.567,8.77V9.777a3.2,3.2,0,0,1-.944,2.279L12.4,13.282H9.867a4.74,4.74,0,0,0-4.255,2.934.645.645,0,1,0,1.153.576c1.111-2.222,2.61-2.222,3.1-2.222h1.24L8.525,17.153a5.841,5.841,0,0,0-1.693,4.123v3.987L4.443,27.651a.645.645,0,1,0,.912.912L7.477,26.44l.833.833a.645.645,0,0,0,.912-.912l-1.1-1.1,0-2.048L9.6,24.7a.645.645,0,1,0,.912-.912l-2.4-2.4v-.113a4.552,4.552,0,0,1,1.325-3.208l5.1-5.1a4.482,4.482,0,0,0,1.321-3.19V1.294h1.289V9.777a4.482,4.482,0,0,0,1.321,3.19l5.092,5.091a4.484,4.484,0,0,1,1.321,3.19v.145L22.49,23.784a.645.645,0,0,0,.912.912l1.478-1.478v2.044l-1.1,1.1a.645.645,0,0,0,.912.912l.833-.833,2.122,2.122a.645.645,0,0,0,.912-.912l-2.389-2.389V21.249a5.765,5.765,0,0,0-1.7-4.1l-2.576-2.575h1.24c.493,0,1.992,0,3.1,2.222a.645.645,0,1,0,1.153-.576,4.74,4.74,0,0,0-4.255-2.934H20.6l-1.227-1.227a3.2,3.2,0,0,1-.944-2.279V8.771a1.936,1.936,0,0,1,1.934-1.934c1.8,0,7.084,2.964,8.848,6.116a16.212,16.212,0,0,1,1.317,4.659.645.645,0,1,0,1.27-.22,17.044,17.044,0,0,0-1.463-5.068c-2.009-3.588-7.728-6.775-9.973-6.775a3.206,3.206,0,0,0-1.934.646V.65A.645.645,0,0,0,17.789,0H15.211a.645.645,0,0,0-.645.645V6.194a3.206,3.206,0,0,0-1.934-.646c-2.247,0-7.964,3.187-9.973,6.775C.625,15.96.092,27.9,0,30.278A2.581,2.581,0,0,0,2.578,33Z" transform="translate(0 0)" fill="#0073ff"/><circle cx="0.645" cy="0.645" r="0.645" transform="translate(30.938 19.728)" fill="#0073ff"/></g></svg>