<svg xmlns="http://www.w3.org/2000/svg" width="55" height="55" viewBox="0 0 55 55"><circle cx="27.5" cy="27.5" r="27.5" fill="#0082ff"/><path d="M50.474,36C42.481,36,36,42.007,36,49.417a13.044,13.044,0,0,0,5.391,10.464l.058,4.729a.337.337,0,0,0,.5.286l4.519-2.565a15.458,15.458,0,0,0,4,.514c7.993,0,14.474-6.007,14.474-13.417S58.467,36,50.474,36Zm1.086,17.73-3.094-3.22a.586.586,0,0,0-.7-.109l-5.428,2.924A.21.21,0,0,1,42.09,53l6.43-6.777a.463.463,0,0,1,.677,0L52.283,49.5a.583.583,0,0,0,.7.112l5.337-2.895a.206.206,0,0,1,.25.326l-6.325,6.7a.463.463,0,0,1-.687,0Z" transform="translate(-22.974 -22.974)" fill="#fff"/></svg>