<svg xmlns="http://www.w3.org/2000/svg" width="55" height="55" viewBox="0 0 55 55"><g transform="translate(-318 -769)"><g transform="translate(318 769)"><g transform="translate(0)"><path d="M27.5,0A27.5,27.5,0,1,0,55,27.5,27.5,27.5,0,0,0,27.5,0" transform="translate(0 0)" fill="#0f3b5d" fill-rule="evenodd"/></g></g><g transform="translate(354.667 794.667) rotate(90)"><path d="M0,2.01A2.01,2.01,0,1,0,2.01,0,2.012,2.012,0,0,0,0,2.01Z" transform="translate(0 6.699)" fill="#fff"/><path d="M0,2.01A2.01,2.01,0,1,0,2.01,0,2.012,2.012,0,0,0,0,2.01Z" transform="translate(0 13.397)" fill="#fff"/><path d="M0,2.01A2.01,2.01,0,1,0,2.01,0,2.012,2.012,0,0,0,0,2.01Z" transform="translate(0 0)" fill="#fff"/></g></g></svg>