<svg xmlns="http://www.w3.org/2000/svg" width="17.82" height="20.5" viewBox="0 0 17.82 20.5"><g transform="translate(-1.338 -280.345)"><path d="M3.668,280.6a2.014,2.014,0,0,0-2.08,2v16a2.021,2.021,0,0,0,3.028,1.716l13.339-8a2.021,2.021,0,0,0,0-3.431l-13.339-8a2.011,2.011,0,0,0-.948-.285Zm-.054,1.334a.677.677,0,0,1,.318.094l13.339,8a.649.649,0,0,1,0,1.146l-13.339,8a.649.649,0,0,1-1.009-.574v-16A.656.656,0,0,1,3.614,281.93Z" transform="translate(0 0)" fill="#fff"/><path d="M3.591,280.345h0l.087,0a2.27,2.27,0,0,1,1.066.32l13.34,8a2.271,2.271,0,0,1,0,3.86l-13.339,8a2.181,2.181,0,0,1-1.122.312,2.339,2.339,0,0,1-1.581-.632,2.189,2.189,0,0,1-.7-1.611v-16a2.265,2.265,0,0,1,2.253-2.253Zm.032,20a1.658,1.658,0,0,0,.864-.241l13.339-8a1.771,1.771,0,0,0,0-3l-13.339-8a1.767,1.767,0,0,0-.829-.25H3.591A1.765,1.765,0,0,0,1.838,282.6v16A1.79,1.79,0,0,0,3.623,300.345ZM3.587,281.68h.036a.932.932,0,0,1,.438.13l13.338,8a.9.9,0,0,1,0,1.575l-13.339,8a.973.973,0,0,1-.5.143.9.9,0,0,1-.889-.931v-16A.907.907,0,0,1,3.587,281.68Zm-.026,17.354a.467.467,0,0,0,.242-.072l13.339-8a.4.4,0,0,0,0-.717l-13.339-8a.428.428,0,0,0-.2-.059H3.587a.407.407,0,0,0-.415.418v16A.4.4,0,0,0,3.561,299.033Z" transform="translate(0 0)" fill="#fff"/></g></svg>