<svg xmlns="http://www.w3.org/2000/svg" width="50" height="50" viewBox="0 0 50 50"><g transform="translate(-654 -318)"><circle cx="25" cy="25" r="25" transform="translate(654 318)" fill="#ecf7ff"/><path d="M25,1a24.007,24.007,0,0,0-9.342,46.114A24.006,24.006,0,0,0,34.342,2.886,23.849,23.849,0,0,0,25,1m0-1A25,25,0,1,1,0,25,25,25,0,0,1,25,0Z" transform="translate(654 318)" fill="#cbe8ff"/><g transform="matrix(0.985, -0.174, 0.174, 0.985, 659.43, 330.726)"><g transform="translate(8.601 4)"><path d="M28.283,13.428a.857.857,0,0,1-.857-.857,6.857,6.857,0,1,0-13.715,0,.857.857,0,0,1-1.714,0,8.572,8.572,0,1,1,17.143,0A.857.857,0,0,1,28.283,13.428Z" transform="translate(-11.997 -4)" fill="#929292"/></g><g transform="translate(24.03 17.511)"><g transform="translate(0 0)"><path d="M48.855,41.729a.857.857,0,0,1,0-1.714A1.735,1.735,0,0,0,50,37.022a.857.857,0,0,1,1.143-1.278,3.448,3.448,0,0,1-2.286,5.984Z" transform="translate(-47.998 -35.526)" fill="#929292"/></g></g><g transform="translate(24.03 11.714)"><g transform="translate(0)"><path d="M48.855,25.678A.857.857,0,0,1,48,24.821V22.857a.857.857,0,1,1,1.714,0v1.964A.857.857,0,0,1,48.855,25.678Z" transform="translate(-47.998 -22)" fill="#929292"/></g></g><g transform="translate(24.03 13.678)"><g transform="translate(0)"><path d="M50.569,32.13A.853.853,0,0,1,50,31.912a6.007,6.007,0,0,1-2-4.472.857.857,0,1,1,1.714,0,4.292,4.292,0,0,0,1.428,3.195.857.857,0,0,1-.572,1.5Z" transform="translate(-47.998 -26.583)" fill="#929292"/></g></g><g transform="translate(8.601 11.714)"><path d="M12.855,25.678A.857.857,0,0,1,12,24.821V22.857a.857.857,0,0,1,1.714,0v1.964A.857.857,0,0,1,12.855,25.678Z" transform="translate(-11.998 -22)" fill="#929292"/></g><g transform="translate(6.887 13.678)"><path d="M8.856,32.13a.857.857,0,0,1-.572-1.5,4.291,4.291,0,0,0,1.428-3.195.857.857,0,0,1,1.714,0,6.007,6.007,0,0,1-2,4.472A.851.851,0,0,1,8.856,32.13Z" transform="translate(-7.998 -26.582)" fill="#929292"/></g><g transform="translate(12.03 22)"><path d="M25.141,52A5.212,5.212,0,0,1,20,46.856a.857.857,0,1,1,1.714,0,3.429,3.429,0,0,0,6.857,0,.857.857,0,1,1,1.714,0A5.212,5.212,0,0,1,25.141,52Z" transform="translate(-19.998 -45.999)" fill="#929292"/></g><g transform="translate(6.053 17.512)"><g transform="translate(0 0)"><path d="M9.458,41.73a3.448,3.448,0,0,1-2.286-5.984.857.857,0,1,1,1.143,1.278,1.735,1.735,0,0,0,1.143,2.992.857.857,0,1,1,0,1.713Z" transform="translate(-6.053 -35.528)" fill="#929292"/></g></g><g transform="translate(8.601 22)"><path d="M28.284,47.713H12.855a.857.857,0,1,1,0-1.714H28.284a.857.857,0,1,1,0,1.714Z" transform="translate(-11.998 -45.999)" fill="#929292"/></g></g></g></svg>