<svg xmlns="http://www.w3.org/2000/svg" width="15.938" height="20" viewBox="0 0 15.938 20"><g transform="translate(-52)"><g transform="translate(52)"><path d="M65.594,7.344H64.186V4.132a4.22,4.22,0,0,0-8.438,0V7.344h-1.4A2.346,2.346,0,0,0,52,9.688v7.969A2.346,2.346,0,0,0,54.344,20h11.25a2.346,2.346,0,0,0,2.344-2.344V9.688A2.346,2.346,0,0,0,65.594,7.344ZM57.311,4.132a2.658,2.658,0,0,1,5.313,0V7.344H57.311Zm9.064,13.525a.782.782,0,0,1-.781.781H54.344a.782.782,0,0,1-.781-.781V9.688a.782.782,0,0,1,.781-.781h11.25a.782.782,0,0,1,.781.781Z" transform="translate(-52)"/></g><g transform="translate(58.523 11.172)"><path d="M220.445,286a1.445,1.445,0,0,0-.783,2.66v1.715a.781.781,0,0,0,1.563,0v-1.713a1.445,1.445,0,0,0-.78-2.662Z" transform="translate(-219 -286)"/></g></g></svg>