<svg xmlns="http://www.w3.org/2000/svg" width="13.333" height="20" viewBox="0 0 13.333 20"><g transform="translate(-6 -1)"><g transform="translate(6 1)"><path d="M9.333,1H6.667A.666.666,0,0,0,6,1.667V20.333A.666.666,0,0,0,6.667,21H9.333A.666.666,0,0,0,10,20.333V1.667A.666.666,0,0,0,9.333,1Z" transform="translate(-6 -1)" fill="#fff"/><path d="M23.333,1H20.667A.666.666,0,0,0,20,1.667V20.333a.666.666,0,0,0,.667.667h2.667A.666.666,0,0,0,24,20.333V1.667A.666.666,0,0,0,23.333,1Z" transform="translate(-10.667 -1)" fill="#fff"/></g></g></svg>