<svg xmlns="http://www.w3.org/2000/svg" width="40" height="40" viewBox="0 0 40 40"><g transform="translate(-1034.912 -781)"><rect width="40" height="40" rx="20" transform="translate(1034.912 781)" fill="rgba(255,255,255,0)"/><path d="M20,1a19.005,19.005,0,0,0-7.4,36.507A19.005,19.005,0,0,0,27.4,2.493,18.88,18.88,0,0,0,20,1m0-1A20,20,0,1,1,0,20,20,20,0,0,1,20,0Z" transform="translate(1034.912 781)" fill="#3f7cab"/><g transform="translate(1045.911 795)"><path d="M2.857,12.714H18.281a.857.857,0,1,0,0-1.714H2.857a.857.857,0,0,0,0,1.714Z" transform="translate(-1.995 -5.855)" fill="#004174"/><path d="M20,17a.857.857,0,0,0,.608-1.465L16.064,11l4.542-4.533a.86.86,0,1,0-1.217-1.217l-5.141,5.141a.857.857,0,0,0,0,1.217l5.141,5.141A.857.857,0,0,0,20,17Z" transform="translate(-13.994 -4.996)" fill="#004174"/></g></g></svg>