<svg xmlns="http://www.w3.org/2000/svg" width="32" height="32" viewBox="0 0 32 32"><g transform="translate(-2 -2)"><path d="M15.259,7.693a5.041,5.041,0,0,0-5.036,5.035,1.333,1.333,0,0,0,2.667,0A2.369,2.369,0,1,1,15.259,15.1a1.333,1.333,0,0,0-1.333,1.333v3.2a1.333,1.333,0,0,0,2.667,0V17.585a5.036,5.036,0,0,0-1.333-9.892Z" transform="translate(2.741 1.898)" fill="#ff7342"/><path d="M15.281,19.35a1.4,1.4,0,0,0-1.893,0,1.339,1.339,0,0,0,0,1.88,1.321,1.321,0,0,0,1.893,0A1.346,1.346,0,0,0,15.281,19.35Z" transform="translate(3.667 5.66)" fill="#ff7342"/><path d="M18,2A16,16,0,1,0,34,18,16.018,16.018,0,0,0,18,2Zm0,29.333A13.333,13.333,0,1,1,31.333,18,13.348,13.348,0,0,1,18,31.333Z" fill="#ff7342"/></g></svg>