<svg xmlns="http://www.w3.org/2000/svg" width="43.924" height="46.801" viewBox="0 0 43.924 46.801"><g transform="translate(-2.475 -1.6)"><path d="M28.947,44.714H8.543a2.385,2.385,0,0,1-2.382-2.382V7.668A2.385,2.385,0,0,1,8.543,5.286H28.116V11.1a5.668,5.668,0,0,0,5.662,5.661h6.883v15.75a1.643,1.643,0,1,0,3.286,0V15.11a1.952,1.952,0,0,0-.541-1.207L30.868,2.431A1.862,1.862,0,0,0,29.752,2H8.543A5.675,5.675,0,0,0,2.875,7.668V42.332A5.675,5.675,0,0,0,8.543,48h20.4a1.643,1.643,0,1,0,0-3.286ZM31.4,7.373l6.665,6.1H33.778A2.378,2.378,0,0,1,31.4,11.1Z" fill="#0f3b5d"/><path d="M28.947,48.4H8.543a6.075,6.075,0,0,1-6.068-6.068V7.668A6.075,6.075,0,0,1,8.543,1.6l21.251,0a2.274,2.274,0,0,1,1.346.535L43.688,13.619a2.346,2.346,0,0,1,.656,1.45l0,.041v17.4a2.043,2.043,0,1,1-4.086,0V17.158H33.778A6.068,6.068,0,0,1,27.716,11.1V5.686H8.543A1.985,1.985,0,0,0,6.561,7.668V42.332a1.985,1.985,0,0,0,1.982,1.982h20.4a2.043,2.043,0,0,1,0,4.086Zm-20.4-46A5.274,5.274,0,0,0,3.275,7.668V42.332A5.274,5.274,0,0,0,8.543,47.6h20.4a1.243,1.243,0,1,0,0-2.486H8.543a2.786,2.786,0,0,1-2.782-2.782V7.668A2.786,2.786,0,0,1,8.543,4.886H28.516V11.1a5.267,5.267,0,0,0,5.262,5.261h7.283v16.15a1.243,1.243,0,0,0,2.486,0V15.131a1.573,1.573,0,0,0-.417-.939L30.594,2.722A1.434,1.434,0,0,0,29.73,2.4ZM39.1,13.872H33.778A2.779,2.779,0,0,1,31,11.1V6.465ZM31.8,8.281V11.1a1.978,1.978,0,0,0,1.976,1.975h3.26Z" fill="#e6f4ff"/><path d="M28,15H10.775a1.643,1.643,0,0,0,0,3.286H28A1.643,1.643,0,0,0,28,15Z" transform="translate(4.022 8.357)" fill="#0f3b5d"/><path d="M10.775,14.6H28a2.043,2.043,0,0,1,0,4.086H10.775a2.043,2.043,0,0,1,0-4.086ZM28,17.886A1.243,1.243,0,0,0,28,15.4H10.775a1.243,1.243,0,0,0,0,2.486Z" transform="translate(4.022 8.357)" fill="#e6f4ff"/><path d="M28,20.243H10.775a1.643,1.643,0,1,0,0,3.286H28a1.643,1.643,0,0,0,0-3.286Z" transform="translate(4.022 11.727)" fill="#0f3b5d"/><path d="M10.775,19.843H28a2.043,2.043,0,0,1,0,4.086H10.775a2.043,2.043,0,0,1,0-4.086ZM28,23.128a1.243,1.243,0,0,0,0-2.486H10.775a1.243,1.243,0,0,0,0,2.486Z" transform="translate(4.022 11.727)" fill="#e6f4ff"/><path d="M10.775,13.043h8.613a1.643,1.643,0,0,0,0-3.286H10.775a1.643,1.643,0,1,0,0,3.286Z" transform="translate(4.023 4.987)" fill="#0f3b5d"/><path d="M19.388,13.443H10.775a2.043,2.043,0,0,1,0-4.086h8.613a2.043,2.043,0,0,1,0,4.086Zm-8.613-3.286a1.243,1.243,0,0,0,0,2.486h8.613a1.243,1.243,0,0,0,0-2.486Z" transform="translate(4.023 4.987)" fill="#e6f4ff"/><path d="M35.4,22.769a1.642,1.642,0,0,0-2.323,0l-7.748,7.749L21.42,26.61A1.643,1.643,0,0,0,19.1,28.933L24.167,34a1.642,1.642,0,0,0,2.323,0l8.91-8.911A1.642,1.642,0,0,0,35.4,22.769Z" transform="translate(10.119 13.042)" fill="#0f3b5d"/><path d="M34.238,21.888a2.043,2.043,0,0,1,1.444,3.487l-8.91,8.911a2.042,2.042,0,0,1-2.889,0l-5.07-5.07A2.043,2.043,0,1,1,21.7,26.327l3.625,3.625,7.465-7.466A2.029,2.029,0,0,1,34.238,21.888Zm-8.91,12.2a1.251,1.251,0,0,0,.879-.364l8.91-8.911a1.243,1.243,0,1,0-1.757-1.757l-8.031,8.032-4.191-4.191a1.243,1.243,0,1,0-1.757,1.757l5.07,5.07A1.251,1.251,0,0,0,25.329,34.084Z" transform="translate(10.119 13.042)" fill="#e6f4ff"/></g></svg>