<svg xmlns="http://www.w3.org/2000/svg" width="16.322" height="18" viewBox="0 0 16.322 18"><path d="M4.814,2h12.7a1.819,1.819,0,0,1,1.814,1.814V17.6a1.823,1.823,0,0,1-2.448,1.723l-1.451-.544a1.454,1.454,0,0,0-1.36.091l-2.176,1a2,2,0,0,1-1.451,0l-2.176-1a2.333,2.333,0,0,0-1.36-.091l-1.451.453A1.811,1.811,0,0,1,3,17.6V3.814A1.819,1.819,0,0,1,4.814,2ZM15.7,7.259a.725.725,0,0,0,0-1.451H6.627a.78.78,0,0,0-.725.725.78.78,0,0,0,.725.725Zm.725,2.9a.715.715,0,0,1-.725.725H6.627a.715.715,0,0,1-.725-.725.667.667,0,0,1,.725-.725H15.7A.78.78,0,0,1,16.421,10.161Zm-5.259,4.353a.715.715,0,0,0,.725-.725.667.667,0,0,0-.725-.725H6.627a.715.715,0,0,0-.725.725.667.667,0,0,0,.725.725Z" transform="translate(-3 -2)" fill="#707070" fill-rule="evenodd"/></svg>