<svg xmlns="http://www.w3.org/2000/svg" width="1451" height="881" viewBox="0 0 1451 881"><g transform="translate(-200 -200)"><rect width="1450" height="880" rx="34" transform="translate(200.5 200.5)" fill="#fff"/><path d="M34-.5H1416A34.472,34.472,0,0,1,1450.5,34V846a34.472,34.472,0,0,1-34.5,34.5H34A34.472,34.472,0,0,1-.5,846V34A34.472,34.472,0,0,1,34-.5Zm1382,880a33.538,33.538,0,0,0,33.5-33.5V34A33.538,33.538,0,0,0,1416,.5H34A33.538,33.538,0,0,0,.5,34V846A33.538,33.538,0,0,0,34,879.5Z" transform="translate(200.5 200.5)" fill="#e9e9e9"/></g></svg>