<svg xmlns="http://www.w3.org/2000/svg" width="53.373" height="50" viewBox="0 0 53.373 50"><g transform="translate(0 -16.18)"><path d="M50.924,33.188h-.543a25.231,25.231,0,0,0-8.739-12.044,25.009,25.009,0,0,0-29.91,0A25.231,25.231,0,0,0,2.993,33.188H2.45A2.453,2.453,0,0,0,0,35.637V46.723a2.453,2.453,0,0,0,2.45,2.45h.543a25.231,25.231,0,0,0,8.739,12.044,25.009,25.009,0,0,0,29.91,0,25.231,25.231,0,0,0,8.739-12.044h.543a2.453,2.453,0,0,0,2.45-2.45V35.637a2.453,2.453,0,0,0-2.45-2.45ZM26.687,17.744A23.323,23.323,0,0,1,48.725,33.188H42.946A18.189,18.189,0,0,0,26.687,23.06a17.99,17.99,0,0,0-10.359,3.26.782.782,0,0,0,.9,1.281,16.434,16.434,0,0,1,9.463-2.978,16.621,16.621,0,0,1,14.5,8.564H12.192a16.568,16.568,0,0,1,2.394-3.294.782.782,0,1,0-1.142-1.068,18.118,18.118,0,0,0-3.016,4.362H4.648A23.323,23.323,0,0,1,26.687,17.744Zm0,46.873A23.323,23.323,0,0,1,4.648,49.172h5.779a18.116,18.116,0,0,0,32.52,0h5.779A23.322,23.322,0,0,1,26.687,64.616ZM51.81,46.723a.887.887,0,0,1-.886.886H34.738a.782.782,0,1,0,0,1.564h6.445a16.55,16.55,0,0,1-28.992,0h18.9a.782.782,0,1,0,0-1.564H2.45a.887.887,0,0,1-.886-.886V35.637a.887.887,0,0,1,.886-.886H50.924a.887.887,0,0,1,.886.886Z" fill="#0f3b5d"/><path d="M385.685,105.144a.782.782,0,0,0,1.082-1.129l-.077-.074a.782.782,0,1,0-1.075,1.136Z" transform="translate(-345.197 -78.421)" fill="#0f3b5d"/><path d="M135.035,86.315a.779.779,0,0,0,.448-.141l.082-.057a.782.782,0,0,0-.893-1.283l-.085.059a.782.782,0,0,0,.449,1.423Z" transform="translate(-120.258 -61.371)" fill="#0f3b5d"/><path d="M189.1,59.761a.782.782,0,0,0,.237-.037l.093-.029a.782.782,0,0,0-.466-1.493l-.1.032a.782.782,0,0,0,.237,1.527Z" transform="translate(-168.688 -37.61)" fill="#0f3b5d"/><path d="M75.2,151.5a.782.782,0,0,0-1.064.3l-.051.091a.782.782,0,1,0,1.367.759l.049-.087A.782.782,0,0,0,75.2,151.5Z" transform="translate(-66.275 -121.124)" fill="#0f3b5d"/><path d="M92.019,127.53l.06-.078a.782.782,0,1,0-1.233-.961l-.065.083a.782.782,0,1,0,1.237.956Z" transform="translate(-81.172 -98.542)" fill="#0f3b5d"/><path d="M218.562,52.973a.787.787,0,0,0,.12-.009l.1-.015a.782.782,0,1,0-.239-1.545l-.1.015a.782.782,0,0,0,.118,1.555Z" transform="translate(-195.079 -31.542)" fill="#0f3b5d"/><path d="M111.645,105.419a.779.779,0,0,0,.54-.216l.072-.068A.782.782,0,1,0,111.181,104l-.076.072a.782.782,0,0,0,.54,1.347Z" transform="translate(-99.306 -78.473)" fill="#0f3b5d"/><path d="M161.047,70.968a.779.779,0,0,0,.347-.082l.087-.043a.782.782,0,0,0-.686-1.405l-.1.047a.782.782,0,0,0,.348,1.482Z" transform="translate(-143.558 -47.635)" fill="#0f3b5d"/><path d="M405.957,127.463a.782.782,0,1,0,1.237-.956l-.064-.083a.782.782,0,0,0-1.233.961Z" transform="translate(-363.436 -98.482)" fill="#0f3b5d"/><path d="M362.21,86.068l.08.056a.782.782,0,1,0,.9-1.281l-.087-.06a.782.782,0,1,0-.891,1.285Z" transform="translate(-324.15 -61.327)" fill="#0f3b5d"/><path d="M336.208,70.8l.09.044a.782.782,0,0,0,.692-1.4L336.9,69.4a.782.782,0,1,0-.688,1.4Z" transform="translate(-300.767 -47.6)" fill="#0f3b5d"/><path d="M248.737,50.744h.1a.782.782,0,1,0,0-1.564h-.106a.782.782,0,0,0,0,1.564Z" transform="translate(-222.107 -29.56)" fill="#0f3b5d"/><path d="M278.8,52.932l.1.014a.782.782,0,0,0,.239-1.545l-.106-.016a.782.782,0,1,0-.23,1.547Z" transform="translate(-249.142 -31.527)" fill="#0f3b5d"/><path d="M308.187,59.661l.095.03a.782.782,0,1,0,.472-1.491l-.1-.031a.782.782,0,1,0-.466,1.492Z" transform="translate(-275.568 -37.579)" fill="#0f3b5d"/><path d="M422.637,152.572a.782.782,0,1,0,1.368-.757l-.052-.093a.782.782,0,0,0-1.363.766Z" transform="translate(-378.447 -121.055)" fill="#0f3b5d"/><path d="M75.454,345.145a.782.782,0,0,0-1.367.759l.051.091a.782.782,0,1,0,1.365-.762Z" transform="translate(-66.275 -294.312)" fill="#0f3b5d"/><path d="M92.018,370.342a.782.782,0,0,0-1.237.956l.065.083a.782.782,0,1,0,1.233-.961Z" transform="translate(-81.171 -316.97)" fill="#0f3b5d"/><path d="M385.686,392.815l-.07.067a.782.782,0,1,0,1.075,1.136l.077-.074a.782.782,0,0,0-1.082-1.129Z" transform="translate(-345.198 -337.178)" fill="#0f3b5d"/><path d="M336.3,427.328l-.09.044a.782.782,0,1,0,.688,1.4l.094-.046a.782.782,0,0,0-.692-1.4Z" transform="translate(-300.767 -368.215)" fill="#0f3b5d"/><path d="M278.9,445.482l-.1.014a.782.782,0,0,0,.114,1.555.793.793,0,0,0,.116-.009l.106-.016a.782.782,0,1,0-.239-1.545Z" transform="translate(-249.144 -384.542)" fill="#0f3b5d"/><path d="M362.292,411.938l-.08.056a.782.782,0,1,0,.891,1.285l.087-.06a.782.782,0,0,0-.9-1.281Z" transform="translate(-324.151 -354.375)" fill="#0f3b5d"/><path d="M308.282,438.606l-.095.03a.782.782,0,1,0,.466,1.492l.1-.031a.782.782,0,0,0-.472-1.491Z" transform="translate(-275.569 -378.358)" fill="#0f3b5d"/><path d="M422.889,346.376a.782.782,0,0,0,1.065-.3l.052-.093a.782.782,0,0,0-1.368-.757l-.047.084a.782.782,0,0,0,.3,1.065Z" transform="translate(-378.447 -294.384)" fill="#0f3b5d"/><path d="M112.184,392.758a.782.782,0,1,0-1.08,1.131l.076.072a.782.782,0,0,0,1.075-1.136Z" transform="translate(-99.305 -337.128)" fill="#0f3b5d"/><path d="M189.431,438.6l-.093-.029a.782.782,0,1,0-.475,1.49l.1.032a.782.782,0,0,0,.466-1.493Z" transform="translate(-168.688 -378.33)" fill="#0f3b5d"/><path d="M248.839,447.819h-.1a.782.782,0,0,0,0,1.564h.106a.782.782,0,0,0,0-1.564Z" transform="translate(-222.107 -386.643)" fill="#0f3b5d"/><path d="M135.565,411.946l-.082-.057a.782.782,0,1,0-.9,1.281l.085.059a.782.782,0,0,0,.893-1.283Z" transform="translate(-120.258 -354.331)" fill="#0f3b5d"/><path d="M161.482,427.33l-.087-.043a.782.782,0,0,0-.7,1.4l.1.047a.782.782,0,0,0,.686-1.405Z" transform="translate(-143.558 -368.178)" fill="#0f3b5d"/><path d="M218.784,445.482l-.1-.015a.782.782,0,1,0-.239,1.545l.1.015a.782.782,0,0,0,.239-1.545Z" transform="translate(-195.079 -384.527)" fill="#0f3b5d"/><path d="M405.957,370.408l-.06.078a.782.782,0,1,0,1.233.961l.064-.083a.782.782,0,1,0-1.237-.956Z" transform="translate(-363.436 -317.029)" fill="#0f3b5d"/><path d="M123.432,214.939l-.008-.021a.94.94,0,0,0-.872-.584h0a.94.94,0,0,0-.872.586l-.007.018L119,221.96a.782.782,0,1,0,1.461.556l.474-1.246h3.219l.469,1.243a.782.782,0,1,0,1.463-.552Zm-1.9,4.769,1.021-2.681,1.012,2.681Z" transform="translate(-106.545 -177.497)" fill="#0f3b5d"/><path d="M346.408,216.209a.782.782,0,0,0,0-1.564h-2.974a.782.782,0,0,0-.782.782v7.059a.782.782,0,0,0,.782.782h2.974a.782.782,0,0,0,0-1.564h-2.192v-1.966h1.973a.782.782,0,1,0,0-1.564h-1.973v-1.966Z" transform="translate(-306.932 -177.776)" fill="#0f3b5d"/><path d="M400.922,215.343h-1.958a.782.782,0,0,0-.782.783l.014,6.914a.782.782,0,0,0,.782.779h0c.059,0,1.455-.006,2.012-.015,2.03-.035,3.5-1.811,3.5-4.223C404.5,217.046,403.059,215.343,400.922,215.343Zm.044,6.9c-.276,0-.778.009-1.208.011,0-.817-.009-4.5-.01-5.345h1.175c1.482,0,2.01,1.382,2.01,2.675S402.324,222.217,400.965,222.241Z" transform="translate(-356.674 -178.401)" fill="#0f3b5d"/><path d="M204.054,218c-.892-.329-1.722-.688-1.958-.792a.6.6,0,0,1-.226-.573.82.82,0,0,1,.643-.659,2.484,2.484,0,0,1,2.061.473.782.782,0,0,0,1-1.2,4.039,4.039,0,0,0-3.514-.771,2.4,2.4,0,0,0-1.74,1.934,2.156,2.156,0,0,0,.962,2.135.776.776,0,0,0,.109.059c.041.018,1.019.454,2.12.86.338.125,1.112.48,1,1.091a1.31,1.31,0,0,1-1.351.9,2.59,2.59,0,0,1-1.9-.8.782.782,0,1,0-1.159,1.05,4.176,4.176,0,0,0,3.062,1.313,2.83,2.83,0,0,0,2.891-2.188C206.225,219.882,205.788,218.639,204.054,218Z" transform="translate(-179.062 -177.496)" fill="#0f3b5d"/><path d="M275.43,218c-.892-.329-1.722-.688-1.958-.792a.6.6,0,0,1-.226-.573.82.82,0,0,1,.643-.659,2.484,2.484,0,0,1,2.061.473.782.782,0,0,0,1-1.2,4.039,4.039,0,0,0-3.514-.771,2.4,2.4,0,0,0-1.74,1.934,2.156,2.156,0,0,0,.962,2.135.777.777,0,0,0,.109.059c.041.018,1.019.454,2.12.86.338.125,1.112.48,1,1.091a1.31,1.31,0,0,1-1.351.9,2.59,2.59,0,0,1-1.9-.8.782.782,0,0,0-1.159,1.05,4.176,4.176,0,0,0,3.062,1.313,2.83,2.83,0,0,0,2.891-2.188C277.6,219.882,277.164,218.639,275.43,218Z" transform="translate(-242.997 -177.496)" fill="#0f3b5d"/><path d="M56.023,214.332H54.04a.779.779,0,0,0-.554.23c-.02-.022-.023-.014-.014.015a.779.779,0,0,0-.214.537v7.124a.782.782,0,0,0,1.564,0v-2.317c.426,0,.924,0,1.2,0a2.792,2.792,0,1,0,0-5.584Zm0,4.021c-.276,0-.768,0-1.192,0a.616.616,0,0,0-.009-.1v-2.328c0-.012,0-.024,0-.035h1.2a1.229,1.229,0,1,1,0,2.457Z" transform="translate(-47.706 -177.496)" fill="#0f3b5d"/><path d="M189.663,120.267a10.507,10.507,0,0,1,8.591,0,2.054,2.054,0,0,0,.845.182,2.088,2.088,0,0,0,.858-3.988,14.674,14.674,0,0,0-12,0,2.085,2.085,0,0,0,1.7,3.806Zm-1.336-2.072a.5.5,0,0,1,.274-.308,13.111,13.111,0,0,1,10.715,0,.5.5,0,0,1,.274.308.521.521,0,0,1-.045.424h0a.517.517,0,0,1-.649.221,12.07,12.07,0,0,0-9.874,0,.523.523,0,0,1-.695-.646Z" transform="translate(-167.272 -88.679)" fill="#0f3b5d"/><path d="M200.9,347.311a2.069,2.069,0,0,0-2.645-.865,10.507,10.507,0,0,1-8.591,0,2.069,2.069,0,0,0-2.645.865,2.082,2.082,0,0,0,.942,2.941,14.674,14.674,0,0,0,12,0,2.082,2.082,0,0,0,.942-2.941Zm-1.309,1.207a.5.5,0,0,1-.274.308,13.111,13.111,0,0,1-10.715,0,.5.5,0,0,1-.274-.308.521.521,0,0,1,.045-.424.527.527,0,0,1,.453-.263.479.479,0,0,1,.2.042,12.07,12.07,0,0,0,9.874,0,.517.517,0,0,1,.649.221h0a.521.521,0,0,1,.045.424Z" transform="translate(-167.271 -295.674)" fill="#0f3b5d"/></g></svg>