<svg xmlns="http://www.w3.org/2000/svg" width="143.62" height="136" viewBox="0 0 143.62 136"><g transform="translate(0 -13.582)"><path d="M1.333,71.32a8.8,8.8,0,0,0,8.122,7.818c.351.025.7.049,1.047.072A4.925,4.925,0,0,1,15.1,84.122v9.794a3.98,3.98,0,0,0,6.391,3.169c4.782-3.643,11.144-9.061,15.048-14.679a4.911,4.911,0,0,1,4.07-2.1q18.028.091,36.055-1.171a8.785,8.785,0,0,0,7.463-5.3,8.644,8.644,0,0,0,.658-2.5,223.5,223.5,0,0,0,0-48.782,8.785,8.785,0,0,0-8.117-7.8A479.127,479.127,0,0,0,22.956,14q-6.749.28-13.5.755a8.788,8.788,0,0,0-8.122,7.8,223.46,223.46,0,0,0,0,48.762Z" fill="#9dc6fb"/><path d="M276.306,240.815a9.332,9.332,0,0,1-8.614,8.292c-.372.026-.741.052-1.111.076a5.224,5.224,0,0,0-4.872,5.21v10.387a4.222,4.222,0,0,1-6.779,3.361c-5.072-3.864-11.82-9.61-15.96-15.569a5.208,5.208,0,0,0-4.317-2.224q-19.121.1-38.242-1.242a9.318,9.318,0,0,1-7.916-5.623,9.178,9.178,0,0,1-.7-2.648,237.05,237.05,0,0,1,0-51.74,9.318,9.318,0,0,1,8.609-8.271,508.138,508.138,0,0,1,56.965-.8q7.158.3,14.318.8A9.32,9.32,0,0,1,276.3,189.1,236.99,236.99,0,0,1,276.306,240.815Z" transform="translate(-134.1 -119.431)" fill="#ffd650"/><g transform="translate(78.227 83.124)"><path d="M287,268.239c0-3.718-1.821-6.743-4.06-6.743s-4.06,3.025-4.06,6.743,1.821,6.743,4.06,6.743S287,271.957,287,268.239Z" transform="translate(-278.875 -261.496)" fill="#454045"/><path d="M394.618,261.5c-2.239,0-4.06,3.025-4.06,6.743s1.821,6.743,4.06,6.743,4.06-3.025,4.06-6.743S396.857,261.5,394.618,261.5Z" transform="translate(-359.23 -261.496)" fill="#454045"/><path d="M323.725,325.635a2.168,2.168,0,0,0-2.839,1.155,12.218,12.218,0,0,1-22.52,0,2.167,2.167,0,0,0-3.994,1.684,16.552,16.552,0,0,0,30.508,0A2.167,2.167,0,0,0,323.725,325.635Z" transform="translate(-289.902 -307.521)" fill="#454045"/></g><g transform="translate(12.058 27.408)"><path d="M94.151,67.206h-49a2.167,2.167,0,0,1,0-4.334h49a2.167,2.167,0,1,1,0,4.334Z" transform="translate(-42.985 -62.872)" fill="#f9f6f9"/><path d="M94.151,112.45h-49a2.167,2.167,0,0,1,0-4.334h49a2.167,2.167,0,0,1,0,4.334Z" transform="translate(-42.985 -95.425)" fill="#f9f6f9"/><path d="M62.635,157.693H45.152a2.167,2.167,0,0,1,0-4.334H62.635a2.167,2.167,0,0,1,0,4.334Z" transform="translate(-42.985 -127.977)" fill="#f9f6f9"/></g></g></svg>