<svg xmlns="http://www.w3.org/2000/svg" xmlns:xlink="http://www.w3.org/1999/xlink" width="612.143" height="733.077" viewBox="0 0 612.143 733.077"><defs><clipPath id="a"><rect width="218" height="111" transform="translate(29 159)" fill="#fff" stroke="#707070" stroke-width="1"/></clipPath></defs><g transform="translate(-789.626 -270.024)"><path d="M460.629,344.64h-6.1v-1.747h6.1Zm-16.58,0H433.568v-1.747h10.481Zm-20.961,0H412.607v-1.747h10.481Zm-20.961,0H391.646v-1.747h10.481Zm-20.961,0H370.685v-1.747h10.481Zm-20.961,0H349.724v-1.747H360.2Zm-20.961,0H328.763v-1.747h10.481Zm-20.961,0H307.8v-1.747h10.481Zm-20.961,0H286.841v-1.747h10.481Zm-20.961,0H265.88v-1.747h10.481Zm-20.961,0H244.919v-1.747H255.4Zm-20.961,0H223.958v-1.747h10.481Zm-20.961,0H203v-1.747h10.481Zm-20.961,0H182.036v-1.747h10.481Zm-20.961,0H161.075v-1.747h10.481Zm-20.961,0H140.114v-1.747h10.481Zm-20.961,0H119.153v-1.747h10.481Zm-20.961,0H98.192v-1.747h10.481ZM87.7,344.632a76.957,76.957,0,0,1-10.556-.882l.266-1.726a75.21,75.21,0,0,0,10.315.862ZM66.81,341.4a73.23,73.23,0,0,1-9.892-3.8l.744-1.58a71.47,71.47,0,0,0,9.655,3.712Zm-19.121-9.02a68.613,68.613,0,0,1-8.335-6.558l1.184-1.284a66.88,66.88,0,0,0,8.122,6.391ZM32.157,318.026a62.325,62.325,0,0,1-5.806-8.889l1.539-.826a60.573,60.573,0,0,0,5.643,8.639Zm-9.976-18.659A58.037,58.037,0,0,1,19.845,289l1.732-.226a56.286,56.286,0,0,0,2.265,10.053ZM21.146,278.46l-1.746-.065a57.972,57.972,0,0,1,1.369-10.537l1.7.383A56.224,56.224,0,0,0,21.146,278.46Zm4.5-20.027-1.607-.686a60.837,60.837,0,0,1,5.013-9.362l1.462.955A59.081,59.081,0,0,0,25.644,258.433ZM36.864,241.2l-1.284-1.185a67.129,67.129,0,0,1,7.794-7.2l1.08,1.373A65.382,65.382,0,0,0,36.864,241.2Zm16.18-12.761-.86-1.521a72.243,72.243,0,0,1,9.587-4.52l.627,1.63A70.5,70.5,0,0,0,53.044,228.441ZM72.3,221.02l-.387-1.7A75.926,75.926,0,0,1,82.38,217.7l.146,1.741A74.168,74.168,0,0,0,72.3,221.02Zm489.728-1.843h-7.957V217.43h7.957c.829,0,1.669-.014,2.5-.041l.057,1.746C563.733,219.163,562.874,219.177,562.026,219.177Zm-18.438,0h-10.48V217.43h10.48Zm-20.961,0h-10.48V217.43h10.48Zm-20.961,0h-10.48V217.43h10.48Zm-20.961,0h-10.48V217.43h10.48Zm-20.961,0h-10.48V217.43h10.48Zm-20.961,0H428.3V217.43h10.48Zm-20.961,0h-10.48V217.43h10.48Zm-20.961,0h-10.48V217.43h10.48Zm-20.961,0H365.42V217.43H375.9Zm-20.961,0h-10.48V217.43h10.48Zm-20.961,0H323.5V217.43h10.48Zm-20.961,0h-10.48V217.43h10.48Zm-20.961,0h-10.48V217.43h10.48Zm-20.961,0h-10.48V217.43H271.1Zm-20.961,0h-10.48V217.43h10.48Zm-20.961,0h-10.48V217.43h10.48Zm-20.961,0h-10.48V217.43h10.48Zm-20.961,0h-10.48V217.43h10.48Zm-20.961,0H155.81V217.43h10.48Zm-20.961,0h-10.48V217.43h10.48Zm-20.961,0h-10.48V217.43h10.48Zm-20.961,0H92.927V217.43h10.48Zm471.71-1.119-.3-1.721a73.014,73.014,0,0,0,10.045-2.484l.539,1.661A74.759,74.759,0,0,1,575.117,218.057Zm20.1-6.539-.775-1.565a69.124,69.124,0,0,0,8.9-5.267l1,1.432A70.877,70.877,0,0,1,595.219,211.518Zm17.32-12.131-1.211-1.259a63.363,63.363,0,0,0,6.837-7.738l1.4,1.045A65.119,65.119,0,0,1,612.54,199.388Zm12.628-16.973-1.558-.789a57.518,57.518,0,0,0,3.819-9.576l1.674.5A59.273,59.273,0,0,1,625.167,182.415Zm6.016-20.288-1.737-.183a56.624,56.624,0,0,0,.31-5.908c0-1.465-.057-2.945-.171-4.4l1.741-.136c.117,1.5.176,3.024.176,4.534A58.388,58.388,0,0,1,631.183,162.127Zm-3.342-20.646a57.228,57.228,0,0,0-3.564-9.673l1.578-.749a58.972,58.972,0,0,1,3.673,9.969Zm-8.782-18.572a62.885,62.885,0,0,0-6.647-7.9l1.24-1.23a64.636,64.636,0,0,1,6.832,8.121Zm-14.48-14.639a68.772,68.772,0,0,0-8.779-5.462l.809-1.548a70.516,70.516,0,0,1,9,5.6ZM586.305,98.7a72.763,72.763,0,0,0-9.99-2.694l.334-1.715a74.52,74.52,0,0,1,10.23,2.759Zm-20.263-3.957c-1.329-.07-2.68-.106-4.016-.106h-6.417V92.894h6.417c1.367,0,2.75.037,4.109.109Zm-20.914-.106h-10.48V92.894h10.48Zm-20.961,0h-10.48V92.894h10.48Zm-20.961,0h-10.48V92.894h10.48Zm-20.961,0h-10.48V92.894h10.48Zm-20.961,0H450.8V92.894h10.48Zm-20.961,0h-10.48V92.894h10.48Zm-20.961,0h-10.48V92.894h10.48Zm-20.961,0h-10.48V92.894H398.4Zm-20.961,0H366.96V92.894h10.48Zm-20.961,0H346V92.894h10.48Zm-20.961,0h-10.48V92.894h10.48Zm-20.961,0h-10.48V92.894h10.48Zm-20.961,0h-10.48V92.894H293.6Zm-20.961,0h-10.48V92.894h10.48Zm-20.961,0h-10.48V92.894h10.48Zm-20.961,0h-10.48V92.894h10.48Z" transform="translate(770.267 282.987)" fill="#a8d9ff"/><path d="M453.478,344.64H443v-1.747h10.481Zm-20.961,0H422.036v-1.747h10.481Zm-20.961,0H401.075v-1.747h10.481Zm-20.961,0H380.114v-1.747h10.481Zm-20.961,0H359.153v-1.747h10.481Zm-20.961,0H338.192v-1.747h10.481Zm-20.961,0H317.231v-1.747h10.481Zm-20.961,0H296.27v-1.747h10.481Zm-20.961,0H275.309v-1.747H285.79Zm-20.961,0H254.348v-1.747h10.481Zm-20.961,0H233.387v-1.747h10.481Zm-20.961,0H212.426v-1.747h10.481Zm-20.961,0H191.465v-1.747h10.481Zm-20.961,0H170.5v-1.747h10.481Zm-20.961,0H149.543v-1.747h10.481Zm-20.961,0H128.582v-1.747h10.481Zm-20.961,0H107.621v-1.747H118.1Zm-20.961,0h-8.3c-.731,0-1.472-.01-2.2-.031l.049-1.746c.713.02,1.437.03,2.152.03h8.3Zm-21.049-1.06a74.836,74.836,0,0,1-10.3-2.5l.531-1.664a73.086,73.086,0,0,0,10.056,2.437Zm-20.134-6.443a70.976,70.976,0,0,1-9.15-5.355l.993-1.437a69.2,69.2,0,0,0,8.924,5.222ZM38.577,325.095a65.223,65.223,0,0,1-7.069-7.914l1.394-1.052a63.481,63.481,0,0,0,6.879,7.7Zm-12.722-16.9a59.345,59.345,0,0,1-3.994-9.844l1.671-.508a57.6,57.6,0,0,0,3.876,9.553Zm-6.138-20.252a58.36,58.36,0,0,1-.357-6.442v-.928c0-1.078.03-2.169.09-3.242l1.744.1c-.058,1.041-.087,2.1-.087,3.145v.928a56.611,56.611,0,0,0,.346,6.248Zm2.993-20.708-1.7-.415a58.756,58.756,0,0,1,3.452-10.048l1.594.714A57.012,57.012,0,0,0,22.709,267.233Zm8.378-18.755-1.446-.98a64.246,64.246,0,0,1,6.668-8.257l1.264,1.205A62.494,62.494,0,0,0,31.087,248.477Zm14.188-14.919-1.059-1.389a70.22,70.22,0,0,1,8.9-5.766l.837,1.533A68.469,68.469,0,0,0,45.275,233.559Zm18.1-9.895-.6-1.639a74.3,74.3,0,0,1,10.181-2.937l.363,1.709A72.541,72.541,0,0,0,63.371,223.664Zm20.191-4.3-.122-1.742c1.783-.125,3.6-.188,5.4-.188h5.142v1.747H88.836C87.079,219.177,85.305,219.238,83.562,219.36Zm471.558-.183H544.64V217.43h10.48Zm-20.961,0h-10.48V217.43h10.48Zm-20.961,0h-10.48V217.43H513.2Zm-20.961,0h-10.48V217.43h10.48Zm-20.961,0H460.8V217.43h10.48Zm-20.961,0h-10.48V217.43h10.48Zm-20.961,0h-10.48V217.43h10.48Zm-20.961,0h-10.48V217.43h10.48Zm-20.961,0h-10.48V217.43h10.48Zm-20.961,0h-10.48V217.43h10.48Zm-20.961,0H335.03V217.43h10.48Zm-20.961,0h-10.48V217.43h10.48Zm-20.961,0h-10.48V217.43h10.48Zm-20.961,0h-10.48V217.43h10.48Zm-20.961,0h-10.48V217.43h10.48Zm-20.961,0h-10.48V217.43h10.48Zm-20.961,0h-10.48V217.43h10.48Zm-20.961,0H188.3V217.43h10.48Zm-20.961,0h-10.48V217.43h10.48Zm-20.961,0h-10.48V217.43h10.48Zm-20.961,0H125.42V217.43H135.9Zm-20.961,0h-10.48V217.43h10.48Zm450.7-.084-.081-1.745a74.717,74.717,0,0,0,10.282-1.2l.322,1.717A76.456,76.456,0,0,1,565.64,219.093Zm20.772-3.915-.563-1.653a71.03,71.03,0,0,0,9.523-4.039l.8,1.554A72.787,72.787,0,0,1,586.412,215.178Zm18.8-9.676-1.023-1.416a66.188,66.188,0,0,0,7.882-6.682l1.231,1.239A67.949,67.949,0,0,1,605.211,205.5ZM620.2,190.575l-1.417-1.021a59.86,59.86,0,0,0,5.29-8.857l1.572.762A61.617,61.617,0,0,1,620.2,190.575Zm9.2-19.054-1.683-.467a56.19,56.19,0,0,0,1.831-10.141l1.74.151A57.943,57.943,0,0,1,629.4,171.521Zm.1-20.916a56.2,56.2,0,0,0-1.931-10.123l1.679-.483a57.957,57.957,0,0,1,1.991,10.438Zm-5.669-19.73a60.031,60.031,0,0,0-5.372-8.808l1.408-1.034a61.782,61.782,0,0,1,5.529,9.065Zm-12.15-16.6a66.342,66.342,0,0,0-7.938-6.615l1.011-1.425a68.113,68.113,0,0,1,8.148,6.79Zm-16.8-11.944a71.139,71.139,0,0,0-9.554-3.964l.551-1.658a72.88,72.88,0,0,1,9.789,4.062Zm-19.582-6.515A74.815,74.815,0,0,0,565,94.7l.068-1.745A76.564,76.564,0,0,1,575.6,94.1ZM554.557,94.64h-10.48V92.894h10.48Zm-20.961,0h-10.48V92.894H533.6Zm-20.961,0h-10.48V92.894h10.48Zm-20.961,0h-10.48V92.894h10.48Zm-20.961,0h-10.48V92.894h10.48Z" transform="translate(770.267 533.487)" fill="#a8d9ff"/><path d="M555.12,219.177H544.64V217.43H555.12Zm-20.961,0H523.679V217.43h10.481Zm-20.961,0h-10.48V217.43H513.2Zm-20.961,0h-10.48V217.43h10.48Zm-20.961,0H460.8V217.43h10.48Zm-20.961,0h-10.48V217.43h10.48Zm-20.961,0h-10.48V217.43h10.48Zm-20.961,0h-10.48V217.43h10.48Zm-20.961,0h-10.48V217.43h10.48Zm-20.961,0h-10.48V217.43h10.48Zm-20.961,0H335.03V217.43h10.48Zm-20.961,0h-10.48V217.43h10.48Zm-20.961,0h-10.48V217.43h10.48Zm-20.961,0h-10.48V217.43h10.48Zm-20.961,0h-2.83V217.43h2.83Zm303.974-.084-.081-1.745a74.7,74.7,0,0,0,10.282-1.2l.323,1.717A76.456,76.456,0,0,1,565.64,219.093Zm20.772-3.915-.563-1.653a71.028,71.028,0,0,0,9.523-4.039l.8,1.554A72.783,72.783,0,0,1,586.412,215.178Zm18.8-9.676-1.022-1.416a66.191,66.191,0,0,0,7.882-6.682l1.231,1.239A67.944,67.944,0,0,1,605.211,205.5ZM620.2,190.575l-1.417-1.021a59.864,59.864,0,0,0,5.29-8.857l1.572.762A61.62,61.62,0,0,1,620.2,190.575Zm9.2-19.054-1.683-.467a56.192,56.192,0,0,0,1.831-10.141l1.74.151A57.944,57.944,0,0,1,629.4,171.521Zm.1-20.916a56.2,56.2,0,0,0-1.931-10.123l1.679-.483a57.96,57.96,0,0,1,1.991,10.438Zm-5.669-19.73a60.029,60.029,0,0,0-5.372-8.808l1.408-1.034a61.777,61.777,0,0,1,5.529,9.065Zm-12.15-16.6a66.351,66.351,0,0,0-7.938-6.615l1.011-1.425a68.1,68.1,0,0,1,8.148,6.79Zm-16.8-11.944a71.126,71.126,0,0,0-9.554-3.964l.55-1.658a72.891,72.891,0,0,1,9.789,4.062Zm-19.582-6.515A74.809,74.809,0,0,0,565,94.7l.068-1.745A76.563,76.563,0,0,1,575.6,94.1ZM554.557,94.64h-10.48V92.894h10.48Zm-20.961,0h-10.48V92.894H533.6Zm-20.961,0h-10.48V92.894h10.48Zm-20.961,0h-10.48V92.894h10.48Zm-20.961,0h-10.48V92.894h10.48Z" transform="translate(770.267 783.925)" fill="#a8d9ff"/><g transform="translate(761.5 111.024)" clip-path="url(#a)"><rect width="358" height="102" rx="51" transform="translate(32 165)" fill="rgba(255,255,255,0)"/><path d="M51,1.75A49.263,49.263,0,0,0,31.83,96.38,48.94,48.94,0,0,0,51,100.25H307A49.263,49.263,0,0,0,326.17,5.62,48.94,48.94,0,0,0,307,1.75H51M51,0H307a51,51,0,0,1,0,102H51A51,51,0,0,1,51,0Z" transform="translate(32 165)" fill="#0f3b5d"/></g></g></svg>