<svg xmlns="http://www.w3.org/2000/svg" width="22" height="22" viewBox="0 0 22 22"><g transform="translate(-277 -228)"><circle cx="11" cy="11" r="11" transform="translate(277 228)" fill="#f2f9ff"/><g transform="translate(208.332 230.73)"><path d="M121.4,0a4.068,4.068,0,0,0-4.063,4.063v2.5a.313.313,0,0,0,.313.313h1.25a.313.313,0,0,0,.313-.313v-2.5a2.187,2.187,0,1,1,4.375,0v2.5a.313.313,0,0,0,.313.313h1.25a.313.313,0,0,0,.313-.313v-2.5A4.068,4.068,0,0,0,121.4,0Z" transform="translate(-41.416)" fill="#455a64"/><path d="M76.229,213.333h7.5a1.562,1.562,0,0,1,1.562,1.563v5.625a1.563,1.563,0,0,1-1.562,1.563h-7.5a1.562,1.562,0,0,1-1.562-1.562V214.9A1.563,1.563,0,0,1,76.229,213.333Z" transform="translate(0 -207.083)" fill="#ffc107"/><path d="M205.792,278.678a1.562,1.562,0,1,0-2.256,1.394l-.241,1.688a.313.313,0,0,0,.309.356h1.25a.312.312,0,0,0,.312-.357l-.241-1.687A1.568,1.568,0,0,0,205.792,278.678Z" transform="translate(-124.25 -268.99)" fill="#455a64"/></g></g></svg>