<svg xmlns="http://www.w3.org/2000/svg" xmlns:xlink="http://www.w3.org/1999/xlink" width="157" height="107" viewBox="0 0 157 107"><defs><clipPath id="a"><rect width="157" height="107" transform="translate(1693 1536)" fill="#fff" stroke="#707070" stroke-width="1"/></clipPath><linearGradient id="b" x1="-0.028" y1="-0.035" x2="0.916" y2="1.049" gradientUnits="objectBoundingBox"><stop offset="0" stop-color="#56ccf2"/><stop offset="1" stop-color="#01ff88"/></linearGradient></defs><g transform="translate(-1693 -1536)" clip-path="url(#a)"><path d="M1552.826,1130.54c-7.342,0-15.736-.247-24.548-.971-18.037-1.483-34.116-4.628-47.791-9.346a112.542,112.542,0,0,1-22-10.173,76.558,76.558,0,0,1-18.107-15.118,50.684,50.684,0,0,1-5.692-8.033,47.384,47.384,0,0,1-3.738-8.383,54.742,54.742,0,0,1-2.681-17.333c-.052-11.554,2.76-23.319,5.479-34.7,2.884-12.069,5.609-23.469,4.768-33.651-.916-11.081-6.032-19.194-16.1-25.532-13.3-8.369-32.378-9.778-46.042-9.485a170.286,170.286,0,0,0-26.911,2.713l-.1.019a111.357,111.357,0,0,1-20.317.961,75.691,75.691,0,0,1-17.528-2.662c-6.546-1.892-11.837-4.755-15.726-8.509-4-3.855-7.086-9.2-9.183-15.891a76.673,76.673,0,0,1-3.1-18.015,114.547,114.547,0,0,1,.632-21.059l4.951.7a111.65,111.65,0,0,0-.587,20.134c.623,9.793,3,23.039,10.763,30.531,7.575,7.313,20.5,9.352,30,9.774a108.38,108.38,0,0,0,19.266-.9,173.058,173.058,0,0,1,27.738-2.8,128.979,128.979,0,0,1,24.938,1.691c9.461,1.666,17.493,4.547,23.874,8.562a46.23,46.23,0,0,1,8,6.286,35.769,35.769,0,0,1,5.562,7.1,36.52,36.52,0,0,1,4.862,15.963,69.708,69.708,0,0,1-1.026,17.258c-.969,5.86-2.44,12.015-3.862,17.966-5.3,22.167-10.776,45.088,5.555,64.018,19.94,23.1,56.968,30.655,84.52,32.921a311.559,311.559,0,0,0,39.419.594c10.063-.479,16.458-1.27,16.521-1.278l.621,4.961c-.267.033-6.65.823-16.9,1.311C1564.1,1130.376,1558.813,1130.54,1552.826,1130.54Z" transform="translate(410.061 640.86)" opacity="0.2" fill="url(#b)"/></g></svg>