<svg xmlns="http://www.w3.org/2000/svg" width="20.177" height="16" viewBox="0 0 20.177 16"><path d="M22.368,17.739a.781.781,0,0,1-.168.251l-2.07,2.07a.776.776,0,0,1-1.1-1.1l.744-.745H17.969a3.858,3.858,0,0,1-3.029-1.457L8.525,8.751a2.313,2.313,0,0,0-1.816-.88H3.026a.776.776,0,1,1,0-1.552H6.709A3.858,3.858,0,0,1,9.738,7.776l6.415,8.016a2.313,2.313,0,0,0,1.816.874h1.809l-.744-.745a.776.776,0,0,1,1.1-1.1l2.07,2.07a.777.777,0,0,1,.168.845Zm-7.959-7.282a.774.774,0,0,0,.606-.291l1.138-1.423a2.315,2.315,0,0,1,1.816-.873h1.809l-.744.745a.776.776,0,1,0,1.1,1.1l2.07-2.07a.777.777,0,0,0,0-1.1l-2.07-2.07a.776.776,0,0,0-1.1,1.1l.744.745H17.969A3.86,3.86,0,0,0,14.94,7.775L13.8,9.2a.777.777,0,0,0,.606,1.261ZM9.663,14.37,8.525,15.793a2.315,2.315,0,0,1-1.816.873H3.026a.776.776,0,1,0,0,1.552H6.709a3.86,3.86,0,0,0,3.029-1.456l1.138-1.422a.777.777,0,0,0-1.213-.971Z" transform="translate(-2.25 -4.269)" fill="#0f3b5d"/></svg>