<svg xmlns="http://www.w3.org/2000/svg" width="55" height="55" viewBox="0 0 55 55"><g transform="translate(-898.5 -738.206)"><g transform="translate(898.5 738.206)"><g transform="translate(0)"><path d="M27.5,0A27.5,27.5,0,1,0,55,27.5,27.5,27.5,0,0,0,27.5,0" transform="translate(0 0)" fill="#8fbdfd" fill-rule="evenodd"/></g></g><g transform="translate(911.5 748.373)"><path d="M3.438,29.833a4.762,4.762,0,0,1-1.562-.258l-1.128-.39.867-.821a4.534,4.534,0,0,0,1.455-3.278A11.587,11.587,0,0,1,0,17.333c0-6.892,6.393-12.5,14.251-12.5S28.5,10.441,28.5,17.333s-6.393,12.5-14.251,12.5a15.871,15.871,0,0,1-6.7-1.47A7.5,7.5,0,0,1,3.438,29.833Zm3.938-3.172.416.211a14.371,14.371,0,0,0,6.458,1.512c7.059,0,12.8-4.957,12.8-11.05S21.309,6.283,14.25,6.283s-12.8,4.957-12.8,11.05A10.179,10.179,0,0,0,4.32,24.3l.188.2.009.274A6,6,0,0,1,3.5,28.383a6.488,6.488,0,0,0,3.516-1.431Z" transform="translate(0)" fill="#fff"/><path d="M16.692,36.924a5.477,5.477,0,0,1-1.3-.125,2.312,2.312,0,0,1-.689-.255c-.032-.032-.044-.1-.036-.22a2.3,2.3,0,0,1,.054-.356,1.636,1.636,0,0,1,.107-.326c.043-.095.085-.139.125-.131q.309.107.672.208a3.523,3.523,0,0,0,.921.1,2.506,2.506,0,0,0,.97-.166.6.6,0,0,0,.4-.595.765.765,0,0,0-.262-.6,3.266,3.266,0,0,0-.939-.493,6.708,6.708,0,0,1-.7-.316,2.65,2.65,0,0,1-.577-.4,1.67,1.67,0,0,1-.392-.553,1.859,1.859,0,0,1-.143-.761,1.717,1.717,0,0,1,.137-.678,1.422,1.422,0,0,1,.422-.553,2.144,2.144,0,0,1,.732-.368,3.651,3.651,0,0,1,1.064-.137q.4,0,.672.018a4.4,4.4,0,0,1,.44.048,1.977,1.977,0,0,1,.279.066c.071.024.139.043.2.059s.083.093.083.208a1.584,1.584,0,0,1-.048.369,1.367,1.367,0,0,1-.13.345q-.084.149-.167.125-.2-.059-.553-.13a3.408,3.408,0,0,0-.684-.071,1.649,1.649,0,0,0-.933.19.6.6,0,0,0-.256.511.651.651,0,0,0,.286.553,3.642,3.642,0,0,0,.892.422,3.852,3.852,0,0,1,1.421.874,1.757,1.757,0,0,1,.458,1.243,1.831,1.831,0,0,1-.214.928,1.605,1.605,0,0,1-.571.582,2.479,2.479,0,0,1-.814.3A4.966,4.966,0,0,1,16.692,36.924Z" transform="translate(-9.353 -16.172)" fill="#fff"/><path d="M35.127,37.157a.454.454,0,0,1-.326-.083.48.48,0,0,1-.077-.321V32.591q-.476.773-.732,1.195c-.171.282-.295.488-.374.619s-.127.208-.143.232a.121.121,0,0,0-.023.048c-.071.119-.121.2-.149.232a.212.212,0,0,1-.173.053h-.19a.275.275,0,0,1-.2-.053,1.428,1.428,0,0,1-.143-.232l-1.213-2.069v4.21a.472.472,0,0,1-.054.244q-.053.089-.279.089h-.5a.734.734,0,0,1-.292-.054c-.083-.036-.125-.152-.125-.351V31.045a.415.415,0,0,1,.089-.315.379.379,0,0,1,.256-.077h.595a.593.593,0,0,1,.22.036.455.455,0,0,1,.184.178l1.581,2.521,1.582-2.5a.432.432,0,0,1,.173-.184.415.415,0,0,1,.2-.053h.654c.151,0,.237.032.262.095a.961.961,0,0,1,.036.309v5.755a.55.55,0,0,1-.047.262c-.032.056-.123.083-.273.083Z" transform="translate(-19.215 -16.465)" fill="#fff"/><path d="M51.286,36.924a5.475,5.475,0,0,1-1.3-.125,2.308,2.308,0,0,1-.689-.255c-.032-.032-.044-.1-.036-.22a2.255,2.255,0,0,1,.053-.356,1.613,1.613,0,0,1,.107-.326c.043-.1.084-.139.125-.131q.309.107.672.208a3.5,3.5,0,0,0,.921.1,2.507,2.507,0,0,0,.97-.166.6.6,0,0,0,.4-.595.764.764,0,0,0-.262-.6,3.269,3.269,0,0,0-.94-.493,6.743,6.743,0,0,1-.7-.316,2.661,2.661,0,0,1-.577-.4,1.675,1.675,0,0,1-.392-.553,1.855,1.855,0,0,1-.143-.761,1.723,1.723,0,0,1,.137-.678,1.426,1.426,0,0,1,.422-.553,2.142,2.142,0,0,1,.731-.368,3.656,3.656,0,0,1,1.064-.137q.4,0,.672.018a4.424,4.424,0,0,1,.441.048,2,2,0,0,1,.279.066c.071.024.139.043.2.059s.083.093.083.208a1.566,1.566,0,0,1-.048.369,1.367,1.367,0,0,1-.13.345q-.084.149-.167.125c-.134-.039-.32-.083-.553-.13a3.41,3.41,0,0,0-.684-.071,1.648,1.648,0,0,0-.933.19.6.6,0,0,0-.256.511.651.651,0,0,0,.286.553,3.635,3.635,0,0,0,.892.422,3.855,3.855,0,0,1,1.421.874,1.757,1.757,0,0,1,.458,1.243,1.831,1.831,0,0,1-.214.928,1.605,1.605,0,0,1-.571.582,2.479,2.479,0,0,1-.814.3A4.968,4.968,0,0,1,51.286,36.924Z" transform="translate(-31.413 -16.172)" fill="#fff"/></g></g></svg>