<svg xmlns="http://www.w3.org/2000/svg" width="31.713" height="33" viewBox="0 0 31.713 33"><g transform="translate(-9.988)"><g transform="translate(9.988)"><path d="M41.288,21.413,34.272,16.5l7.016-4.913a.967.967,0,0,0,.237-1.346L37.089,3.905a.967.967,0,0,0-1.346-.237L30.678,7.214V.967A.967.967,0,0,0,29.711,0H21.977a.967.967,0,0,0-.967.967V7.214L15.945,3.668a.967.967,0,0,0-1.346.237l-4.436,6.336a.967.967,0,0,0,.237,1.346L17.416,16.5,10.4,21.413a.967.967,0,0,0-.237,1.346L14.6,29.095a.967.967,0,0,0,1.346.237l5.065-3.546v6.247a.967.967,0,0,0,.967.967h7.734a.967.967,0,0,0,.967-.967V25.786l5.065,3.546a.967.967,0,0,0,1.346-.237l4.436-6.336A.967.967,0,0,0,41.288,21.413ZM36.06,27.194l-5.794-4.057a.967.967,0,0,0-1.521.792v7.138h-5.8V23.929a.967.967,0,0,0-1.521-.792l-5.794,4.057L12.3,22.442l7.355-5.15a.967.967,0,0,0,0-1.584L12.3,10.558l3.327-4.752,5.794,4.057a.967.967,0,0,0,1.521-.792V1.934h5.8V9.071a.967.967,0,0,0,1.521.792L36.06,5.806l3.327,4.752-7.355,5.15a.967.967,0,0,0,0,1.584l7.355,5.15Z" transform="translate(-9.988)" fill="#00ba5c"/></g></g></svg>