<svg xmlns="http://www.w3.org/2000/svg" width="36.317" height="29.714" viewBox="0 0 36.317 29.714"><path d="M30.714,1H7.6A6.623,6.623,0,0,0,1,7.6V24.111a6.623,6.623,0,0,0,6.6,6.6H30.714a6.623,6.623,0,0,0,6.6-6.6V7.6A6.623,6.623,0,0,0,30.714,1Zm3.3,23.111a3.3,3.3,0,0,1-3.3,3.3H7.6a3.3,3.3,0,0,1-3.3-3.3V7.6A3.3,3.3,0,0,1,7.6,4.3H30.714a3.3,3.3,0,0,1,3.3,3.3ZM23.451,9.254l-4.292,4.292L14.867,9.254l-2.311,2.311,4.292,4.292-4.292,4.292,2.311,2.311,4.292-4.292,4.292,4.292,2.311-2.311L21.47,15.857l4.292-4.292Z" transform="translate(-1 -1)" fill="#fff"/></svg>