<svg xmlns="http://www.w3.org/2000/svg" width="19.556" height="16" viewBox="0 0 19.556 16"><path d="M17,1H4.556A3.566,3.566,0,0,0,1,4.556v8.889A3.566,3.566,0,0,0,4.556,17H17a3.566,3.566,0,0,0,3.556-3.556V4.556A3.566,3.566,0,0,0,17,1Zm1.778,12.444A1.779,1.779,0,0,1,17,15.222H4.556a1.779,1.779,0,0,1-1.778-1.778V4.556A1.779,1.779,0,0,1,4.556,2.778H17a1.779,1.779,0,0,1,1.778,1.778Zm-5.689-8L10.778,7.756,8.467,5.444,7.222,6.689,9.533,9,7.222,11.311l1.244,1.244,2.311-2.311,2.311,2.311,1.244-1.244L12.022,9l2.311-2.311Z" transform="translate(-1 -1)" fill="#8e8e8e"/></svg>