<svg xmlns="http://www.w3.org/2000/svg" width="18.5" height="20.5" viewBox="0 0 18.5 20.5"><g transform="translate(-2.75 -1.75)"><path d="M18,22H6a3,3,0,0,1-3-3V5A3,3,0,0,1,6,2H18a3,3,0,0,1,3,3V19A3,3,0,0,1,18,22ZM6,4A1,1,0,0,0,5,5V19a1,1,0,0,0,1,1H18a1,1,0,0,0,1-1V5a1,1,0,0,0-1-1Z"/><path d="M18,22.25H6A3.254,3.254,0,0,1,2.75,19V5A3.254,3.254,0,0,1,6,1.75H18A3.254,3.254,0,0,1,21.25,5V19A3.254,3.254,0,0,1,18,22.25ZM6,2.25A2.753,2.753,0,0,0,3.25,5V19A2.753,2.753,0,0,0,6,21.75H18A2.753,2.753,0,0,0,20.75,19V5A2.753,2.753,0,0,0,18,2.25Zm12,18H6A1.251,1.251,0,0,1,4.75,19V5A1.251,1.251,0,0,1,6,3.75H18A1.251,1.251,0,0,1,19.25,5V19A1.251,1.251,0,0,1,18,20.25ZM6,4.25A.751.751,0,0,0,5.25,5V19a.751.751,0,0,0,.75.75H18a.751.751,0,0,0,.75-.75V5A.751.751,0,0,0,18,4.25Z" fill="#f3f2f8"/><path d="M12,7.5H8a1,1,0,0,1,0-2h4a1,1,0,0,1,0,2Z"/><path d="M12,7.75H8a1.25,1.25,0,0,1,0-2.5h4a1.25,1.25,0,0,1,0,2.5Zm-4-2a.75.75,0,0,0,0,1.5h4a.75.75,0,0,0,0-1.5Z" fill="#f3f2f8"/><path d="M16,11.17H8a1,1,0,0,1,0-2h8a1,1,0,1,1,0,2Z"/><path d="M16,11.42H8a1.25,1.25,0,0,1,0-2.5h8a1.25,1.25,0,0,1,0,2.5Zm-8-2a.75.75,0,0,0,0,1.5h8a.75.75,0,0,0,0-1.5Z" fill="#f3f2f8"/><path d="M16,14.83H8a1,1,0,1,1,0-2h8a1,1,0,0,1,0,2Z"/><path d="M16,15.08H8a1.25,1.25,0,1,1,0-2.5h8a1.25,1.25,0,0,1,0,2.5Zm-8-2a.75.75,0,1,0,0,1.5h8a.75.75,0,0,0,0-1.5Z" fill="#f3f2f8"/><path d="M16,18.5H8a1,1,0,0,1,0-2h8a1,1,0,0,1,0,2Z"/><path d="M16,18.75H8a1.25,1.25,0,0,1,0-2.5h8a1.25,1.25,0,0,1,0,2.5Zm-8-2a.75.75,0,0,0,0,1.5h8a.75.75,0,0,0,0-1.5Z" fill="#f3f2f8"/></g></svg>