<svg xmlns="http://www.w3.org/2000/svg" width="35.021" height="33.429" viewBox="0 0 35.021 33.429"><path d="M160.41,11.64c-1.43,0-2.152.752-2.174,4.472-.007,3.18-2.765,5.814-4.938,7.391a1.731,1.731,0,0,0-.714,1.385q-.057,8.215.151,16.43a1.652,1.652,0,0,0,.984,1.463,30.3,30.3,0,0,0,13.139,2.267q1.147-.038,2.293-.088a6.65,6.65,0,0,0,5.951-5.11q1.065-4.731,1.96-9.4a5.935,5.935,0,0,0-5.9-6.811q-3.505-.05-7.011-.068a13.882,13.882,0,0,0,1.042-5.93C165.1,13.19,161.831,11.638,160.41,11.64Z" transform="translate(-142.136 -11.64)" fill="#fff"/><path d="M.756,188.665a4.007,4.007,0,0,0,3.436,3.125q.85.109,1.7.2a2.089,2.089,0,0,0,2.426-2.1Q8,181.092,8.084,172.3a2.277,2.277,0,0,0-2.567-2.174q-.874.064-1.75.142a3.647,3.647,0,0,0-3.394,3,54.559,54.559,0,0,0,.384,15.4Z" transform="translate(0.001 -159.276)" fill="#fff"/></svg>