<svg xmlns="http://www.w3.org/2000/svg" width="20.953" height="20" viewBox="0 0 20.953 20"><g transform="translate(0.001 -11.64)"><path d="M157.262,11.64c-.856,0-1.288.45-1.3,2.676,0,1.9-1.655,3.478-2.954,4.422a1.035,1.035,0,0,0-.427.829q-.034,4.915.09,9.83a.988.988,0,0,0,.588.875,18.127,18.127,0,0,0,7.861,1.357q.686-.023,1.372-.052a3.978,3.978,0,0,0,3.56-3.057q.637-2.83,1.172-5.623A3.551,3.551,0,0,0,163.7,18.82q-2.1-.03-4.195-.041a8.308,8.308,0,0,0,.623-3.548C160.067,12.567,158.112,11.639,157.262,11.64Z" transform="translate(-146.329 0)" fill="#8e8e8e"/><path d="M.452,181.214a2.4,2.4,0,0,0,2.056,1.87q.509.065,1.017.12a1.25,1.25,0,0,0,1.452-1.258q-.192-5.263-.14-10.525a1.362,1.362,0,0,0-1.536-1.3q-.523.038-1.047.085A2.182,2.182,0,0,0,.222,172a32.642,32.642,0,0,0,.23,9.216Z" transform="translate(0 -151.99)" fill="#8e8e8e"/></g></svg>