<svg xmlns="http://www.w3.org/2000/svg" width="31.572" height="31.571" viewBox="0 0 31.572 31.571"><g transform="translate(0 0)"><g transform="translate(0 0)"><path d="M88.1,252.339l1.571-1.57a.831.831,0,0,0,0-1.176l-2.35-2.35a.831.831,0,0,0-1.176,0l-1.57,1.571A17.555,17.555,0,0,1,88.1,252.339Z" transform="translate(-58.341 -247)" fill="#fff" fill-rule="evenodd"/><path d="M15.786,31.569A15.785,15.785,0,1,1,31.571,15.784,15.8,15.8,0,0,1,15.786,31.569Zm0-29.908A14.123,14.123,0,1,0,29.91,15.784,14.139,14.139,0,0,0,15.786,1.662Zm-.83,26.559h0a12.343,12.343,0,0,1-7.372-3.058l1.742-1.74A.831.831,0,1,0,8.15,22.247L6.408,23.989A12.346,12.346,0,0,1,3.35,16.615H5.816a.831.831,0,1,0,0-1.662H3.35A12.346,12.346,0,0,1,6.408,7.58L8.15,9.323A.831.831,0,1,0,9.325,8.148L7.583,6.405a12.342,12.342,0,0,1,7.374-3.057V5.814a.831.831,0,1,0,1.662,0V3.349a12.34,12.34,0,0,1,7.372,3.057L22.249,8.148a.831.831,0,0,0,1.175,1.175l1.74-1.743a12.331,12.331,0,0,1,3.057,7.374H25.755a.831.831,0,0,0,0,1.662h2.466a12.328,12.328,0,0,1-3.057,7.374l-1.74-1.743a.831.831,0,0,0-1.175,1.175l1.741,1.74a12.328,12.328,0,0,1-7.37,3.057l0-2.463a.831.831,0,1,0-1.662,0V28.22Zm-1.145-9.357h0l-1.36.433a3.207,3.207,0,0,0,3.186,2.378c2.149,0,3.483-1.409,3.483-3.678a3.239,3.239,0,0,0-3.395-3.515,2.649,2.649,0,0,0-1.66.54V12.553H18.4v-1.39H12.719V16.53h1.287a2.223,2.223,0,0,1,1.662-.7,1.972,1.972,0,0,1,2,2.169,2.029,2.029,0,0,1-2.019,2.257,1.915,1.915,0,0,1-1.84-1.39Z" transform="translate(0 0.001)" fill="#fff"/></g></g></svg>