<svg xmlns="http://www.w3.org/2000/svg" width="33.606" height="37.143" viewBox="0 0 33.606 37.143"><g transform="translate(0 0)"><g transform="translate(0)"><g transform="translate(10.612)"><path d="M65.884,242.769H76.5a.884.884,0,0,0,0-1.769H65.884a.884.884,0,0,0,0,1.769Z" transform="translate(-65 -241)" fill="#fff" fill-rule="evenodd"/></g><path d="M58.683,248.932,56.97,247.22a.87.87,0,0,0-1.189.039l-.008.008c-.773.753-1.748,1.729-2.513,2.494a.884.884,0,0,0,0,1.251l1.672,1.671A18.687,18.687,0,0,1,58.683,248.932Z" transform="translate(-53 -243.463)" fill="#fff" fill-rule="evenodd"/><path d="M88.325,252.683,90,251.011a.885.885,0,0,0,0-1.251l-2.5-2.5a.885.885,0,0,0-1.251,0l-1.671,1.672A18.689,18.689,0,0,1,88.325,252.683Z" transform="translate(-56.651 -243.463)" fill="#fff" fill-rule="evenodd"/><path d="M69.8,247A16.8,16.8,0,1,1,53,263.8,16.811,16.811,0,0,1,69.8,247Zm0,1.769A15.034,15.034,0,1,0,84.837,263.8,15.041,15.041,0,0,0,69.8,248.769Zm.884,1.8a13.209,13.209,0,0,1,7.848,3.254l-1.854,1.854a.884.884,0,0,0,1.25,1.25l1.854-1.854a13.208,13.208,0,0,1,3.254,7.848H80.415a.884.884,0,0,0,0,1.769h2.624a13.208,13.208,0,0,1-3.254,7.848l-1.854-1.854a.884.884,0,1,0-1.25,1.25l1.854,1.854a13.208,13.208,0,0,1-7.848,3.253v-2.624a.884.884,0,0,0-1.769,0v2.624a13.208,13.208,0,0,1-7.848-3.253l1.854-1.854a.884.884,0,1,0-1.25-1.25l-1.854,1.854a13.208,13.208,0,0,1-3.254-7.848H59.19a.884.884,0,1,0,0-1.769H56.567a13.208,13.208,0,0,1,3.254-7.848l1.854,1.854a.884.884,0,0,0,1.25-1.25l-1.854-1.854a13.208,13.208,0,0,1,7.848-3.253v2.624a.884.884,0,1,0,1.769,0Zm.259,10.842a2.653,2.653,0,1,0,1.25,1.25l3.537-3.537a.884.884,0,1,0-1.25-1.25Zm-1.143,1.51a.884.884,0,1,1-.884.884A.885.885,0,0,1,69.8,262.918Z" transform="translate(-53 -243.463)" fill="#fff" fill-rule="evenodd"/></g></g></svg>