<svg xmlns="http://www.w3.org/2000/svg" width="18.095" height="20" viewBox="0 0 18.095 20"><g transform="translate(-53 -243)"><g transform="translate(53 243)"><g transform="translate(5.714)"><path d="M65.476,241.952H71.19a.476.476,0,0,0,0-.952H65.476a.476.476,0,0,0,0,.952Z" transform="translate(-65 -241)" fill="#8e8e8e" fill-rule="evenodd"/></g><path d="M56.06,248.042l-.922-.922a.469.469,0,0,0-.64.021l0,0c-.416.406-.941.931-1.353,1.343a.476.476,0,0,0,0,.674l.9.9A10.062,10.062,0,0,1,56.06,248.042Z" transform="translate(-53 -245.097)" fill="#8e8e8e" fill-rule="evenodd"/><path d="M86.594,250.06l.9-.9a.476.476,0,0,0,0-.674l-1.347-1.347a.476.476,0,0,0-.674,0l-.9.9A10.063,10.063,0,0,1,86.594,250.06Z" transform="translate(-69.539 -245.095)" fill="#8e8e8e" fill-rule="evenodd"/><path d="M62.048,247A9.048,9.048,0,1,1,53,256.048,9.052,9.052,0,0,1,62.048,247Zm0,.952a8.1,8.1,0,1,0,8.1,8.1A8.1,8.1,0,0,0,62.048,247.952Zm.476.968a7.112,7.112,0,0,1,4.226,1.752l-1,1a.476.476,0,0,0,.673.673l1-1a7.112,7.112,0,0,1,1.752,4.226H67.762a.476.476,0,1,0,0,.952h1.413a7.112,7.112,0,0,1-1.752,4.226l-1-1a.476.476,0,0,0-.673.673l1,1a7.112,7.112,0,0,1-4.226,1.752v-1.413a.476.476,0,0,0-.952,0v1.413a7.112,7.112,0,0,1-4.226-1.752l1-1a.476.476,0,0,0-.673-.673l-1,1a7.112,7.112,0,0,1-1.752-4.226h1.413a.476.476,0,1,0,0-.952H54.92a7.112,7.112,0,0,1,1.752-4.226l1,1a.476.476,0,0,0,.673-.673l-1-1a7.112,7.112,0,0,1,4.226-1.752v1.413a.476.476,0,1,0,.952,0Zm.14,5.838a1.428,1.428,0,1,0,.673.673l1.9-1.9a.476.476,0,0,0-.673-.673Zm-.616.813a.476.476,0,1,1-.476.476A.476.476,0,0,1,62.048,255.571Z" transform="translate(-53 -245.095)" fill="#8e8e8e" fill-rule="evenodd"/></g></g></svg>