<svg xmlns="http://www.w3.org/2000/svg" width="17.941" height="20" viewBox="0 0 17.941 20"><g transform="translate(-5.429 -3.75)"><path d="M15.383,4.519a.769.769,0,0,1,.769-.769h4.092a.769.769,0,1,1,0,1.538H16.153A.769.769,0,0,1,15.383,4.519Z" transform="translate(-3.829)" fill="#fff" fill-rule="evenodd"/><path d="M19.616,10.863a7.4,7.4,0,0,0-10.48,0h0a7.411,7.411,0,0,0,10.48,10.482h0a7.421,7.421,0,0,0,0-10.482ZM8.046,9.776a8.94,8.94,0,0,1,12.658,0h0A8.95,8.95,0,0,1,8.047,22.432h0a8.959,8.959,0,0,1,0-12.656Z" transform="translate(0 -1.308)" fill="#fff" fill-rule="evenodd"/><path d="M19.165,12.75a.769.769,0,0,1,.769.769v3.71a1.282,1.282,0,1,1-1.538,0v-3.71A.769.769,0,0,1,19.165,12.75Z" transform="translate(-4.79 -3.462)" fill="#fff" fill-rule="evenodd"/><path d="M30.305,9.825a.769.769,0,0,1,0,1.088l-.892.892a.769.769,0,0,1-1.088-1.088l.892-.892A.769.769,0,0,1,30.305,9.825Z" transform="translate(-8.72 -2.25)" fill="#fff" fill-rule="evenodd"/><path d="M28.992,7.292a.769.769,0,0,1,1.088,0l2.041,2.041a.769.769,0,1,1-1.088,1.088L28.992,8.38a.769.769,0,0,1,0-1.088Z" transform="translate(-8.976 -1.276)" fill="#fff" fill-rule="evenodd"/></g></svg>