<svg xmlns="http://www.w3.org/2000/svg" width="20.001" height="20" viewBox="0 0 20.001 20"><g transform="translate(-53 -247)"><g transform="translate(53 247)"><path d="M86.807,250.382l1-.995a.526.526,0,0,0,0-.745l-1.488-1.488a.526.526,0,0,0-.745,0l-.995,1A11.121,11.121,0,0,1,86.807,250.382Z" transform="translate(-67.955 -247)" fill="#8e8e8e" fill-rule="evenodd"/><path d="M10,20A10,10,0,1,1,20,10,10.012,10.012,0,0,1,10,20ZM10,1.053A8.947,8.947,0,1,0,18.948,10,8.957,8.957,0,0,0,10,1.053ZM9.475,17.878h0A7.819,7.819,0,0,1,4.8,15.94l1.1-1.1a.526.526,0,1,0-.744-.744l-1.1,1.1a7.824,7.824,0,0,1-1.937-4.671H3.685a.526.526,0,1,0,0-1.053H2.123A7.826,7.826,0,0,1,4.059,4.8l1.1,1.1a.526.526,0,1,0,.744-.744l-1.1-1.1A7.818,7.818,0,0,1,9.475,2.121V3.683a.527.527,0,1,0,1.053,0V2.121A7.819,7.819,0,0,1,15.2,4.058l-1.1,1.1a.526.526,0,0,0,.745.744l1.1-1.1a7.808,7.808,0,0,1,1.937,4.671H16.316a.526.526,0,0,0,0,1.053h1.562A7.81,7.81,0,0,1,15.941,15.2l-1.1-1.1a.526.526,0,0,0-.745.744l1.1,1.1a7.81,7.81,0,0,1-4.669,1.936v-1.56a.527.527,0,1,0-1.053,0v1.561ZM8.75,11.95h0l-.862.275a2.031,2.031,0,0,0,2.019,1.506,2.107,2.107,0,0,0,2.207-2.33A2.052,2.052,0,0,0,9.962,9.174a1.678,1.678,0,0,0-1.051.342V7.952H11.66V7.072h-3.6v3.4h.815a1.407,1.407,0,0,1,1.052-.445A1.249,1.249,0,0,1,11.194,11.4a1.285,1.285,0,0,1-1.279,1.43A1.213,1.213,0,0,1,8.75,11.95Z" transform="translate(0 0.001)" fill="#8e8e8e"/></g></g></svg>