<svg xmlns="http://www.w3.org/2000/svg" width="36.674" height="35" viewBox="0 0 36.674 35"><g transform="translate(-4 -6.009)"><g transform="translate(4 6.009)"><path d="M14.076,50.062a2.873,2.873,0,0,0,3.416.97l5.368-2.213a1.026,1.026,0,0,1,.931.043l4.087,2.087a3,3,0,0,0,3.008-.264l9.305-6.877a2.92,2.92,0,0,0,1.121-2.814l-.827-4.745a1.179,1.179,0,0,1,.115-.718l1.151-2.3a2.88,2.88,0,0,0-.226-3.014L40.173,28.38a2.885,2.885,0,0,0-4.037-.6l-1.9,1.394a4.379,4.379,0,0,0-6.9,3.589,4.206,4.206,0,0,0,.245,1.358l-6.239,4.605a4.335,4.335,0,0,0-2.542-.813A4.394,4.394,0,0,0,14.41,42.3a4.2,4.2,0,0,0,.245,1.357l-1.112.819a2.879,2.879,0,0,0-.623,4.016Zm25.071-7.655-9.29,6.866a1.222,1.222,0,0,1-1.211.107l-3.183-1.624L38.925,37.469l.666,3.825A1.156,1.156,0,0,1,39.147,42.407ZM31.72,30.119a2.663,2.663,0,0,1,1.871.772,2.637,2.637,0,1,1-4.2,3.085,2.392,2.392,0,0,1-.315-1.215,2.644,2.644,0,0,1,2.641-2.641ZM18.8,39.659a2.585,2.585,0,0,1,1.881.78,2.645,2.645,0,0,1-1.881,4.5,2.614,2.614,0,0,1-2.327-1.424,2.392,2.392,0,0,1-.315-1.215A2.644,2.644,0,0,1,18.8,39.659Zm-4.219,6.225.946-.7a4.3,4.3,0,0,0,3.274,1.5,4.374,4.374,0,0,0,3.735-6.671l5.916-4.367a4.3,4.3,0,0,0,3.272,1.5,4.381,4.381,0,0,0,3.723-6.7l1.724-1.263a1.145,1.145,0,0,1,1.6.226l1.346,1.827a1.141,1.141,0,0,1,.082,1.2l-1.148,2.3a2.7,2.7,0,0,0-.2.6L23.567,47.009a2.75,2.75,0,0,0-1.392.2l-5.347,2.2a1.125,1.125,0,0,1-1.345-.388l-1.156-1.569a1.117,1.117,0,0,1,.251-1.575Z" transform="translate(-8.88 -18.376)" fill="#fbaa00"/><path d="M24.13,9.748c.264.961-.531,2.336-1.449,3.929A4.559,4.559,0,0,0,22.1,17.7a4.833,4.833,0,0,0,2.865,2.533l.83.258.52-1.657-.826-.266a3.093,3.093,0,0,1-1.766-1.514,2.946,2.946,0,0,1,.468-2.5c1.116-1.932,2.08-3.6,1.623-5.266a4.945,4.945,0,0,0-2.663-2.848l-.761-.428-.856,1.522.761.428C23.366,8.56,23.966,9.145,24.13,9.748Z" transform="translate(-14.228 -6.009)" fill="#fbaa00"/><path d="M32.122,21.643l.489.723,1.445-.981-.489-.723a.644.644,0,0,1-.142-.516,1.825,1.825,0,0,1,.746-.9c2.01-1.774,2.9-2.763,1.224-5.8l-.422-.765-1.529.846.422.763c1.076,1.948.893,2.108-.776,3.6a3.274,3.274,0,0,0-1.375,1.9A2.393,2.393,0,0,0,32.122,21.643Z" transform="translate(-20.139 -9.902)" fill="#fbaa00"/><path d="M4,85.8H40.674v1.748H4Z" transform="translate(-4 -52.546)" fill="#fbaa00"/></g></g></svg>