<svg xmlns="http://www.w3.org/2000/svg" width="55" height="55" viewBox="0 0 55 55"><g transform="translate(-1021.5 -628.206)"><g transform="translate(1021.5 628.206)"><g transform="translate(0)"><path d="M27.5,0A27.5,27.5,0,1,0,55,27.5,27.5,27.5,0,0,0,27.5,0" transform="translate(0 0)" fill-rule="evenodd"/></g></g><path d="M33.567,14.82,46.316,0H43.3L32.225,12.868,23.383,0h-10.2L26.556,19.459,13.185,35h3.021L27.9,21.411,37.234,35h10.2L33.566,14.82Zm-4.138,4.81-1.355-1.938L17.295,2.274h4.641l8.7,12.443,1.355,1.938L43.3,32.829H38.656l-9.227-13.2Z" transform="translate(1018.314 638.206)" fill="#fff"/></g></svg>