<svg xmlns="http://www.w3.org/2000/svg" width="43.188" height="43.188" viewBox="0 0 43.188 43.188"><g transform="translate(-1503 -5202)"><path d="M17.438-.5H24.75A17.923,17.923,0,0,1,42.688,17.438V24.75A17.923,17.923,0,0,1,24.75,42.688H17.438A17.923,17.923,0,0,1-.5,24.75V17.438A17.923,17.923,0,0,1,17.438-.5ZM24.75,41.688A16.957,16.957,0,0,0,41.688,24.75V17.438A16.957,16.957,0,0,0,24.75.5H17.438A16.957,16.957,0,0,0,.5,17.438V24.75A16.957,16.957,0,0,0,17.438,41.688Z" transform="translate(1503.5 5202.5)" fill="#e8e8f6"/><path d="M22.5,6.775,28.331,0H26.95L21.889,5.883,17.847,0H13.185L19.3,8.9,13.185,16h1.381L19.91,9.788,24.179,16h4.662L22.5,6.775Zm-1.892,2.2-.619-.886L15.064,1.04h2.121l3.977,5.688.619.886,5.169,7.394H24.829L20.611,8.974Z" transform="translate(1503.814 5216)" fill="#55b5ff"/></g></svg>