<svg xmlns="http://www.w3.org/2000/svg" width="55" height="55" viewBox="0 0 55 55"><circle cx="27.5" cy="27.5" r="27.5" fill="#31bc1f"/><g transform="translate(13.858 13.749)"><path d="M61.642,42.047A13.641,13.641,0,0,0,39.787,57.831l-1.447,7.027a.514.514,0,0,0,.083.409.525.525,0,0,0,.557.217l6.875-1.632a13.641,13.641,0,0,0,15.776-21.8Zm-2.149,17.14A10.7,10.7,0,0,1,47.19,61.2l-.962-.478-4.223,1V61.67l.89-4.259-.47-.926a10.68,10.68,0,0,1,17.068-12.4l.047.065a10.682,10.682,0,0,1-.054,15.045Z" transform="translate(-38.299 -37.997)" fill="#fff"/><path d="M71.045,68.587a4.459,4.459,0,0,1-2.363,2.059c-1.809.434-4.563,0-8.011-3.188l-.043-.04c-3-2.8-3.8-5.135-3.618-6.984a4.426,4.426,0,0,1,1.719-2.623.984.984,0,0,1,1.538.362l1.111,2.511a.977.977,0,0,1-.119,1l-.564.724a.959.959,0,0,0-.076,1.067,10.493,10.493,0,0,0,1.907,2.12,11.279,11.279,0,0,0,2.641,1.892.959.959,0,0,0,1.046-.221l.648-.659a.981.981,0,0,1,.988-.275l2.641.756a.991.991,0,0,1,.557,1.5Z" transform="translate(-50.224 -50.494)" fill="#fff"/></g></svg>